<svg xmlns="http://www.w3.org/2000/svg" xmlns:xlink="http://www.w3.org/1999/xlink" viewBox="0 0 1830 1830"><defs><style>.cls-1{fill:none;}.cls-2{fill:#f2e6dc;}.cls-3{fill:#f7f1eb;}.cls-4{fill:#d3bba3;}.cls-5{fill:#fff;}.cls-6{fill:#8b865c;}.cls-7{fill:#84524d;}.cls-8{fill:#e2a18d;}.cls-9{fill:#363e44;}.cls-10{fill:#9e9569;}.cls-11{fill:#efbc73;}.cls-12{fill:#d87355;}.cls-13{fill:#776e42;}.cls-14{fill:#e0aa63;}.cls-15{clip-path:url(#clip-path);}</style><clipPath id="clip-path"><path class="cls-1" d="M1191,960.48s-17.11-18.44-40.48-21.06S1106.39,951,1106.39,951s17.11,18.45,40.48,21.07S1191,960.48,1191,960.48Z"/></clipPath></defs><g id="Layer_2" data-name="Layer 2"><g id="Illustration"><g id="Computer_programming_camp" data-name="Computer programming camp"><circle class="cls-2" cx="915" cy="915" r="915"/><path class="cls-3" d="M1406.72,175.85c-95.56,135.57-51.3,250.14,51.73,322.75s225.8,75.8,321.35-59.77S1804.49,7.66,1804.49,7.66,1502.28,40.28,1406.72,175.85Z"/><path class="cls-4" d="M1260.53,780.39a1,1,0,0,1-.57-.19,1,1,0,0,1-.24-1.39l474.12-672.64a1,1,0,0,1,1.63,1.15L1261.35,780A1,1,0,0,1,1260.53,780.39Z"/><path class="cls-4" d="M1457.6,504.39l-6.69-257.47a1,1,0,0,1,1-1h0a1,1,0,0,1,1,1l6.39,245.94,117.81-358.47a1,1,0,0,1,1.27-.64A1,1,0,0,1,1579,135Z"/><path class="cls-4" d="M1453.28,501.35,1760.4,262.81a1,1,0,0,1,1.23,1.58l-298,231.47L1697.4,419.2a1,1,0,1,1,.62,1.9Z"/><path class="cls-5" d="M1123.49,396.1c16,111.8,91.42,147.89,176.38,135.75s147.28-67.92,131.3-179.73S1242,127,1242,127,1107.51,284.3,1123.49,396.1Z"/><path class="cls-2" d="M1333,764.4a1,1,0,0,1-1-.86l-79.29-554.71a1,1,0,1,1,2-.29L1334,763.26a1,1,0,0,1-.85,1.13Z"/><path class="cls-2" d="M1303.23,536.64,1178.35,410.9a1,1,0,1,1,1.42-1.41l116.75,117.56-108.29-231a1,1,0,0,1,1.81-.85Z"/><path class="cls-2" d="M1298,537.39l41-263.46a1,1,0,0,1,2,.31L1301.75,526.3l79.14-145.56a1,1,0,0,1,1.76.95Z"/><path class="cls-5" d="M665.94,1245.48H640.59a234.61,234.61,0,0,0-9.62-36l21.93-12.67L610,1122.54l-22,12.69a236.06,236.06,0,0,0-26.32-26.31l12.7-22L500.1,1044,487.43,1066a233.47,233.47,0,0,0-36-9.62V1031H365.66v25.35a233.77,233.77,0,0,0-36,9.62L317,1044l-74.3,42.9,12.69,22a236.83,236.83,0,0,0-26.31,26.31l-22-12.69-42.9,74.3,21.94,12.66a234.61,234.61,0,0,0-9.62,36H151.18v85.79h25.35a234.61,234.61,0,0,0,9.62,36l-21.94,12.67,42.9,74.29,22-12.69a237.77,237.77,0,0,0,26.31,26.32l-12.69,22,74.3,42.9h0l12.66-21.94a233.77,233.77,0,0,0,36,9.62v25.35h85.79V1520.4a233.47,233.47,0,0,0,36-9.62l12.67,21.94h0l74.3-42.9-12.7-22A237,237,0,0,0,588,1441.52l22,12.69,42.89-74.29L631,1367.25a234.61,234.61,0,0,0,9.62-36h25.35ZM550.66,1293c-2.38,74.44-63,135.07-137.45,137.44a142.17,142.17,0,0,1-146.75-146.75c2.38-74.44,63-135.07,137.44-137.44A142.18,142.18,0,0,1,550.66,1293Z"/><path class="cls-2" d="M408.56,1477.05c-104,0-188.67-84.64-188.67-188.67A188.73,188.73,0,0,1,380.3,1101.8a1,1,0,0,1,.3,2c-90.48,13.59-158.71,93-158.71,184.6,0,102.93,83.74,186.67,186.67,186.67a186.62,186.62,0,0,0,180.69-139.64,1,1,0,0,1,1.94.51A188.63,188.63,0,0,1,408.56,1477.05Z"/><path class="cls-6" d="M225.06,724.93s-6.5,53.91-111.56,58.92C18.82,788.36-31.1,575.45,86.88,401.7a199.59,199.59,0,0,1,107-78.88c87.76-26.69,267.47-60,531.72-6.63,85.32,17.24,200.92,230,230.06,274.19,29.33,44.52,53,144.87-32.79,164.76-40.74,9.45-83.05-7.84-106.83-42.25l-22.56-32.66L854.63,902.4H230.32Z"/><path class="cls-7" d="M473.2,13.3S405.62,4.59,324.54,15s-62.8,68.62-122.33,30.84C133.32,2.16,65.47-1.24,44.64,60.2s18.07,89.71,18.07,89.71c-4.66,18.52-3.2,32.85.21,43.73C86.2,268,239.89,309,336.3,265.49c27.92-12.6,88.38-49.16,88.38-49.16h0Z"/><path class="cls-8" d="M351.35,295.74l48-132.25,58.08,44.81v87.44S416.28,331.93,351.35,295.74Z"/><path class="cls-8" d="M538,91.86s-13.63,132.77-69.75,137c-33.95,2.57-65.07-36.47-72.62-54.8s0-48.28,0-48.28,11.4,10.68,20.56,3.62S414.77,78,455.06,79.83,499.72,98.67,538,91.86Z"/><path class="cls-9" d="M453.85,230.7a1.09,1.09,0,0,1-.26,0c-18.74-5.13-36.54-21.38-45.86-35.22a1,1,0,0,1,.27-1.38,1,1,0,0,1,1.39.27c9.11,13.52,26.48,29.41,44.72,34.4a1,1,0,0,1,.71,1.23A1,1,0,0,1,453.85,230.7Z"/><path class="cls-8" d="M414.47,139.29c3.44,10.72.11,30.23-10.6,33.66s-24.76-10.5-28.2-21.22a20.37,20.37,0,1,1,38.8-12.44Z"/><path class="cls-5" d="M535,137.45c-.11.25,0,.51-.14.75,0,0,0,0,0,0a64.22,64.22,0,0,0-.76,11.58c.1,1.68.82,2.86,1.09,4.43.2,1.16.39,2.27.63,3.4a53.85,53.85,0,0,0,18.07-15.55A56.87,56.87,0,0,0,535,137.45Z"/><path class="cls-9" d="M522.62,138.6c-14.34,3.77-23.77,16-25.3,18.08l.26.57c2.69,1.21,16.69,7,30.79,3.26a37.33,37.33,0,0,0,7.41-2.85,23.23,23.23,0,0,0,1.2-2.9,21.16,21.16,0,0,0-2-17.29A40.13,40.13,0,0,0,522.62,138.6Z"/><path class="cls-5" d="M459.3,139.88c-1.45,4.26-1.76,7.76-.51,11.89a54.72,54.72,0,0,0,19.7,1.24s-4.34-13.43-15.06-22.37C461.36,133.23,460.34,136.85,459.3,139.88Z"/><path class="cls-9" d="M458.57,151.71a21.23,21.23,0,0,0,4.84-21.05,35.54,35.54,0,0,0-3.85-2.81c-13.77-8.59-30.93-5.94-30.93-5.94s5.17,16.57,18.94,25.16A39.8,39.8,0,0,0,458.57,151.71Z"/><path class="cls-9" d="M386.48,153.7a1,1,0,0,1-1-.71,12.78,12.78,0,0,1,1.24-10.33,8.94,8.94,0,0,1,6.37-4.21,8.46,8.46,0,0,1,3.89.4,1,1,0,1,1-.65,1.89,6.58,6.58,0,0,0-3-.31,7,7,0,0,0-4.94,3.31,10.14,10.14,0,0,0-1.42,6.81,11.26,11.26,0,0,0,.4,1.85,1,1,0,0,1-.65,1.25A1,1,0,0,1,386.48,153.7Z"/><path class="cls-9" d="M491.18,175.34a1,1,0,0,1-.62-1.78,6.34,6.34,0,0,0,2.67-4c.19-1.46-.46-2.61-1.37-4.18a22.12,22.12,0,0,1-2.17-4.7,19,19,0,0,1-.58-8.14,1,1,0,0,1,2,.27,16.9,16.9,0,0,0,.51,7.28,20.82,20.82,0,0,0,2,4.29c1,1.7,1.9,3.3,1.63,5.43a8.3,8.3,0,0,1-3.41,5.34A1,1,0,0,1,491.18,175.34Z"/><path class="cls-9" d="M475,192.16a8.79,8.79,0,0,1-4.83-1.37c-4.28-2.75-5.07-8.62-5.1-8.87a1,1,0,0,1,2-.25c0,.05.71,5.21,4.2,7.44,1.88,1.21,4.3,1.37,7.18.47a1,1,0,0,1,.59,1.91A13.42,13.42,0,0,1,475,192.16Z"/><path class="cls-7" d="M404.38,96.42l149.54,8.2S564.81-3,428.63,13.5C364.86,21.23,404.38,96.42,404.38,96.42Z"/><rect class="cls-4" x="292.02" y="357.17" width="785.22" height="49.49"/><path class="cls-4" d="M785.07,803.31H291V356.17h787.22V487.44a1,1,0,1,1-2,0V358.17H293V801.31H785.07a1,1,0,1,1,0,2Z"/><path class="cls-5" d="M333.18,374c9.17,12.05-4.45,25.67-16.5,16.49C307.51,378.46,321.13,364.84,333.18,374Z"/><path class="cls-5" d="M369.55,374c9.18,12.05-4.45,25.67-16.49,16.49C343.88,378.46,357.5,364.84,369.55,374Z"/><path class="cls-5" d="M405.92,374c9.18,12.05-4.44,25.67-16.49,16.49C380.25,378.46,393.87,364.84,405.92,374Z"/><rect class="cls-5" x="338.2" y="444.17" width="692.87" height="314.01"/><rect class="cls-2" x="375.78" y="478.59" width="217.27" height="244.9"/><path class="cls-8" d="M63.43,720.32a101.87,101.87,0,0,0,24.36,29.35c40.89,34.06,101.64,29.1,137.93-9.84L335.79,621.71a95.63,95.63,0,0,1,48.07-27.81c20.64-4.87,45.47-13.37,44.48-25.9C426.66,546.67,383,551.54,383,551.54s55-3.84,52.88-20.24-59.79-19.77-59.79-19.77,51.61-4.39,52.28-23.45S372.53,477,372.53,477s36.63-1.93,36.42-18.31-57.18-15.05-95.63,0C285.9,469.4,165.58,545,98.77,587.51,54.24,615.85,38,674.07,63.43,720.32Z"/><path class="cls-9" d="M368.41,583.71a1,1,0,0,1-1-.7l-3-9.69a1,1,0,1,1,1.91-.6l3,9.69a1,1,0,0,1-.66,1.26A1,1,0,0,1,368.41,583.71Z"/><path class="cls-9" d="M357,547.19a1,1,0,0,1-1-.7l-4.65-14.89a1,1,0,0,1,1.91-.6L358,545.89a1,1,0,0,1-.95,1.3Z"/><path class="cls-9" d="M344.81,508.21a1,1,0,0,1-.95-.7l-3.27-10.44a1,1,0,0,1,1.91-.6l3.27,10.44a1,1,0,0,1-.66,1.25A1,1,0,0,1,344.81,508.21Z"/><path class="cls-9" d="M333.89,473.26a1,1,0,0,1-1-.7l-2.3-7.37a1,1,0,0,1,.66-1.25,1,1,0,0,1,1.25.65l2.3,7.37a1,1,0,0,1-.66,1.26A.92.92,0,0,1,333.89,473.26Z"/><path class="cls-8" d="M1125.89,470.27c-5-4.45-10.17-6.34-20.26-9.95-49.82-17.81-80.5-5.41-80.61,3.41-.17,12.53,19.34,17.34,31.13,19.1-17-1.52-53-2.84-52.39,13.11.74,20.89,57.28,25.69,57.28,25.69s-63.17,3.7-65.5,21.66c-2,15.64,43.31,20.85,55.13,21.94-10.23-.71-45.33-1.68-46.91,18.27-.77,9.87,30.56,21.73,48.73,28.38,5.83,2.13,29.53,9.67,39.36,5.29,2.51-1.12,11.82-5.28,23.09-19.86C1143.45,560.42,1154.68,495.79,1125.89,470.27Z"/><polygon class="cls-9" points="1420.26 1325.58 379.45 1325.58 590.06 563.02 1630.87 563.02 1420.26 1325.58"/><polygon class="cls-10" points="1540.37 656.45 628.96 656.45 636.36 629.65 1547.77 629.65 1540.37 656.45"/><path class="cls-11" d="M1460.79,719.83h-730a1,1,0,0,1,0-2h730a1,1,0,0,1,0,2Z"/><path class="cls-12" d="M1486,778H880a1,1,0,0,1,0-2h606a1,1,0,0,1,0,2Z"/><path class="cls-11" d="M1122.17,836.24H814a1,1,0,0,1,0-2h308.19a1,1,0,0,1,0,2Z"/><path class="cls-12" d="M1150.86,894.44h-272a1,1,0,1,1,0-2h272a1,1,0,0,1,0,2Z"/><path class="cls-12" d="M1052.14,952.65H831.76a1,1,0,0,1,0-2h220.38a1,1,0,0,1,0,2Z"/><path class="cls-11" d="M1251.28,1010.85H643.51a1,1,0,0,1,0-2h607.77a1,1,0,0,1,0,2Z"/><path class="cls-11" d="M1144,1069.06H687.7a1,1,0,0,1,0-2H1144a1,1,0,1,1,0,2Z"/><path class="cls-6" d="M889.12,1127.27c-138.4,0-139.59-1.56-140.23-2.39a1.16,1.16,0,0,1-.19-.94,1,1,0,0,1,1.23-.69,1,1,0,0,1,.43.24c11.73,3.32,358.83,1.27,541.64-.28h0a1,1,0,1,1,0,2c-1.34,0-136.26,1.15-269.86,1.73C967.63,1127.17,924,1127.27,889.12,1127.27Z"/><path class="cls-6" d="M938.83,1185.47H664.15a1,1,0,1,1,0-2H938.83a1,1,0,1,1,0,2Z"/><path class="cls-11" d="M988.12,1243.68H725.55a1,1,0,0,1,0-2H988.12a1,1,0,1,1,0,2Z"/><polygon class="cls-13" points="1034.22 1436.09 946.51 1751.13 1431.56 1751.13 1372.59 1431.46 1034.22 1436.09"/><polygon class="cls-8" points="1254.74 1705.84 1337.28 1684.52 1372.59 1797.58 1223.59 1830 1200.01 1713.35 1254.74 1705.84"/><path class="cls-4" d="M905.15,1828.88h327.18l-22-121.48s-138.78-59.8-290.47,29C919.88,1736.37,882.49,1782.08,905.15,1828.88Z"/><path class="cls-9" d="M1137.66,1798.11a1,1,0,0,1-1-1v-74.49a1,1,0,0,1,2,0v74.49A1,1,0,0,1,1137.66,1798.11Z"/><path class="cls-9" d="M1116.52,1798.11a1,1,0,0,1-1-1v-74.49a1,1,0,0,1,2,0v74.49A1,1,0,0,1,1116.52,1798.11Z"/><path class="cls-6" d="M1241,1621.75l91.9,207.13s255.6-53.89,433.37-165.11a135.6,135.6,0,0,0,45.17-183.36c-.53-.9-1.06-1.8-1.6-2.7-31.62-52.85-95.64-76.79-154.64-59.11C1560.74,1446.93,1384.51,1510.25,1241,1621.75Z"/><polygon class="cls-8" points="1248.37 1744.17 1096.85 1647.61 1042.32 1797.58 1191.32 1830 1248.37 1744.17"/><path class="cls-5" d="M1506.27,1828.88H1182.59l22-114.78s119.69-69.63,262.62-16C1467.19,1698.07,1486.24,1738.8,1506.27,1828.88Z"/><path class="cls-9" d="M1277.25,1798.11a1,1,0,0,1-1-1v-74.49a1,1,0,0,1,2,0v74.49A1,1,0,0,1,1277.25,1798.11Z"/><path class="cls-9" d="M1298.4,1798.11a1,1,0,0,1-1-1v-74.49a1,1,0,0,1,2,0v74.49A1,1,0,0,1,1298.4,1798.11Z"/><path class="cls-6" d="M1173.9,1621.75,1082,1828.88S826.4,1775,648.62,1663.77a135.6,135.6,0,0,1-45.16-183.36c.53-.9,1.06-1.8,1.6-2.7,31.62-52.85,95.64-76.79,154.63-59.11C854.18,1446.93,1030.4,1510.25,1173.9,1621.75Z"/><path class="cls-8" d="M1592.75,1480.11h0a61.3,61.3,0,0,1-81.48-17.73L1431.56,1348,1524,1195.43l128.12,169.93C1690.07,1431.46,1629.77,1468,1592.75,1480.11Z"/><path class="cls-8" d="M1566.12,1488.64s-206.58,34.92-209.93,34.92H1248.37l227.3-158.2Z"/><path class="cls-8" d="M825.48,1480.11h0A61.3,61.3,0,0,0,907,1462.38l79.71-111.15-92.43-155.8L766.12,1365.36C728.16,1431.46,788.46,1468,825.48,1480.11Z"/><path class="cls-8" d="M852.11,1488.64s206.58,34.92,209.93,34.92h107.82l-227.3-158.2Z"/><path class="cls-5" d="M1594.08,1263.22s-99.21-184.75-393.87-180.31c-330.32,5-384.43,202.42-384.43,202.42l175.15,73.06,5.34,146.29h436.66V1355.15Z"/><rect class="cls-11" x="990.44" y="1269.08" width="436.82" height="261.89" transform="translate(2417.7 2800.06) rotate(180)"/><rect class="cls-11" x="990.44" y="1538.11" width="436.82" height="26.81" transform="translate(2417.7 3103.03) rotate(180)"/><path class="cls-14" d="M1232.59,1413.84h-47.48a1,1,0,0,1-1-1v-47.48a1,1,0,0,1,1-1h47.48a1,1,0,0,1,1,1v47.48A1,1,0,0,1,1232.59,1413.84Zm-46.48-2h45.48v-45.48h-45.48Z"/><path class="cls-14" d="M1408.36,1291.12h-399a1,1,0,0,1,0-2h399a1,1,0,0,1,0,2Z"/><ellipse class="cls-8" cx="1195.46" cy="1119.71" rx="106.08" ry="37.27"/><polygon class="cls-8" points="1246.57 1101.32 1145.5 1127.77 1145.5 916.88 1246.57 916.88 1246.57 1101.32"/><path class="cls-8" d="M1089.26,1040.37c18.83,26.16,105.46,2.22,105.46,2.22l69.14-31.57c14.67-42.91-8.45-128.35-51.35-143h0a82.11,82.11,0,0,0-104.25,51.14S1070.08,1013.73,1089.26,1040.37Z"/><path class="cls-8" d="M1110.21,942.63s-29.6,15.39-30.5,21.81c-1.07,7.67,21.7,20.35,21.7,20.35S1109.61,942.49,1110.21,942.63Z"/><path class="cls-9" d="M1134.3,1054.78a1,1,0,0,1,0-2c10.67-.47,36.68-4,46.16-5.64a1,1,0,0,1,1.15.81,1,1,0,0,1-.81,1.16c-9.77,1.7-35.48,5.18-46.41,5.67Z"/><path class="cls-5" d="M1191,960.48s-11.63-12.53-28.82-18.41c-3.65-1.25-6.75,30.37-2.72,29.9A78.25,78.25,0,0,0,1191,960.48Z"/><g class="cls-15"><path class="cls-9" d="M1161.73,941.07a30.76,30.76,0,1,0-14.06,41.16A30.76,30.76,0,0,0,1161.73,941.07Z"/></g><path class="cls-9" d="M1123.42,1007.7a13.67,13.67,0,0,1-10.72-5.2,1,1,0,0,1,1.56-1.24,11.61,11.61,0,0,0,20.49-4.78,1,1,0,1,1,2,.42,13.59,13.59,0,0,1-13.28,10.8Z"/><path class="cls-9" d="M1229.21,1002.54a1,1,0,0,1-.74-.33,1,1,0,0,1,.08-1.41c6-5.36,9.72-11.74,9.85-17.06a6.43,6.43,0,0,0-1.55-4.82c-2.62-2.58-9.62-2.33-17,.61a1,1,0,0,1-1.3-.56,1,1,0,0,1,.56-1.3c6.36-2.52,15.19-4.09,19.16-.18a8.25,8.25,0,0,1,2.15,6.3c-.15,5.87-4.08,12.78-10.52,18.5A1,1,0,0,1,1229.21,1002.54Z"/><path class="cls-12" d="M1255.12,1031c18-1.34,35.22-46.85,36.69-54.63,5.07-26.93,8.82-53.31-12.1-85.86-28.16-43.8-85.07-41.36-97.56-39.8-33.87,4.23-62.44,27.32-58.54,38.24,3.37,9.42,39.08,10,49.69,10.93,25.69,2.31,37.87-.9,42.67,6.76,4.4,7-7.24,15.73-12.75,37.34-4.08,16-1.56,29.26-.26,37.59,5.33-14.18,17.57-23,29.53-23.15,12.49-.14,19.1,9.48,22,18,6.51,19.12-6,39-21.33,47.86C1237.17,1028.22,1249.11,1031.4,1255.12,1031Z"/><path class="cls-12" d="M1278.93,888.9A37.07,37.07,0,1,0,1316,851.83,37.08,37.08,0,0,0,1278.93,888.9Z"/><path class="cls-12" d="M1319.51,942.19a38.07,38.07,0,1,1,38.08-38.07A38.11,38.11,0,0,1,1319.51,942.19Zm0-74.14a36.07,36.07,0,1,0,36.08,36.07A36.11,36.11,0,0,0,1319.51,868.05Z"/><path class="cls-12" d="M1167.26,965.05a1,1,0,0,1-.55-.17c-17.65-11.7-25.45-21.4-23.84-29.64,1-4.93,5-7.81,8.87-10.59,3.54-2.54,6.89-4.94,7.24-8.57.57-5.8-9.66-14.46-27.35-23.16a1,1,0,1,1,.88-1.79c19,9.35,29.13,18.28,28.46,25.14-.44,4.54-4.31,7.32-8.07,10-3.57,2.56-7.26,5.21-8.07,9.35-1.41,7.26,6.32,16.54,23,27.59a1,1,0,0,1-.56,1.84Z"/><path class="cls-9" d="M1600.64,1097.69a1,1,0,0,1-.75-.33l-46.23-51.87L1629,993.82a1,1,0,0,1,1.39.26,1,1,0,0,1-.25,1.39l-73.47,50.38,44.72,50.18a1,1,0,0,1-.08,1.41A1,1,0,0,1,1600.64,1097.69Z"/><path class="cls-9" d="M1698.83,1097.69a1,1,0,0,1-.57-1.82l73.47-50.38L1727,995.31a1,1,0,0,1,1.49-1.33l46.24,51.87-75.34,51.67A1,1,0,0,1,1698.83,1097.69Z"/><path class="cls-9" d="M1625,1094.55a1,1,0,0,1-.64-.23,1,1,0,0,1-.14-1.41l79-96.11a1,1,0,0,1,1.55,1.27l-79,96.11A1,1,0,0,1,1625,1094.55Z"/></g></g></g></svg>