<svg xmlns="http://www.w3.org/2000/svg" viewBox="0 0 1830 1830"><defs><style>.cls-1{fill:#f2e6dc;}.cls-2{fill:#fff;}.cls-3{fill:#e6d0be;}.cls-4{fill:#363e44;}.cls-5{fill:#f7f1eb;}.cls-6{fill:#8b865c;}.cls-7{fill:#9e9569;}.cls-8{fill:#776e42;}.cls-9{fill:#2d353a;}.cls-10{fill:#e2a18d;}.cls-11{fill:#efbc73;}.cls-12{fill:#bc8271;}.cls-13{fill:#d87355;}.cls-14{fill:#d3bba3;}</style></defs><g id="Layer_2" data-name="Layer 2"><g id="Illustration"><g id="Big_data_programming" data-name="Big data programming"><circle class="cls-1" cx="915" cy="915" r="915"/><path class="cls-2" d="M1228.43,898.22s-584.17-19.39-589.69,2L466.82,1568.14h942.83l171.93-667.87C1587.09,878.84,1228.43,898.22,1228.43,898.22Z"/><polygon class="cls-3" points="1600.22 827.85 657.38 827.85 638.74 900.27 1581.58 900.27 1600.22 827.85"/><ellipse class="cls-2" cx="696.09" cy="864.56" rx="18.73" ry="14.49" transform="translate(-397.58 675.11) rotate(-41.33)"/><ellipse class="cls-2" cx="749.31" cy="864.56" rx="18.73" ry="14.49" transform="translate(-384.32 710.27) rotate(-41.33)"/><ellipse class="cls-2" cx="802.54" cy="864.56" rx="18.73" ry="14.49" transform="translate(-371.06 745.41) rotate(-41.33)"/><polygon class="cls-3" points="1202.32 1115.94 635.53 1115.94 641.95 1091.03 1208.73 1091.03 1202.32 1115.94"/><polygon class="cls-3" points="1443.76 1115.94 1240.06 1115.94 1246.47 1091.03 1450.17 1091.03 1443.76 1115.94"/><polygon class="cls-3" points="1040.78 1196.42 877.31 1196.42 883.73 1171.51 1047.18 1171.51 1040.78 1196.42"/><polygon class="cls-3" points="1402.93 1196.42 1078.51 1196.42 1084.92 1171.51 1409.34 1171.51 1402.93 1196.42"/><polygon class="cls-3" points="978.64 1437.85 815.18 1437.85 821.59 1412.94 985.05 1412.94 978.64 1437.85"/><polygon class="cls-3" points="1340.79 1437.85 1016.37 1437.85 1022.78 1412.94 1347.2 1412.94 1340.79 1437.85"/><polygon class="cls-3" points="1301.73 1276.89 957.2 1276.89 963.61 1251.99 1308.15 1251.99 1301.73 1276.89"/><polygon class="cls-3" points="1120.07 1357.37 936.49 1357.37 942.9 1332.46 1126.48 1332.46 1120.07 1357.37"/><path class="cls-4" d="M739.07,1048.15a1,1,0,0,1-.8-.4l-30.61-41.21,51.6-41a1,1,0,0,1,1.24,1.57l-50.08,39.83,29.45,39.65a1,1,0,0,1-.2,1.4A1,1,0,0,1,739.07,1048.15Z"/><path class="cls-4" d="M805.3,1048.15a1,1,0,0,1-.78-.38,1,1,0,0,1,.16-1.4l50.08-39.83-29.45-39.66a1,1,0,1,1,1.6-1.19l30.61,41.21-51.6,41A1,1,0,0,1,805.3,1048.15Z"/><path class="cls-4" d="M755.52,1045.66a1,1,0,0,1-.58-.19,1,1,0,0,1-.23-1.39l54.5-76.17a1,1,0,0,1,1.4-.23,1,1,0,0,1,.23,1.39l-54.5,76.17A1,1,0,0,1,755.52,1045.66Z"/><path class="cls-3" d="M875.8,150.53V664.66c0,36.69,109.1,66.44,243.68,66.44s243.68-29.75,243.68-66.44V150.53Z"/><path class="cls-2" d="M1119.48,732.1c-65.18,0-126.47-6.92-172.57-19.49-46.51-12.68-72.12-29.71-72.12-48V149.53h489.37V664.66c0,18.24-25.61,35.27-72.11,48C1245.94,725.18,1184.66,732.1,1119.48,732.1ZM876.79,151.53V664.66c0,17,25.75,33.78,70.64,46,45.94,12.52,107.05,19.42,172.05,19.42s126.1-6.9,172-19.42c44.89-12.24,70.63-29,70.63-46V151.53Z"/><ellipse class="cls-2" cx="1119.48" cy="150.42" rx="243.68" ry="66.44"/><ellipse class="cls-1" cx="1119.48" cy="145.46" rx="191.93" ry="41.94"/><path class="cls-2" d="M1119.48,389.28c-65.18,0-126.47-6.92-172.57-19.5-46.51-12.68-72.12-29.7-72.12-47.94a1,1,0,1,1,2,0c0,17,25.75,33.77,70.64,46,45.94,12.53,107,19.43,172.05,19.43s126.1-6.9,172-19.43c44.89-12.24,70.63-29,70.63-46a1,1,0,1,1,2,0c0,18.24-25.61,35.26-72.11,47.94C1245.94,382.36,1184.66,389.28,1119.48,389.28Z"/><path class="cls-2" d="M1119.48,560.69c-65.18,0-126.47-6.92-172.57-19.49-46.51-12.68-72.12-29.71-72.12-48a1,1,0,0,1,2,0c0,17,25.75,33.78,70.64,46,45.94,12.52,107,19.42,172.05,19.42s126.1-6.9,172-19.42c44.89-12.24,70.63-29,70.63-46a1,1,0,0,1,2,0c0,18.24-25.61,35.27-72.11,48C1245.94,553.77,1184.66,560.69,1119.48,560.69Z"/><path class="cls-3" d="M1167.79,279.62V793.75c0,36.69,109.1,66.44,243.68,66.44s243.68-29.75,243.68-66.44V279.62Z"/><path class="cls-2" d="M1411.47,861.19c-65.18,0-126.47-6.92-172.57-19.5-46.51-12.68-72.11-29.7-72.11-47.94V278.62h489.36V793.75c0,18.24-25.61,35.26-72.11,47.94C1537.93,854.27,1476.65,861.19,1411.47,861.19ZM1168.79,280.62V793.75c0,17,25.74,33.77,70.63,46,45.94,12.53,107,19.43,172,19.43s126.1-6.9,172-19.43c44.89-12.24,70.63-29,70.63-46V280.62Z"/><ellipse class="cls-2" cx="1411.47" cy="279.51" rx="243.68" ry="66.44"/><ellipse class="cls-1" cx="1411.47" cy="274.54" rx="191.93" ry="41.94"/><path class="cls-2" d="M1411.47,518.37c-65.18,0-126.47-6.93-172.57-19.5-46.51-12.68-72.11-29.71-72.11-47.95a1,1,0,0,1,2,0c0,17,25.74,33.78,70.63,46,45.94,12.53,107,19.43,172,19.43s126.1-6.9,172-19.43c44.89-12.24,70.63-29,70.63-46a1,1,0,0,1,2,0c0,18.24-25.61,35.27-72.11,47.95C1537.93,511.44,1476.65,518.37,1411.47,518.37Z"/><path class="cls-2" d="M1411.47,689.78c-65.18,0-126.47-6.92-172.57-19.5-46.51-12.68-72.11-29.7-72.11-47.94a1,1,0,0,1,2,0c0,17,25.74,33.77,70.63,46,45.94,12.53,107,19.43,172,19.43s126.1-6.9,172-19.43c44.89-12.24,70.63-29,70.63-46a1,1,0,0,1,2,0c0,18.24-25.61,35.26-72.11,47.94C1537.93,682.86,1476.65,689.78,1411.47,689.78Z"/><path class="cls-5" d="M1585.08,620.68s-371.8-12.34-375.31,1.3l-109.43,425.07h600.08L1809.84,622C1813.35,608.34,1585.08,620.68,1585.08,620.68Z"/><polygon class="cls-6" points="1821.7 575.89 1221.63 575.89 1209.76 621.99 1809.84 621.99 1821.7 575.89"/><path class="cls-2" d="M1256.75,599.26c-1.49,5.79-7.39,10.48-13.18,10.48s-9.28-4.69-7.79-10.48,7.39-10.49,13.18-10.49S1258.24,593.47,1256.75,599.26Z"/><path class="cls-2" d="M1290.62,599.26c-1.49,5.79-7.39,10.48-13.18,10.48s-9.28-4.69-7.79-10.48,7.4-10.49,13.19-10.49S1292.11,593.47,1290.62,599.26Z"/><path class="cls-2" d="M1324.5,599.26c-1.49,5.79-7.39,10.48-13.18,10.48s-9.28-4.69-7.79-10.48,7.39-10.49,13.18-10.49S1326,593.47,1324.5,599.26Z"/><polygon class="cls-6" points="1568.46 759.25 1207.72 759.25 1211.8 743.39 1572.54 743.39 1568.46 759.25"/><polygon class="cls-7" points="1722.12 759.25 1592.48 759.25 1596.56 743.39 1726.2 743.39 1722.12 759.25"/><polygon class="cls-8" points="1465.64 810.47 1361.61 810.47 1365.69 794.62 1469.72 794.62 1465.64 810.47"/><polygon class="cls-6" points="1696.14 810.47 1489.66 810.47 1493.74 794.62 1700.22 794.62 1696.14 810.47"/><polygon class="cls-7" points="1426.09 964.13 1322.06 964.13 1326.14 948.28 1430.17 948.28 1426.09 964.13"/><polygon class="cls-8" points="1656.59 964.13 1450.11 964.13 1454.19 948.28 1660.67 948.28 1656.59 964.13"/><polygon class="cls-7" points="1631.73 861.69 1412.45 861.69 1416.53 845.84 1635.81 845.84 1631.73 861.69"/><polygon class="cls-6" points="1516.11 912.91 1399.27 912.91 1403.35 897.06 1520.19 897.06 1516.11 912.91"/><path class="cls-4" d="M1273.62,716.47a1,1,0,0,1-.8-.41l-19.69-26.51,33.11-26.33a1,1,0,1,1,1.25,1.56l-31.6,25.13,18.53,25a1,1,0,0,1-.21,1.4A1,1,0,0,1,1273.62,716.47Z"/><path class="cls-4" d="M1315.77,716.47a1,1,0,0,1-.78-.38,1,1,0,0,1,.16-1.41l31.6-25.13-18.54-24.95a1,1,0,0,1,1.61-1.2l19.69,26.51-33.12,26.34A1,1,0,0,1,1315.77,716.47Z"/><path class="cls-4" d="M1284.09,714.88a1,1,0,0,1-.58-.19,1,1,0,0,1-.23-1.39L1318,664.82a1,1,0,1,1,1.62,1.17l-34.68,48.47A1,1,0,0,1,1284.09,714.88Z"/><path class="cls-4" d="M395.06,581.65S676.15,715.34,856.75,478.74c0,0-105.59-108.55-190.85-143.25S499.84,351,395.06,581.65Z"/><path class="cls-4" d="M559.58,357.5s-24-127.39-131.58-82.31c-75.65,31.71-27.09,102.9,17,110.57C490.45,393.68,559.58,357.5,559.58,357.5Z"/><path class="cls-4" d="M560.57,357.63l-2-.25c.08-.63,7.57-63.19-22.42-84.54-15.69-11.16-39-9.25-69.2,5.68l-.89-1.8c30.94-15.28,54.92-17.13,71.25-5.5C568.28,293.25,560.9,355,560.57,357.63Z"/><path class="cls-9" d="M456.09,584.31H456a1,1,0,0,1-.91-1.08c4.8-55.15,21-94.8,33.75-118.36,13.83-25.56,26.73-38.26,26.86-38.39a1,1,0,0,1,1.39,1.43c-.12.13-12.85,12.67-26.54,38-12.64,23.38-28.7,62.74-33.47,117.49A1,1,0,0,1,456.09,584.31Z"/><path class="cls-9" d="M479.35,370.9c-17.37,0-32.9-5-46.44-15-21.45-15.79-29.49-38.38-29.47-39.59a1,1,0,0,1,1-1h0a1,1,0,0,1,1,.95c.34,2.27,10.09,26.64,33.35,41.21,20.89,13.08,46.33,14.86,75.62,5.28a1,1,0,0,1,1.26.64,1,1,0,0,1-.63,1.26C502.42,368.84,490.5,370.9,479.35,370.9Z"/><path class="cls-10" d="M739.23,536.47c-19.54,25-103.79-1.92-103.79-1.92l-65-71.84a80.79,80.79,0,1,1,154.84-46.16S759.12,511,739.23,536.47Z"/><path class="cls-10" d="M652,663.28,696.35,488,601.3,464.54l-44.4,175.3A48.95,48.95,0,1,0,652,663.28Z"/><path class="cls-10" d="M722.43,439.56s28.5,16.28,29.14,22.63c.76,7.58-22.13,19.17-22.13,19.17S723,439.44,722.43,439.56Z"/><path class="cls-2" d="M652.47,467.47A70.16,70.16,0,0,1,672.25,444c2.8-2.05,13.91,24.22,10.33,24.9A70.36,70.36,0,0,1,652.47,467.47Z"/><path class="cls-4" d="M693.4,465.57c19.33-8.51,29.06-28.89,29.06-28.89s-21.6-6.6-40.93,1.91a49.38,49.38,0,0,0-9.25,5.39,27.61,27.61,0,0,0,10.28,24.9A49.73,49.73,0,0,0,693.4,465.57Z"/><path class="cls-4" d="M711,502a12,12,0,0,1-3.45-.5,12.42,12.42,0,0,1-8.67-9.76,1,1,0,0,1,2-.34,10.32,10.32,0,0,0,18,5,1,1,0,1,1,1.52,1.3A12.42,12.42,0,0,1,711,502Z"/><path class="cls-4" d="M698.05,549.17H698c-29.2-1.8-62.12-12.23-62.45-12.33a1,1,0,1,1,.61-1.91c.32.11,33,10.46,62,12.24a1,1,0,0,1-.06,2Z"/><path class="cls-4" d="M566.38,511.78c-23.07-11.06-30.16-65.45-16-100.28,18.28-44.92,71.28-71.43,114.1-67.82,10.52.89,34.58,6,42.57,21,6.22,11.68-5.64,36-25.72,42.94-28.24,9.81-69,3.87-53.18,35.45,24.31,48.41-23.65,37.36-31.66,48.41C582.22,511.2,582.61,519.56,566.38,511.78Z"/><circle class="cls-10" cx="590.16" cy="481.36" r="34.69" transform="translate(-167.52 558.29) rotate(-45)"/><path class="cls-4" d="M818.38,1100.49v-2a131.19,131.19,0,0,0,79.08-26.94l1.21,1.59A133.13,133.13,0,0,1,818.38,1100.49Z"/><path class="cls-11" d="M58.93,943.72v145.7c0,123.73,158.57,174.85,230.84,74.42l244.5-339.79H269.76L101.87,934Z"/><path class="cls-4" d="M300.22,1035.47a1,1,0,0,1-1-1l-2.59-54a1,1,0,0,1,.95-1,1,1,0,0,1,1.05,1l2.59,54a1,1,0,0,1-1,1Z"/><path class="cls-12" d="M1530.46,955.53c1.12-11.45-9.34-22.56-12.15-24.7,9.7-3.67,18.21-11.08,18.85-24.54.57-11.95-12.13-22.11-13.29-22.93,1.24-.68,15.67-1.39,19.37-18.59,2.51-11.63-5.22-22.28-8.42-25,57.77-5.52,60.06-10.84,60.73-23.49.85-16.08-117.68-17.54-193.64-18.11a178.07,178.07,0,0,0-90.28,23.8c-71.44,41.15-210.51,121.16-212.13,121.19-1.11,4.75-29,210.46,19.71,271.29,5-.47,226.2-226.83,268.36-230.26,32.18-2.62,92.53-5.53,114.67-6.42C1514.31,977.31,1529,970.41,1530.46,955.53Z"/><path class="cls-4" d="M1365.11,911.82a1,1,0,0,1-.39-1.92c21.09-8.89,33.11-23.23,42.77-34.76,10-11.9,17.19-20.5,28.83-16.23,8.38,3.07,19.49,2.53,33-1.61a8.47,8.47,0,0,0,6-7.72,8.71,8.71,0,0,0-5.09-8.68L1408,812.38a1,1,0,1,1,.84-1.82l62.28,28.52a10.77,10.77,0,0,1,6.24,10.63,10.41,10.41,0,0,1-7.41,9.51c-14,4.26-25.51,4.79-34.31,1.56-10.32-3.78-16.8,4-26.61,15.65s-22,26.23-43.52,35.31A1.09,1.09,0,0,1,1365.11,911.82Z"/><path class="cls-4" d="M1463.7,966.89a1,1,0,0,1-1-.95c-.83-18.71,12.79-35,31-37.1l4.39-.51-17.48-1.79a23.45,23.45,0,0,1-14.85-38.65,22.35,22.35,0,0,1,15.72-7.75l17.44-1a18.84,18.84,0,0,1-16.61-19.28,18.56,18.56,0,0,1,16.87-18.16l24.87-2.07a1,1,0,0,1,1.08.91,1,1,0,0,1-.92,1.08l-24.87,2.07a16.57,16.57,0,0,0-15,16.22A16.82,16.82,0,0,0,1500,877.22l17.19.89a1,1,0,0,1,0,2l-35.54,2a20.45,20.45,0,0,0-14.34,7.07,21.35,21.35,0,0,0-5.16,15.9,21.11,21.11,0,0,0,18.71,19.45l26.63,2.73a1,1,0,0,1,0,2l-13.52,1.55c-17.17,2-30,17.36-29.23,35a1,1,0,0,1-1,1Z"/><path class="cls-11" d="M809.94,1041l169.11,172.73a106,106,0,0,0,147.72,3.64l98.82-91.44-91.51-202.07-78.81,42L887.82,672.52Z"/><path class="cls-2" d="M1062.68,950.46l91.69-49s93,107.9,109.81,194.87l-97.8,94.53s-35.65-69.29-1.58-156.52C1164.8,1034.38,1080.61,997.66,1062.68,950.46Z"/><path class="cls-11" d="M176.32,873.86,271.5,717.1A161.74,161.74,0,0,1,409,639.32l415.08-2A75.87,75.87,0,0,1,898.73,698l49.34,241.3c16.84,82.33-45.67,159.54-129.69,160.21l-403.28,3.23a100.75,100.75,0,0,1-100.81-113c3.15-25.71,5.24-45.68,4.18-46C315.47,942.74,176.32,873.86,176.32,873.86Z"/><path class="cls-4" d="M898.06,1073.34a1,1,0,0,1-.61-1.79A131.71,131.71,0,0,0,947.1,939.48L911.77,766.73a1,1,0,0,1,2-.4l35.32,172.75a133.81,133.81,0,0,1-6.36,75.69,135.28,135.28,0,0,1-44,58.37A1,1,0,0,1,898.06,1073.34Z"/><path class="cls-4" d="M342.68,1042h-.09a1,1,0,0,1-.91-1.09l11.56-127a1,1,0,1,1,2,.18l-11.56,127A1,1,0,0,1,342.68,1042Z"/><polygon class="cls-2" points="453.67 637.02 530 782.52 613.21 655.45 616.99 643.31 562.97 606 453.67 637.02"/><polygon class="cls-2" points="774.27 637.02 697.94 782.52 614.74 655.45 610.95 643.31 666.02 607.73 774.27 637.02"/><path class="cls-12" d="M75.75,711.23h0c-3.83,150.35-3.89,139.85-13.1,251.19H287c-9.77-140.19-15.1-238-18.39-274.4a89,89,0,0,0-5.34-25c-15.24-40.51-52-43.27-87.48-78.55-40.24-40-40.24-85.36-54.68-84.09-10,.88-14.86,18-11.18,53.6h0c-5.9-26.74-15.49-62.65-30.26-59.34-16.84,4.73-10.53,48.24-5.42,74.38-6.18-31.64-18.94-46.61-26.71-42.72-12.23,6.13-13.16,31.78-3.37,73.28h0c-14.76-26.77-22.33-31.06-28.36-25.94-11,9.35-2.33,43.31,10,72.15C39.58,678.32,61.57,698.71,75.75,711.23Z"/><path class="cls-12" d="M200.77,624.47c-.78-56.16,10.84-76.59,19.75-76.43,15,.27,35.27,48,46.74,129.89C247.4,664.7,220.63,637.7,200.77,624.47Z"/><path class="cls-4" d="M166.32,712.47a1,1,0,0,1-1-1,71.06,71.06,0,0,0-12.11-39.05c-13.86-20.46-34.46-27.3-42.68-29.3a1,1,0,1,1,.47-1.94c8.44,2,29.62,9.08,43.86,30.11a73.07,73.07,0,0,1,12.46,40.15,1,1,0,0,1-1,1Z"/><path class="cls-4" d="M246.65,640.75a1,1,0,0,1-.72-.3c-8.49-8.69-19-15.25-30.12-22.19-5.27-3.29-10.73-6.7-16.31-10.53a1,1,0,1,1,1.13-1.64c5.54,3.8,11,7.19,16.24,10.47,11.23,7,21.83,13.63,30.49,22.5a1,1,0,0,1,0,1.41A1,1,0,0,1,246.65,640.75Z"/><path class="cls-4" d="M136.25,598.84a1,1,0,0,1-.74-.32,112,112,0,0,1-25-43.58,1,1,0,0,1,1.91-.58,109.8,109.8,0,0,0,24.6,42.8,1,1,0,0,1-.06,1.41A1,1,0,0,1,136.25,598.84Z"/><path class="cls-4" d="M99.9,609.75a1,1,0,0,1-.73-.32,112,112,0,0,1-25-43.57,1,1,0,0,1,1.91-.59,110,110,0,0,0,24.59,42.8,1,1,0,0,1,0,1.42A1,1,0,0,1,99.9,609.75Z"/><path class="cls-4" d="M69.49,644.48a1,1,0,0,1-.73-.32,111.84,111.84,0,0,1-25-43.57,1,1,0,0,1,1.91-.59,110,110,0,0,0,24.59,42.8,1,1,0,0,1,0,1.42A1,1,0,0,1,69.49,644.48Z"/><path class="cls-2" d="M55.21,847.49V973.6s122.92-17.75,241.39-3l.83-121.55s-82.54,16.24-129.26,94.63C168.17,943.72,99.21,842.63,55.21,847.49Z"/><path class="cls-6" d="M215.31,1504.65c94.36-229.77,111-245.32,203.33-375.17v-74.32H835.21v71l111,703.35c-81.65,2.75-239.15-2.81-413.91-83.26A917.54,917.54,0,0,1,215.31,1504.65Z"/><rect class="cls-4" x="452.39" y="1130.78" width="375.51" height="2"/><path class="cls-4" d="M556.56,1738.21a1,1,0,0,1-.34-.06,1,1,0,0,1-.6-1.28l114.29-317.35a1,1,0,0,1,.94-.66H732.8a1,1,0,0,1,0,2H671.55l-114,316.69A1,1,0,0,1,556.56,1738.21Z"/><path class="cls-4" d="M544.81,1297.12a1,1,0,0,1-1-.95l-8.47-149.69c-2.87,12.88-9.26,41.54-15.65,69.92-5,22.35-9.09,40.16-12,52.94-5.73,24.77-5.77,24.77-6.77,24.88a1,1,0,0,1-1-.59,1,1,0,0,1,.1-1c1.78-4.95,23.6-102.33,35-153.62a1,1,0,0,1,1.06-.78,1,1,0,0,1,.92.94l8.87,156.9a1,1,0,0,1-.94,1.06Z"/><path class="cls-4" d="M765.9,1297.12h-.06a1,1,0,0,1-.94-1.06l8.87-156.9a1,1,0,0,1,2-.16c11.4,51.29,33.22,148.67,35,153.62a1,1,0,0,1,.1,1,1,1,0,0,1-1,.59c-1-.11-1-.11-6.76-24.88-3-12.78-7-30.59-12-52.94-6.4-28.38-12.79-57-15.66-69.92l-8.46,149.69A1,1,0,0,1,765.9,1297.12Z"/><path class="cls-2" d="M367.77,533.85H358A90.08,90.08,0,0,0,354.31,520l8.45-4.88-16.51-28.59-8.46,4.89a91.41,91.41,0,0,0-10.13-10.13l4.89-8.46L304,456.33h0l-4.88,8.45a90.08,90.08,0,0,0-13.84-3.71v-9.75h-33v9.75a90.39,90.39,0,0,0-13.84,3.71l-4.87-8.45-28.59,16.51,4.88,8.46a92.28,92.28,0,0,0-10.13,10.13l-8.46-4.89-16.5,28.59,8.44,4.88a90.06,90.06,0,0,0-3.7,13.84h-9.76v33h9.76a90.18,90.18,0,0,0,3.7,13.85l-8.44,4.87,16.5,28.59,8.46-4.88a92.19,92.19,0,0,0,10.13,10.12l-4.88,8.47,28.59,16.5,4.87-8.44a90.37,90.37,0,0,0,13.84,3.7v9.76h33v-9.76a90.06,90.06,0,0,0,13.84-3.7l4.88,8.44h0l28.59-16.5-4.89-8.47a91.32,91.32,0,0,0,10.13-10.12l8.46,4.88,16.51-28.59-8.45-4.87A90.21,90.21,0,0,0,358,566.86h9.75Zm-31,43.16a68.46,68.46,0,0,1-41.34,41.34C235,640,179.13,584.13,200.74,523.7a68.51,68.51,0,0,1,41.34-41.34C302.51,460.76,358.33,516.59,336.72,577Z"/><path class="cls-3" d="M346.65,260.73H331.06a143.44,143.44,0,0,0-5.91-22.12l13.48-7.79-26.37-45.68L298.74,193a145.41,145.41,0,0,0-16.18-16.18l7.81-13.52-45.68-26.37h0l-7.79,13.49a144.3,144.3,0,0,0-22.12-5.92V128.86H162v15.59a144.49,144.49,0,0,0-22.11,5.92l-7.79-13.49L86.45,163.25l7.8,13.52A145.41,145.41,0,0,0,78.07,193l-13.52-7.81L38.18,230.82l13.49,7.79a144.61,144.61,0,0,0-5.92,22.12H30.17v52.75H45.75a144.61,144.61,0,0,0,5.92,22.12l-13.49,7.78,26.37,45.69,13.52-7.81a145.41,145.41,0,0,0,16.18,16.18L86.45,411l45.68,26.37,7.79-13.49A144.49,144.49,0,0,0,162,429.76v15.59h52.75V429.76a144.3,144.3,0,0,0,22.12-5.92l7.79,13.49h0L290.37,411l-7.81-13.52a145.41,145.41,0,0,0,16.18-16.18l13.52,7.81,26.37-45.69-13.48-7.78a143.44,143.44,0,0,0,5.91-22.12h15.59Zm-49.61,69A109.42,109.42,0,0,1,231,395.74C134.45,430.26,45.25,341.06,79.77,244.52a109.46,109.46,0,0,1,66.06-66.05C242.37,144,331.56,233.15,297,329.69Z"/><path class="cls-6" d="M1437.38,1426.19c27.23,154.39,21.51,284.45,21.51,284.45S1409,1590.38,1381.81,1436s-21.51-284.46-21.51-284.46S1410.16,1271.79,1437.38,1426.19Z"/><path class="cls-6" d="M1558.47,1485.76c-46.51,149.72-111.16,262.71-111.16,262.71s10.76-129.74,57.27-279.45,111.16-262.72,111.16-262.72S1605,1336,1558.47,1485.76Z"/><path class="cls-6" d="M1493.43,1569.13l-.4-4.48c-.09-1-8.31-96.77,6.46-209.88s47.33-203.59,47.66-204.49l1.53-4.23.4,4.48c.09,1,8.31,96.77-6.46,209.88l-1-.13,1,.13c-14.77,113.1-47.33,203.59-47.66,204.49Zm54-413.64c-6.71,19.65-33.1,101-46,199.54s-8.25,184-6.81,204.66c6.71-19.65,33.1-101,46-199.54S1548.89,1176.2,1547.45,1155.49Z"/><path class="cls-6" d="M1443,1649.64l-1.2-4.34c-.35-1.25-34.87-127.36-42.88-282.24s13.3-283.88,13.52-285.16l.75-4.44,1.2,4.34c.35,1.25,34.87,127.36,42.88,282.24h0c8,154.88-13.31,283.88-13.52,285.16Zm-29.32-566.72c-3.71,24.53-19.91,142-12.77,280s35.38,253.21,41.6,277.22c3.71-24.53,19.91-142,12.76-280S1419.89,1106.93,1413.67,1082.92Z"/><path class="cls-6" d="M1498.77,1478.84c-20.41,155.44-64.93,277.78-64.93,277.78s-11.43-129.69,9-285.13,64.93-277.77,64.93-277.77S1519.18,1323.4,1498.77,1478.84Z"/><path class="cls-13" d="M1361.88,1522.63c-9.1,27.92-14.25,59.65-14.25,93.3,0,65.19,19.3,123.17,49.26,160.2h155c30-37,49.25-95,49.25-160.2,0-33.65-5.14-65.38-14.24-93.3Z"/><path class="cls-14" d="M1749.9,187.29H1370.67a1,1,0,0,1,0-2H1748.9V63.69a1,1,0,0,1,2,0v122.6A1,1,0,0,1,1749.9,187.29Z"/><path class="cls-14" d="M1749.9,63.7a25.51,25.51,0,1,1,25.51-25.51A25.53,25.53,0,0,1,1749.9,63.7Zm0-49a23.51,23.51,0,1,0,23.51,23.51A23.54,23.54,0,0,0,1749.9,14.68Z"/><path class="cls-14" d="M1654.88,187.29a1,1,0,0,1-1-1V129.87a1,1,0,1,1,2,0v56.42A1,1,0,0,1,1654.88,187.29Z"/><path class="cls-14" d="M1654.88,129.18a25.51,25.51,0,1,1,25.51-25.51A25.53,25.53,0,0,1,1654.88,129.18Zm0-49a23.51,23.51,0,1,0,23.51,23.51A23.54,23.54,0,0,0,1654.88,80.16Z"/><path class="cls-14" d="M819.55,275.54H670.23a1,1,0,0,1-1-1V64.14H406.17a1,1,0,0,1,0-2H670.23a1,1,0,0,1,1,1v210.4H819.55a1,1,0,0,1,0,2Z"/><path class="cls-14" d="M381.66,88.65a25.51,25.51,0,1,1,25.51-25.51A25.54,25.54,0,0,1,381.66,88.65Zm0-49a23.51,23.51,0,1,0,23.51,23.51A23.54,23.54,0,0,0,381.66,39.63Z"/><path class="cls-14" d="M752.4,137.68a25.52,25.52,0,1,1,25.51-25.51A25.54,25.54,0,0,1,752.4,137.68Zm0-49a23.52,23.52,0,1,0,23.51,23.52A23.54,23.54,0,0,0,752.4,88.65Z"/><path class="cls-14" d="M752.4,251.37a1,1,0,0,1-1-1V136.68a1,1,0,1,1,2,0V250.37A1,1,0,0,1,752.4,251.37Z"/><path class="cls-2" d="M1491.92,1722.23H1049.45a1,1,0,0,1-1-1V1592a1,1,0,0,1,2,0v128.26h441.47a1,1,0,0,1,0,2Z"/><path class="cls-2" d="M1519.22,1749.47a28.59,28.59,0,1,1,28.58-28.58A28.61,28.61,0,0,1,1519.22,1749.47Zm0-55.17a26.59,26.59,0,1,0,26.58,26.59A26.62,26.62,0,0,0,1519.22,1694.3Z"/><path class="cls-14" d="M1700.22,1328.3a1,1,0,0,1-1-1V1151.62h-89a1,1,0,0,1-1-1v-78.28a1,1,0,0,1,2,0v77.28h89a1,1,0,0,1,1,1V1327.3A1,1,0,0,1,1700.22,1328.3Z"/><path class="cls-14" d="M1700.22,1380.48a25.61,25.61,0,1,1,25.61-25.61A25.64,25.64,0,0,1,1700.22,1380.48Zm0-49.22a23.61,23.61,0,1,0,23.61,23.61A23.64,23.64,0,0,0,1700.22,1331.26Z"/></g></g></g></svg>