<svg xmlns="http://www.w3.org/2000/svg" viewBox="0 0 211.17 196.28"><defs><style>.cls-1,.cls-7{fill:#ffd563;}.cls-12,.cls-2,.cls-4,.cls-6,.cls-8{fill:none;}.cls-2,.cls-7{stroke:#ffd563;}.cls-10,.cls-12,.cls-13,.cls-14,.cls-15,.cls-2,.cls-3,.cls-4,.cls-5,.cls-6,.cls-7,.cls-8{stroke-miterlimit:10;}.cls-3{fill:#2b292d;stroke-width:1.27px;opacity:0.25;}.cls-3,.cls-6{stroke:#2b292d;}.cls-4{stroke:#fff;}.cls-4,.cls-6{stroke-width:1.3px;}.cls-5{fill:#ff69d4;stroke:#ff69d4;}.cls-7{stroke-width:1.12px;}.cls-10,.cls-8{stroke:#6565f2;}.cls-8{stroke-linecap:round;stroke-width:1.74px;}.cls-9{fill:#ff8056;}.cls-11,.cls-9{opacity:0.21;}.cls-10{fill:#6565f2;}.cls-11{fill:#ef5753;}.cls-12{stroke:#000;stroke-width:1.21px;}.cls-13,.cls-14,.cls-15{fill:#b99ef4;stroke:#b99ef4;}.cls-13{stroke-width:0.89px;}.cls-14{stroke-width:1.06px;}.cls-15{stroke-width:0.85px;}</style></defs><g id="Layer_2" data-name="Layer 2"><g id="OBJECTS"><path class="cls-1" d="M206.2,195.63c.17-32.46-17.86-59.08-41.18-64.92-20.69-5.19-38.16,7.83-41.73,10.62V111.25h-32v30.08c-3.9-2.79-23-15.81-45.68-10.62C20.05,136.55.32,163.17.5,195.63,37.19,195.43,172.68,195.43,206.2,195.63Z"/><path class="cls-2" d="M206.2,195.63c.17-32.46-17.86-59.08-41.18-64.92-20.69-5.19-38.16,7.83-41.73,10.62V111.25h-32v30.08c-3.9-2.79-23-15.81-45.68-10.62C20.05,136.55.32,163.17.5,195.63,37.19,195.43,172.68,195.43,206.2,195.63Z"/><path class="cls-3" d="M123.29,125.28v-14h-32v22.91C93.82,133.75,122.2,125.62,123.29,125.28Z"/><line class="cls-4" x1="51.21" y1="159.33" x2="48" y2="195.74"/><line class="cls-4" x1="165.4" y1="161.7" x2="167.52" y2="195.6"/><path class="cls-5" d="M165.74,129.18c-8.16-2-16.59-2.57-23.09-.7l.06,43.57-67,.15a1,1,0,0,1-1.64-.75l.34-41.59c-7.89-2.68-19-4.3-29.68-1.84C19.22,133.86.32,163.17.5,195.63c36.69-.2,172.18-.2,205.7,0C206.37,163.17,189.06,135,165.74,129.18Z"/><line class="cls-6" x1="50.9" y1="159.81" x2="47.69" y2="196.22"/><line class="cls-6" x1="165.09" y1="162.18" x2="167.2" y2="196.08"/><path class="cls-7" d="M164.16,81.76c-2.32,7.71-8.77,12.59-14.4,10.89A8.61,8.61,0,0,1,145,89c-5.78,18.24-20.17,31.26-37.23,31.54-16.67.27-31.19-11.73-37.78-29.13A8.19,8.19,0,0,1,66.29,94c-5.57,1.88-12.17-2.79-14.74-10.42S51.42,68.23,57,66.36c3.07-1,6.46-.08,9.3,2.27a58.69,58.69,0,0,1,2.85-16.51c5.88-18,20.18-30.77,37.07-31,17.24-.28,32.18,12.55,38.42,30.92a58.71,58.71,0,0,1,3.06,16.53c3-3.29,6.89-4.88,10.47-3.8C163.8,66.42,166.48,74.05,164.16,81.76Z"/><path class="cls-8" d="M151.32,89.23c-1.47.06-2.45,5-2.18,11s1.69,10.84,3.17,10.77,2.45-5,2.18-11a40.56,40.56,0,0,0-.51-4.91"/><path class="cls-8" d="M62.83,89.23c1.47.06,2.45,5,2.18,11S63.32,111.07,61.84,111s-2.45-5-2.18-11a40.56,40.56,0,0,1,.51-4.91"/><path class="cls-9" d="M75.27,91.6a11.1,11.1,0,1,0,9.6-12.42A11.09,11.09,0,0,0,75.27,91.6Z"/><path class="cls-9" d="M118.07,92.35a11.1,11.1,0,1,0,9.6-12.42A11.1,11.1,0,0,0,118.07,92.35Z"/><path class="cls-10" d="M119,89c-.71,1.63-2.36,10.17-11,10.51-8.28.33-10.59-10.23-10.59-10.23A54,54,0,0,1,119,89Z"/><path d="M120.81,85.07a13.26,13.26,0,0,1-1.6,3.77,11,11,0,0,1-2.93,3,12.63,12.63,0,0,1-3.88,1.82,20.41,20.41,0,0,1-4.15.62A18.21,18.21,0,0,1,104,94a13.11,13.11,0,0,1-4-1.52,9.84,9.84,0,0,1-3.16-2.86,7.46,7.46,0,0,1-1.33-3.91l.14,0a8.68,8.68,0,0,0,4.83,5.86A17.69,17.69,0,0,0,115.72,91a13,13,0,0,0,5-6Z"/><polyline class="cls-11" points="107.73 72.05 105.87 83.44 110.18 82.62"/><polyline class="cls-12" points="107.73 72.05 105.87 83.44 110.18 82.62"/><line class="cls-12" x1="67.54" y1="86.42" x2="60.91" y2="74.95"/><line class="cls-12" x1="149.03" y1="86.25" x2="154.6" y2="75.12"/><path d="M134.42,62.54A34.72,34.72,0,0,0,130.31,61c-.69-.2-1.36-.41-2.05-.56-.35-.07-.68-.16-1-.24l-1-.17a21,21,0,0,0-2.09-.27l-1.06-.1c-.36,0-.71,0-1.07,0-1.43-.05-2.89,0-4.44,0l0-.11c.73-.17,1.45-.38,2.18-.51a18.47,18.47,0,0,1,2.22-.29,19.2,19.2,0,0,1,4.48.16,18.3,18.3,0,0,1,4.29,1.29,15.14,15.14,0,0,1,3.82,2.34Z"/><path d="M97.71,59.74a34.28,34.28,0,0,0-4.39-.11c-.72,0-1.42.06-2.12.15l-1,.11-1,.18a20.34,20.34,0,0,0-2.06.43l-1,.26c-.33.11-.67.22-1,.31-1.37.42-2.73.94-4.2,1.44l-.07-.1c.64-.4,1.24-.83,1.89-1.2a22.2,22.2,0,0,1,2-1,19.13,19.13,0,0,1,4.28-1.32,17.67,17.67,0,0,1,4.48-.2,15.26,15.26,0,0,1,4.37,1Z"/><path d="M93,74.59c0,2.88-1.43,5.23-3.25,5.25s-3.32-2.32-3.34-5.2,1.43-5.23,3.25-5.25S92.94,71.71,93,74.59Z"/><path d="M129.08,74.63c0,2.88-1.43,5.23-3.25,5.24s-3.32-2.31-3.34-5.19,1.43-5.24,3.25-5.25S129.06,71.74,129.08,74.63Z"/><path class="cls-13" d="M145.22,51.93c-4.6,4.69-15.28,3.41-25.49-3.47a41.17,41.17,0,0,1-12.55-13A42,42,0,0,1,95.12,48.93c-11,8-22.68,9.37-26.58,3.13,6-18.27,20.5-31.26,37.66-31.54C123.71,20.24,138.88,33.27,145.22,51.93Z"/><circle class="cls-14" cx="71.28" cy="22.01" r="16.69" transform="translate(33.38 86.26) rotate(-76.62)"/><circle class="cls-14" cx="44.63" cy="17.22" r="16.69" transform="translate(17.68 56.75) rotate(-76.81)"/><circle class="cls-15" cx="17.97" cy="22.96" r="13.33" transform="translate(-7.57 37.04) rotate(-80.82)"/><circle class="cls-14" cx="170.76" cy="17.22" r="16.69" transform="translate(37.84 125.79) rotate(-45)"/><circle class="cls-15" cx="197.42" cy="22.96" r="13.33" transform="translate(-0.81 37.29) rotate(-10.77)"/><circle class="cls-14" cx="140.18" cy="19.6" r="16.69" transform="matrix(0.26, -0.97, 0.97, 0.26, 84.98, 149.94)"/></g></g></svg>