<svg xmlns="http://www.w3.org/2000/svg" viewBox="0 0 800 703.33"><defs><style>.cls-1{fill:#dd1d3d;}</style></defs><g id="Layer_2" data-name="Layer 2"><g id="Capa_1" data-name="Capa 1"><path class="cls-1" d="M735.38,65.3a221.5,221.5,0,0,0-313.25.17L400.25,87.34,378,65.13A221.25,221.25,0,0,0,0,221.5C0,280.69,23.24,336.15,65.13,378l318.5,318.5a22.72,22.72,0,0,0,32.23.17L735,378.71a221.9,221.9,0,0,0,.34-313.41Zm-32.56,281L399.75,648.21,97.35,345.81A175.57,175.57,0,1,1,345.64,97.52L384,135.85a22.83,22.83,0,0,0,32.4,0l38-38A175.69,175.69,0,0,1,702.82,346.32Z"/><path class="cls-1" d="M97,46,15,227.86l35,82,191,202,159,167,118-112,154-141,101-199-46,124.8S711.73,336.74,713.18,335,762,251.86,762,251.86s-15-108-16-111-41-61-41-61L609,26.41S465,64.86,462,64.86s-62,61-62,61L372,97.14,279,26.86s-127-1-131,0-39,42-39,42l126,99Z"/><path class="cls-1" d="M720,369.86c-4-2-69-44-69-44l94-115,36,23-26.79,95Z"/></g></g></svg>