<svg xmlns="http://www.w3.org/2000/svg" viewBox="0 0 1830 1830"><defs><style>.cls-1{fill:#f2e6dc;}.cls-2{fill:#d3bba3;}.cls-3{fill:#fff;}.cls-4{fill:#d87355;}.cls-5{fill:#efbc73;}.cls-6{fill:#9e6c5a;}.cls-7{fill:#f7f1eb;}.cls-8{fill:#ffd092;}.cls-9{fill:#363e44;}.cls-10{fill:#e2a18d;}.cls-11{fill:#e6d0be;}.cls-12{fill:#8b865c;}</style></defs><g id="Layer_2" data-name="Layer 2"><g id="Illustration"><g id="Get_in_touch" data-name="Get in touch"><circle class="cls-1" cx="915" cy="915" r="915"/><rect class="cls-2" x="20.16" y="551.65" width="1484.86" height="1125.46" transform="translate(1525.18 2228.75) rotate(180)"/><rect class="cls-1" x="291.57" y="373.41" width="942.04" height="1391.69" transform="translate(1831.84 306.66) rotate(90)"/><path class="cls-3" d="M734.64,1603.16a27.95,27.95,0,1,0,28-28A28,28,0,0,0,734.64,1603.16Z"/><path class="cls-2" d="M20.16,1707.62h0A116.64,116.64,0,0,0,136.8,1824.26H1693.2a116.64,116.64,0,0,0,116.64-116.64H20.16Z"/><path class="cls-1" d="M411,1813.17a93.57,93.57,0,0,1-93.46-93.47,1,1,0,0,1,2,0A91.57,91.57,0,0,0,411,1811.17a1,1,0,0,1,0,2Z"/><path class="cls-1" d="M955.28,1735.19a49.56,49.56,0,0,0,49.56,49.56h174.48a49.56,49.56,0,0,0,49.57-49.56Z"/><polygon class="cls-3" points="1029.02 965.3 1111.22 836.63 1015.06 687.08 1029.02 965.3"/><polygon class="cls-3" points="1265.96 813.22 1114.78 834.62 1018.63 685.07 1265.96 813.22"/><path class="cls-4" d="M796.6,1421a1,1,0,0,1-1-.85q-.51-3.37-1-6.66a1,1,0,1,1,2-.27c.29,2.19.6,4.4,1,6.63a1,1,0,0,1-.84,1.14Zm-2.31-18.57a1,1,0,0,1-1-.9c-.39-4-.69-8.09-.9-12a1,1,0,0,1,2-.11c.21,3.9.51,7.91.89,11.93a1,1,0,0,1-.9,1.09Zm-1.28-24a1,1,0,0,1-1-1v-2c0-3.38.07-6.76.21-10a1,1,0,1,1,2,.08c-.14,3.26-.21,6.62-.21,10v2a1,1,0,0,1-1,1Zm1-23.94H794a1,1,0,0,1-.89-1.09c.4-4,.93-8.07,1.56-12a1,1,0,0,1,2,.33c-.62,3.83-1.14,7.81-1.54,11.81A1,1,0,0,1,794.06,1354.53ZM798,1330.9l-.23,0a1,1,0,0,1-.74-1.2c.93-4,2-7.87,3.2-11.63a1,1,0,0,1,1.91.61c-1.18,3.71-2.25,7.57-3.17,11.47A1,1,0,0,1,798,1330.9Zm7.27-22.81a1,1,0,0,1-.38-.07,1,1,0,0,1-.55-1.31c1.55-3.74,3.25-7.43,5.08-11a1,1,0,0,1,1.77.93c-1.8,3.46-3.48,7.09-5,10.78A1,1,0,0,1,805.22,1308.09Zm11-21.23a1,1,0,0,1-.84-1.54c2.18-3.38,4.53-6.69,7-9.83a1,1,0,1,1,1.57,1.23c-2.43,3.09-4.75,6.35-6.89,9.68A1,1,0,0,1,816.25,1286.86ZM831,1268.05a1,1,0,0,1-.69-.28,1,1,0,0,1,0-1.41c2.75-2.89,5.68-5.7,8.72-8.35a1,1,0,0,1,1.32,1.51c-3,2.61-5.88,5.37-8.59,8.22A1,1,0,0,1,831,1268.05Zm18-15.76a1,1,0,0,1-.8-.41,1,1,0,0,1,.21-1.4c3.21-2.33,6.59-4.58,10-6.69a1,1,0,0,1,1.38.33,1,1,0,0,1-.34,1.37c-3.42,2.09-6.75,4.31-9.91,6.61A1,1,0,0,1,849.05,1252.29Zm20.47-12.5a1,1,0,0,1-.46-1.89c3.52-1.79,7.19-3.5,10.94-5.09a1,1,0,0,1,1.31.53,1,1,0,0,1-.53,1.31c-3.7,1.57-7.34,3.26-10.81,5A.93.93,0,0,1,869.52,1239.79Zm247.51-8.87h0c-4-.05-8-.25-12-.62a1,1,0,0,1-.91-1.09,1,1,0,0,1,1.09-.9c4,.36,8,.56,11.9.61a1,1,0,0,1,0,2Zm12-.36a1,1,0,0,1-1-.93,1,1,0,0,1,.92-1.07c4-.28,7.93-.73,11.83-1.34a1,1,0,0,1,1.14.83,1,1,0,0,1-.83,1.15c-4,.61-8,1.07-12,1.36Zm-237.44-.17a1,1,0,0,1-.33-1.94c3.71-1.31,7.58-2.55,11.48-3.68a1,1,0,1,1,.56,1.92c-3.87,1.12-7.7,2.35-11.38,3.64A1,1,0,0,1,891.57,1230.39Zm201.58-1.64H1093c-2.72-.46-5.48-1-8.2-1.6l-3.6-.79a1,1,0,1,1,.42-1.95l3.61.78c2.69.6,5.42,1.13,8.11,1.59a1,1,0,0,1-.17,2Zm59.52-1.89a1,1,0,0,1-.23-2c3.83-.93,7.68-2,11.44-3.3a1,1,0,0,1,1.26.64,1,1,0,0,1-.63,1.26c-3.81,1.27-7.71,2.4-11.6,3.34Zm-83.05-2.83h-.18c-3.9-.73-7.87-1.41-11.81-2a1,1,0,0,1-.83-1.14,1,1,0,0,1,1.15-.83c4,.63,7.94,1.31,11.85,2a1,1,0,0,1-.18,2Zm-155-.33a1,1,0,0,1-.22-2c3.83-.9,7.79-1.73,11.79-2.47a1,1,0,0,1,.36,2c-4,.73-7.9,1.55-11.7,2.44A.91.91,0,0,1,914.61,1223.7Zm131.31-3.45h-.13c-4-.53-8-1-11.89-1.45a1,1,0,1,1,.21-2c4,.44,8,.92,11.94,1.46a1,1,0,0,1,.86,1.12A1,1,0,0,1,1045.92,1220.25Zm-107.7-.94a1,1,0,0,1-1-.86,1,1,0,0,1,.85-1.13c3.9-.55,7.92-1,12-1.44a1,1,0,0,1,1.1.89,1,1,0,0,1-.9,1.1c-4,.4-8,.89-11.88,1.43Zm237.18,0a1,1,0,0,1-.39-1.92c3.62-1.55,7.24-3.27,10.75-5.12a1,1,0,0,1,.94,1.77c-3.57,1.87-7.24,3.62-10.9,5.19A1.14,1.14,0,0,1,1175.4,1219.28Zm-153.34-1.63H1022c-4-.34-8-.62-11.94-.84a1,1,0,0,1-.95-1,1,1,0,0,1,1.06-1c4,.23,8,.51,12,.84a1,1,0,0,1,.92,1.08A1,1,0,0,1,1022.06,1217.65Zm-59.94-.77a1,1,0,0,1-.06-2c3.94-.26,8-.45,12-.58a1,1,0,1,1,.06,2c-4,.13-8,.32-11.95.57Zm36-.58h0c-4-.12-8-.18-11.88-.18a1,1,0,0,1-1.05-1,1,1,0,0,1,1-1c4,0,8,.06,12,.18a1,1,0,0,1,1,1A1,1,0,0,1,998.11,1216.3Zm198.5-8.16a1,1,0,0,1-.53-1.85c3.33-2.09,6.63-4.35,9.83-6.71a1,1,0,0,1,1.4.21,1,1,0,0,1-.21,1.4c-3.24,2.39-6.59,4.67-10,6.8A1,1,0,0,1,1196.61,1208.14Zm19.27-14.23a1,1,0,0,1-.65-1.76c3-2.56,5.94-5.28,8.77-8.07a1,1,0,0,1,1.41,1.43c-2.86,2.82-5.85,5.57-8.88,8.16A1,1,0,0,1,1215.88,1193.91Zm17.06-16.82a1,1,0,0,1-.66-.25,1,1,0,0,1-.09-1.41c2.62-3,5.18-6.06,7.6-9.21a1,1,0,1,1,1.58,1.22c-2.45,3.18-5,6.31-7.68,9.31A1,1,0,0,1,1232.94,1177.09Zm14.63-19a.94.94,0,0,1-.55-.17,1,1,0,0,1-.28-1.39c2.21-3.3,4.33-6.71,6.3-10.14a1,1,0,0,1,1.36-.37,1,1,0,0,1,.37,1.37c-2,3.47-4.13,6.92-6.36,10.26A1,1,0,0,1,1247.57,1158.08Zm12-20.81a1,1,0,0,1-.44-.1,1,1,0,0,1-.46-1.33c1.74-3.59,3.36-7.26,4.82-10.92a1,1,0,0,1,1.3-.55,1,1,0,0,1,.56,1.3c-1.48,3.7-3.12,7.41-4.88,11A1,1,0,0,1,1259.52,1137.27Zm8.88-22.28a1,1,0,0,1-.3,0,1,1,0,0,1-.65-1.26c1.2-3.83,2.24-7.7,3.1-11.51a1,1,0,0,1,2,.44c-.87,3.86-1.93,7.78-3.14,11.67A1,1,0,0,1,1268.4,1115Zm5.23-23.4h-.13a1,1,0,0,1-.87-1.12,112.86,112.86,0,0,0,.94-11.85,1,1,0,0,1,1-1,1,1,0,0,1,1,1,116.86,116.86,0,0,1-1,12.06A1,1,0,0,1,1273.63,1091.59Zm.74-23.95a1,1,0,0,1-1-1c-.18-4-.45-8-.8-11.91a1,1,0,1,1,2-.19c.36,3.93.63,8,.8,12a1,1,0,0,1-.95,1.05Zm-2.18-23.87a1,1,0,0,1-1-.86c-.56-4-1.23-7.91-2-11.76a1,1,0,0,1,.78-1.17,1,1,0,0,1,1.18.78c.77,3.89,1.44,7.88,2,11.87a1,1,0,0,1-.85,1.13Zm-4.67-23.49a1,1,0,0,1-1-.75c-1-3.87-2.13-7.72-3.34-11.44a1,1,0,0,1,.64-1.26,1,1,0,0,1,1.26.64c1.23,3.76,2.37,7.65,3.38,11.56a1,1,0,0,1-.72,1.21A.73.73,0,0,1,1267.52,1020.28Zm-7.44-22.77a1,1,0,0,1-.93-.63c-1.48-3.7-3.1-7.37-4.8-10.9a1,1,0,1,1,1.8-.87c1.72,3.58,3.35,7.29,4.85,11a1,1,0,0,1-.55,1.3A1,1,0,0,1,1260.08,997.51Zm-10.41-21.57a1,1,0,0,1-.87-.5c-2-3.44-4.09-6.85-6.29-10.12a1,1,0,1,1,1.66-1.12c2.23,3.32,4.37,6.76,6.36,10.24a1,1,0,0,1-.86,1.5Zm-13.39-19.87a1,1,0,0,1-.79-.38c-2.44-3.11-5-6.16-7.71-9.09a1,1,0,0,1,1.48-1.35c2.7,3,5.33,6.06,7.8,9.2a1,1,0,0,1-.78,1.62Zm-16.18-17.69a1,1,0,0,1-.68-.27c-2.88-2.72-5.89-5.36-9-7.87a1,1,0,0,1,1.27-1.55c3.11,2.54,6.16,5.22,9.07,8a1,1,0,0,1-.69,1.73Zm-18.58-15.17a1,1,0,0,1-.57-.18c-3.24-2.28-6.6-4.47-10-6.52a1,1,0,0,1,1-1.72c3.44,2.08,6.84,4.3,10.12,6.6a1,1,0,0,1,.24,1.4A1,1,0,0,1,1201.52,923.21ZM1181,910.8a1,1,0,0,1-.45-.11c-3.55-1.82-7.19-3.53-10.81-5.09a1,1,0,0,1-.53-1.31,1,1,0,0,1,1.31-.53c3.67,1.58,7.35,3.31,10.94,5.15a1,1,0,0,1-.46,1.89Zm-22.09-9.44a1.26,1.26,0,0,1-.33-.05,100.12,100.12,0,0,0-11.47-3.31,1,1,0,1,1,.4-2,100.84,100.84,0,0,1,11.72,3.38,1,1,0,0,1-.32,1.94Z"/><polygon class="cls-5" points="830.5 969.5 790.7 1047.29 130.27 969.5 480.39 692.96 830.5 969.5"/><rect class="cls-5" x="130.27" y="971" width="700.23" height="517.54"/><polygon class="cls-6" points="830.5 971 130.27 971 480.39 1350.19 830.5 971"/><polygon class="cls-7" points="744.36 1064.31 744.36 816.72 650.27 754.07 587.01 659.99 216.42 659.99 216.42 1064.31 480.39 1358.48 744.36 1064.31"/><path class="cls-2" d="M670.11,856.73H483.46a1,1,0,0,1,0-2H670.11a1,1,0,1,1,0,2Z"/><path class="cls-2" d="M442.75,856.73h-107a1,1,0,0,1,0-2h107a1,1,0,0,1,0,2Z"/><path class="cls-2" d="M670.11,931.33H576.29a1,1,0,0,1,0-2h93.82a1,1,0,0,1,0,2Z"/><path class="cls-2" d="M535.59,931.33H335.78a1,1,0,0,1,0-2H535.59a1,1,0,0,1,0,2Z"/><path class="cls-2" d="M609.05,1005.93H335.78a1,1,0,0,1,0-2H609.05a1,1,0,0,1,0,2Z"/><polygon class="cls-3" points="587.01 816.72 743.93 816.72 587.01 659.79 587.01 816.72"/><polygon class="cls-5" points="830.5 1488.55 130.27 1488.55 480.39 1109.36 480.39 1109.36 830.5 1488.55"/><path class="cls-8" d="M171.58,1444.81a1,1,0,0,1-.68-.27,1,1,0,0,1-.05-1.41l308.81-334.45a1,1,0,0,1,1.46,0l216.19,234.14a1,1,0,0,1-1.47,1.35L480.39,1110.83,172.32,1444.49A1,1,0,0,1,171.58,1444.81Z"/><path class="cls-3" d="M333.44,235.6S27,356.88,53.64,478.51c24,109.48,318.94-20.13,318.94-20.13Z"/><path class="cls-9" d="M53.64,479.51a1,1,0,0,1-1-.79c-8-36.49,12.88-76.48,62-118.83,43.35-37.38,101.11-69.72,141.93-90.27a1,1,0,0,1,.9,1.79c-40.72,20.5-98.33,52.75-141.52,90C67.44,403.24,46.8,442.57,54.61,478.3a1,1,0,0,1-.76,1.19Z"/><path class="cls-3" d="M333.05,235.81s132.83-42,245.84-16,191.36,67.46,191.36,67.46l-52.34,139.3-6.28,127.87H317.51l28.93-114.07Z"/><path class="cls-10" d="M860.93,496.93c-54.39,6.48-183.23,15.42-195.77,16.79-23.45,2.57-169.24,18-168,37.85.7,11.65,44.17,6.72,52.37,5.74-6.24,4.06-47.26,24.41-44.79,33.94,4.23,16.39,51.94-7.18,52.56-7-6.75,3.47-44.11,17.9-42.73,25.16,2.94,15.52,41.84,3.32,50.49,1.66-.68,1.35-32.8,10.87-31.21,21.26,1.27,8.25,47.9,5.3,58.8,5,20.83-2.26,75.72-1.79,115.38-2.07,93.14-.67,156.88-33.35,156.88-33.35S885.79,512.77,860.93,496.93Z"/><path class="cls-9" d="M549.11,557.47a1,1,0,0,1-.89-.56,1,1,0,0,1,.45-1.34,110.34,110.34,0,0,1,13.85-5.68,109,109,0,0,1,26.31-5.24,1,1,0,0,1,1.07.92,1,1,0,0,1-.92,1.07,107.6,107.6,0,0,0-25.83,5.15,106.28,106.28,0,0,0-13.59,5.58A1,1,0,0,1,549.11,557.47Z"/><path class="cls-9" d="M556.74,584.68a1,1,0,0,1-.94-.66,1,1,0,0,1,.59-1.28c1-.36,2-.71,3-1a109.06,109.06,0,0,1,26.31-5.25,1,1,0,1,1,.15,2A107.6,107.6,0,0,0,560,583.58c-1,.34-2,.68-3,1A.83.83,0,0,1,556.74,584.68Z"/><path class="cls-9" d="M565.57,611.73a1,1,0,0,1-.23-2,109.23,109.23,0,0,1,17.39-2.7,1,1,0,0,1,1.07.92,1,1,0,0,1-.93,1.07,108.83,108.83,0,0,0-17.07,2.65A.85.85,0,0,1,565.57,611.73Z"/><path class="cls-9" d="M515.88,306.4a.92.92,0,0,1-.46-.11,1,1,0,0,1-.53-.77L504,212.4a1,1,0,0,1,2-.23l10.73,91.67,53.12-28.16a1,1,0,1,1,.94,1.76l-54.42,28.85A1.08,1.08,0,0,1,515.88,306.4Z"/><path class="cls-9" d="M648,312.81a1,1,0,0,1-.58-.19L601.38,280.1a1,1,0,0,1-.24-1.39,1,1,0,0,1,1.4-.24L647.25,310l9.49-72.32a1,1,0,0,1,2,.26l-9.7,74a1,1,0,0,1-.59.78A1,1,0,0,1,648,312.81Z"/><path class="cls-3" d="M693.61,454.2,773,469.42l-59.32,16.32-5.83,149.93s293.85,2.16,292.74-134.87c-.82-99.68-238.18-217.36-238.18-217.36Z"/><path class="cls-10" d="M233.5,394.94c109.8-21.25,147.43-33.27,257.23-54.52,12-8.53,44.72-32.28,88.38-32.65s84.56,29,80.78,39.74c-1.76,5-12.48,13.17-24.86,5-14.87-9.8-24.47-9.72-36.69-10.73,1.39,1.36,10.14,6.91,9.38,16.08-.76,9.33-9.17,16.08-10.43,17.19,3.29,6.38,5.94,11.94,2.74,20.49-3.78,10.11-14.24,13.06-14.24,13.06a41.21,41.21,0,0,1-6.22,26c-10.49,15.92-29.79,20.73-35.66,13.38-2.31-2.9-4.58-11.12,4.66-21.77-4.56,3.11-20.16,22.21-37.06,28.62-14,5.34-28.4-.61-33.41-1.67-89.22,39.37-125.19,40.5-214.4,79.88C249.09,480,248.11,448,233.5,394.94Z"/><path class="cls-9" d="M597.22,341.88a1,1,0,0,1-.29,0,35.55,35.55,0,0,0-8-1.51,36.07,36.07,0,0,0-9.83.66,1,1,0,0,1-1.18-.77,1,1,0,0,1,.78-1.19,37.62,37.62,0,0,1,18.86.9,1,1,0,0,1-.3,1.95Z"/><path class="cls-9" d="M597.45,377a1,1,0,0,1-.54-.16,35.78,35.78,0,0,0-17-5.59,1,1,0,0,1,.13-2,38,38,0,0,1,10.19,2.1,37.18,37.18,0,0,1,7.75,3.81,1,1,0,0,1,.3,1.38A1,1,0,0,1,597.45,377Z"/><path class="cls-9" d="M584.66,408.29a1,1,0,0,1-.82-.43,19,19,0,0,0-8.83-6.72,20.45,20.45,0,0,0-14.33.53,1,1,0,1,1-.76-1.85,22.43,22.43,0,0,1,15.75-.57,21.13,21.13,0,0,1,9.81,7.47,1,1,0,0,1-.82,1.57Z"/><path class="cls-9" d="M548.06,427.35a1,1,0,0,1-.16-2l14-2.34a1,1,0,0,1,.32,2l-14,2.33Z"/><path class="cls-3" d="M63.32,481.79c-19.92-104.93,332.19-142,332.19-142l36.17,153.34S89.84,621.51,63.32,481.79Z"/><path class="cls-9" d="M124.65,406.64a1,1,0,0,1-.44-1.9c95.42-47,269.45-65.78,271.2-66a1,1,0,0,1,.21,2c-1.74.18-175.42,18.9-270.52,65.76A1.06,1.06,0,0,1,124.65,406.64Z"/><path class="cls-9" d="M325,526.66a1,1,0,0,1-.25-2c55.06-13.78,99.27-29.81,105.79-32.21l-4.23-17.91a1,1,0,0,1,.75-1.21,1,1,0,0,1,1.2.75l4.43,18.77a1,1,0,0,1-.62,1.17A1105.83,1105.83,0,0,1,325.2,526.63Z"/><path class="cls-9" d="M713.15,485.87a1,1,0,0,1-.24-2l177-44a1,1,0,1,1,.48,1.94l-177,44A1,1,0,0,1,713.15,485.87Z"/><path class="cls-9" d="M712.76,509.58h0a1,1,0,0,1-1-1.05l6.18-143.35a1,1,0,0,1,1-1,1,1,0,0,1,.95,1l-6.17,143.36A1,1,0,0,1,712.76,509.58Z"/><polygon class="cls-10" points="622.85 231.55 589.98 308.53 530.95 212.18 570.34 94.79 645.56 108.66 622.85 231.55"/><path class="cls-10" d="M628.33,38.9c3.3.18,34.79,2.36,50.3,26.49,11.54,18,10.12,38.52,2.53,72.66-8.94,40.22-19.9,63-32.82,69.25-20.4,9.86-71.47-26.9-86.9-65.55C550.3,113.86,557,81.14,576.77,58.22S626.23,38.79,628.33,38.9Z"/><path class="cls-9" d="M623.59,207.21a1,1,0,0,1-.38-.08c-21.9-9.22-51.44-34.7-63.05-63.78a1,1,0,0,1,1.86-.75c11,27.54,40.14,53.5,62,62.68a1,1,0,0,1-.39,1.93Z"/><path class="cls-3" d="M619.89,110.83a57.45,57.45,0,0,0,10,23.17c1.7,2.25,16.59-15.75,13.93-17.13A57.62,57.62,0,0,0,619.89,110.83Z"/><path class="cls-9" d="M667.4,151.58s-2.78-18.28-15.9-29.53a40.14,40.14,0,0,0-7.71-5.17,22.57,22.57,0,0,0-14,17.07,40.78,40.78,0,0,0,6,6.41C648.91,151.62,667.4,151.58,667.4,151.58Z"/><path class="cls-9" d="M671.21,172.44a1,1,0,0,1-.31-1.95c3.92-1.32,6.16-2.92,6.46-4.63.16-.89-.21-1.63-.94-3a19.38,19.38,0,0,1-1.82-4.2,17.75,17.75,0,0,1-.17-8.59,1,1,0,0,1,1.19-.77,1,1,0,0,1,.76,1.18,15.84,15.84,0,0,0,.15,7.64,17.3,17.3,0,0,0,1.64,3.79c.78,1.42,1.45,2.65,1.16,4.27-.45,2.55-3,4.57-7.8,6.18A1.13,1.13,0,0,1,671.21,172.44Z"/><path class="cls-6" d="M676.51,34.87c-11.43-13.93-30.8-22.13-50.91-24.22L646.4,23.1l-35-12.91c-16.37.65-32.1,5.44-43.25,14.62-29.53,24.27-34.49,52.52-15.41,122.84,7-18.93,14.14-47.73,28.66-50.72,9.38-1.93,17.56,1.87,21.31,4,7.69-18.66,13-36.51,31-35.19,19.07,1.39,45.08,25.54,46.63,27.78C681.56,89.56,696.83,59.66,676.51,34.87Z"/><ellipse class="cls-10" cx="582.68" cy="107.71" rx="21.92" ry="25.93" transform="translate(-6.34 172.27) rotate(-16.73)"/><path class="cls-9" d="M573,114.39a1,1,0,0,1-.9-.55,16.27,16.27,0,0,1-1-2.64c-2.25-7.49,1.13-15.14,7.54-17.07a10.57,10.57,0,0,1,4.91-.28,1,1,0,1,1-.34,2,8.53,8.53,0,0,0-4,.23c-5.35,1.6-8.14,8.15-6.2,14.58a14,14,0,0,0,.91,2.31,1,1,0,0,1-.45,1.35A1,1,0,0,1,573,114.39Z"/><path class="cls-6" d="M604.43,87.34c3.27.41-7.13,36.73,1.38,53.22C617.9,164,645.6,170.17,671.05,173.7c3,12.7,14.82,65.9-4.66,77.54-20.08,12-71.79-21.2-85-66.3C569.69,145.11,599.2,86.67,604.43,87.34Z"/><path class="cls-9" d="M648.55,186a9.27,9.27,0,0,1-7.54-3.73c-3-4.17-.93-9.06-.84-9.27a1,1,0,0,1,1.83.81s-1.72,4,.63,7.28a7.48,7.48,0,0,0,8.6,2.44,1,1,0,0,1,1.28.61,1,1,0,0,1-.61,1.27A9.78,9.78,0,0,1,648.55,186Z"/><path class="cls-9" d="M1183.7,644.74c-1.39,0-2.7,0-4,0a1,1,0,0,1-1-1,1,1,0,0,1,1-1c1.3,0,2.61,0,4,0h0c1.93,0,3.94,0,6-.08h0a1,1,0,0,1,0,2C1187.67,644.71,1185.64,644.74,1183.7,644.74Zm16-.5a1,1,0,0,1-.06-2c3.19-.18,6.54-.43,9.95-.72a1,1,0,0,1,.17,2c-3.43.29-6.8.53-10,.72Zm-30,0h-.08c-3.62-.29-7-.71-10-1.24a1,1,0,0,1,.35-2c3,.52,6.28.93,9.83,1.22a1,1,0,0,1-.08,2Zm49.91-1.67a1,1,0,0,1-.11-2c3.21-.34,6.55-.73,9.92-1.16a1,1,0,0,1,.25,2c-3.38.42-6.73.82-10,1.16Zm-69.51-2a1,1,0,0,1-.33-.06,26.29,26.29,0,0,1-9-5.1,1,1,0,1,1,1.36-1.46,24.46,24.46,0,0,0,8.3,4.68,1,1,0,0,1-.34,1.94Zm89.36-.47a1,1,0,0,1-1-.85,1,1,0,0,1,.85-1.14c3.21-.45,6.53-.95,9.87-1.48a1,1,0,1,1,.32,2c-3.36.53-6.69,1-9.91,1.49Zm19.76-3.11a1,1,0,0,1-.17-2q4.85-.84,9.84-1.74a1,1,0,1,1,.36,2c-3.34.61-6.62,1.2-9.86,1.75Zm19.68-3.59a1,1,0,0,1-.19-2c3.23-.63,6.49-1.28,9.8-2a1,1,0,0,1,1.18.78,1,1,0,0,1-.78,1.18c-3.31.68-6.59,1.33-9.82,2Zm19.6-4a1,1,0,0,1-.21-2q4.83-1,9.77-2.13a1,1,0,0,1,1.19.76,1,1,0,0,1-.76,1.2q-4.93,1.09-9.78,2.13Zm-161.09-2.53a1,1,0,0,1-1-1v-.12a21,21,0,0,1,2.84-9.77,1,1,0,1,1,1.76,1,19,19,0,0,0-2.6,8.82v.12A1,1,0,0,1,1137.43,626.82ZM1318.05,625a1,1,0,0,1-1-.78,1,1,0,0,1,.75-1.2q4.83-1.11,9.73-2.28a1,1,0,0,1,1.21.74,1,1,0,0,1-.74,1.2q-4.92,1.18-9.75,2.29A.83.83,0,0,1,1318.05,625Zm19.45-4.65a1,1,0,0,1-.23-2L1347,616a1,1,0,0,1,1.22.72,1,1,0,0,1-.72,1.22q-4.9,1.23-9.71,2.42A1.07,1.07,0,0,1,1337.5,620.36Zm19.4-4.92a1,1,0,0,1-.26-2l9.67-2.56a1,1,0,0,1,.52,1.93q-4.87,1.3-9.68,2.56Zm19.32-5.17a1,1,0,0,1-.26-2l9.63-2.67a1,1,0,1,1,.54,1.92q-4.85,1.37-9.64,2.68Zm-230.37-1a1,1,0,0,1-.64-.23,1,1,0,0,1-.13-1.41,97.33,97.33,0,0,1,6.94-7.34,1,1,0,1,1,1.39,1.45,89.53,89.53,0,0,0-6.79,7.18A1,1,0,0,1,1145.85,609.23Zm249.63-4.36a1,1,0,0,1-.27-2q4.77-1.36,9.6-2.78a1,1,0,0,1,.56,1.92l-9.61,2.78A.9.9,0,0,1,1395.48,604.87Zm19.2-5.62a1,1,0,0,1-.29-2q4.77-1.42,9.57-2.89a1,1,0,0,1,.58,1.92l-9.58,2.89A.9.9,0,0,1,1414.68,599.25Zm-254.5-3.93a1,1,0,0,1-.77-.36,1,1,0,0,1,.13-1.41c2.42-2,5.07-4.13,7.87-6.25a1,1,0,1,1,1.21,1.59c-2.77,2.1-5.4,4.19-7.8,6.2A1,1,0,0,1,1160.18,595.32Zm273.63-1.9a1,1,0,0,1-.29-2q4.74-1.47,9.54-3a1,1,0,0,1,1.25.66,1,1,0,0,1-.65,1.25q-4.8,1.51-9.55,3A1,1,0,0,1,1433.81,593.42Zm19.08-6a1,1,0,0,1-1-.7,1,1,0,0,1,.65-1.25l9.51-3.09a1,1,0,1,1,.62,1.9l-9.52,3.09A1,1,0,0,1,1452.89,587.39Zm-276.8-4.2a1,1,0,0,1-.58-1.81c2.62-1.85,5.41-3.75,8.29-5.66a1,1,0,1,1,1.11,1.67c-2.87,1.9-5.64,3.79-8.24,5.62A1,1,0,0,1,1176.09,583.19Zm295.81-2a1,1,0,0,1-.32-1.94q4.73-1.58,9.48-3.19a1,1,0,1,1,.64,1.9l-9.49,3.18A.84.84,0,0,1,1471.9,581.16Zm18.94-6.41a1,1,0,0,1-.32-1.94l1.76-.61,7.68-2.67a1,1,0,0,1,1.28.62,1,1,0,0,1-.62,1.27l-7.69,2.67-1.76.61A1.26,1.26,0,0,1,1490.84,574.75Zm-298.08-2.63a1,1,0,0,1-.54-1.84c2.74-1.73,5.61-3.5,8.54-5.26a1,1,0,1,1,1,1.71c-2.91,1.76-5.77,3.52-8.5,5.24A1,1,0,0,1,1192.76,572.12Zm317-4a1,1,0,0,1-.34-1.95l9.41-3.36a1,1,0,0,1,.68,1.88l-9.42,3.37A1,1,0,0,1,1509.73,568.16Zm-299.84-6.38a1,1,0,0,1-.87-.5,1,1,0,0,1,.36-1.36c2.82-1.64,5.75-3.31,8.71-5a1,1,0,0,1,1,1.74c-3,1.66-5.88,3.33-8.68,5A1,1,0,0,1,1209.89,561.78Zm318.65-.41a1,1,0,0,1-.34-1.94q4.71-1.73,9.38-3.46a1,1,0,1,1,.7,1.87q-4.68,1.74-9.39,3.47A1.07,1.07,0,0,1,1528.54,561.37Zm18.75-7a1,1,0,0,1-.35-1.94q4.69-1.77,9.34-3.56a1,1,0,1,1,.72,1.87q-4.65,1.79-9.35,3.56A.92.92,0,0,1,1547.29,554.4Zm-320-2.41a1,1,0,0,1-.48-1.88q4.32-2.36,8.82-4.73a1,1,0,0,1,1.36.41,1,1,0,0,1-.42,1.35q-4.48,2.39-8.81,4.72A.9.9,0,0,1,1227.34,552ZM1566,547.23a1,1,0,0,1-.36-1.93l9.3-3.66a1,1,0,0,1,1.3.56,1,1,0,0,1-.56,1.3l-9.32,3.66A1.15,1.15,0,0,1,1566,547.23Zm-321-4.6a1,1,0,0,1-.46-1.88q4.39-2.26,8.93-4.54a1,1,0,0,1,1.34.44,1,1,0,0,1-.44,1.35q-4.53,2.26-8.91,4.52A1,1,0,0,1,1245,542.63Zm339.55-2.77a1,1,0,0,1-.93-.63,1,1,0,0,1,.55-1.3q4.66-1.87,9.27-3.76a1,1,0,1,1,.75,1.85c-3.06,1.25-6.16,2.51-9.27,3.76A1,1,0,0,1,1584.57,539.86Zm-321.67-6.21a1,1,0,0,1-.44-1.89q4.44-2.19,9-4.37a1,1,0,1,1,.86,1.8q-4.56,2.19-9,4.36A1,1,0,0,1,1262.9,533.65Zm340.18-1.37a1,1,0,0,1-.38-1.93q4.65-1.94,9.22-3.87a1,1,0,0,1,.78,1.84q-4.59,1.95-9.23,3.88A1.09,1.09,0,0,1,1603.08,532.28ZM1280.94,525a1,1,0,0,1-.43-1.91q4.48-2.1,9.08-4.22a1,1,0,0,1,1.33.49,1,1,0,0,1-.49,1.32q-4.59,2.12-9.07,4.22A.9.9,0,0,1,1280.94,525Zm340.57-.53a1,1,0,0,1-.4-1.91q4.62-2,9.17-4a1,1,0,0,1,.8,1.83q-4.55,2-9.18,4A.91.91,0,0,1,1621.51,524.47Zm-322.4-7.85a1,1,0,0,1-.41-1.91q4.52-2,9.13-4.09a1,1,0,0,1,1.32.51,1,1,0,0,1-.51,1.32q-4.61,2-9.12,4.08A.85.85,0,0,1,1299.11,516.62Zm340.72-.18a1,1,0,0,1-.41-1.91c3.07-1.38,6.11-2.74,9.11-4.11a1,1,0,0,1,1.33.49,1,1,0,0,1-.5,1.33q-4.52,2.06-9.13,4.11A1,1,0,0,1,1639.83,516.44Zm-322.43-7.93a1,1,0,0,1-.92-.6,1,1,0,0,1,.52-1.32q4.55-2,9.19-4a1,1,0,0,1,1.31.52,1,1,0,0,1-.53,1.32l-9.18,4A.88.88,0,0,1,1317.4,508.51Zm340.64-.36a1,1,0,0,1-.42-1.91q4.58-2.12,9.05-4.24a1,1,0,1,1,.85,1.81c-3,1.41-6,2.83-9.06,4.25A1.06,1.06,0,0,1,1658,508.15Zm-322.25-7.51a1,1,0,0,1-.39-1.92q4.57-1.94,9.24-3.86a1,1,0,0,1,.76,1.85q-4.65,1.92-9.23,3.85A1,1,0,0,1,1335.79,500.64Zm340.33-1.06a1,1,0,0,1-.44-1.9q4.54-2.19,9-4.39a1,1,0,1,1,.88,1.79q-4.43,2.21-9,4.4A1,1,0,0,1,1676.12,499.58ZM1354.27,493a1,1,0,0,1-.37-1.92q4.61-1.87,9.28-3.75a1,1,0,1,1,.74,1.86q-4.67,1.86-9.27,3.74A1,1,0,0,1,1354.27,493Zm339.78-2.28a1,1,0,0,1-.46-1.89q4.53-2.29,8.9-4.57a1,1,0,0,1,.92,1.78q-4.38,2.28-8.91,4.57A1.06,1.06,0,0,1,1694.05,490.71Zm-321.2-5.15a1,1,0,0,1-.37-1.93l9.32-3.65a1,1,0,1,1,.72,1.87q-4.68,1.81-9.31,3.64A.92.92,0,0,1,1372.85,485.56Zm339-4.08a1,1,0,0,1-.47-1.88q4.47-2.4,8.78-4.77a1,1,0,1,1,1,1.76q-4.3,2.37-8.8,4.77A1,1,0,0,1,1711.8,481.48Zm-320.3-3.15a1,1,0,0,1-.36-1.94l9.36-3.54a1,1,0,1,1,.71,1.87q-4.71,1.77-9.35,3.54A.92.92,0,0,1,1391.5,478.33Zm337.83-6.5a1,1,0,0,1-.5-1.87c2.94-1.67,5.85-3.35,8.65-5a1,1,0,1,1,1,1.72c-2.81,1.65-5.73,3.34-8.68,5A1,1,0,0,1,1729.33,471.83Zm-319.1-.54a1,1,0,0,1-.35-1.94q4.68-1.73,9.4-3.44a1,1,0,1,1,.68,1.88q-4.71,1.71-9.39,3.44A1,1,0,0,1,1410.23,471.29Zm18.8-6.84a1,1,0,0,1-1-.66,1,1,0,0,1,.61-1.28l9.43-3.36a1,1,0,0,1,.66,1.89q-4.72,1.66-9.42,3.35A1,1,0,0,1,1429,464.45Zm317.54-2.78a1,1,0,0,1-.86-.48,1,1,0,0,1,.33-1.37c2.9-1.78,5.75-3.56,8.46-5.3a1,1,0,0,1,1.08,1.68c-2.72,1.75-5.58,3.54-8.49,5.32A1,1,0,0,1,1746.57,461.67Zm-298.69-3.87a1,1,0,0,1-1-.67,1,1,0,0,1,.62-1.28l4.11-1.42,5.35-1.84a1,1,0,1,1,.64,1.9l-5.34,1.83-4.11,1.42A1,1,0,0,1,1447.88,457.8Zm18.92-6.47a1,1,0,0,1-1-.68,1,1,0,0,1,.63-1.27l9.49-3.17a1,1,0,0,1,1.27.64,1,1,0,0,1-.64,1.26l-9.48,3.17A1.19,1.19,0,0,1,1466.8,451.33Zm296.6-.48a1,1,0,0,1-.83-.44,1,1,0,0,1,.27-1.39c2.84-1.92,5.59-3.85,8.17-5.71a1,1,0,0,1,1.4.22,1,1,0,0,1-.23,1.4c-2.6,1.88-5.36,3.81-8.22,5.75A1,1,0,0,1,1763.4,450.85Zm-277.61-5.8a1,1,0,0,1-.31-1.95L1495,440a1,1,0,0,1,.61,1.91q-4.75,1.51-9.52,3.07A1.12,1.12,0,0,1,1485.79,445.05Zm293.8-5.95a1,1,0,0,1-.62-1.78c2.75-2.16,5.33-4.29,7.67-6.34a1,1,0,1,1,1.32,1.5c-2.37,2.08-5,4.23-7.75,6.41A1,1,0,0,1,1779.59,439.1ZM1504.84,439a1,1,0,0,1-.3-2l9.56-3a1,1,0,0,1,.59,1.91l-9.55,3A1,1,0,0,1,1504.84,439Zm19.12-5.9a1,1,0,0,1-.29-2l9.59-2.87a1,1,0,0,1,1.24.68,1,1,0,0,1-.67,1.24q-4.77,1.41-9.58,2.87A1,1,0,0,1,1524,433.06Zm19.18-5.69a1,1,0,0,1-.28-2l9.62-2.76a1,1,0,1,1,.54,1.92l-9.6,2.76A1,1,0,0,1,1543.14,427.37Zm251.44-1.5a1,1,0,0,1-.7-.28,1,1,0,0,1,0-1.42,73.4,73.4,0,0,0,6.43-7.45,1,1,0,0,1,1.61,1.19,76.26,76.26,0,0,1-6.61,7.66A1,1,0,0,1,1794.58,425.87Zm-232.2-4a1,1,0,0,1-.27-2q4.86-1.35,9.65-2.65a1,1,0,0,1,1.23.7,1,1,0,0,1-.7,1.23q-4.8,1.29-9.64,2.65Zm19.3-5.24a1,1,0,0,1-.25-2q4.88-1.29,9.68-2.53a1,1,0,1,1,.5,1.93q-4.8,1.25-9.67,2.53A.78.78,0,0,1,1581.68,416.66Zm19.37-5a1,1,0,0,1-.24-2q4.89-1.23,9.71-2.4a1,1,0,0,1,1.21.73,1,1,0,0,1-.73,1.21q-4.82,1.17-9.71,2.4A1,1,0,0,1,1601.05,411.66Zm205-2a1,1,0,0,1-.35-.06,1,1,0,0,1-.59-1.29,16.07,16.07,0,0,0,1.09-5.51,10.82,10.82,0,0,0-.57-3.52,1,1,0,0,1,1.89-.65,12.84,12.84,0,0,1,.68,4.17,17.94,17.94,0,0,1-1.22,6.21A1,1,0,0,1,1806,409.68Zm-185.52-2.75a1,1,0,0,1-.23-2q4.92-1.15,9.75-2.26a1,1,0,0,1,1.2.75,1,1,0,0,1-.76,1.2c-3.21.73-6.46,1.49-9.73,2.26Zm19.5-4.44a1,1,0,0,1-.21-2q5-1.08,9.79-2.1a1,1,0,0,1,1.18.77,1,1,0,0,1-.77,1.19q-4.83,1-9.77,2.09A.78.78,0,0,1,1640,402.49Zm19.58-4.11a1,1,0,0,1-1-.81,1,1,0,0,1,.79-1.17c3.31-.67,6.59-1.31,9.82-1.92a1,1,0,0,1,.38,2c-3.23.62-6.5,1.25-9.81,1.92Zm145.94-.59a1,1,0,0,1-.86-.48,16.43,16.43,0,0,0-7.13-5.94,1,1,0,0,1,.87-1.8,18.44,18.44,0,0,1,8,6.71,1,1,0,0,1-.34,1.37A1,1,0,0,1,1805.51,397.79Zm-126.28-3.14a1,1,0,0,1-.18-2q5-.89,9.87-1.7a1,1,0,0,1,1.15.83,1,1,0,0,1-.82,1.15c-3.23.53-6.51,1.1-9.85,1.69Zm19.73-3.27a1,1,0,0,1-1-.85,1,1,0,0,1,.84-1.14c3.36-.51,6.69-1,9.92-1.44a1,1,0,0,1,.27,2c-3.22.44-6.54.92-9.89,1.43Zm19.82-2.71a1,1,0,0,1-.12-2c3.39-.4,6.75-.77,10-1.09a1,1,0,0,1,.2,2c-3.21.32-6.55.68-9.93,1.09Zm69.72-.39a.83.83,0,0,1-.22,0,84.45,84.45,0,0,0-9.75-1.6,1,1,0,0,1,.22-2,90.39,90.39,0,0,1,10,1.64,1,1,0,0,1-.23,2Zm-49.81-1.58a1,1,0,0,1-.07-2c3.43-.26,6.8-.47,10-.62a1,1,0,0,1,1,1,1,1,0,0,1-1,1c-3.18.15-6.53.36-10,.61Zm30-.77h0c-3.12-.13-6.47-.17-10-.14h0a1,1,0,0,1,0-2c3.51,0,6.89,0,10,.14a1,1,0,0,1,0,2Z"/><path class="cls-9" d="M1375.33,339.67h-3.89a1,1,0,0,1-1-1,1,1,0,0,1,1-1h5a1,1,0,0,1,0,2Zm6.11,0a1,1,0,0,1,0-2l5,0h0a1,1,0,0,1,0,2l-5,0Zm-15,0h0c-1.67,0-3.34,0-5-.06a1,1,0,0,1-1-1,1,1,0,0,1,1-1l5,.05a1,1,0,0,1,1,1A1,1,0,0,1,1366.44,339.64Zm25-.08a1,1,0,0,1,0-2l5-.08h0a1,1,0,0,1,1,1,1,1,0,0,1-1,1l-5,.08Zm-35-.05h0l-5-.1a1,1,0,0,1,0-2h0l5,.1a1,1,0,0,1,0,2Zm45-.13a1,1,0,0,1,0-2l5-.13a1,1,0,0,1,1,1,1,1,0,0,1-1,1l-5,.13Zm-55-.09h0l-5-.15a1,1,0,0,1-1-1,1,1,0,0,1,1-1l5,.15a1,1,0,0,1,1,1A1,1,0,0,1,1346.44,339.29Zm65-.18a1,1,0,0,1,0-2l5-.16h0a1,1,0,0,1,1,1,1,1,0,0,1-1,1l-5,.16Zm-75-.14h0l-5-.2a1,1,0,1,1,.08-2l5,.2a1,1,0,0,1,1,1A1,1,0,0,1,1336.45,339Zm85-.21a1,1,0,0,1,0-2l5-.2a1,1,0,0,1,1,1,1,1,0,0,1-1,1l-5,.2Zm-95-.22h0l-5-.26a1,1,0,1,1,.1-2l5,.25a1,1,0,0,1,1,1A1,1,0,0,1,1326.46,338.54Zm105-.21a1,1,0,0,1,0-2l5-.25a1,1,0,1,1,.1,2l-5,.24Zm-115-.33h-.06l-5-.31a1,1,0,0,1-.93-1.06,1,1,0,0,1,1.06-.93l5,.31a1,1,0,0,1,.93,1.05A1,1,0,0,1,1316.47,338Zm124.94-.17a1,1,0,0,1-.05-2l5-.28a1,1,0,1,1,.12,2l-5,.29Zm-134.92-.48h-.07l-5-.37a1,1,0,1,1,.16-2c1.65.13,3.31.26,5,.37a1,1,0,0,1,.92,1.07A1,1,0,0,1,1306.49,337.35Zm144.91-.11a1,1,0,0,1-.06-2l4.42-.29.56,0a1,1,0,0,1,1.07.94,1,1,0,0,1-.93,1.06l-.57,0-4.43.28Zm10-.66a1,1,0,0,1-.07-2l5-.35a1,1,0,1,1,.15,2l-5,.36Zm-164.86,0h-.09l-5-.44a1,1,0,0,1,.18-2l5,.44a1,1,0,0,1-.08,2Zm174.82-.74a1,1,0,0,1-.08-2l5-.4a1,1,0,0,1,.17,2l-5,.4Zm-184.79-.17h-.09c-1.68-.16-3.34-.33-5-.51a1,1,0,1,1,.21-2c1.65.18,3.3.35,5,.51a1,1,0,0,1-.1,2ZM1481.3,335a1,1,0,0,1-.08-2l5-.43a1,1,0,0,1,1.08.9,1,1,0,0,1-.9,1.09l-5,.44Zm-204.69-.42h-.12l-5-.59a1,1,0,0,1,.24-2l5,.59a1,1,0,0,1-.11,2Zm214.66-.48a1,1,0,0,1-.1-2l5-.48a1,1,0,0,1,.19,2l-5,.48Zm-224.59-.73h-.13l-5-.67a1,1,0,0,1-.86-1.13,1,1,0,0,1,1.13-.85l5,.67a1,1,0,0,1-.13,2Zm234.54-.24a1,1,0,0,1-1-.9,1,1,0,0,1,.89-1.1l5-.51a1,1,0,0,1,1.1.89,1,1,0,0,1-.89,1.1l-5,.51Zm10-1.06a1,1,0,0,1-.11-2l5-.56a1,1,0,0,1,.23,2l-5,.56ZM1256.78,332h-.15l-5-.77a1,1,0,0,1,.32-2l4.93.77a1,1,0,0,1-.14,2ZM1521.1,331a1,1,0,0,1-.11-2l5-.6a1,1,0,0,1,.24,2l-5,.61Zm-274.2-.54h-.17l-4.94-.88a1,1,0,1,1,.37-2c1.61.3,3.25.59,4.91.88a1,1,0,0,1-.17,2Zm284.13-.68a1,1,0,0,1-.13-2l5-.65a1,1,0,0,1,.26,2l-5,.64Zm-294-1.13-.19,0c-1.67-.33-3.3-.67-4.92-1a1,1,0,1,1,.42-1.95c1.6.34,3.23.67,4.88,1a1,1,0,0,1-.19,2Zm303.88-.18a1,1,0,0,1-.13-2l5-.69a1,1,0,0,1,.28,2l-5,.69Zm9.91-1.4a1,1,0,0,1-.14-2l4.94-.74a1,1,0,0,1,1.14.84,1,1,0,0,1-.84,1.14l-5,.74Zm-323.57-.5a.83.83,0,0,1-.22,0q-2.49-.57-4.89-1.15a1,1,0,0,1,.48-2c1.59.39,3.2.78,4.85,1.15a1,1,0,0,1-.22,2Zm333.46-1a1,1,0,0,1-1-.84,1,1,0,0,1,.84-1.15c1.65-.25,3.29-.51,4.93-.78a1,1,0,0,1,1.15.83,1,1,0,0,1-.83,1.15l-4.95.78Zm-343.17-1.4a1.15,1.15,0,0,1-.26,0q-2.47-.66-4.84-1.34a1,1,0,0,1,.56-1.93c1.56.46,3.16.9,4.8,1.34a1,1,0,0,1-.26,2Zm353-.19a1,1,0,0,1-1-.84,1,1,0,0,1,.82-1.15l4.93-.83a1,1,0,1,1,.33,2l-4.93.84Zm9.86-1.69a1,1,0,0,1-.17-2l4.91-.88a1,1,0,1,1,.36,2l-4.92.88Zm-372.51-.9a1,1,0,0,1-.3-.05c-1.63-.52-3.24-1.05-4.77-1.58a1,1,0,1,1,.65-1.89c1.52.53,3.11,1.05,4.72,1.56a1,1,0,0,1-.3,2Zm382.35-.9a1,1,0,0,1-.18-2l4.9-.94a1,1,0,1,1,.38,2l-4.91.94A.65.65,0,0,1,1590.31,320.45Zm9.82-1.91a1,1,0,0,1-.2-2l4.9-1a1,1,0,0,1,.4,2l-4.9,1Zm-401.61-.48a.92.92,0,0,1-.36-.07c-1.61-.62-3.18-1.26-4.67-1.9a1,1,0,0,1,.79-1.84c1.47.64,3,1.27,4.6,1.88a1,1,0,0,1-.36,1.93Zm411.4-1.55a1,1,0,0,1-.21-2l4.89-1.06a1,1,0,0,1,.43,2l-4.9,1.06A.75.75,0,0,1,1609.92,316.51Zm9.77-2.15a1,1,0,0,1-.22-2l4.86-1.13a1,1,0,0,1,1.21.75,1,1,0,0,1-.75,1.2l-4.88,1.13A.83.83,0,0,1,1619.69,314.36Zm-430.35-.27a1,1,0,0,1-.43-.11c-1.58-.77-3.08-1.56-4.48-2.36a1,1,0,0,1,1-1.74c1.36.78,2.83,1.55,4.37,2.31a1,1,0,0,1-.45,1.9Zm440.09-2a1,1,0,0,1-1-.76,1,1,0,0,1,.73-1.21l4.85-1.2a1,1,0,0,1,.49,1.94q-2.41.62-4.86,1.2Zm9.7-2.44a1,1,0,0,1-.25-2q2.43-.63,4.82-1.28a1,1,0,0,1,1.23.71,1,1,0,0,1-.71,1.22l-4.84,1.29Zm-458.44-.51a1,1,0,0,1-.56-.18,44.27,44.27,0,0,1-4.05-3.1,1,1,0,0,1,1.31-1.51,40.41,40.41,0,0,0,3.87,3,1,1,0,0,1-.57,1.83Zm468.09-2.1a1,1,0,0,1-1-.73,1,1,0,0,1,.7-1.23l4.8-1.37a1,1,0,0,1,.55,1.92l-4.82,1.38Zm9.61-2.79a1,1,0,0,1-.29-2q2.42-.72,4.77-1.46a1,1,0,0,1,.6,1.9c-1.58.5-3.17,1-4.79,1.48A1,1,0,0,1,1658.39,304.22Zm-485.16-1.67a1,1,0,0,1-.77-.36,22.39,22.39,0,0,1-2.87-4.33,1,1,0,0,1,1.8-.89,20,20,0,0,0,2.6,3.94,1,1,0,0,1-.12,1.4A1,1,0,0,1,1173.23,302.55Zm494.7-1.33a1,1,0,0,1-.31-2q2.4-.78,4.73-1.58a1,1,0,1,1,.65,1.89l-4.76,1.59A.84.84,0,0,1,1667.93,301.22Zm9.47-3.24a1,1,0,0,1-.34-1.94q2.39-.85,4.68-1.72a1,1,0,0,1,1.29.59,1,1,0,0,1-.59,1.28q-2.31.87-4.71,1.73A1,1,0,0,1,1677.4,298Zm9.36-3.52a1,1,0,0,1-.37-1.93q2.35-.93,4.61-1.88a1,1,0,0,1,1.31.54,1,1,0,0,1-.53,1.3q-2.28,1-4.65,1.9A1,1,0,0,1,1686.76,294.46ZM1169,293.72a1,1,0,0,1-1-.86q-.08-.58-.12-1.17c0-.34,0-.68,0-1a15.5,15.5,0,0,1,.31-3.09,1,1,0,0,1,1.17-.79,1,1,0,0,1,.79,1.18,13.81,13.81,0,0,0-.27,2.7c0,.29,0,.58,0,.88s0,.68.1,1a1,1,0,0,1-.84,1.13Zm527-3.13a1,1,0,0,1-.4-1.91c1.55-.69,3.05-1.38,4.52-2.08a1,1,0,0,1,1.33.47,1,1,0,0,1-.47,1.34q-2.22,1.05-4.57,2.09A1,1,0,0,1,1696,290.59Zm9-4.3a1,1,0,0,1-.45-1.89c1.51-.77,3-1.56,4.38-2.33a1,1,0,1,1,1,1.74c-1.42.79-2.91,1.59-4.44,2.37A1,1,0,0,1,1705,286.29Zm-534.22-2.15a.88.88,0,0,1-.45-.11,1,1,0,0,1-.44-1.34,26.33,26.33,0,0,1,2.78-4.34,1,1,0,0,1,1.41-.17,1,1,0,0,1,.17,1.4,25.26,25.26,0,0,0-2.58,4A1,1,0,0,1,1170.79,284.14Zm543-2.72a1,1,0,0,1-.52-1.85c1.46-.89,2.86-1.8,4.15-2.69a1,1,0,0,1,1.13,1.65c-1.32.91-2.75,1.83-4.24,2.75A1,1,0,0,1,1713.75,281.42Zm-536.95-5.16a1,1,0,0,1-.71-.3,1,1,0,0,1,0-1.41c1.14-1.13,2.41-2.27,3.79-3.39a1,1,0,0,1,1.27,1.55c-1.33,1.09-2.56,2.18-3.66,3.26A1,1,0,0,1,1176.8,276.26Zm545.18-.5a1,1,0,0,1-.62-1.79c1.34-1.06,2.6-2.13,3.72-3.19a1,1,0,1,1,1.37,1.46c-1.17,1.1-2.46,2.21-3.86,3.3A1,1,0,0,1,1722,275.76Zm-537.47-5.84a1,1,0,0,1-.58-1.81c1.32-.93,2.74-1.87,4.22-2.8a1,1,0,0,1,1.06,1.7c-1.45.91-2.84,1.83-4.12,2.73A1,1,0,0,1,1184.51,269.92Zm544.69-1a1,1,0,0,1-.64-.23,1,1,0,0,1-.13-1.41,26.47,26.47,0,0,0,2.75-3.92,1,1,0,0,1,1.37-.37,1,1,0,0,1,.37,1.36,29.1,29.1,0,0,1-3,4.21A1,1,0,0,1,1729.2,268.89ZM1193,264.6a1,1,0,0,1-.49-1.87c1.41-.79,2.9-1.6,4.43-2.4a1,1,0,0,1,.92,1.78c-1.51.78-3,1.58-4.36,2.36A1,1,0,0,1,1193,264.6Zm541-4.32a.75.75,0,0,1-.26,0A1,1,0,0,1,1733,259a14.31,14.31,0,0,0,.5-3.69c0-.29,0-.59,0-.88a12.77,12.77,0,0,0-.29-2,1,1,0,0,1,2-.43,15.07,15.07,0,0,1,.33,2.32c0,.34,0,.67,0,1a16.1,16.1,0,0,1-.57,4.21A1,1,0,0,1,1734,260.28Zm-532.13-.3a1,1,0,0,1-.44-1.9q2.22-1.06,4.56-2.13a1,1,0,0,1,.82,1.83q-2.33,1-4.51,2.1A1,1,0,0,1,1201.84,260Zm9.11-4.12a1,1,0,0,1-.39-1.92q2.26-1,4.65-1.91a1,1,0,0,1,.74,1.85c-1.57.63-3.11,1.27-4.61,1.9A.88.88,0,0,1,1211,255.86Zm9.29-3.72a1,1,0,0,1-.94-.65,1,1,0,0,1,.58-1.29q2.31-.87,4.71-1.74a1,1,0,1,1,.68,1.88q-2.38.85-4.68,1.73A.84.84,0,0,1,1220.24,252.14Zm9.4-3.41a1,1,0,0,1-.32-1.95c1.55-.53,3.14-1.07,4.75-1.6a1,1,0,0,1,1.26.63,1,1,0,0,1-.63,1.27c-1.61.53-3.18,1.06-4.73,1.6A1.26,1.26,0,0,1,1229.64,248.73Zm502.71-.11a1,1,0,0,1-.86-.5,22.17,22.17,0,0,0-2.82-3.82,1,1,0,1,1,1.48-1.34,23.82,23.82,0,0,1,3.07,4.17,1,1,0,0,1-.37,1.36A1,1,0,0,1,1732.35,248.62Zm-493.21-3a1,1,0,0,1-1-.7,1,1,0,0,1,.65-1.26c1.57-.49,3.17-1,4.79-1.48a1,1,0,0,1,.58,1.91q-2.42.74-4.77,1.48A1,1,0,0,1,1239.14,245.59Zm9.57-2.92a1,1,0,0,1-.28-2l4.81-1.38a1,1,0,1,1,.55,1.92l-4.8,1.38A.9.9,0,0,1,1248.71,242.67Zm477.07-1.45a1,1,0,0,1-.63-.22,44.89,44.89,0,0,0-4-2.88,1,1,0,0,1,1.1-1.67,50.51,50.51,0,0,1,4.12,3,1,1,0,0,1-.64,1.77ZM1258.33,240a1,1,0,0,1-.26-2l4.84-1.29a1,1,0,0,1,.51,1.93l-4.82,1.29A1.26,1.26,0,0,1,1258.33,240Zm9.68-2.55a1,1,0,0,1-.25-2l4.86-1.22a1,1,0,0,1,.48,2l-4.85,1.2A1,1,0,0,1,1268,237.41Zm449.46-1.69a.91.91,0,0,1-.48-.13c-1.38-.76-2.86-1.51-4.4-2.25a1,1,0,0,1,.86-1.8c1.57.75,3.09,1.52,4.5,2.3a1,1,0,0,1-.48,1.88ZM1277.72,235a1,1,0,0,1-.23-2l4.88-1.14a1,1,0,1,1,.45,2L1278,235A.85.85,0,0,1,1277.72,235Zm9.75-2.24a1,1,0,0,1-1-.78,1,1,0,0,1,.76-1.19c1.61-.36,3.24-.72,4.89-1.07a1,1,0,1,1,.42,1.95l-4.88,1.07A.82.82,0,0,1,1287.47,232.79Zm421-1.39a.88.88,0,0,1-.39-.08c-1.48-.62-3-1.23-4.61-1.83a1,1,0,1,1,.7-1.87c1.61.6,3.18,1.23,4.68,1.86a1,1,0,0,1-.38,1.92Zm-411.21-.71a1,1,0,0,1-1-.8,1,1,0,0,1,.78-1.18l4.9-1a1,1,0,0,1,.4,2l-4.89,1Zm9.8-2a1,1,0,0,1-1-.81,1,1,0,0,1,.79-1.17l4.92-.95a1,1,0,0,1,1.17.79,1,1,0,0,1-.8,1.17l-4.9.95Zm392-.84a.86.86,0,0,1-.32-.05c-1.53-.52-3.12-1-4.73-1.54a1,1,0,0,1-.66-1.25,1,1,0,0,1,1.25-.66c1.63.51,3.24,1,4.78,1.56a1,1,0,0,1-.32,1.94Zm-382.22-1a1,1,0,0,1-.18-2l4.93-.89a1,1,0,1,1,.35,2l-4.92.89A.55.55,0,0,1,1316.88,226.84Zm9.85-1.75a1,1,0,0,1-1-.83,1,1,0,0,1,.82-1.16l4.93-.84a1,1,0,0,1,1.16.82,1,1,0,0,1-.83,1.15l-4.92.84Zm362.82-.18a1.26,1.26,0,0,1-.27,0c-1.57-.45-3.17-.88-4.81-1.31a1,1,0,0,1,.51-1.94q2.48.66,4.84,1.32a1,1,0,0,1,.69,1.24A1,1,0,0,1,1689.55,224.91Zm-353-1.48a1,1,0,0,1-.16-2l5-.79a1,1,0,1,1,.31,2l-4.94.79Zm343.28-1.06-.23,0c-1.59-.38-3.21-.76-4.86-1.13a1,1,0,0,1-.75-1.2,1,1,0,0,1,1.19-.75q2.49.56,4.89,1.14a1,1,0,0,1-.24,2Zm-333.4-.49a1,1,0,0,1-.15-2l5-.74a1,1,0,0,1,.3,2l-5,.74Zm9.9-1.46a1,1,0,0,1-.14-2l5-.69a1,1,0,0,1,.27,2l-5,.69Zm313.75-.24-.21,0c-1.6-.33-3.23-.66-4.89-1a1,1,0,0,1-.79-1.17,1,1,0,0,1,1.17-.79q2.5.48,4.92,1a1,1,0,0,1-.2,2Zm-303.84-1.12a1,1,0,0,1-.13-2l5-.65a1,1,0,0,1,1.12.86,1,1,0,0,1-.87,1.12l-4.95.65Zm294-.8h-.18c-1.62-.3-3.26-.58-4.92-.86a1,1,0,0,1,.34-2c1.67.29,3.31.57,4.94.87a1,1,0,0,1-.18,2Zm-284.1-.48a1,1,0,0,1-.12-2l5-.61a1,1,0,0,1,1.12.87,1,1,0,0,1-.88,1.12l-5,.6Zm274.24-1.19h-.16l-4.93-.76a1,1,0,1,1,.29-2c1.67.24,3.32.5,4.95.75a1,1,0,0,1-.15,2Zm-264.31,0a1,1,0,0,1-1-.89,1,1,0,0,1,.87-1.1l5-.57a1,1,0,0,1,.22,2l-5,.56Zm9.94-1.11a1,1,0,0,1-.11-2l5-.53a1,1,0,0,1,1.1.9,1,1,0,0,1-.89,1.09l-5,.53Zm244.47-.35h-.13q-2.46-.35-5-.66a1,1,0,1,1,.25-2l5,.67a1,1,0,0,1,.85,1.12A1,1,0,0,1,1640.54,215.13ZM1406,214.46a1,1,0,0,1-.1-2l5-.48a1,1,0,1,1,.19,2l-5,.48Zm224.6-.61h-.12l-5-.58a1,1,0,1,1,.23-2c1.67.18,3.33.38,5,.57a1,1,0,0,1-.12,2ZM1416,213.51a1,1,0,0,1-.09-2l5-.44a1,1,0,0,1,.17,2l-5,.44Zm204.71-.78h-.1l-5-.5a1,1,0,0,1-.9-1.09,1,1,0,0,1,1.09-.9l5,.5a1,1,0,0,1-.11,2Zm-194.74-.08a1,1,0,0,1-.08-2l5-.4a1,1,0,0,1,1.07.92,1,1,0,0,1-.92,1.07l-5,.41Zm10-.79a1,1,0,0,1-.07-2l5-.37a1,1,0,1,1,.14,2l-5,.36Zm174.82-.09h-.09l-5-.43a1,1,0,0,1-.91-1.07,1,1,0,0,1,1.08-.92l5,.43a1,1,0,0,1-.09,2Zm-164.86-.61a1,1,0,0,1-.07-2l5-.33a1,1,0,0,1,1.06.94,1,1,0,0,1-.94,1.06l-5,.32Zm154.89-.22h-.08l-5-.37a1,1,0,1,1,.14-2l5,.36a1,1,0,0,1,.92,1.08A1,1,0,0,1,1600.76,210.94Zm-144.91-.41a1,1,0,0,1-.06-2l5-.29a1,1,0,0,1,1,.94,1,1,0,0,1-.94,1.06l-5,.28Zm134.93-.29h-.06c-1.65-.11-3.32-.21-5-.3a1,1,0,0,1,.12-2l5,.3a1,1,0,0,1,.94,1.07A1,1,0,0,1,1590.78,210.24ZM1465.84,210a1,1,0,0,1-.06-2l5-.24a1,1,0,0,1,1,1,1,1,0,0,1-.95,1l-5,.25Zm115-.31h-.06l-5-.25a1,1,0,1,1,.1-2c1.67.07,3.34.16,5,.24a1,1,0,0,1,1,1.05A1,1,0,0,1,1580.8,209.66Zm-105-.16a1,1,0,0,1,0-2l5-.21a1,1,0,1,1,.08,2l-5,.2Zm95-.31h0l-5-.19a1,1,0,0,1-1-1,1,1,0,0,1,1-1l5,.19a1,1,0,0,1,0,2Zm-85-.09a1,1,0,0,1,0-2l5-.17a1,1,0,0,1,.07,2l-5,.17Zm75-.27h0l-5-.14a1,1,0,0,1-1-1,1,1,0,0,1,1-1l5,.14a1,1,0,0,1,0,2Zm-65-.05a1,1,0,0,1,0-2l5-.12h0a1,1,0,0,1,1,1,1,1,0,0,1-1,1c-1.67,0-3.33.08-5,.12Zm55-.21h0l-5-.09a1,1,0,0,1-1-1,1,1,0,0,1,1-1h0l5,.09a1,1,0,0,1,0,2Zm-45,0a1,1,0,0,1,0-2l5-.09a1,1,0,0,1,0,2l-5,.09Zm35-.14h0l-5,0a1,1,0,0,1,0-2h0l5,0a1,1,0,0,1,0,2Zm-25,0a1,1,0,0,1,0-2l5,0h0a1,1,0,0,1,0,2l-5,0Zm15-.06h-5a1,1,0,0,1,0-2h5a1,1,0,0,1,0,2Z"/><circle class="cls-11" cx="1425.59" cy="451.73" r="278.4" transform="translate(98.13 1140.35) rotate(-45)"/><path class="cls-3" d="M1466,731.13h-1.65a277.21,277.21,0,1,1,1.65,0Zm-.07-556.8c-152.23,0-276.49,123.38-277.37,275.8a277.39,277.39,0,0,0,275.8,279h1.62c152.23,0,276.5-123.38,277.37-275.81h0c.88-152.95-122.84-278.11-275.8-279Z"/><path class="cls-3" d="M1466.41,317.68c-77.31,0-153.29-13-219.74-37.64l.69-1.87c66.23,24.54,142,37.51,219.05,37.51,76.47,0,151.71-12.78,217.58-37l.69,1.88C1618.59,304.85,1543.12,317.68,1466.41,317.68Z"/><path class="cls-3" d="M1244.82,621.43l-.71-1.87c67.09-25.25,144-38.59,222.3-38.59,77.91,0,154.42,13.21,221.25,38.2L1687,621c-66.6-24.91-142.86-38.07-220.54-38.07C1388.3,583,1311.68,596.27,1244.82,621.43Z"/><path class="cls-3" d="M1465.92,731.13c-39,0-75.62-29.15-103.1-82.08-27.37-52.73-42.44-122.8-42.44-197.32s15.07-144.6,42.44-197.32c27.48-52.93,64.1-82.08,103.1-82.08s75.61,29.15,103.09,82.08c27.37,52.72,42.45,122.8,42.45,197.32S1596.38,596.32,1569,649.05C1541.53,702,1504.92,731.13,1465.92,731.13Zm0-556.8c-79.15,0-143.54,124.44-143.54,277.4s64.39,277.4,143.54,277.4,143.54-124.44,143.54-277.4S1545.07,174.33,1465.92,174.33Z"/><rect class="cls-3" x="1464.92" y="173.92" width="2" height="555.84"/><rect class="cls-3" x="1464.86" y="171.51" width="2" height="557.04" transform="translate(1004.42 1912.35) rotate(-89.55)"/><path class="cls-9" d="M1168.89,292.62a1,1,0,0,1-1-.93c0-.34,0-.68,0-1a18.14,18.14,0,0,1,2.58-9,1,1,0,1,1,1.74,1,16.15,16.15,0,0,0-2.32,8c0,.29,0,.58,0,.88a1,1,0,0,1-.94,1.06Zm549.77-14.4a1,1,0,0,1-.57-1.82,61.23,61.23,0,0,0,7.61-6.21,1,1,0,1,1,1.4,1.43,64.71,64.71,0,0,1-7.87,6.42A1,1,0,0,1,1718.66,278.22Zm-541.06-2.73a1,1,0,0,1-.69-1.73,66.91,66.91,0,0,1,7.94-6.29,1,1,0,1,1,1.13,1.65,65.52,65.52,0,0,0-7.7,6.1A1,1,0,0,1,1177.6,275.49Zm16.34-11.43a1,1,0,0,1-.49-1.87c2.76-1.54,5.77-3.08,9-4.59a1,1,0,0,1,.86,1.8c-3.15,1.5-6.12,3-8.85,4.54A1,1,0,0,1,1193.94,264.06Zm538.55,0a1,1,0,0,1-.46-.11,1,1,0,0,1-.43-1.35,15.75,15.75,0,0,0,1.9-7.24c0-.29,0-.59,0-.88s0-.63-.09-.94a1,1,0,0,1,.85-1.12,1,1,0,0,1,1.13.85c.05.36.08.72.11,1.08s0,.67,0,1a17.69,17.69,0,0,1-2.12,8.16A1,1,0,0,1,1732.49,264ZM1212,255.43a1,1,0,0,1-.39-1.92c3-1.24,6.1-2.49,9.33-3.7a1,1,0,1,1,.71,1.87c-3.21,1.21-6.33,2.44-9.27,3.67A.84.84,0,0,1,1212,255.43Zm18.71-7.06a1,1,0,0,1-.32-2c3.07-1,6.28-2.1,9.53-3.12a1,1,0,1,1,.6,1.91c-3.24,1-6.43,2.06-9.48,3.1A1,1,0,0,1,1230.69,248.37Zm499.49-2.85a1,1,0,0,1-.77-.36,35.55,35.55,0,0,0-7.25-6.4,1,1,0,1,1,1.13-1.64,37.3,37.3,0,0,1,7.66,6.76,1,1,0,0,1-.13,1.41A1,1,0,0,1,1730.18,245.52Zm-480.4-3.16a1,1,0,0,1-.28-2c3.13-.91,6.38-1.82,9.65-2.7a1,1,0,0,1,1.23.7,1,1,0,0,1-.71,1.23c-3.25.88-6.49,1.78-9.61,2.69A1,1,0,0,1,1249.78,242.36Zm19.31-5.22a1,1,0,0,1-.24-2c3.17-.8,6.45-1.6,9.74-2.37a1,1,0,0,1,1.2.74,1,1,0,0,1-.75,1.21c-3.28.77-6.54,1.56-9.7,2.36A1.07,1.07,0,0,1,1269.09,237.14Zm445-3.19a1,1,0,0,1-.44-.1c-2.75-1.35-5.81-2.68-9.09-3.94a1,1,0,1,1,.72-1.87c3.34,1.29,6.45,2.64,9.25,4a1,1,0,0,1,.45,1.33A1,1,0,0,1,1714.08,234Zm-425.51-1.4a1,1,0,0,1-.22-2c3.22-.71,6.49-1.4,9.8-2.09a1,1,0,0,1,.41,2q-5,1-9.77,2.09Zm19.59-4.06a1,1,0,0,1-.19-2q4.86-.94,9.84-1.86a1,1,0,0,1,.36,2c-3.31.61-6.59,1.22-9.82,1.85A.62.62,0,0,1,1308.16,228.49Zm387.3-1.81a.82.82,0,0,1-.3-.05c-3-.95-6.22-1.88-9.56-2.77a1,1,0,1,1,.52-1.94c3.36.9,6.61,1.84,9.65,2.81a1,1,0,0,1-.31,2Zm-367.62-1.79a1,1,0,0,1-.17-2q4.89-.84,9.88-1.64a1,1,0,1,1,.32,2q-5,.8-9.86,1.64Zm19.75-3.18a1,1,0,0,1-.15-2c3.28-.49,6.58-1,9.91-1.45a1,1,0,0,1,.28,2c-3.32.47-6.62,1-9.89,1.45Zm328.56-.22a.82.82,0,0,1-.22,0c-3.13-.72-6.41-1.41-9.76-2.08a1,1,0,1,1,.39-2c3.36.67,6.66,1.37,9.81,2.09a1,1,0,0,1-.22,2Zm-308.75-2.58a1,1,0,0,1-1-.87,1,1,0,0,1,.86-1.12q4.93-.66,9.93-1.27a1,1,0,1,1,.25,2c-3.33.41-6.64.84-9.92,1.27Zm289.13-1.31-.17,0c-3.19-.55-6.51-1.08-9.86-1.58a1,1,0,0,1-.84-1.14,1,1,0,0,1,1.14-.84c3.36.5,6.69,1,9.9,1.59a1,1,0,0,1-.17,2Zm-269.27-1.14a1,1,0,0,1-1-.89,1,1,0,0,1,.87-1.1q5-.57,10-1.1a1,1,0,0,1,1.1.89,1,1,0,0,1-.89,1.1c-3.34.35-6.65.72-9.94,1.09Zm249.48-1.84h-.13c-3.22-.42-6.56-.83-9.91-1.21a1,1,0,0,1-.88-1.11,1,1,0,0,1,1.11-.88c3.36.38,6.71.79,9.94,1.21a1,1,0,0,1-.13,2Zm-229.59-.27a1,1,0,0,1-1-.91,1,1,0,0,1,.89-1.09q5-.48,10-.93a1,1,0,0,1,1.09.9,1,1,0,0,1-.91,1.09q-5,.45-10,.93Zm19.93-1.79a1,1,0,0,1-.08-2c3.31-.27,6.63-.53,10-.78a1,1,0,1,1,.14,2c-3.33.24-6.66.5-10,.77Zm189.79-.21h-.1c-3.25-.32-6.6-.62-10-.91a1,1,0,0,1-.91-1.08,1,1,0,0,1,1.08-.91c3.36.28,6.72.59,10,.91a1,1,0,0,1-.09,2ZM1447,211.08a1,1,0,0,1-.06-2l.51,0q4.76-.31,9.48-.59a1,1,0,0,1,1,.94,1,1,0,0,1-.94,1.06c-3.14.18-6.29.38-9.46.58l-.51,0Zm149.91-.42h-.07q-4.92-.36-10-.66a1,1,0,1,1,.12-2c3.37.2,6.71.42,10,.65a1,1,0,0,1-.07,2ZM1467,209.91a1,1,0,0,1-1-.95,1,1,0,0,1,1-1.05q5-.25,10-.46a1,1,0,0,1,.09,2c-3.32.15-6.64.3-10,.47Zm110-.44h0q-5-.24-10-.43a1,1,0,0,1,.08-2q5.06.19,10,.43a1,1,0,0,1,0,2Zm-90-.41a1,1,0,0,1,0-2c3.35-.12,6.69-.22,10-.31a1,1,0,0,1,1,1,1,1,0,0,1-1,1q-5,.13-10,.31Zm70-.34h0q-4.95-.14-10-.22a1,1,0,1,1,0-2c3.37.06,6.7.13,10,.22a1,1,0,0,1,0,2Zm-50-.19a1,1,0,0,1,0-2c3.36-.06,6.69-.11,10-.14h0a1,1,0,0,1,0,2q-5,0-10,.14Zm30-.16h0c-3,0-5.93,0-8.93,0H1527a1,1,0,0,1-1-1,1,1,0,0,1,1-1H1528c3,0,6,0,9,0a1,1,0,0,1,0,2Z"/><path class="cls-9" d="M1188.69,644.69a1,1,0,0,1-1-1,1,1,0,0,1,1-1c3.17-.07,6.52-.2,10-.39a1,1,0,0,1,1.06.94,1,1,0,0,1-1,1.06c-3.46.19-6.83.32-10,.39Zm-10,0h0c-3.55-.09-6.93-.27-10.05-.54a1,1,0,0,1-.91-1.09,1,1,0,0,1,1.09-.9c3.07.27,6.41.45,9.92.53a1,1,0,0,1,0,2Zm30-1.07a1,1,0,0,1-.08-2c3.2-.27,6.54-.58,9.93-.94a1,1,0,1,1,.21,2c-3.4.36-6.76.68-10,.94Zm-49.87-.8a.55.55,0,0,1-.18,0,55.34,55.34,0,0,1-9.81-2.7,1,1,0,0,1,.73-1.86,53.83,53.83,0,0,0,9.45,2.6,1,1,0,0,1-.19,2Zm69.76-1.29a1,1,0,0,1-.12-2c3.22-.4,6.55-.85,9.9-1.32a1,1,0,1,1,.28,2c-3.37.47-6.71.92-9.93,1.32Zm19.81-2.8a1,1,0,0,1-.15-2c3.23-.5,6.52-1,9.86-1.6a1,1,0,0,1,.33,2c-3.35.57-6.64,1.1-9.88,1.61Zm19.73-3.34a1,1,0,0,1-.18-2q4.85-.89,9.82-1.84a1,1,0,0,1,.38,2c-3.33.64-6.61,1.26-9.84,1.84A.58.58,0,0,1,1268.1,635.38Zm-127.34-.46a1,1,0,0,1-.72-.31,13.1,13.1,0,0,1-2.93-4.74,12.79,12.79,0,0,1-.68-4.17q0-.47,0-1a1,1,0,0,1,1.07-.93,1,1,0,0,1,.93,1.07c0,.28,0,.55,0,.82a10.78,10.78,0,0,0,.57,3.52,11.27,11.27,0,0,0,2.49,4,1,1,0,0,1-.73,1.68Zm147-3.32a1,1,0,0,1-.2-2c3.22-.66,6.49-1.34,9.78-2a1,1,0,1,1,.42,2q-5,1.05-9.8,2Zm19.57-4.16a1,1,0,0,1-.22-2q4.83-1.07,9.75-2.2a1,1,0,1,1,.45,2c-3.29.76-6.54,1.49-9.77,2.2A.76.76,0,0,1,1307.31,627.44ZM1326.8,623a1,1,0,0,1-.23-2q4.82-1.14,9.72-2.35a1,1,0,1,1,.47,2q-4.9,1.2-9.73,2.35A.85.85,0,0,1,1326.8,623Zm19.43-4.78a1,1,0,0,1-.25-2c3.21-.81,6.43-1.63,9.69-2.48a1,1,0,0,1,1.21.72,1,1,0,0,1-.71,1.22q-4.89,1.26-9.7,2.48Zm-205.54-1.74a1,1,0,0,1-.5-.13,1,1,0,0,1-.36-1.37,53.65,53.65,0,0,1,6-8.22,1,1,0,1,1,1.51,1.31,52.18,52.18,0,0,0-5.78,7.91A1,1,0,0,1,1140.69,616.44Zm224.9-3.29a1,1,0,0,1-.26-2q4.8-1.27,9.65-2.6a1,1,0,0,1,1.23.7,1,1,0,0,1-.7,1.23l-9.66,2.61Zm19.29-5.28a1,1,0,0,1-1-.73,1,1,0,0,1,.7-1.23q4.77-1.33,9.61-2.72a1,1,0,1,1,.55,1.92l-9.62,2.73A1.33,1.33,0,0,1,1384.88,607.87Zm19.24-5.5a1,1,0,0,1-.28-2q4.77-1.39,9.58-2.83a1,1,0,0,1,.58,1.92q-4.83,1.44-9.6,2.83A1,1,0,0,1,1404.12,602.37Zm19.17-5.72a1,1,0,0,1-.3-1.95l9.56-2.94a1,1,0,0,1,1.25.66,1,1,0,0,1-.66,1.25c-3.2,1-6.39,2-9.56,2.94A1,1,0,0,1,1423.29,596.65Zm19.1-5.92a1,1,0,0,1-.3-2l9.53-3a1,1,0,1,1,.61,1.9q-4.79,1.53-9.54,3A1,1,0,0,1,1442.39,590.73Zm19-6.12a1,1,0,0,1-.31-2q4.72-1.54,9.49-3.13a1,1,0,0,1,1.27.64,1,1,0,0,1-.64,1.26q-4.77,1.59-9.5,3.13A.84.84,0,0,1,1461.44,584.61Zm19-6.3a1,1,0,0,1-.32-1.95q4.73-1.59,9.46-3.23a1,1,0,0,1,.65,1.9q-4.74,1.62-9.47,3.22A.91.91,0,0,1,1480.42,578.31Zm18.92-6.5a1,1,0,0,1-.33-1.94l9.43-3.32a1,1,0,0,1,.67,1.89l-9.44,3.31A1,1,0,0,1,1499.34,571.81Zm18.85-6.68a1,1,0,0,1-.34-1.94q4.73-1.7,9.4-3.41a1,1,0,0,1,.69,1.88q-4.68,1.71-9.41,3.41A1,1,0,0,1,1518.19,565.13Zm18.79-6.87a1,1,0,0,1-.35-1.94q4.71-1.74,9.37-3.5a1,1,0,0,1,1.28.58,1,1,0,0,1-.58,1.29l-9.37,3.51A1.07,1.07,0,0,1,1537,558.26Zm18.72-7.06a1,1,0,0,1-.94-.64,1,1,0,0,1,.58-1.3c3.13-1.19,6.24-2.4,9.33-3.6a1,1,0,0,1,.72,1.87l-9.33,3.6A.92.92,0,0,1,1555.7,551.2Zm18.64-7.26A1,1,0,0,1,1574,542q4.68-1.85,9.29-3.7a1,1,0,1,1,.74,1.85q-4.61,1.86-9.29,3.71A1,1,0,0,1,1574.34,543.94Zm18.56-7.46a1,1,0,0,1-.38-1.93q4.67-1.9,9.24-3.81a1,1,0,0,1,.77,1.85q-4.59,1.9-9.25,3.81A1,1,0,0,1,1592.9,536.48Zm18.47-7.68a1,1,0,0,1-.39-1.92q4.65-2,9.2-3.92a1,1,0,1,1,.79,1.83q-4.56,2-9.21,3.93A1,1,0,0,1,1611.37,528.8Zm18.38-7.91a1,1,0,0,1-.91-.6,1,1,0,0,1,.51-1.31l9.15-4a1,1,0,1,1,.81,1.82q-4.53,2-9.15,4A1,1,0,0,1,1629.75,520.89Zm18.28-8.14a1,1,0,0,1-.42-1.91c3.06-1.4,6.09-2.78,9.09-4.17a1,1,0,0,1,.84,1.81q-4.5,2.08-9.1,4.18A1,1,0,0,1,1648,512.75Zm18.15-8.41a1,1,0,0,1-.43-1.91q4.57-2.16,9-4.31a1,1,0,0,1,.87,1.8q-4.46,2.16-9,4.32A1,1,0,0,1,1666.18,504.34Zm18-8.7a1,1,0,0,1-.45-1.9c3-1.5,6-3,8.94-4.47a1,1,0,1,1,.9,1.79q-4.41,2.22-8.95,4.47A1,1,0,0,1,1684.2,495.64Zm17.85-9a1,1,0,0,1-.46-1.89q4.5-2.34,8.85-4.65a1,1,0,0,1,.94,1.77q-4.37,2.31-8.87,4.65A1,1,0,0,1,1702.05,486.61Zm17.66-9.41a1,1,0,0,1-.48-1.88c3-1.62,5.9-3.26,8.72-4.86a1,1,0,0,1,1.37.38,1,1,0,0,1-.38,1.36c-2.84,1.6-5.78,3.25-8.75,4.87A1,1,0,0,1,1719.71,477.2Zm17.41-9.87a1,1,0,0,1-.51-1.86c2.93-1.72,5.81-3.44,8.57-5.12a1,1,0,1,1,1,1.7c-2.77,1.69-5.66,3.42-8.6,5.15A1,1,0,0,1,1737.12,467.33Zm17.07-10.43a1,1,0,0,1-.84-.46,1,1,0,0,1,.3-1.38c2.87-1.83,5.68-3.67,8.35-5.47a1,1,0,0,1,1.12,1.66c-2.69,1.8-5.51,3.65-8.39,5.5A1,1,0,0,1,1754.19,456.9Zm16.58-11.19a1,1,0,0,1-.81-.42,1,1,0,0,1,.23-1.39c2.81-2,5.5-4,8-6a1,1,0,0,1,1.4.17,1,1,0,0,1-.17,1.41c-2.51,2-5.22,4-8.05,6A1,1,0,0,1,1770.77,445.71Zm15.77-12.32a1,1,0,0,1-.66-1.75c2.67-2.31,5.12-4.58,7.28-6.75a1,1,0,0,1,1.41,0,1,1,0,0,1,0,1.42c-2.19,2.2-4.68,4.51-7.39,6.85A1,1,0,0,1,1786.54,433.39Zm14-14.27a1,1,0,0,1-.79-1.61,38.85,38.85,0,0,0,5-8.28,1,1,0,0,1,1.3-.54,1,1,0,0,1,.54,1.31,40.19,40.19,0,0,1-5.28,8.73A1,1,0,0,1,1800.49,419.12Zm6.33-18.18a1,1,0,0,1-1-.75,9.07,9.07,0,0,0-.26-.89,12.78,12.78,0,0,0-5.23-6.3,1,1,0,0,1,1.12-1.66,14.7,14.7,0,0,1,6,7.31c.12.35.22.7.31,1.05a1,1,0,0,1-.73,1.21Zm-15-11.8a1,1,0,0,1-.28,0,68.24,68.24,0,0,0-9.64-2,1,1,0,1,1,.29-2,72.41,72.41,0,0,1,9.91,2.08,1,1,0,0,1-.28,2Z"/><rect class="cls-3" x="1418.89" y="474.15" width="106.92" height="180.63" transform="translate(415.21 1734.47) rotate(-68.88)"/><path class="cls-12" d="M1486.05,564.51a35.51,35.51,0,0,1-28.43-14.23l-44-58.32a1,1,0,0,1,1.6-1.21l44,58.33a33.54,33.54,0,0,0,33.2,12.83l74.19-14a1,1,0,1,1,.37,2l-74.19,14A35.93,35.93,0,0,1,1486.05,564.51Z"/><circle class="cls-3" cx="1586.72" cy="1035.34" r="212.17" transform="translate(-267.35 1425.22) rotate(-45)"/><path class="cls-12" d="M1502.29,1098.47h-80.41v-16l37.95-40.45a93.72,93.72,0,0,0,11.56-14.9,24,24,0,0,0,3.75-12.09q0-7.82-4-12.28t-11.28-4.48c-5.27,0-9.41,1.82-12.45,5.44s-4.55,8.39-4.55,14.3h-23.37a38.49,38.49,0,0,1,5.12-19.58,36,36,0,0,1,14.46-13.89,43.94,43.94,0,0,1,21.19-5q18.14,0,28.16,8.7t10,24.58a39.38,39.38,0,0,1-4.51,17.72q-4.52,9-15.47,21l-26.67,28.12h50.44Z"/><path class="cls-12" d="M1585.43,1054.32h13.3v18.77h-13.3v25.38h-23.28v-25.38h-48.1l-1-14.66,48.91-77.27h23.52Zm-49.22,0h25.94v-41.41l-1.53,2.66Z"/><path class="cls-12" d="M1619.51,1108.54h-17.32l43.19-127.38h17.32Z"/><path class="cls-12" d="M1752.61,994.16l-45.36,104.31h-24.57l45.44-98.54h-58.33V981.16h82.82Z"/><circle class="cls-3" cx="1354.29" cy="1445.33" r="158.9" transform="translate(-625.34 1380.96) rotate(-45)"/><path class="cls-4" d="M1437.49,1437.22q-1.1,25.59-12.65,40.64t-31,15.05a28.64,28.64,0,0,1-14.84-3.7,23.41,23.41,0,0,1-9.45-10.6q-10,14-26.09,14-14.6,0-22.59-12.3t-6-32.49a84.25,84.25,0,0,1,8.34-29.34q6.55-12.84,16.55-19.75a37.32,37.32,0,0,1,21.59-6.89q14.3,0,24.4,6.59l6.29,4.3-5.09,57.79q-1,7.89,1.74,12.09t8.75,4.2q9.19,0,15.4-10.75t6.8-28.14q1.7-34.89-14-53.63t-46.64-18.74q-19.29,0-34.39,9.79t-23.79,27.84q-8.7,18-9.8,41.34-1.59,35.38,14.2,54.73t47.29,19.35a87.5,87.5,0,0,0,17.39-1.85,70.49,70.49,0,0,0,15.7-5l3.79,15.4q-6.09,4-16.44,6.44a89.84,89.84,0,0,1-20.84,2.45q-26.4,0-45-10.64t-27.74-31.39q-9.15-20.74-8-49.54,1.2-27.58,12.6-49.48t31-33.84q19.63-12,44.33-12,25.1,0,43.19,10.75a66.48,66.48,0,0,1,27.09,30.74Q1438.59,1410.74,1437.49,1437.22ZM1337,1447.82q-1.1,13.2,2.3,20a11.45,11.45,0,0,0,11,6.85q4.89,0,9.29-4.3t7.3-12.39l4.2-47.29a25.34,25.34,0,0,0-8-1.3q-11.49,0-17.84,9.8T1337,1447.82Z"/><circle class="cls-3" cx="976.99" cy="173.37" r="129.87" transform="translate(163.56 741.62) rotate(-45)"/><path class="cls-4" d="M1038.78,113.19a53.46,53.46,0,0,0-23.89-26.32,31.67,31.67,0,0,0-12.08-3.69L975,134.8a31.78,31.78,0,0,0,35.58,9.95c-1.74,8-5.62,18.91-13.42,33.38-8.79,16.3-16.36,26.94-22.52,33.9a31.77,31.77,0,0,0-28-24.68L918.82,239a31.73,31.73,0,0,0,9.72,8.07c2.15,1.16,15.65,11.86,30.33,9.17,21.91-4,43.69-22.49,65.68-63.29C1042.62,159.4,1047.27,132.64,1038.78,113.19Z"/></g></g></g></svg>