<svg xmlns="http://www.w3.org/2000/svg" viewBox="0 0 159.07 159.07"><defs><style>.cls-1{fill:#dedfe0;}.cls-2{fill:#555a5e;}.cls-3{fill:#d2d4da;}.cls-4{fill:#f4f4f4;}.cls-5{fill:#6e7174;}</style></defs><g id="Layer_2" data-name="Layer 2"><g id="OBJECTS"><path class="cls-1" d="M159.07,79.53A79.54,79.54,0,1,1,79.54,0,79.28,79.28,0,0,1,159.07,79.53Z"/><path class="cls-2" d="M79.19,28.94l-.69-.13A20.9,20.9,0,0,0,53.88,49.38V74.27A10.26,10.26,0,0,0,64.15,84.53H94.24A10.26,10.26,0,0,0,104.5,74.27V49.38A20.9,20.9,0,0,0,79.88,28.81Z"/><path class="cls-3" d="M91.67,92.48c-1.76,7.73-6.52,13.27-12.13,13.27S69.16,100.2,67.4,92.46l1.35-5.25.41-1.57H89.91l1.54,6,.14.54Z"/><path class="cls-4" d="M105.64,63.06c10.33-11.59,3.44,16.75-2.28,13.44C93.32,70.68,105.64,63.06,105.64,63.06Z"/><path class="cls-4" d="M136.78,134.74a80.24,80.24,0,0,1-18.32,14.16A78.92,78.92,0,0,1,83.37,159c-1.27.07-2.55.1-3.84.1a79.8,79.8,0,0,1-18.61-2.19,78.81,78.81,0,0,1-23.19-9.67,79.83,79.83,0,0,1-15.45-12.47l1.37-5.4A22.56,22.56,0,0,1,40.26,113l.9-.21,10-2.39,2.73-.65a16.51,16.51,0,0,0,5.77-2.64,16.15,16.15,0,0,0,2.34-2,16.55,16.55,0,0,0,4-7.28l1.06-4.12.28-1.11,0-.09,1.36-5.25.4-1.57H89.9l1.55,6,.14.54.08.3v.07L92,93.67,93,97.78a16.52,16.52,0,0,0,6.39,9.31,16.19,16.19,0,0,0,5.76,2.64l2.52.6L118.8,113a22.56,22.56,0,0,1,16.61,16.36Z"/><path class="cls-3" d="M91.67,92.48c-1.76,7.73-6.52,13.27-12.13,13.27S69.16,100.2,67.4,92.46l1.35-5.25.41-1.57H89.91l1.54,6,.14.54Z"/><path class="cls-4" d="M53.44,63.06C43.11,51.47,50,79.81,55.71,76.5,65.76,70.68,53.44,63.06,53.44,63.06Z"/><path class="cls-4" d="M103.58,54.71a22.41,22.41,0,0,1-.15,2.6c-.08.78-.43,4.11-1.05,8.35h0c-.34,2.35-.78,5-1.3,7.62,0,0,0,.07,0,.1-1.27,6.43-3.06,12.83-5.4,15.16-2.64,2.64-4.76,5-7.18,6.77a15.55,15.55,0,0,1-17.86,0c-2.41-1.73-4.54-4.13-7.18-6.77C61.09,86.21,59.3,79.8,58,73.38h0a0,0,0,0,1,0,0c-.16-.83-.31-1.66-.46-2.48l-.18-1c-.25-1.44-.47-2.85-.67-4.17-.72-4.87-1.07-8.54-1.07-8.54a24.06,24.06,0,0,1-.12-2.42c0-.21,0-.42,0-.63a23.69,23.69,0,0,1,.78-5.49l.06-.24a24,24,0,0,1,21.8-17.63c.46,0,.91,0,1.38,0A24,24,0,0,1,103.43,52,23.63,23.63,0,0,1,103.58,54.71Z"/><path class="cls-1" d="M83.31,76.32c0,1.66-1.69,3-3.78,3s-3.77-1.35-3.77-3a1.89,1.89,0,0,1,.08-.58,4,4,0,0,0,7.39,0A1.89,1.89,0,0,1,83.31,76.32Z"/><path class="cls-2" d="M80.59,29.67V51.24l-9.52,9.43a20.83,20.83,0,0,1-14.64,6c-.77-5.15-1.14-9-1.14-9-.08-.83-.12-1.69-.12-2.56,0-.22,0-.44,0-.66A25.29,25.29,0,0,1,56,48.62l.07-.26A25.42,25.42,0,0,1,79.13,29.71C79.62,29.68,80.09,29.67,80.59,29.67Z"/><polygon class="cls-2" points="56.43 66.69 53.88 63.36 53.88 60.9 57.63 60.9 56.43 66.69"/><path class="cls-2" d="M103.42,60.9h0c.18-1.55.29-2.64.34-3a25.06,25.06,0,0,0,.16-2.75,26.69,26.69,0,0,0-.16-2.83A25.41,25.41,0,0,0,78.48,29.67V51.24L88,60.66a20.65,20.65,0,0,0,14,6v0l2.54-3.33V60.9Z"/><path class="cls-5" d="M136.78,134.75a79.48,79.48,0,0,1-114.5,0l1.37-5.39A22.55,22.55,0,0,1,40.26,113l2.09-.5,8.82-2.1,2.16-.52.55-.13a16.25,16.25,0,0,0,3.5-1.27,30.37,30.37,0,0,0,44.3,0,16.59,16.59,0,0,0,3.5,1.27l.44.11,1.93.46,9,2.16,2.2.52a22.52,22.52,0,0,1,16.6,16.37Z"/><path class="cls-3" d="M119.59,148.26a79.62,79.62,0,0,1-80.25-.08l3-35.7,8.82-2.1,2.16-.52c3,12.69,10.2,31.31,26.14,31.31s23.11-18.64,26.15-31.33l1.93.46,9,2.16Z"/></g></g></svg>