<svg xmlns="http://www.w3.org/2000/svg" viewBox="0 0 1829.06 1830"><defs><style>.cls-1{fill:#f2e6dc;}.cls-2{fill:#363e44;}.cls-3{fill:#bc8271;}.cls-4{fill:#efbc73;}.cls-5{fill:#fff;}.cls-6{fill:#d87355;}.cls-7{fill:#8b865c;}.cls-8{fill:#ffd092;}.cls-9{fill:#d3bba3;}.cls-10{fill:#9e9569;}.cls-11{fill:#e2a18d;}.cls-12{fill:#f7f1eb;}.cls-13{fill:#b77250;}.cls-14{fill:#84524d;}.cls-15{fill:#a8a073;}</style></defs><g id="Layer_2" data-name="Layer 2"><g id="Illustration"><g id="Carb_cycling" data-name="Carb cycling"><circle class="cls-1" cx="914.53" cy="914.53" r="914.53"/><path class="cls-2" d="M943.93,293.34c4-6.21,16.78-28.78,9.22-37.21-5.49-6.11-19.63-2.64-29.32-6.58-10-4.06-17.29-20.11-30.51-21.66-12-1.4-19.08,9.18-32,11.6-17.11,3.24-31.65-7.92-44.15-.59-10.31,6-11.63,18.11-19.75,27.88-9.45,11.36-21.63,12.33-26.2,24.29-4.93,12.89,3.83,24.41.36,36.73-3.62,12.85-9.69,15.13-9.22,23.93.56,10.23,12,11.55,12.81,22.74.64,8.38-7.78,16.39-5.27,26.44,3.17,12.66,19.91,27,46.91,28.12C855.21,430.55,884.78,384.81,943.93,293.34Z"/><path class="cls-2" d="M849.76,220.71c-1.46,11.2-16.08,15.89-21.62,25-5.68,9.38,2.66,32.12-6.22,38.54s-27.88-8.6-38.67-5.93c-10.31,2.56-20.85,14.65-32.08,13.18S737,276.21,727.68,271.1c-9.74-5.36-32.08,4.14-38.9-4.23s7-28.31,3.9-38.84c-3-10.27-12.86-12.39-11.39-23.6s13-21.63,18.51-30.78c5.67-9.38,2.28-26,11.16-32.39s22.94,2.45,33.73-.22c10.31-2.56,20.09-24.89,31.32-23.42s15,25.57,24.25,30.68c9.74,5.36,25.45.87,32.27,9.23s-.35,23.31,2.72,33.84C838.25,201.64,851.23,209.5,849.76,220.71Z"/><path class="cls-2" d="M702.85,305.3a9.66,9.66,0,0,1-4.68-1.13c-5.8-3.15-6.55-11.47-7.26-19.52-.52-5.75-1-11.69-3.39-14.63-2.21-2.78-4.87-4.14-7.68-5.57-4.16-2.13-8.46-4.32-10.22-11-1.92-7.25.45-15.72,2.54-23.2a87.45,87.45,0,0,0,2.32-9.56c.58-3.68-.53-8.17-1.61-12.52-1.62-6.59-3.31-13.4.17-19s10-6.83,16.41-8.15c4.41-.91,9-1.85,12.09-4.13,2.87-2.09,4.81-7.62,6.68-13,2.71-7.73,5.52-15.73,12.11-17.48s13,3.82,19.17,9.21c4.27,3.72,8.69,7.56,12.22,8,3.81.44,8.22-.92,12.47-2.24,6.2-1.91,12.62-3.9,18.27-.82s7.74,9.8,9.62,16.24c1.23,4.22,2.5,8.58,4.82,11.5,2.2,2.75,5.63,4.76,9.25,6.88,5.62,3.29,11.42,6.69,13.19,13.35h0c1.76,6.67-1.58,12.64-4.82,18.4-2.07,3.69-4,7.18-4.58,10.66-.58,3.71,1.9,9.13,4.3,14.38,3.35,7.35,6.83,14.95,3.34,20.56s-11.65,5.8-19.63,6.11c-5.88.23-12,.46-15.07,2.74-2.82,2.06-5.26,5.41-7.85,8.95-4.13,5.66-8.41,11.51-15,13.26s-11.86-1.43-17-4.49c-3.47-2.08-6.74-4-10.28-4.44-3.84-.45-9.24,2.36-14.46,5.07S707.59,305.3,702.85,305.3Zm20-154.73a5.57,5.57,0,0,0-1.36.17c-4.33,1.15-6.75,8-9.08,14.68-2.19,6.26-4.26,12.17-8.23,15.07s-8.93,3.88-13.81,4.89c-5.74,1.18-11.17,2.3-13.56,6.15-2.49,4-1.1,9.66.37,15.62,1.18,4.77,2.4,9.7,1.69,14.26a94,94,0,0,1-2.43,10.07c-2,7.27-4.14,14.79-2.52,20.89,1.25,4.73,4.06,6.16,8,8.15,3,1.51,6.32,3.23,9.13,6.75,3.17,4,3.76,10.59,4.33,17,.61,6.89,1.25,14,5,16s9.89-1.29,16-4.44c5.81-3,11.81-6.13,17-5.54,4.48.51,8.32,2.81,12,5,4.74,2.83,8.83,5.28,13.6,4,5.13-1.35,8.94-6.56,12.62-11.6,2.68-3.66,5.44-7.44,8.81-9.9,4.2-3.08,11-3.34,17.5-3.59,6.83-.27,13.89-.54,16.06-4s-.74-10.11-3.61-16.41c-2.67-5.84-5.43-11.88-4.64-16.9.67-4.25,2.91-8.26,5.09-12.13,2.93-5.23,5.7-10.17,4.4-15.11h0c-1.3-4.9-6.09-7.7-11.15-10.67-3.82-2.24-7.77-4.55-10.48-7.95-2.86-3.59-4.25-8.38-5.61-13-1.7-5.82-3.3-11.33-7.49-13.6-4-2.19-9.28-.56-14.86,1.17-4.69,1.44-9.54,2.94-14.28,2.4s-9.61-4.67-14.61-9C731.83,154.86,726.91,150.57,722.82,150.57Z"/><rect class="cls-3" x="836.08" y="411.22" width="96.12" height="219.01" rx="48.06"/><path class="cls-3" d="M891.79,289c4.37-.43,46.26-3.86,71.5,24.79,18.78,21.31,21,48.67,17.87,95.14-3.71,54.71-13.44,80.24-29.19,91-24.89,17.06-99.6-14.44-127.64-62.21-20.24-34.49-17.93-78.9,3.46-113S889,289.22,891.79,289Z"/><path class="cls-2" d="M891.64,312.6c11.52,8.3,16.16,25.92,10.05,34.47-7.58,10.61-27.74,1.57-33.74,11.48-6.14,10.14,12.08,24.36,5.74,38.77-4.31,9.81-15.17,8.7-19.38,18.67-4,9.4,1.35,20.67,6.46,28.72-26.64-16.48-31.48-26.63-30.15-33,1.94-9.37,14.67-10.59,17.23-21.18,3.58-14.8-20.4-25.7-16.51-39.13,3.16-10.94,23-11.67,23.69-21.53.3-4.6-3.75-8.56-6.46-10.77C860.86,306,879.61,303.94,891.64,312.6Z"/><path class="cls-4" d="M971.33,324.27c-14.71-12.2-49.79-19.21-83.28-9.51-54.56,15.79-66,71.55-68.92,84.95-4.37,5-15.8.74-20.18,5.75-8.54-65.57,19.15-106.36,63.35-125.94,40.56-18,80.57-2.62,89.13.89C963.68,297.77,967.41,313.37,971.33,324.27Z"/><path class="cls-2" d="M931.47,508.13c-25.1,0-58.81-15.36-83.56-38.38a2.2,2.2,0,1,1,3-3.22c25.22,23.45,59.84,38.7,84.1,37.07a2.2,2.2,0,1,1,.29,4.4C934.05,508.08,932.77,508.13,931.47,508.13Z"/><path class="cls-5" d="M1017.07,360.19s-4.67,15.53-16.87,27.5c-2.44,2.39-14.41-24.31-9.33-25.64A73.45,73.45,0,0,1,1017.07,360.19Z"/><path class="cls-2" d="M950.45,402.7s23.11,3.33,41.5-8.41a51.42,51.42,0,0,0,8.3-6.66A28.08,28.08,0,0,0,991,362a53.88,53.88,0,0,0-15.4,6.57C957.17,380.34,950.45,402.7,950.45,402.7Z"/><path class="cls-5" d="M896.46,382.77c17.64,7,28.54,22.45,28.54,22.45a73.42,73.42,0,0,1-26.08,6.55C893.86,412.05,894.52,382,896.46,382.77Z"/><path class="cls-2" d="M896.46,382.77a48.94,48.94,0,0,0-6.07-2c-21.16-5.32-42,5.14-42,5.14S861.8,405,883,410.35a53.65,53.65,0,0,0,16,1.42A28.54,28.54,0,0,0,896.46,382.77Z"/><path class="cls-3" d="M828.82,382.81a24.6,24.6,0,0,0-19.69.28c-13.44,6.35-18.25,24.4-10.72,40.31,6.16,13,18.69,20.57,30.41,19.37Z"/><path class="cls-2" d="M812,422.78a2.21,2.21,0,0,1-1.81-.94,21.33,21.33,0,0,1-3.17-16.94,14.35,14.35,0,0,1,7.83-9.63,2.2,2.2,0,1,1,1.9,4,10.14,10.14,0,0,0-5.47,6.78,16.79,16.79,0,0,0,2.52,13.29,2.21,2.21,0,0,1-1.8,3.47Z"/><path class="cls-2" d="M954.18,433.74a2.18,2.18,0,0,1-1.22-.37,2.21,2.21,0,0,1-.62-3.05c1.4-2.09,1.95-4,1.64-5.63s-1.3-2.57-3.21-4.31a30.48,30.48,0,0,1-4.84-5.26,26.17,26.17,0,0,1-4.24-10.52,2.2,2.2,0,1,1,4.34-.77,21.94,21.94,0,0,0,3.51,8.77,26.2,26.2,0,0,0,4.19,4.52c2.06,1.88,4,3.65,4.58,6.77.53,2.8-.25,5.79-2.29,8.87A2.21,2.21,0,0,1,954.18,433.74Z"/><path class="cls-2" d="M938.57,460.39a19,19,0,0,1-6-1,19.84,19.84,0,0,1-11.36-10.13,2.21,2.21,0,0,1,4-1.88,14.84,14.84,0,0,0,19.71,7.2,2.2,2.2,0,1,1,1.84,4A20.09,20.09,0,0,1,938.57,460.39Z"/><path class="cls-3" d="M483.79,737.61s140-175.2,395.59-181.64c247-6.23,539.95,92.63,539.95,92.63l-85.44,177.33-247-12.94s-65.88,140.49-47.38,196C1061,1073.6,1117,1179.14,1117,1179.14l-478.15,2.15s86.15-150.76,88.3-178.77-56-183.07-56-183.07l-127.8,92.14Z"/><path class="cls-2" d="M875.79,999.92h0a2.2,2.2,0,0,1-2.17-2.24l0-1.06,2.14-123.86a2.21,2.21,0,1,1,4.41.08L878,997.76A2.2,2.2,0,0,1,875.79,999.92Z"/><path class="cls-2" d="M944.71,1144.73a1.78,1.78,0,0,1-.39,0,2.19,2.19,0,0,1-1.78-2.55,782.5,782.5,0,0,0,6.44-232,2.21,2.21,0,1,1,4.38-.53,787,787,0,0,1-6.48,233.26A2.21,2.21,0,0,1,944.71,1144.73Z"/><path class="cls-2" d="M800.4,1131.8a2.21,2.21,0,0,1-2.18-1.87,1015.81,1015.81,0,0,1-10.79-120.88c-1-33.68-.25-67.81,2.16-101.45a2.21,2.21,0,0,1,4.4.31,1006.37,1006.37,0,0,0,8.59,221.36,2.2,2.2,0,0,1-1.85,2.51A1.83,1.83,0,0,1,800.4,1131.8Z"/><path class="cls-2" d="M875.13,1032.81a2.32,2.32,0,0,1-.81-.15,10.07,10.07,0,0,1,1.84-19.3,2.2,2.2,0,0,1,.81,4.33,5.66,5.66,0,0,0-1,10.86,2.21,2.21,0,0,1-.8,4.26Z"/><path class="cls-2" d="M429.26,249.14a2.2,2.2,0,0,1-1.61-3.72l56.68-60.08-32.81-29.62-54,62.49a2.21,2.21,0,0,1-3.34-2.89l57-65.89,39.48,35.66-59.76,63.35A2.22,2.22,0,0,1,429.26,249.14Z"/><path class="cls-2" d="M469.44,169.65a2.21,2.21,0,0,1-1.63-3.68L575.43,46.79a2.21,2.21,0,0,1,3.28,3L471.08,168.92A2.23,2.23,0,0,1,469.44,169.65Z"/><path class="cls-2" d="M419.39,238.84a2.15,2.15,0,0,1-1.48-.57,2.21,2.21,0,0,1-.16-3.11l55.68-61.65a2.21,2.21,0,1,1,3.27,3L421,238.12A2.18,2.18,0,0,1,419.39,238.84Z"/><path class="cls-2" d="M407.06,227.71a2.2,2.2,0,0,1-1.63-3.68l55.67-61.65a2.2,2.2,0,1,1,3.27,3L408.7,227A2.23,2.23,0,0,1,407.06,227.71Z"/><rect class="cls-5" x="184.45" y="223.68" width="40.14" height="40.14" transform="translate(90.73 -53.39) rotate(19.05)"/><rect class="cls-5" x="299.66" y="270.61" width="40.14" height="40.14" transform="translate(411.6 -131.56) rotate(60)"/><rect class="cls-5" x="383.82" y="258.59" width="40.14" height="40.14" transform="translate(443.27 -210.45) rotate(60)"/><rect class="cls-5" x="443.94" y="246.56" width="40.14" height="40.14" transform="translate(87.28 -113.46) rotate(15.37)"/><ellipse class="cls-6" cx="254.26" cy="275.53" rx="19.96" ry="32.32" transform="translate(-96.18 408.78) rotate(-68.12)"/><ellipse class="cls-6" cx="355.16" cy="257.75" rx="32.32" ry="19.96" transform="matrix(0.84, -0.55, 0.55, 0.84, -83.21, 237.77)"/><ellipse class="cls-6" cx="439.33" cy="281.79" rx="19.96" ry="32.32" transform="translate(-38.88 72.66) rotate(-9.06)"/><circle class="cls-7" cx="191.18" cy="279.19" r="22.72"/><circle class="cls-7" cx="239.28" cy="243.12" r="22.72" transform="translate(-77.85 117.47) rotate(-23.84)"/><circle class="cls-7" cx="359.51" cy="279.19" r="22.72"/><circle class="cls-7" cx="419.62" cy="255.14" r="22.72" transform="translate(-67.34 191.54) rotate(-23.86)"/><path class="cls-7" d="M443.67,304.11a24.92,24.92,0,1,1,24.92-24.92A24.95,24.95,0,0,1,443.67,304.11Zm0-45.44a20.52,20.52,0,1,0,20.51,20.52A20.55,20.55,0,0,0,443.67,258.67Z"/><path class="cls-7" d="M227.25,292.09a24.93,24.93,0,1,1,24.93-24.92A24.95,24.95,0,0,1,227.25,292.09Zm0-45.44a20.52,20.52,0,1,0,20.52,20.52A20.53,20.53,0,0,0,227.25,246.65Z"/><rect class="cls-5" x="308.68" y="223.02" width="40.14" height="40.14" transform="translate(663.08 478.45) rotate(178.66)"/><ellipse class="cls-6" cx="271.06" cy="230.63" rx="19.96" ry="32.32" transform="translate(33.41 495.56) rotate(-88.5)"/><path class="cls-7" d="M394.12,218.16a22.72,22.72,0,1,0,11.36-30.06A22.72,22.72,0,0,0,394.12,218.16Z"/><path class="cls-7" d="M435.69,250.72a25,25,0,1,1,10.24-2.22A24.72,24.72,0,0,1,435.69,250.72Zm0-45.45A20.51,20.51,0,0,0,417,234.22h0a20.52,20.52,0,1,0,18.67-28.95Z"/><ellipse class="cls-6" cx="380.72" cy="210.5" rx="32.32" ry="19.96" transform="translate(-53.66 186.62) rotate(-25.79)"/><circle class="cls-7" cx="328.91" cy="205.23" r="22.72" transform="translate(22.84 443.19) rotate(-69.83)"/><circle class="cls-7" cx="296.39" cy="255.79" r="22.72" transform="translate(-80.03 148.15) rotate(-24.84)"/><path class="cls-7" d="M299.31,254a25,25,0,0,1-23.39-16.25h0a24.92,24.92,0,0,1,33.74-31.33,24.92,24.92,0,0,1-1.7,46A25,25,0,0,1,299.31,254Zm-19.26-17.78a20.52,20.52,0,1,0,12.09-26.38,20.54,20.54,0,0,0-12.09,26.38Z"/><path class="cls-2" d="M266.07,455.45h115.8A182.22,182.22,0,0,0,506.1,283.89H141.84A182.22,182.22,0,0,0,266.07,455.45Z"/><path class="cls-3" d="M550.9,907.21C647.49,844.9,524,579,488.67,499.07c-1.19-12.28-6.3-57.52-21.43-71.23-20.17-18.28-47.27-29-47.27-29S351.81,352.11,339.91,361c-12.6,9.45,28.37,46.64,28.37,46.64s-61.14-51.06-75-41c-14.44,10.5,41,57.36,41,57.36s-75-45.39-87-32.15,51.06,49.17,51.06,49.17-78.78-25.31-87-9.46C201.87,449.9,293.4,470.89,304,478.9c3.77,7.16,19.07,39.48,28.37,71.23,27.89,95.22,64.22,256.73,72.84,290.19C428.05,898.65,498.9,940.76,550.9,907.21Z"/><path class="cls-2" d="M585.16,838.19h-.09A2.2,2.2,0,0,1,583,835.9c1.74-44.31-8.82-105.94-28.26-164.85a2.2,2.2,0,1,1,4.18-1.38c28.25,85.6,29.33,144.89,28.48,166.4A2.19,2.19,0,0,1,585.16,838.19Z"/><path class="cls-5" d="M658.25,787.14c-1,21.52,49,171,57.44,169.44,76.1-14.36,241.94-12.21,324.51,3.83,6.64,1.29,50.43-143.13,49.53-163.93C1086.14,713.19,974.15,640,961.94,629.91c-8.23-6.77-157.69-4.62-161.54-2.15C781.74,639.73,662.08,708.65,658.25,787.14Z"/><path class="cls-5" d="M956.91,641.66a2,2,0,0,1-.64-.1,2.19,2.19,0,0,1-1.46-2.75l25.54-83a2.21,2.21,0,0,1,4.22,1.29L959,640.11A2.21,2.21,0,0,1,956.91,641.66Z"/><path class="cls-5" d="M932.51,642.89a1.93,1.93,0,0,1-.53-.07,2.19,2.19,0,0,1-1.61-2.66l20.87-85.36a2.21,2.21,0,0,1,4.29,1.05l-20.88,85.36A2.22,2.22,0,0,1,932.51,642.89Z"/><path class="cls-5" d="M805.41,643.27a2.22,2.22,0,0,1-2.12-1.61l-21.54-75.93a2.2,2.2,0,1,1,4.24-1.2l21.54,75.93a2.2,2.2,0,0,1-1.52,2.72A2.08,2.08,0,0,1,805.41,643.27Z"/><path class="cls-5" d="M829.82,644.49a2.19,2.19,0,0,1-2.14-1.68l-20.1-83.29a2.2,2.2,0,1,1,4.28-1L832,641.77a2.2,2.2,0,0,1-1.62,2.66A2.37,2.37,0,0,1,829.82,644.49Z"/><path class="cls-3" d="M1284,716.45c-3.18,51.69-5.3,169.64-1.77,259.76,3.71,94.65,23,233.85,42.41,230.9,11.07-1.68,12.37-21.2,12.37-73.62,2.65,2.65,11.78,8.83,21.79,5.59,14.82-4.79,15.12-18,15.61-19.14.83,1,10,11.19,20.48,9.66,11.78-1.72,18.4-9.66,20.81-18.7,2.12,2.35,10.84,10.22,20.85,8.45,10.3-1.82,19.74-11.19,19.15-22.09-1.08-20-5.43-79.34-4-108.48,2.76-57.34,60.52-300.77-18.32-334.7C1365.13,624.71,1322.05,646,1284,716.45Z"/><path class="cls-2" d="M1280.72,824.14h0a2.2,2.2,0,0,1-2.17-2.23c.54-42,1.74-80.46,3.29-105.59a2.19,2.19,0,0,1,2.33-2.07,2.22,2.22,0,0,1,2.07,2.34c-1.54,25.06-2.74,63.47-3.28,105.38A2.21,2.21,0,0,1,1280.72,824.14Z"/><path class="cls-2" d="M1303.45,1109.15a2.21,2.21,0,0,1-.43-4.37l15.54-3.17a2.2,2.2,0,1,1,.88,4.32l-15.54,3.17A2.3,2.3,0,0,1,1303.45,1109.15Z"/><path class="cls-2" d="M1342.9,1101.16a2.2,2.2,0,0,1-.44-4.36l15.54-3.17a2.2,2.2,0,0,1,.88,4.32l-15.54,3.17A2.18,2.18,0,0,1,1342.9,1101.16Z"/><path class="cls-2" d="M1383.16,1093.48a2.2,2.2,0,0,1-.44-4.36l15.54-3.17a2.2,2.2,0,1,1,.88,4.32l-15.54,3.17A2.25,2.25,0,0,1,1383.16,1093.48Z"/><path class="cls-2" d="M1419.52,1085.76a2.2,2.2,0,0,1-.44-4.36l15.54-3.17a2.2,2.2,0,1,1,.88,4.32l-15.54,3.17A2.25,2.25,0,0,1,1419.52,1085.76Z"/><path class="cls-4" d="M651,1155.47l352,2.15c119.44.73,217.44,1.44,336.88,2.15-15.82,140.78-39.58,454.85-29.1,670.23-98.49-2.15-192,1-290.52-1.1-48.2-112-101.07-238.36-124.12-369.74C882.85,1581.92,869,1707.23,855.7,1830c-107.57,0-214.91-.37-322.48-.37C512.27,1597,531.52,1368.7,651,1155.47Z"/><path class="cls-5" d="M1275.13,1827.43a2.2,2.2,0,0,1-2.2-2.15c-3-114-1.61-213.46,4.92-343.2,5.19-103.21,13.89-207.6,25.85-310.3a2.21,2.21,0,0,1,4.38.52c-11.95,102.59-20.64,206.89-25.83,310-6.52,129.62-8,229-4.92,342.87a2.19,2.19,0,0,1-2.14,2.26Z"/><path class="cls-5" d="M1251.62,1826.69a2.2,2.2,0,0,1-2.2-2.14c-3.2-120.49-2-219.71,4.18-342.47,5.2-103.21,13.9-207.6,25.86-310.3a2.21,2.21,0,0,1,4.38.52c-11.95,102.59-20.64,206.89-25.83,310-6.17,122.65-7.38,221.77-4.18,342.13a2.2,2.2,0,0,1-2.15,2.26Z"/><path class="cls-5" d="M581,1826.69a2.2,2.2,0,0,1-2.2-2c-7-101.06-7.69-257.91,29.28-431.22,16.5-77.31,59.19-172,87.44-234.69l2.93-6.5a2.2,2.2,0,0,1,4,1.81l-2.93,6.5c-28.17,62.5-70.75,157-87.15,233.8-36.86,172.81-36.22,329.22-29.19,430a2.21,2.21,0,0,1-2,2.35Z"/><path class="cls-5" d="M557.46,1828.16a2.2,2.2,0,0,1-2.19-2.05c-5.67-81.21-9.2-245.41,30.75-432.69,16.49-77.31,59.19-172,87.44-234.69l2.92-6.5a2.2,2.2,0,0,1,4,1.81l-2.93,6.5c-28.17,62.5-70.75,157-87.14,233.8-39.84,186.76-36.32,350.49-30.67,431.47a2.2,2.2,0,0,1-2,2.35Z"/><path class="cls-8" d="M659.77,1122.5c100.21,14,209.79,24.75,327.63,29.68a3388.8,3388.8,0,0,0,355.83-3.83q-.68,20.82-1.34,41.64a2068.86,2068.86,0,0,1-356.51,12.2A2074.53,2074.53,0,0,1,649.7,1157Q654.72,1139.74,659.77,1122.5Z"/><path class="cls-5" d="M931.13,1328.6a2.2,2.2,0,0,1-2.2-2.16l-2.88-152.2a2.21,2.21,0,0,1,2.17-2.25,2.3,2.3,0,0,1,2.24,2.16l2.87,152.2a2.2,2.2,0,0,1-2.16,2.25Z"/><path class="cls-5" d="M928.18,1183.87a9.63,9.63,0,1,1,9.58-9.63A9.62,9.62,0,0,1,928.18,1183.87Zm0-14.84a5.22,5.22,0,1,0,5.17,5.21A5.2,5.2,0,0,0,928.18,1169Z"/><path class="cls-5" d="M931.13,1339.8h0a6.7,6.7,0,0,1-6.7-6.7v-8.62a6.7,6.7,0,0,1,6.7-6.7h0a6.7,6.7,0,0,1,6.7,6.7v8.62A6.7,6.7,0,0,1,931.13,1339.8Z"/><path class="cls-5" d="M975.2,1284.53a2.2,2.2,0,0,1-2.2-2.15l-2.87-108.13a2.21,2.21,0,0,1,2.14-2.26h.06a2.22,2.22,0,0,1,2.21,2.15l2.87,108.13a2.22,2.22,0,0,1-2.15,2.26Z"/><path class="cls-5" d="M972.25,1183.87a9.63,9.63,0,1,1,9.58-9.63A9.61,9.61,0,0,1,972.25,1183.87Zm0-14.84a5.22,5.22,0,1,0,5.18,5.21A5.2,5.2,0,0,0,972.25,1169Z"/><path class="cls-5" d="M975.2,1295.72h0a6.7,6.7,0,0,1-6.7-6.7v-8.61a6.7,6.7,0,0,1,6.7-6.7h0a6.7,6.7,0,0,1,6.7,6.7V1289A6.7,6.7,0,0,1,975.2,1295.72Z"/><path class="cls-9" d="M50.89,897.9l134.86,86.34,44-154-36.5,13.8c-13.85-30.59-28.85-77.12-26.5-134.16,4.71-114.75,76.15-187.57,93.38-204.23-17.1,7.13-135,58.62-176,190.69C59.35,775.9,74.65,845.76,87.57,884Z"/><path class="cls-7" d="M174.87,981.31a2.2,2.2,0,0,1-1.19-.35L38.82,894.61a2.2,2.2,0,0,1,.41-3.91l34.7-13.13c-14.5-43.86-26.38-111.3-2.87-187C111.17,561.35,225.8,507.89,248.37,498.49a2.2,2.2,0,0,1,2.38,3.62C224.33,527.66,162.4,598.56,158,704.84c-1.84,45,6.72,89.13,25.47,131.28l34.56-13.07a2.2,2.2,0,0,1,2.9,2.66l-44,154a2.22,2.22,0,0,1-1.34,1.46A2.38,2.38,0,0,1,174.87,981.31Zm-130-88,128.67,82.38,42-146.93L183.12,841a2.21,2.21,0,0,1-2.79-1.16c-19.62-43.35-28.6-88.83-26.7-135.17,4-97.79,56-166,85.68-197.26-36.05,17.27-129,71.5-164,184.47C51.75,767.62,64.19,835,78.77,878.18a2.18,2.18,0,0,1-1.3,2.76Z"/><path class="cls-9" d="M1715,1300.25l-72.6-134.84-108.31,108.28,36.92,5.42c-2.64,32-11.72,77.87-40.19,124.47-57.27,93.72-150.82,121.38-173,127.3,17.6,2,140.12,13.76,235.76-77.57,57.62-55,77.29-120.52,84.27-158.51Z"/><path class="cls-7" d="M1380,1525.34a262.61,262.61,0,0,1-29.32-1.49,2.2,2.2,0,0,1-.32-4.32c33.94-9.07,118.62-39.54,171.64-126.32,22.42-36.69,35.78-77.54,39.71-121.44l-34.88-5.12a2.19,2.19,0,0,1-1.23-3.73L1634,1154.63a2.22,2.22,0,0,1,1.88-.62,2.2,2.2,0,0,1,1.62,1.13l72.6,134.85a2.2,2.2,0,0,1-2.26,3.22l-35-5.14c-8.29,43.41-29.71,105.27-84.52,157.61C1515.84,1514.83,1427.21,1525.34,1380,1525.34Zm-17.07-4.88c38.56,2.26,140.81-.21,222.24-78,54.85-52.36,75.75-114.45,83.62-157.3a2.21,2.21,0,0,1,2.49-1.79l32.77,4.82L1635,1159.84l-103.12,103.09,32.58,4.78a2.22,2.22,0,0,1,1.88,2.37c-3.75,45.37-17.38,87.57-40.51,125.43C1477.19,1475.07,1402.4,1508,1363,1520.46Z"/><polygon class="cls-2" points="450.07 1739.7 459.93 1745.31 454.3 1746.03 454.67 1751.13 448.51 1749.91 447.99 1757.13 442.53 1754.67 440.62 1764.36 433.72 1748.36 450.07 1739.7"/><path class="cls-6" d="M275.42,1726.81c42.45,51.75,113,64.63,168.26,19.3s58-117.57,15.58-169.32c-36.49-44.49-84.89-49.47-126.74-17.45-7.29,5.57-15.34,19.5-23.09,25.86-9,7.4-25.76,13.44-33.32,20.41C238.26,1640.49,239.91,1683.51,275.42,1726.81Z"/><path class="cls-2" d="M314.71,1595.85a2.19,2.19,0,0,1-2-1.34c-5-11.7-17.8-20.86-39.07-28a2.21,2.21,0,1,1,1.41-4.18c22.52,7.58,36.17,17.54,41.71,30.45a2.21,2.21,0,0,1-2,3.08Z"/><path class="cls-7" d="M214,1296.43a183.91,183.91,0,0,1-27.27,83.38,184.89,184.89,0,0,1-75.78,67.88q17.41,28.21,34.82,56.42a174.34,174.34,0,0,1,72.93-41c61.83-16.81,113.23,7,127.16,14,1.52-9.52,10.84-74.59-35.38-128.31C274.25,1306.79,226.88,1298.31,214,1296.43Z"/><path class="cls-10" d="M370.18,1482.45a44.85,44.85,0,0,0-5.72-79.36c.55-.28,1.1-.57,1.63-.9a22.76,22.76,0,0,0-1.59-39.66,53.86,53.86,0,0,0-58.44-90.47c-.39.24-.77.5-1.15.75a29.7,29.7,0,0,0-32.09-4.35c-.46-.87-.9-1.75-1.42-2.6a42.82,42.82,0,1,0-52.28,62.22,38.61,38.61,0,0,0,18.31,61.7A35.19,35.19,0,0,0,269,1450.23a35.81,35.81,0,0,0,46.23,26A44.85,44.85,0,0,0,370.18,1482.45Z"/><path class="cls-7" d="M355.92,1494.4a47,47,0,0,1-32-12.62,38,38,0,0,1-47.25-25.94,37.4,37.4,0,0,1-34-62.13,40.8,40.8,0,0,1-17.74-61.7,44.56,44.56,0,0,1-19-17,45,45,0,1,1,76.62-47.3c.19.31.37.61.54.92a31.92,31.92,0,0,1,31.26,4.46,56.07,56.07,0,0,1,63.43,92.29,25,25,0,0,1,.54,40.49,47.06,47.06,0,0,1,2.31,81.46h0A47,47,0,0,1,355.92,1494.4Zm-31.44-17.31a2.22,2.22,0,0,1,1.55.63,42.66,42.66,0,1,0,46.85-69.57,2.2,2.2,0,0,1-.12-4c.49-.25,1-.51,1.47-.81a20.55,20.55,0,0,0-1.44-35.82,2.18,2.18,0,0,1-1.19-1.83,2.21,2.21,0,0,1,1-2A51.66,51.66,0,0,0,316.51,1277l-.7.46-.4.26a2.2,2.2,0,0,1-2.65-.18,27.48,27.48,0,0,0-29.7-4,2.2,2.2,0,0,1-2.89-1l-.21-.4c-.37-.69-.73-1.39-1.14-2.06a40.62,40.62,0,1,0-49.59,59,2.21,2.21,0,0,1,.88,3.46,36.41,36.41,0,0,0,17.26,58.18,2.2,2.2,0,0,1,.83,3.75,33,33,0,0,0,29.55,56.66,2.23,2.23,0,0,1,1.67.28,2.18,2.18,0,0,1,1,1.37,33.58,33.58,0,0,0,43.39,24.43A2.37,2.37,0,0,1,324.48,1477.09Zm55,8.4h0Z"/><path class="cls-10" d="M185.66,1414.27h-.22a3,3,0,0,1-2.21-1c-1.9-2.27.1-4.54,5.43-10.59a206.45,206.45,0,0,0,16.63-21A166.6,166.6,0,0,0,223,1347.72a2.2,2.2,0,0,1,4.11,1.58,169.88,169.88,0,0,1-18.16,34.81,210.59,210.59,0,0,1-17,21.43c-.91,1-1.84,2.08-2.64,3,5.08-2.47,14.22-8.33,22.77-16.46a101.94,101.94,0,0,0,19.57-25.75,2.2,2.2,0,1,1,3.88,2.08,106.33,106.33,0,0,1-20.41,26.87C204.75,1405.18,190.59,1414.27,185.66,1414.27Z"/><path class="cls-10" d="M273.48,1443.84a2.2,2.2,0,0,1-.56-.07c-17.85-4.61-35.05-5.8-51.14-3.54-3.85.54-7.51,1.26-10.74,1.89-8.36,1.63-12.56,2.45-13.87-.66-2.84-6.69,21.38-17.54,21.62-17.65a76.55,76.55,0,0,1,32.31-6,2.2,2.2,0,0,1,2.15,2.25,2.13,2.13,0,0,1-2.25,2.15,72.67,72.67,0,0,0-30.48,5.66c-8.51,3.64-15.67,8.63-18.24,11.26,2-.18,5.19-.81,7.92-1.34,3.28-.64,7-1.36,11-1.92,16.66-2.34,34.44-1.12,52.86,3.63a2.21,2.21,0,0,1-.55,4.34Z"/><path class="cls-7" d="M293.65,1382.24a2.25,2.25,0,0,1-.68-.11,2.21,2.21,0,0,1-1.42-2.78,34.57,34.57,0,0,0-53.89-38.14,2.2,2.2,0,1,1-2.68-3.5,39,39,0,0,1,60.77,43A2.21,2.21,0,0,1,293.65,1382.24Z"/><path class="cls-7" d="M329.93,1366.92a2.17,2.17,0,0,1-1.62-.7,34.64,34.64,0,0,0-34.72-9.81,2.21,2.21,0,0,1-1.18-4.25,39.06,39.06,0,0,1,39.13,11.06,2.2,2.2,0,0,1-1.61,3.7Z"/><path class="cls-7" d="M313,1329.57h-.24a2.2,2.2,0,0,1-1.95-2.43,28.58,28.58,0,0,0-52-19.15,2.21,2.21,0,1,1-3.64-2.49,33,33,0,0,1,60,22.11A2.21,2.21,0,0,1,313,1329.57Z"/><path class="cls-7" d="M310.85,1453.75a2.21,2.21,0,0,1-.21-4.4,27,27,0,0,0,10.64-50.51,2.2,2.2,0,0,1,2.14-3.85,31.44,31.44,0,0,1-12.37,58.75Z"/><path class="cls-7" d="M237.54,1288.1a2.19,2.19,0,0,1-2.18-1.94,23.36,23.36,0,0,0-11.25-17.56,23,23,0,0,0-4.59-2,2.2,2.2,0,0,1,1.33-4.2,27.24,27.24,0,0,1,5.49,2.45,27.69,27.69,0,0,1,13.39,20.83,2.2,2.2,0,0,1-1.92,2.45Z"/><path class="cls-10" d="M172.81,1049.16c-1.7-4.23-8.3-5.91-12.41-6-8.27-.18-13.46,5.89-14.17,6.74a23.38,23.38,0,0,0-13.17-5.22c-8.11-.48-17.91,3.5-19.52,9.51-2.43,9,13,25.21,29.23,25C161.25,1079,176.23,1057.62,172.81,1049.16Z"/><path class="cls-6" d="M146.09,1068.51c-3-3.61-29.29-29.78-70.76-18.44C33.54,1061.5,16.38,1122.2,37,1163.15c14.94,29.62,49.49,34.86,65.48,37.28,47.58,7.21,130.09,3.33,148.29-51.72,11.91-36,6.17-101.29-41.9-109.27C188.09,1036,164.83,1043.17,146.09,1068.51Z"/><path class="cls-11" d="M122.72,1078.73c-4.94-10.83-24.68-14.06-38.67-10.28-22.88,6.17-34.09,32.09-35.54,51.34a63.82,63.82,0,0,0,26.17,55.91c24.78,17.76,55.45,13.36,59.39,3.07,4.25-11.15-24.51-19.15-26.06-47.44C106.7,1107.5,129.12,1092.71,122.72,1078.73Z"/><path class="cls-11" d="M159,1082.1c2.16-14.13,26.78-26.91,45.18-22.18,27.41,7.06,43.85,53.69,28.87,85.17-14.58,30.62-53.79,47.8-63.52,34-10.21-14.51,18.9-28,14.69-54.91C180.62,1101.23,156.8,1096.45,159,1082.1Z"/><path class="cls-5" d="M103,1089.87c2.52,3.25,3.11,7,1.32,8.41s-5.29-.12-7.81-3.37-3.12-7-1.32-8.41S100.51,1086.62,103,1089.87Z"/><path class="cls-5" d="M78.4,1108c-3.89-1.33-6.45-4.15-5.72-6.3s4.49-2.81,8.38-1.48,6.45,4.15,5.72,6.3S82.29,1109.3,78.4,1108Z"/><path class="cls-5" d="M90.25,1116.69c4.11-.3,7.57,1.29,7.73,3.55s-3,4.34-7.13,4.65-7.56-1.3-7.73-3.56S86.15,1117,90.25,1116.69Z"/><path class="cls-5" d="M75.39,1141.27c4-.85,7.67.27,8.13,2.49s-2.41,4.71-6.44,5.55-7.67-.26-8.13-2.48S71.36,1142.12,75.39,1141.27Z"/><path class="cls-5" d="M98,1157.56c2.92-2.9,6.59-3.93,8.18-2.32s.52,5.27-2.4,8.16-6.59,3.93-8.19,2.32S95,1160.45,98,1157.56Z"/><path class="cls-5" d="M191.2,1158.19c-2.52-3.25-3.11-7-1.31-8.4s5.29.11,7.81,3.36,3.11,7,1.32,8.41S193.73,1161.44,191.2,1158.19Z"/><path class="cls-5" d="M215.83,1140.09c3.9,1.33,6.46,4.15,5.72,6.3s-4.48,2.81-8.37,1.48-6.46-4.15-5.72-6.3S211.94,1138.76,215.83,1140.09Z"/><path class="cls-5" d="M204,1131.38c-4.1.3-7.56-1.3-7.73-3.56s3-4.34,7.13-4.64,7.57,1.29,7.73,3.55S208.09,1131.08,204,1131.38Z"/><path class="cls-5" d="M218.85,1106.79c-4,.85-7.67-.26-8.14-2.48s2.42-4.71,6.44-5.56,7.67.27,8.14,2.49S222.87,1106,218.85,1106.79Z"/><path class="cls-5" d="M196.29,1090.5c-2.93,2.9-6.59,3.94-8.19,2.32s-.52-5.26,2.41-8.16,6.58-3.93,8.18-2.32S199.21,1087.61,196.29,1090.5Z"/><path class="cls-5" d="M1283.44,297.19c-18,34.18-61.79,49.95-96,31.91s-45.84-63.07-27.8-97.24c23.63-44.77,76-76.89,110.19-58.85S1306.38,253.74,1283.44,297.19Z"/><path class="cls-2" d="M1220.35,335.41a68,68,0,0,1-31.87-7.79c-34.6-18.27-47.75-64.16-28.71-100.22,11.79-22.34,30.75-42,52-53.87,22.65-12.67,44.37-14.76,61.16-5.9,35.94,19,37.3,83.94,14.49,127.16h0A76.61,76.61,0,0,1,1220.35,335.41Zm29.87-168.77c-11.18,0-23.54,3.6-36.29,10.73-20.54,11.5-38.86,30.48-50.26,52.09-17.92,33.94-5.62,77.11,26.87,94.26s75.07,3,93-31c21.86-41.42,21.1-103.39-12.65-121.2A43.77,43.77,0,0,0,1250.22,166.64Zm35.26,127.12h0Z"/><circle class="cls-4" cx="1225.91" cy="278.61" r="40.03" transform="translate(162.06 948.45) rotate(-45)"/><path class="cls-6" d="M1562.77,685.53c-55.18,37.67-67,116.33-29.38,171.51,49.31,72.23,143.5,143.35,205.4,143.07a9.72,9.72,0,0,0,6.36-17c-24.76-21.92-58.78-62.22-83.14-97.91-24.19-35.44-32.21-70.3-18.93-79.37s42.84,11.09,67,46.54c21.87,32,49.21,82.37,61,115,3,8.26,14.57,8.73,18,.66,25-58.17-12.27-183.34-56-247.41C1695.53,665.47,1617.94,647.86,1562.77,685.53Z"/><path class="cls-5" d="M1752.1,1000.9c-64.94,0-159.3-74.38-206.85-144-38.9-57-25.19-136.93,30-174.57h0c55.14-37.65,134.59-21.3,173.49,35.68,22.15,32.44,42.37,79.78,54.1,126.63,13,52.08,13.79,95.73,2.11,122.89a11.69,11.69,0,0,1-11.2,7.13,12,12,0,0,1-10.94-7.91c-11-30.47-37.75-80.78-60.79-114.54-11.5-16.85-24.66-30.83-37-39.39-11.54-8-21.36-10.36-26.93-6.57-12.25,8.37-3.5,42.6,19.51,76.32,24.61,36.05,58.65,76.14,82.78,97.49a11.9,11.9,0,0,1,3.27,13.17,11.69,11.69,0,0,1-11.08,7.7Zm-174.41-315c-53.17,36.3-66.36,113.44-28.8,168.45,46.91,68.73,139.66,142.11,203.2,142.11h.37a7.52,7.52,0,0,0,4.91-13.16c-24.37-21.56-58.71-62-83.5-98.31-25.21-36.93-33.1-72.37-18.35-82.44,7.26-5,18.6-2.61,31.92,6.59,12.81,8.85,26.37,23.24,38.17,40.53,23.22,34,50.14,84.75,61.3,115.52a7.48,7.48,0,0,0,6.92,5,7.23,7.23,0,0,0,7-4.47c23.9-55.59-11-179.65-55.8-245.29-37.55-55-114.2-70.83-167.36-34.54Z"/><path class="cls-5" d="M1713.71,998.47a2.2,2.2,0,0,1-2.18-1.91c-2.51-19.12-2.07-34.31,1.3-45.14a2.2,2.2,0,0,1,4.21,1.31c-3.19,10.22-3.57,24.77-1.14,43.25a2.2,2.2,0,0,1-1.9,2.47A1.37,1.37,0,0,1,1713.71,998.47Z"/><path class="cls-5" d="M1794.69,954.63a2.26,2.26,0,0,1-1.14-.32c-14-8.45-26.31-14.29-36.65-17.37a2.21,2.21,0,0,1,1.26-4.23c10.7,3.19,23.37,9.19,37.67,17.83a2.2,2.2,0,0,1-1.14,4.09Z"/><path class="cls-5" d="M1522.62,734.93a2.2,2.2,0,0,1-.63-4.31,197.24,197.24,0,0,0,98.26-67.06,2.2,2.2,0,1,1,3.46,2.72,201.45,201.45,0,0,1-100.45,68.55A2,2,0,0,1,1522.62,734.93Z"/><path class="cls-5" d="M1512.4,805.38a2.2,2.2,0,0,1-1.71-3.59A357.9,357.9,0,0,1,1695,682.44a2.21,2.21,0,0,1,1.13,4.27,353.31,353.31,0,0,0-182,117.86A2.2,2.2,0,0,1,1512.4,805.38Z"/><path class="cls-5" d="M1541.5,871.31a1.87,1.87,0,0,1-.4,0,2.2,2.2,0,0,1-1.77-2.56c9-49.14,30.2-87,61.45-109.52,46.3-33.35,105.22-27.71,146.5-17.12a2.22,2.22,0,0,1,1.59,2.69,2.19,2.19,0,0,1-2.68,1.58c-40.37-10.36-97.92-15.92-142.83,16.42-30.32,21.83-51,58.74-59.7,106.74A2.2,2.2,0,0,1,1541.5,871.31Z"/><path class="cls-5" d="M1574.08,908.82a2.4,2.4,0,0,1-.46-.05,2.22,2.22,0,0,1-1.7-2.62c9.82-45.83,30-80,59.88-101.54,43.48-31.31,98.16-27.9,136.37-19.52a2.21,2.21,0,0,1-1,4.31c-37.33-8.19-90.69-11.57-132.85,18.79-29,20.89-48.56,54.16-58.14,98.88A2.2,2.2,0,0,1,1574.08,908.82Z"/><path class="cls-5" d="M1623.62,951.93a2.2,2.2,0,0,1-2.2-2.11c-1.89-44,5.07-77,20.67-97.91a2.21,2.21,0,0,1,3.54,2.64c-15,20.09-21.65,52.08-19.81,95.08a2.2,2.2,0,0,1-2.11,2.3Z"/><path class="cls-5" d="M1788,854.51a2.21,2.21,0,0,1-1-.22c-38.66-18.79-71.09-27-96.38-24.41a2.2,2.2,0,0,1-.45-4.38c26.14-2.68,59.35,5.67,98.76,24.83a2.2,2.2,0,0,1-1,4.18Z"/><path class="cls-5" d="M1670,980a2.21,2.21,0,0,1-2.18-1.94c-4.09-33.18-2.37-58.72,5.13-75.88a2.2,2.2,0,1,1,4,1.76c-7.17,16.43-8.78,41.19-4.79,73.58a2.2,2.2,0,0,1-1.91,2.46Z"/><path class="cls-5" d="M1796.89,909.05a2.27,2.27,0,0,1-1.12-.3c-27.81-16.39-51.42-26-70.18-28.7a2.21,2.21,0,0,1,.61-4.37c19.34,2.74,43.5,12.59,71.81,29.27a2.2,2.2,0,0,1-1.12,4.1Z"/><ellipse class="cls-12" cx="1604.72" cy="744.7" rx="9.35" ry="68.99" transform="translate(-140.49 1034.42) rotate(-34.32)"/><circle class="cls-5" cx="1603.82" cy="743.87" r="23.59" transform="translate(571.62 2179.19) rotate(-79.16)"/><path class="cls-13" d="M1482.42,535.13c-91.43,28.21-205.78-44.9-212.51-65.17-10.48-31.57,62.83-52.58,83.83-79.79,22.37-29,46.62-54.38,92.39-68.5,51.44-15.87,85-15.49,122.23-2.6,28.93,10,48.54,36.27,56,60.44,8.38,27.18,2.06,67.3-21.45,94.31C1578.6,501.74,1528.89,520.79,1482.42,535.13Z"/><path class="cls-14" d="M1587.62,467.85a2.21,2.21,0,0,1-1.74-.83L1475.81,327.68a2.21,2.21,0,0,1,3.46-2.74l110.07,139.34a2.2,2.2,0,0,1-1.72,3.57Z"/><path class="cls-14" d="M1546.93,499.66a2.2,2.2,0,0,1-1.67-.76L1417.45,351a2.21,2.21,0,0,1,3.34-2.88L1548.59,496a2.2,2.2,0,0,1-1.66,3.64Z"/><path class="cls-14" d="M1440.32,537.73a2.2,2.2,0,0,1-1.58-.67l-107-109.91a2.21,2.21,0,0,1,3.16-3.08L1441.9,534a2.2,2.2,0,0,1-1.58,3.74Z"/><path class="cls-14" d="M1440.32,537.73a2.16,2.16,0,0,1-1-.22,2.2,2.2,0,0,1-1-2.94L1539,325.78a2.16,2.16,0,0,1,1.7-1.23,2.23,2.23,0,0,1,2,.75l72,84.43a2.2,2.2,0,0,1-3.35,2.86l-69.83-81.86-99.2,205.75A2.21,2.21,0,0,1,1440.32,537.73Z"/><path class="cls-14" d="M1391.16,522.53a2.16,2.16,0,0,1-1-.24,2.2,2.2,0,0,1-1-3l93.37-183.58a2.2,2.2,0,0,1,3.93,2l-93.37,183.59A2.22,2.22,0,0,1,1391.16,522.53Z"/><path class="cls-14" d="M1340.83,508.44a2.15,2.15,0,0,1-1-.24,2.2,2.2,0,0,1-1-2.95l78.29-156.72a2.2,2.2,0,1,1,3.94,2L1342.8,507.22A2.2,2.2,0,0,1,1340.83,508.44Z"/><path class="cls-14" d="M1500.89,519.05a2.2,2.2,0,0,1-1.61-.71L1374.07,383.67a2.2,2.2,0,0,1,3.22-3l123.09,132.39,74.85-143.34a2.2,2.2,0,1,1,3.9,2l-76.28,146.1a2.21,2.21,0,0,1-1.66,1.17Z"/><path class="cls-15" d="M1013.14,138.21C995,117.28,1003,80.71,1003,80.71s37.34-2.64,55.45,18.3,10.16,57.5,10.16,57.5S1031.26,159.14,1013.14,138.21Z"/><path class="cls-2" d="M1077.88,163.47a2.13,2.13,0,0,1-1-.26,161,161,0,0,1-65.4-63.45,2.2,2.2,0,1,1,3.83-2.18,156.75,156.75,0,0,0,63.62,61.73,2.21,2.21,0,0,1-1,4.16Z"/></g></g></g></svg>