<svg xmlns="http://www.w3.org/2000/svg" viewBox="0 0 939.3 781.99"><defs><style>.cls-1{fill:#b8f0ff;}.cls-2{fill:#96c8e2;}.cls-3{fill:#83afc6;}.cls-4{fill:#ff5a27;}.cls-5{fill:#ff8b78;}.cls-6{fill:#ffb164;}.cls-11,.cls-18,.cls-21,.cls-7{fill:#fff;}.cls-7{opacity:0.52;}.cls-8{fill:#508e5a;}.cls-9{fill:#ffd592;}.cls-10{fill:#ffbd7b;}.cls-11{opacity:0.26;}.cls-12{fill:#59b24f;}.cls-13{fill:#84d17d;}.cls-14{fill:#b0eda9;}.cls-15{fill:#c1ffb8;}.cls-16{fill:#5d9b5a;}.cls-17{fill:#aef26b;}.cls-18{opacity:0.69;}.cls-19{fill:#9cd6e8;}.cls-20{fill:#e7f2f0;}.cls-21{opacity:0.38;}</style></defs><g id="Layer_2" data-name="Layer 2"><g id="Layer_2-2" data-name="Layer 2"><path class="cls-1" d="M67.3,347.63c3.38,57.43,144.9,107.69,384.77,107.69,247.69,0,382.8-38.18,384.76-107.69S704.66,227.13,457.94,228.18c-207.79.89-381.83,15.67-390.64,119.45Z"/><path class="cls-2" d="M84,347c3.23,51.24,138.62,96.09,368.12,96.09,237,0,366.23-34.07,368.1-96.09S693.73,239.49,457.69,240.43C258.9,241.22,92.39,254.4,84,347Z"/><path class="cls-3" d="M84,347.17c2.59,41.08,90.11,78,243,91.09Q314.6,429.91,303,420.58A374.49,374.49,0,0,1,193.89,276.94c-2-4.69-4.2-9.62-6.28-14.67C126.83,277.66,87.92,303.64,84,347.17Z"/><path class="cls-4" d="M609.39,386.76l193.66-87.67s35.85,79.84-45.89,121.51C668.92,465.58,609.39,386.76,609.39,386.76Z"/><path class="cls-5" d="M625.74,379.36s51.63,54.25,107.48,34.28C819.42,382.82,792,304.11,792,304.11Z"/><path class="cls-4" d="M759.26,318.65l-93.2,42.42c-2,1.7-4.13,3.5-5.22,5.93s-.86,5.65,1.22,7.3c5.21,4.12,13.48-5.4,18.86-1.5,1.46,1.06,2.17,2.85,3.16,4.36a12.62,12.62,0,0,0,15.49,4.32c3-1.46,5.34-4.1,7.92-6.28s5.9-4,9.22-3.33a17.89,17.89,0,0,1,4.83,2.22,28.57,28.57,0,0,0,16.55,3.26c4.34-.47,9-2.33,10.81-6.32,2.2-4.83-.66-10.36-.78-15.66a3.51,3.51,0,0,1,3-4c4.19-1.3,9.73-1.36,11.42-5.41,1.6-3.85-1.86-7.76-4.74-10.78a4.71,4.71,0,0,1-1.46-2.36c-.28-1.79,1.46-3.25,3.13-4s3.6-1.21,4.62-2.71C766.05,323.18,762.75,319.18,759.26,318.65Z"/><path class="cls-6" d="M653.7,377.76a24.12,24.12,0,0,0-8.32,5.71c-.92,1-1.71,2.66-.65,3.48a2.28,2.28,0,0,0,1.46.32c3.27-.16,6.11-2.23,8.72-4.21a5.88,5.88,0,0,0,1.93-2,2,2,0,0,0-.5-2.55c-.92-.6-2.47-.19-3-1.17Z"/><path class="cls-6" d="M661.88,396.2a25.4,25.4,0,0,1,2.79-4.5l-.4.51c.5-.64,1-1.25,1.58-1.84a2.62,2.62,0,0,0,.74-1.79,2.53,2.53,0,0,0-4.31-1.79,27.81,27.81,0,0,0-4.76,6.86,2.68,2.68,0,0,0-.25,1.94,2.52,2.52,0,0,0,4.61.61Z"/><path class="cls-6" d="M675.3,400.25a19.81,19.81,0,0,1,1.19-3.93l-.26.6a19.85,19.85,0,0,1,1.73-3.17,2.53,2.53,0,0,0-.91-3.45,2.58,2.58,0,0,0-3.45.9,21,21,0,0,0-3.17,7.7,2.7,2.7,0,0,0,.26,2A2.56,2.56,0,0,0,672.2,402a2.49,2.49,0,0,0,1.94-.26,2.43,2.43,0,0,0,1.16-1.5Z"/><path class="cls-6" d="M692.11,406.31l1.41-7.11a2.7,2.7,0,0,0-.25-1.95,2.62,2.62,0,0,0-1.51-1.16,2.57,2.57,0,0,0-3.11,1.77l-1.41,7.1a2.75,2.75,0,0,0,.25,2,2.62,2.62,0,0,0,1.51,1.16,2.57,2.57,0,0,0,3.11-1.76Z"/><path class="cls-6" d="M708.46,407.76l.28-8.16a2.54,2.54,0,0,0-2.52-2.53,2.58,2.58,0,0,0-2.53,2.53c-.1,2.72-.19,5.44-.29,8.16a2.55,2.55,0,0,0,2.53,2.52,2.58,2.58,0,0,0,2.53-2.52Z"/><path class="cls-6" d="M729,403.85a42,42,0,0,0-.81-7.75,2.53,2.53,0,0,0-4.87,1.34c.15.77.28,1.53.38,2.3l-.09-.67a40.13,40.13,0,0,1,.34,4.78,2.53,2.53,0,1,0,5,0Z"/><path class="cls-6" d="M749.83,395.05c-1.58-2.75-3.06-5.57-4.43-8.43a2.53,2.53,0,0,0-3.45-.91,2.6,2.6,0,0,0-.91,3.46q2.06,4.29,4.43,8.43a2.55,2.55,0,0,0,3.45.91,2.58,2.58,0,0,0,.91-3.46Z"/><path class="cls-6" d="M768.88,382.86a21.67,21.67,0,0,1-3.34-3.43l.39.51a21.46,21.46,0,0,1-2.68-4.58l.25.6,0-.12a2.78,2.78,0,0,0-1.16-1.51,2.52,2.52,0,0,0-3.46.9,2.44,2.44,0,0,0-.25,1.95,23.34,23.34,0,0,0,6.72,9.25,2.74,2.74,0,0,0,1.79.74,2.61,2.61,0,0,0,1.79-.74,2.55,2.55,0,0,0,0-3.57Z"/><path class="cls-6" d="M769.61,373.16a21.11,21.11,0,0,1,5.28,1.45l-.6-.25c.36.15.71.31,1.06.48a2.71,2.71,0,0,0,1.95.26,2.62,2.62,0,0,0,1.51-1.16,2.56,2.56,0,0,0,.25-1.95,2.48,2.48,0,0,0-1.16-1.51,23.27,23.27,0,0,0-6.95-2.19,1.93,1.93,0,0,0-1-.05,2,2,0,0,0-.94.3,2.52,2.52,0,0,0-.9,3.46,2.41,2.41,0,0,0,1.51,1.16Z"/><path class="cls-6" d="M776.66,359.49a26.63,26.63,0,0,1,4.55.21l-.67-.09a25.75,25.75,0,0,1,4,.85,2.53,2.53,0,0,0,1.35-4.87,28.64,28.64,0,0,0-9.2-1.15,2.53,2.53,0,1,0,0,5.05Z"/><path class="cls-6" d="M780.92,346h8.52a2.53,2.53,0,1,0,0-5.05h-8.52a2.53,2.53,0,1,0,0,5.05Z"/><path class="cls-6" d="M780.53,330.67l9.61-1.69a2.55,2.55,0,0,0,1.76-3.11,2.6,2.6,0,0,0-3.11-1.77l-9.6,1.7a2.51,2.51,0,0,0-1.76,3.1,2.59,2.59,0,0,0,3.1,1.77Z"/><path class="cls-6" d="M779.82,318.93l8.18-2.46a2.53,2.53,0,0,0-1.35-4.87l-8.17,2.46a2.53,2.53,0,0,0,1.34,4.87Z"/><path class="cls-7" d="M653.32,372.52c-2.93,1.18-6,2.44-8.05,4.84s-2.78,6.27-.71,8.66c1.76,2,4.9,2.31,7.44,1.47s4.68-2.59,6.86-4.15c17.89-12.82,41.47-14.91,60.39-26.15,2.67-1.59,5.54-4.95,3.54-7.33a5.12,5.12,0,0,0-3.72-1.4c-10.78-.67-22.28,6.57-32,10.5Z"/><path class="cls-4" d="M513.08,322.09l193.65-87.67s35.85,79.84-45.89,121.51C572.6,400.9,513.08,322.09,513.08,322.09Z"/><path class="cls-5" d="M529.43,314.69S581.06,368.94,636.91,349c86.19-30.83,58.74-109.53,58.74-109.53Z"/><path class="cls-4" d="M663,254,569.74,296.4c-2,1.7-4.13,3.5-5.21,5.93s-.86,5.64,1.22,7.29c5.21,4.13,13.48-5.39,18.86-1.49,1.46,1.06,2.16,2.85,3.15,4.36a12.65,12.65,0,0,0,15.5,4.32c3-1.47,5.33-4.1,7.92-6.28s5.9-4,9.21-3.34a18.11,18.11,0,0,1,4.84,2.22,28.49,28.49,0,0,0,16.54,3.27c4.35-.47,9-2.34,10.82-6.32,2.19-4.83-.66-10.36-.78-15.66a3.49,3.49,0,0,1,3-4c4.19-1.3,9.74-1.36,11.42-5.41,1.61-3.85-1.85-7.77-4.73-10.78a4.71,4.71,0,0,1-1.46-2.36c-.28-1.79,1.45-3.25,3.12-4s3.6-1.22,4.63-2.72C669.74,258.51,666.43,254.51,663,254Z"/><path class="cls-6" d="M557.38,313.09a24.17,24.17,0,0,0-8.31,5.71c-.92,1-1.72,2.66-.65,3.47a2.21,2.21,0,0,0,1.45.33c3.28-.16,6.11-2.23,8.72-4.21a6,6,0,0,0,1.94-2,2,2,0,0,0-.5-2.55c-.92-.6-2.48-.19-3-1.17Z"/><path class="cls-6" d="M565.57,331.52a25.1,25.1,0,0,1,2.79-4.49l-.4.51c.5-.64,1-1.26,1.58-1.85a2.63,2.63,0,0,0,.74-1.78,2.53,2.53,0,0,0-4.31-1.79,27.67,27.67,0,0,0-4.76,6.85,2.71,2.71,0,0,0-.26,1.95,2.59,2.59,0,0,0,1.16,1.51,2.56,2.56,0,0,0,1.95.25,2.48,2.48,0,0,0,1.51-1.16Z"/><path class="cls-6" d="M579,335.57a18.48,18.48,0,0,1,1.19-3.92l-.26.6a19.8,19.8,0,0,1,1.72-3.17,2.51,2.51,0,0,0-.9-3.45,2.59,2.59,0,0,0-3.46.9,20.8,20.8,0,0,0-3.16,7.7,2.7,2.7,0,0,0,.25,1.95,2.52,2.52,0,0,0,3.46.9,2.51,2.51,0,0,0,1.16-1.51Z"/><path class="cls-6" d="M595.8,341.63l1.41-7.1a2.75,2.75,0,0,0-.25-1.95,2.62,2.62,0,0,0-1.51-1.16,2.56,2.56,0,0,0-3.11,1.77l-1.41,7.1a2.7,2.7,0,0,0,.25,1.95,2.62,2.62,0,0,0,1.51,1.16,2.57,2.57,0,0,0,3.11-1.77Z"/><path class="cls-6" d="M612.14,343.08c.1-2.72.19-5.44.29-8.15a2.53,2.53,0,1,0-5,0c-.1,2.71-.19,5.43-.29,8.15a2.55,2.55,0,0,0,2.53,2.53,2.58,2.58,0,0,0,2.52-2.53Z"/><path class="cls-6" d="M632.68,339.18a42,42,0,0,0-.82-7.75,2.51,2.51,0,0,0-1.16-1.51,2.58,2.58,0,0,0-1.94-.26,2.6,2.6,0,0,0-1.77,3.11c.15.76.28,1.53.39,2.3l-.09-.67a38.13,38.13,0,0,1,.33,4.78,2.53,2.53,0,0,0,5.06,0Z"/><path class="cls-6" d="M653.51,330.38q-2.35-4.14-4.42-8.43a2.54,2.54,0,0,0-3.46-.91,2.59,2.59,0,0,0-.9,3.46q2.06,4.29,4.42,8.43a2.53,2.53,0,1,0,4.36-2.55Z"/><path class="cls-6" d="M672.56,318.19a22.11,22.11,0,0,1-3.34-3.43l.4.51a21.5,21.5,0,0,1-2.69-4.58l.26.6a.61.61,0,0,1-.05-.12,2.8,2.8,0,0,0-1.17-1.51,2.51,2.51,0,0,0-3.45.9,2.44,2.44,0,0,0-.26,1.95,23.68,23.68,0,0,0,6.73,9.25,2.75,2.75,0,0,0,1.79.74,2.53,2.53,0,0,0,1.78-4.31Z"/><path class="cls-6" d="M673.29,308.49a21.19,21.19,0,0,1,5.29,1.45l-.61-.25c.36.15.72.31,1.07.48a2.72,2.72,0,0,0,1.94.26,2.63,2.63,0,0,0,1.51-1.16,2.56,2.56,0,0,0,.26-1.95,2.53,2.53,0,0,0-1.16-1.51,23.67,23.67,0,0,0-7-2.2,1.93,1.93,0,0,0-1,0,1.77,1.77,0,0,0-.94.3,2.62,2.62,0,0,0-1.16,1.51,2.53,2.53,0,0,0,.25,1.94,2.42,2.42,0,0,0,1.51,1.17Z"/><path class="cls-6" d="M680.34,294.82a27.63,27.63,0,0,1,4.55.2l-.67-.09a26.86,26.86,0,0,1,4,.86,2.53,2.53,0,1,0,1.34-4.87,28.33,28.33,0,0,0-9.2-1.15,2.53,2.53,0,0,0,0,5.05Z"/><path class="cls-6" d="M684.61,281.32h8.52a2.53,2.53,0,1,0,0-5.05h-8.52a2.53,2.53,0,1,0,0,5.05Z"/><path class="cls-6" d="M684.22,266l9.6-1.69a2.53,2.53,0,0,0,1.77-3.1,2.6,2.6,0,0,0-3.11-1.77l-9.6,1.69a2.54,2.54,0,0,0-1.77,3.11,2.59,2.59,0,0,0,3.11,1.76Z"/><path class="cls-6" d="M683.51,254.26l8.17-2.47a2.53,2.53,0,1,0-1.34-4.87l-8.17,2.47a2.53,2.53,0,1,0,1.34,4.87Z"/><path class="cls-7" d="M557,307.85c-2.93,1.18-6,2.44-8,4.83s-2.77,6.28-.7,8.67c1.75,2,4.89,2.31,7.44,1.46s4.68-2.58,6.86-4.14c17.88-12.82,41.47-14.92,60.39-26.16,2.67-1.58,5.53-4.95,3.54-7.33a5.17,5.17,0,0,0-3.73-1.39c-10.77-.67-22.28,6.57-32,10.49Z"/><path class="cls-4" d="M226.11,211.83l180.37,112.5s-46.55,74.12-126.55,29.22C193.55,305.08,226.11,211.83,226.11,211.83Z"/><path class="cls-5" d="M241.34,221.33s-16.5,73,31.1,108.45c73.46,54.61,123.72-11.89,123.72-11.89Z"/><path class="cls-4" d="M365.92,298.75l-87-54c-2.54-.76-5.21-1.5-7.83-1s-5.17,2.41-5.39,5.06c-.54,6.63,12,8.22,11.7,14.86-.07,1.81-1.16,3.38-1.87,5a12.62,12.62,0,0,0,5,15.28c2.91,1.73,6.37,2.17,9.62,3.11s6.61,2.69,7.88,5.82a17.81,17.81,0,0,1,.84,5.26,28.51,28.51,0,0,0,6.46,15.57c2.8,3.36,6.94,6.2,11.26,5.5,5.23-.86,8.25-6.3,12.6-9.34a3.48,3.48,0,0,1,5,.23c3.41,2.76,6.53,7.34,10.84,6.5,4.09-.81,5.43-5.85,6.34-9.93a4.76,4.76,0,0,1,1.15-2.52c1.34-1.23,3.52-.59,5,.4s3,2.32,4.83,2.34C365.92,306.91,367.41,301.94,365.92,298.75Z"/><path class="cls-6" d="M258.18,243.7a24.15,24.15,0,0,0-9.36-3.75c-1.32-.23-3.17.05-3.26,1.39a2.24,2.24,0,0,0,.54,1.39c2,2.64,5.24,3.85,8.34,4.92a5.94,5.94,0,0,0,2.77.48,2,2,0,0,0,1.84-1.83c0-1.1-1.21-2.17-.67-3.13Z"/><path class="cls-6" d="M247.38,260.74a26,26,0,0,1,5.29-.18l-.65,0c.81.06,1.62.16,2.41.29a2.54,2.54,0,0,0,3-2,2.56,2.56,0,0,0-2-3,27.76,27.76,0,0,0-8.34-.16,2.69,2.69,0,0,0-1.76.86,2.59,2.59,0,0,0-.61,1.81,2.55,2.55,0,0,0,.87,1.76,2.47,2.47,0,0,0,1.8.61Z"/><path class="cls-6" d="M251.45,274.15a20,20,0,0,1,3.93-1.19l-.64.12a19.56,19.56,0,0,1,3.59-.32,2.55,2.55,0,0,0,1.76-.87,2.52,2.52,0,0,0-2.06-4.17,21,21,0,0,0-8.16,1.63,2.74,2.74,0,0,0-1.48,1.3,2.6,2.6,0,0,0-.13,1.9,2.57,2.57,0,0,0,1.29,1.47,2.47,2.47,0,0,0,1.9.13Z"/><path class="cls-6" d="M255.74,291.5l6.69-2.77a2.72,2.72,0,0,0,1.48-1.29,2.52,2.52,0,0,0-3.06-3.5l-6.7,2.76a2.72,2.72,0,0,0-1.48,1.29,2.66,2.66,0,0,0-.13,1.9,2.57,2.57,0,0,0,3.2,1.61Z"/><path class="cls-6" d="M263.59,305.9l7-4.29a2.53,2.53,0,0,0,.7-3.5,2.58,2.58,0,0,0-3.5-.7l-6.95,4.29a2.52,2.52,0,0,0,2.8,4.2Z"/><path class="cls-6" d="M278.24,320.82a41.93,41.93,0,0,0,6-5,2.52,2.52,0,1,0-3.81-3.31c-.56.55-1.12,1.08-1.7,1.59l.5-.45a37.25,37.25,0,0,1-3.79,2.94,2.53,2.53,0,1,0,2.81,4.2Z"/><path class="cls-6" d="M297.11,333.28q2.13-4.26,4.57-8.36a2.55,2.55,0,0,0-1.17-3.38,2.58,2.58,0,0,0-3.37,1.16q-2.44,4.1-4.57,8.36a2.53,2.53,0,0,0,4.54,2.22Z"/><path class="cls-6" d="M317.83,342.36a21.25,21.25,0,0,1,1-4.67l-.21.61a21.56,21.56,0,0,1,2.32-4.78l-.36.54.08-.11a2.78,2.78,0,0,0,.61-1.8,2.59,2.59,0,0,0-.87-1.76,2.52,2.52,0,0,0-1.8-.61,2.37,2.37,0,0,0-1.76.87,23.3,23.3,0,0,0-4,10.72,2.7,2.7,0,0,0,.37,1.9,2.52,2.52,0,0,0,4.58-.91Z"/><path class="cls-6" d="M326.3,337.59a20.89,20.89,0,0,1,1.72,5.2l-.12-.64c.07.38.14.77.19,1.15a2.68,2.68,0,0,0,.87,1.77,2.61,2.61,0,0,0,1.8.61,2.55,2.55,0,0,0,1.76-.87,2.49,2.49,0,0,0,.61-1.8,23.37,23.37,0,0,0-2-7,1.94,1.94,0,0,0-.52-.87,1.86,1.86,0,0,0-.77-.61,2.53,2.53,0,0,0-3.38,1.16,2.47,2.47,0,0,0-.13,1.9Z"/><path class="cls-6" d="M341.59,335.88a26.56,26.56,0,0,1,2.35,3.9l-.3-.61a25.63,25.63,0,0,1,1.5,3.78,2.53,2.53,0,1,0,4.8-1.58,28.53,28.53,0,0,0-4.15-8.29,2.52,2.52,0,1,0-4.2,2.8Z"/><path class="cls-6" d="M355.18,331.94l4.73,7.09a2.52,2.52,0,1,0,4.2-2.8l-4.73-7.09a2.52,2.52,0,0,0-4.2,2.8Z"/><path class="cls-6" d="M367.72,323.11l6.73,7.05a2.54,2.54,0,0,0,3.57-.25,2.61,2.61,0,0,0-.26-3.57l-6.73-7a2.54,2.54,0,0,0-3.57.26,2.6,2.6,0,0,0,.26,3.56Z"/><path class="cls-6" d="M377.09,316l6.59,5.43a2.52,2.52,0,1,0,3.3-3.81q-3.28-2.73-6.59-5.44a2.52,2.52,0,1,0-3.3,3.82Z"/><path class="cls-7" d="M262.33,240.48c-2.61-1.78-5.35-3.62-8.49-4s-6.76,1.17-7.61,4.22c-.71,2.59.8,5.36,2.92,7s4.74,2.46,7.25,3.4c20.59,7.77,35.41,26.24,55.26,35.75,2.8,1.34,7.19,1.85,8.06-1.12a5.13,5.13,0,0,0-.9-3.88C313.4,272.5,301,267,292.32,261Q277.32,250.75,262.33,240.48Z"/><path class="cls-4" d="M318.55,433.57l191.63-92s37.64,79-43.14,122.51C379.83,511,318.55,433.57,318.55,433.57Z"/><path class="cls-5" d="M334.73,425.81S387.57,478.88,443,457.65c85.47-32.75,56.26-110.82,56.26-110.82Z"/><path class="cls-4" d="M466.85,362.1l-92.23,44.51c-2,1.74-4.05,3.6-5.08,6s-.73,5.67,1.39,7.27c5.3,4,13.35-5.7,18.82-1.92,1.48,1,2.22,2.8,3.25,4.29a12.64,12.64,0,0,0,15.59,4c3-1.53,5.24-4.22,7.78-6.46s5.8-4.14,9.13-3.54a18.38,18.38,0,0,1,4.89,2.11A28.49,28.49,0,0,0,447,421.26c4.33-.56,8.95-2.53,10.67-6.56,2.09-4.87-.9-10.34-1.13-15.64a4.26,4.26,0,0,1,.48-2.52,4.3,4.3,0,0,1,2.39-1.58c4.16-1.39,9.7-1.58,11.3-5.67,1.51-3.89-2-7.72-5-10.67a4.77,4.77,0,0,1-1.51-2.32c-.32-1.79,1.38-3.29,3-4.05s3.57-1.29,4.57-2.81C473.74,366.48,470.34,362.56,466.85,362.1Z"/><path class="cls-6" d="M362.64,423.57a24.31,24.31,0,0,0-8.18,5.9c-.9,1-1.66,2.7-.58,3.49a2.24,2.24,0,0,0,1.47.29c3.27-.23,6-2.36,8.62-4.41a5.93,5.93,0,0,0,1.89-2.07,2,2,0,0,0-.56-2.54c-.93-.58-2.48-.14-3-1.11Z"/><path class="cls-6" d="M371.24,441.82a26.13,26.13,0,0,1,2.69-4.56l-.39.52c.49-.65,1-1.27,1.54-1.88a2.66,2.66,0,0,0,.7-1.8,2.62,2.62,0,0,0-.78-1.77,2.56,2.56,0,0,0-3.57.08,28.08,28.08,0,0,0-4.61,7,2.75,2.75,0,0,0-.21,1.95,2.54,2.54,0,0,0,3.15,1.7,2.53,2.53,0,0,0,1.48-1.2Z"/><path class="cls-6" d="M384.75,445.57a19.37,19.37,0,0,1,1.09-4l-.24.61a19,19,0,0,1,1.66-3.2,2.62,2.62,0,0,0,.21-2,2.53,2.53,0,0,0-4.63-.49,20.73,20.73,0,0,0-3,7.76,2.68,2.68,0,0,0,.3,1.94,2.51,2.51,0,0,0,3.47.83,2.5,2.5,0,0,0,1.13-1.53Z"/><path class="cls-6" d="M401.69,451.25c.42-2.38.83-4.76,1.25-7.14a2.69,2.69,0,0,0-.3-1.94,2.52,2.52,0,0,0-4.6.71c-.42,2.38-.83,4.76-1.25,7.13a2.67,2.67,0,0,0,.3,1.94,2.52,2.52,0,0,0,4.6-.7Z"/><path class="cls-6" d="M418.06,452.33c0-2.72.07-5.44.1-8.16a2.54,2.54,0,0,0-2.58-2.47,2.58,2.58,0,0,0-2.47,2.58q0,4.08-.1,8.16a2.53,2.53,0,0,0,5.05-.11Z"/><path class="cls-6" d="M438.5,448a41.93,41.93,0,0,0-1-7.73,2.52,2.52,0,0,0-1.2-1.48,2.55,2.55,0,0,0-1.95-.21,2.58,2.58,0,0,0-1.69,3.14c.16.76.31,1.53.43,2.29,0-.22-.07-.44-.1-.67a40.27,40.27,0,0,1,.44,4.77,2.53,2.53,0,0,0,5.05-.11Z"/><path class="cls-6" d="M459.14,438.7q-2.46-4.08-4.62-8.34a2.53,2.53,0,0,0-3.47-.82,2.59,2.59,0,0,0-.83,3.47q2.16,4.25,4.61,8.33a2.53,2.53,0,0,0,4.31-2.64Z"/><path class="cls-6" d="M477.91,426.07a20.84,20.84,0,0,1-3.42-3.35l.41.51a21.33,21.33,0,0,1-2.79-4.53l.27.6-.06-.12a2.77,2.77,0,0,0-1.19-1.48,2.54,2.54,0,0,0-3.44,1,2.43,2.43,0,0,0-.21,1.95,23.86,23.86,0,0,0,2.91,5,23.46,23.46,0,0,0,4,4.12,2.76,2.76,0,0,0,1.8.7,2.62,2.62,0,0,0,1.77-.78,2.57,2.57,0,0,0-.08-3.58Z"/><path class="cls-6" d="M478.42,416.36a21.67,21.67,0,0,1,5.31,1.34l-.61-.24c.37.14.72.29,1.08.46a2.74,2.74,0,0,0,1.95.21,2.56,2.56,0,0,0,1.48-1.2,2.5,2.5,0,0,0,.21-1.95,2.48,2.48,0,0,0-1.19-1.48,23.47,23.47,0,0,0-7-2,1.92,1.92,0,0,0-1,0,1.89,1.89,0,0,0-.93.32,2.51,2.51,0,0,0-.83,3.47,2.38,2.38,0,0,0,1.54,1.13Z"/><path class="cls-6" d="M485.16,402.54a27.65,27.65,0,0,1,4.55.1l-.67-.07a26.12,26.12,0,0,1,4,.76,2.55,2.55,0,0,0,3.06-1.83,2.58,2.58,0,0,0-1.83-3.07,28.71,28.71,0,0,0-9.22-.94,2.53,2.53,0,1,0,.11,5.05Z"/><path class="cls-6" d="M489.12,389l8.52-.19a2.53,2.53,0,1,0-.12-5.05l-8.52.19a2.53,2.53,0,1,0,.12,5.05Z"/><path class="cls-6" d="M488.38,373.63l9.57-1.9a2.54,2.54,0,0,0,1.69-3.15,2.59,2.59,0,0,0-3.15-1.69l-9.56,1.9a2.54,2.54,0,0,0-1.69,3.15,2.59,2.59,0,0,0,3.14,1.69Z"/><path class="cls-6" d="M487.41,361.92l8.12-2.65a2.53,2.53,0,1,0-1.46-4.84L486,357.08a2.53,2.53,0,1,0,1.45,4.84Z"/><path class="cls-7" d="M362.14,418.35c-2.9,1.24-5.92,2.57-7.93,5s-2.64,6.34-.52,8.68c1.8,2,4.95,2.2,7.48,1.3s4.62-2.69,6.76-4.3c17.59-13.23,41.12-15.85,59.79-27.51,2.63-1.65,5.42-5.08,3.37-7.41a5.13,5.13,0,0,0-3.76-1.31c-10.78-.43-22.12,7.07-31.78,11.21Z"/><path class="cls-8" d="M125.35,360.78c-21.62-11.25-46-15.94-70.21-18.85-32.07-15.27,33.31-13.08,51.07-14.22-25-22.21-70-13.52-89.65-40.52C13,268,67,291.43,92.24,293.56c-.83-9.5-9.94-16.31-19.15-18.8s-19-1.94-28.31-3.71c-18.88-3.57-53.3-15.74-42.84-35,9.24-21.66,54.15,14.71,79.48,26.65-7-22.56-33-32.33-49.27-49.49C19.59,200-4.43,170.21,13.9,163.16c13.63-8.19,24.42,12.26,32.71,23.51L85.4,239.29c1.09,1.47,2.31,3,4.08,3.51,4.64,1.22,7.08-5.41,6.85-10.2-.86-17.44-7.83-35.27-2.39-51.85,2.51-7.63,11-15.15,17.77-10.87,3,1.87,4.38,5.39,5.5,8.7a166.05,166.05,0,0,1,1.35,101.92c8.42-9.4,9.62-23,13.83-34.89s15.25-24,27.42-20.68c10.09,2.75,14.78,15.09,13.13,25.41s-7.81,19.24-12.9,28.36a151.68,151.68,0,0,0-16.7,46.63c-1.26,6.94.8,17.12,7.81,16.33,2.48-.28,4.51-2.07,6.23-3.88,16.76-17.6,27.71-71.69,49-51.53,13.32,13.28-3.94,30.37-13.58,42.69s-20.5,26.48-17.72,41.88c1.86,10.28,9.54,18.49,13.35,28.22,2.61,6.67,2.93,21-5.45,24.31-10,4-8.91-4.68-12-11.76C161,389,147.94,372.55,125.35,360.78Z"/><path class="cls-8" d="M830.2,333.57c19,3.26,37.43,9.52,56.48,12.67,2,.33,4.28.56,5.87-.71,3.64-2.92-.55-8.52-4.55-10.91A147.53,147.53,0,0,0,818.1,314c34.89-16.18,79.12.55,112.83-18,2.44-1.34,4.92-3,6-5.55,1.88-4.28-1-9.45-5.05-11.74s-8.95-2.47-13.63-2.58l-60.61-1.45c6.12-12.57,21.54-17.29,35.44-18.78s28.76-1.31,40.53-8.84c2.82-1.81,5.6-4.45,5.65-7.8.09-6.31-8.4-8.33-14.71-8.31l-54.25.19,29.4-52.2c2.69-4.78,5.44-9.79,5.67-15.26s-3-11.52-8.34-12.59-10.35,3-14.17,6.91a160.87,160.87,0,0,0-33.81,52.1c-1,2.39-1.94,4.92-3.93,6.56-5.22,4.31-13.53-.61-15.88-7s-1.21-13.42-2.17-20.12c-2-13.88-14.05-25.67-28-27.33-3-.35-6.24-.23-8.74,1.45-3.19,2.14-4.42,6.24-4.79,10.06-2.8,28.87,29.39,55.19,20.14,82.68a8.86,8.86,0,0,1-2.41,4.08c-2.4,2-6,1.48-9,.37-16.78-6.36-24.45-25.24-36.35-38.67-5-5.62-12.54-10.73-19.54-8-7.38,2.86-9.25,13-6.24,20.35s9.3,12.65,14.66,18.47a89.14,89.14,0,0,1,18.93,32.22c1.24,3.75,2.08,8.32-.52,11.28-1.92,2.19-5.12,2.72-8,2.61-16.95-.58-28.6-16.63-43.13-25.37-6.95-4.17-17.75-5.76-21.67,1.34-2.62,4.74-.31,10.87,3.41,14.82s8.64,6.54,12.69,10.16c21.36,19.13,2.5,36.55-2.44,55.93C746.92,338.67,784.85,325.8,830.2,333.57Z"/><path class="cls-8" d="M484.81,278.79c-1.83-5.19-2.72-12.52,2.3-14.8,2.16-1,4.71-.52,6.92.35,17.2,6.69,18,30.22,26.2,46.73,1.4,2.81,3.29,5.65,6.24,6.73,8,2.95,13.41-8.66,13.11-17.22-1.43-41-33.44-81-19.23-119.45,21.87,19.67,10,61.65,33.39,79.48,4.73,3.6,12.12,5.43,16.19,1.1,2.3-2.45,2.72-6.09,2.82-9.45,1-32.46-17.31-65.31-7.36-96.22,1.9-5.9,7.36-12.52,13-10,2.59,1.16,4.06,3.93,5,6.62,3.46,10.41,1.22,21.72.79,32.68s1.87,23.44,11.1,29.38c2.56,1.65,5.85,2.66,8.67,1.49,2.41-1,3.94-3.36,5.14-5.67,14.44-27.89,0-62.66,8.41-92.91,1-3.66,2.93-7.75,6.64-8.55,6.49-1.42,9.66,7.59,10,14.22l2.52,51.39c15.74-6.11,14.18-28.37,19.57-44.38a43.61,43.61,0,0,1,25-26.28c2-.81,4.35-1.45,6.43-.71,2.63.94,4,3.8,4.74,6.5,3.3,12.77-3.5,25.93-11.48,36.44s-17.62,20.34-21.38,33c10.8,1.09,21.35-3.25,32.14-4.51s23.86,2.17,27.39,12.43a10,10,0,0,1,.27,6.38c-1.66,5-7.83,6.73-13.1,7.16-21.57,1.77-44.12-5.06-64.5,2.24-3.3,1.18-7,3.42-7,6.93-.08,3.85,4.16,6.2,7.85,7.32,19,5.75,41.68,3.26,56.38,16.61a7,7,0,0,1,2.54,3.84c.58,3.68-3.88,6-7.54,6.65C669,249,643.4,236,618.32,239.85c-3.89.6-8.59,2.65-8.54,6.59.05,3.5,3.89,5.56,7.22,6.61,9.62,3,19.83,4,29.32,7.34s18.72,10,21.32,19.76a267.49,267.49,0,0,1-80.44-9.77c-2.59,2.9-1.39,7.75,1.43,10.42s6.74,3.74,10.44,4.91a127.49,127.49,0,0,1,30,14c6.14,3.9,12.49,12,7.68,17.47a10.89,10.89,0,0,1-5.84,3c-18.5,4.21-35.35-10.61-53.37-16.56-5.08-1.68-11.3-2.43-15.25,1.18-6,5.48-1.16,16.3,6.31,19.46s16,1.57,24.09,1.53,17.53,2.52,20.57,10c3.54,8.75-4.52,18.68-13.73,20.75S580.89,355.24,572,352c-14.63-5.41-27.9-7.9-40.48,2.81-9.13,7.78-8.8,18.14-19.24,7.4-7.66-7.87-8.3-29-11.46-39.14C496.18,308.05,490,293.58,484.81,278.79Z"/><path class="cls-9" d="M246.69,339.23C236,354,232,375.09,241.44,390.77c4.65,7.73,12,13.47,17.21,20.83,7.38,10.45,10,23.41,14,35.55,6.37,19.1,17.56,37.7,35.3,47.22s42.81,7,54.43-9.44c11.34-16,6.77-37.77,8-57.37,1.09-16.92,6.89-33.4,6.67-50.36a72.44,72.44,0,0,0-26.62-54.71C316.81,295.37,271.23,305.4,246.69,339.23Z"/><path class="cls-10" d="M377.12,377.2a72.44,72.44,0,0,0-26.62-54.71,71,71,0,0,0-20.77-11.69c3.91,4.78,8.53,9.5,10.31,12.21a53.17,53.17,0,0,1,8.81,33.06c-1,12.54-6.44,24.5-6.59,37.07-.15,12.07,4.59,23.58,7.18,35.37S352,454,343.88,462.89c-4.81,5.32-11.75,8.15-18.59,10.3-7.65,2.41-16,4.18-23.6,1.64-5.53-1.85-10.06-5.78-15-8.88-2.16-1.36-4.71-2.59-7.17-2.48,6.61,12.82,15.88,24.14,28.46,30.9,17.74,9.52,42.81,7,54.43-9.44,11.34-16,6.77-37.77,8-57.37C371.54,410.64,377.34,394.16,377.12,377.2Z"/><path class="cls-11" d="M265.24,337.76c-8,8.76-12.46,21.58-8.73,32.86,2,6.08,6.12,11.2,9.53,16.62a81,81,0,0,1,11.44,30.54c.72,4.63,1.06,9.4,2.85,13.73s5.46,8.26,10.11,8.8c5.22.59,10.19-3.42,12-8.36s.88-10.48-1-15.36-4.81-9.32-7.19-14c-3.45-6.77-5.86-14.29-5.36-21.88s4.29-15.21,10.9-19c5.86-3.34,13.31-3.43,18.67-7.52,7.48-5.7,7.69-18,1.67-25.19C305.21,311.27,277.72,324.16,265.24,337.76Z"/><path class="cls-9" d="M554,199.3C540.31,188.64,519.78,183,503.3,189c-8.13,3-14.53,8.48-22.35,12-11.09,5-24.21,5.67-36.66,7.67-19.58,3.14-39.13,10.35-50.29,24.08s-11.06,34.93,4.16,46.51c14.84,11.29,36.88,10,56.22,13.25,16.71,2.83,32.53,9.56,49.4,11.31,20.83,2.17,42.28-3.86,56.9-16C590.85,262.83,585.25,223.64,554,199.3Z"/><path class="cls-10" d="M503.78,303.85c20.83,2.17,42.28-3.86,56.9-16a57.66,57.66,0,0,0,13.6-16c-5.12,2.72-10.25,6-13.11,7.22a61,61,0,0,1-33.7,3.57c-12.35-2.24-23.71-8.16-36.19-9.72-12-1.5-23.87,1.14-35.83,1.95s-25.51-.77-33.62-8.55c-4.83-4.63-7-10.74-8.45-16.7-1.66-6.66-2.62-13.82.63-19.88,2.37-4.41,6.71-7.74,10.26-11.51,1.56-1.64,3-3.64,3.16-5.7C414.05,216.6,401.91,223,394,232.78c-11.16,13.72-11.06,34.93,4.16,46.51,14.84,11.29,36.88,10,56.22,13.25C471.09,295.37,486.91,302.1,503.78,303.85Z"/><path class="cls-11" d="M553.68,215c-7.94-7.7-20.24-12.86-31.81-11-6.23,1-11.71,3.83-17.42,6.06A90.82,90.82,0,0,1,473,216c-4.67.08-9.44-.19-13.91.82s-8.74,3.61-9.71,7.44c-1.1,4.28,2.41,8.89,7.15,10.93s10.33,1.93,15.36.88,9.72-3,14.59-4.41c7.06-2.1,14.76-3.26,22.25-2s14.7,5.32,17.8,11.26c2.75,5.27,2.12,11.5,5.67,16.44,5,6.9,17.12,8.47,24.87,4.26C576.16,251.34,566,226.92,553.68,215Z"/><path class="cls-9" d="M744.56,363.93c-13.68-10.66-34.22-16.35-50.7-10.27-8.12,3-14.53,8.48-22.35,12-11.08,5-24.21,5.67-36.66,7.67-19.58,3.14-39.13,10.36-50.29,24.08s-11.06,34.93,4.16,46.51c14.84,11.29,36.88,10,56.22,13.25,16.71,2.84,32.53,9.56,49.4,11.31,20.84,2.17,42.28-3.86,56.9-16C781.42,427.46,775.82,388.27,744.56,363.93Z"/><path class="cls-10" d="M694.34,468.47c20.84,2.17,42.28-3.86,56.9-16a57.88,57.88,0,0,0,13.61-16c-5.13,2.73-10.26,6-13.12,7.22A61.05,61.05,0,0,1,718,447.28c-12.36-2.25-23.72-8.17-36.19-9.73-12-1.5-23.88,1.14-35.84,2s-25.51-.78-33.62-8.56c-4.82-4.62-7-10.74-8.45-16.7-1.66-6.66-2.62-13.82.63-19.88,2.37-4.41,6.71-7.74,10.27-11.5,1.56-1.65,3-3.64,3.15-5.7-13.37,4.05-25.51,10.5-33.43,20.23-11.16,13.72-11.06,34.93,4.16,46.51,14.84,11.29,36.88,10,56.22,13.25C661.65,460,677.47,466.72,694.34,468.47Z"/><path class="cls-11" d="M744.24,379.58c-7.93-7.71-20.24-12.86-31.81-11-6.23,1-11.71,3.83-17.42,6.06a90.82,90.82,0,0,1-31.44,6.06c-4.67.08-9.43-.18-13.91.82s-8.73,3.61-9.71,7.44c-1.09,4.28,2.42,8.89,7.15,10.93s10.33,1.93,15.37.88,9.71-3,14.59-4.4c7.05-2.11,14.76-3.27,22.24-2s14.7,5.32,17.8,11.26c2.75,5.27,2.13,11.51,5.68,16.45,5,6.89,17.11,8.46,24.86,4.26C766.73,416,756.56,391.54,744.24,379.58Z"/><path class="cls-12" d="M121.22,304.39l-14.43,17.1s-9.78,32,26.63,63.77c41,35.74,84.79,44.5,104.76,18.57,3.24-4.21,5.85-19.49,5.85-19.49L121.16,302.93Z"/><path class="cls-13" d="M240.94,390.74c-12.35,17.12-49.16,11.68-82.22-12.17s-49.85-57.06-37.5-74.18,49.16-11.67,82.22,12.17S253.29,373.62,240.94,390.74Z"/><path class="cls-14" d="M236.86,388c-9.37,13-43.14,8-73.59-14S116,319.43,125.34,306.42s46.16-7.64,76.61,14.32S246.24,375,236.86,388Z"/><path class="cls-15" d="M149.55,318.82c-.54-1.52-1-3.32-.07-4.66,1.45-2.14,4.78-1.3,7,0a38.1,38.1,0,0,1,11.81,10.76,23,23,0,0,1,.5-7.3,2.24,2.24,0,0,1,.7-1.36c1-.72,2.26.38,2.95,1.38a64.8,64.8,0,0,1,8.25,16.67,14.85,14.85,0,0,1,2.07-7.51,7.45,7.45,0,0,1,6.61-3.54c3.42.33,5.91,3.71,6.35,7.11s-.72,6.8-2,10a23.67,23.67,0,0,1,17,5.21c1.1.91,2.21,2.15,2,3.56-.31,2.17-3.18,2.69-5.37,2.67a21.6,21.6,0,0,1,13.93,15.55,3,3,0,0,1-.28,2.58,2.93,2.93,0,0,1-1.4.77,17.7,17.7,0,0,1-11.78-1.06,52.35,52.35,0,0,1-10.29-6.25,46,46,0,0,1,6,10.81,1.91,1.91,0,0,1,.14,1.51,1.78,1.78,0,0,1-1,.78c-4.57,1.95-10.07-.36-13.31-4.13s-4.74-8.69-6.16-13.46c.18,3.06-.45,6.37-2.63,8.52s-6.21,2.54-8.17.18a7.81,7.81,0,0,1-1.45-3.76,28.48,28.48,0,0,1,.61-12.25,11.21,11.21,0,0,1-14,2.36,4.72,4.72,0,0,1-2.42-3,4,4,0,0,1,2.23-3.9,11.74,11.74,0,0,1,4.61-1.15c-4.37-.19-9.6-1.17-11.25-5.23-.49-1.22-.47-2.83.59-3.61a3.89,3.89,0,0,1,2.41-.49c2.15.05,7,1.53,8.69.38C157,331.36,152.23,326.3,149.55,318.82Z"/><path class="cls-12" d="M675.32,305.05l10.87,19.56s26.47,20.5,69.07-2.28c48-25.64,71.67-63.5,54.52-91.36-2.79-4.53-16.15-12.39-16.15-12.39l-119.7,86Z"/><path class="cls-13" d="M798.52,223.74C810.15,241.36,792,273.85,758,296.3s-71,26.37-82.66,8.75,6.52-50.1,40.54-72.56S786.89,206.12,798.52,223.74Z"/><path class="cls-14" d="M794.51,226.58c8.83,13.38-7.87,43.16-39.2,63.84s-67.8,24.88-76.63,11.5,9.23-45.87,40.56-66.55S785.68,213.2,794.51,226.58Z"/><path class="cls-15" d="M698.85,283.68c-1.61,0-3.44-.28-4.37-1.59-1.5-2.11.48-4.93,2.48-6.55a38.18,38.18,0,0,1,14.25-7.23,22.82,22.82,0,0,1-6.65-3.06,2.17,2.17,0,0,1-1-1.13c-.33-1.18,1.14-2,2.33-2.27A65.14,65.14,0,0,1,724.39,260a14.68,14.68,0,0,1-6.28-4.59,7.44,7.44,0,0,1-1-7.44c1.51-3.08,5.56-4.21,8.9-3.41s6.1,3.08,8.64,5.39a23.67,23.67,0,0,1,10.9-14c1.24-.71,2.79-1.31,4-.62,1.92,1.06,1.39,3.93.59,6a21.59,21.59,0,0,1,19.47-7.51A3,3,0,0,1,772,235a2.82,2.82,0,0,1,.22,1.58,17.73,17.73,0,0,1-5.16,10.64,52.56,52.56,0,0,1-9.5,7.4,45.9,45.9,0,0,1,12.22-1.74,2,2,0,0,1,1.46.4,1.8,1.8,0,0,1,.38,1.2c.21,5-3.9,9.29-8.58,11s-9.8,1.35-14.76,1c2.92.92,5.79,2.67,7,5.48s.17,6.7-2.73,7.7a7.65,7.65,0,0,1-4,0,28.4,28.4,0,0,1-11.24-4.91,11.2,11.2,0,0,1-2.77,13.95,4.75,4.75,0,0,1-3.71,1.19A4.07,4.07,0,0,1,728,286.4a11.91,11.91,0,0,1,.57-4.72c-1.73,4-4.5,8.56-8.88,8.67-1.32,0-2.82-.57-3.17-1.83a3.92,3.92,0,0,1,.39-2.43c.82-2,3.93-6,3.44-8C713.22,281.17,706.81,283.83,698.85,283.68Z"/><path class="cls-16" d="M389.35,490.76l10.87,19.56s26.47,20.5,69.07-2.28c47.95-25.64,71.68-63.49,54.52-91.36-2.79-4.52-16.15-12.39-16.15-12.39L388,490.3Z"/><path class="cls-13" d="M512.55,409.45C524.18,427.07,506,459.56,472,482s-71,26.38-82.66,8.75,6.52-50.1,40.54-72.56S500.92,391.83,512.55,409.45Z"/><path class="cls-14" d="M508.54,412.29c8.83,13.38-7.86,43.17-39.2,63.85s-67.8,24.87-76.63,11.49,9.23-45.87,40.56-66.55S499.71,398.91,508.54,412.29Z"/><path class="cls-15" d="M412.89,469.39c-1.62,0-3.45-.27-4.38-1.59-1.5-2.11.48-4.93,2.48-6.55A38.18,38.18,0,0,1,425.24,454a22.82,22.82,0,0,1-6.65-3.06,2.22,2.22,0,0,1-1-1.13c-.33-1.17,1.14-2,2.33-2.27a65.13,65.13,0,0,1,18.51-1.8,14.78,14.78,0,0,1-6.28-4.6,7.42,7.42,0,0,1-1-7.43c1.51-3.09,5.56-4.22,8.9-3.42s6.1,3.09,8.65,5.39a23.62,23.62,0,0,1,10.89-14c1.24-.71,2.79-1.3,4-.62,1.92,1.06,1.39,3.93.59,6a21.58,21.58,0,0,1,19.48-7.52,3,3,0,0,1,2.31,1.18,2.82,2.82,0,0,1,.22,1.58,17.7,17.7,0,0,1-5.16,10.64,52.56,52.56,0,0,1-9.5,7.4,45.9,45.9,0,0,1,12.22-1.74,2,2,0,0,1,1.46.41,1.72,1.72,0,0,1,.38,1.19c.21,5-3.9,9.29-8.58,11s-9.8,1.34-14.76,1c2.92.92,5.79,2.67,7,5.48s.17,6.7-2.73,7.71a7.86,7.86,0,0,1-4,0,28.56,28.56,0,0,1-11.24-4.92,11.2,11.2,0,0,1-2.77,13.95,4.73,4.73,0,0,1-3.7,1.19,4.06,4.06,0,0,1-2.87-3.48,11.93,11.93,0,0,1,.57-4.72c-1.73,4-4.5,8.57-8.88,8.67-1.32,0-2.82-.57-3.17-1.83a3.86,3.86,0,0,1,.4-2.43c.81-2,3.92-6,3.43-8C427.25,466.88,420.84,469.54,412.89,469.39Z"/><path class="cls-12" d="M544,325.47l-15.27,16.35s-11.4,31.48,23.35,65c39.11,37.78,82.42,48.75,103.68,23.87,3.45-4,6.84-19.17,6.84-19.17L544,324Z"/><path class="cls-13" d="M659.21,417.79c-13.2,16.47-49.69,9.16-81.5-16.33s-46.89-59.52-33.69-76,49.69-9.16,81.5,16.33S672.41,401.31,659.21,417.79Z"/><path class="cls-14" d="M655.27,414.84c-10,12.51-43.49,5.76-72.79-17.72S538,340.22,548,327.71s46.5-5.29,75.79,18.19S665.3,402.33,655.27,414.84Z"/><path class="cls-15" d="M571.59,341.31c-.47-1.54-.8-3.36.17-4.65,1.55-2.07,4.83-1.06,7,.36A38.1,38.1,0,0,1,590,348.36a22.82,22.82,0,0,1,.88-7.26,2.21,2.21,0,0,1,.76-1.32c1-.67,2.24.48,2.88,1.52a65.2,65.2,0,0,1,7.39,17.07,14.75,14.75,0,0,1,2.45-7.39,7.44,7.44,0,0,1,6.78-3.21c3.4.5,5.71,4,6,7.43s-1.06,6.76-2.48,9.88a23.71,23.71,0,0,1,16.68,6.07c1.06,1,2.1,2.26,1.82,3.66-.42,2.15-3.3,2.52-5.5,2.39a21.59,21.59,0,0,1,13.13,16.23,3,3,0,0,1-.42,2.57,2.88,2.88,0,0,1-1.43.7A17.76,17.76,0,0,1,627.21,395a52.49,52.49,0,0,1-10-6.76,45.78,45.78,0,0,1,5.41,11.09,2,2,0,0,1,.06,1.52,1.78,1.78,0,0,1-1,.73c-4.67,1.72-10-.87-13.09-4.8s-4.29-8.92-5.46-13.75c0,3.06-.77,6.33-3.06,8.37s-6.33,2.22-8.17-.23a7.78,7.78,0,0,1-1.26-3.83,28.5,28.5,0,0,1,1.23-12.2,11.2,11.2,0,0,1-14.13,1.63,4.71,4.71,0,0,1-2.26-3.16,4.07,4.07,0,0,1,2.43-3.79,12,12,0,0,1,4.66-.91c-4.36-.41-9.53-1.65-11-5.79-.43-1.24-.33-2.85.77-3.58a3.87,3.87,0,0,1,2.43-.36c2.15.16,6.95,1.88,8.66.82C578.38,354.22,573.89,348.93,571.59,341.31Z"/><path class="cls-12" d="M313.41,164.84l-14.8,12.68s-10,23.74,27.32,47.28c42.05,26.49,87,33,107.5,13.76,3.32-3.12,6-14.45,6-14.45L313.35,163.76Z"/><path class="cls-13" d="M436.26,228.86c-12.67,12.69-50.44,8.65-84.37-9s-51.15-42.3-38.48-55,50.45-8.65,84.37,9S448.94,216.16,436.26,228.86Z"/><path class="cls-14" d="M432.08,226.83c-9.62,9.64-44.28,5.89-75.52-10.39S308,176,317.64,166.35,365,160.68,396.25,177,441.7,217.19,432.08,226.83Z"/><path class="cls-15" d="M342.48,175.54c-.55-1.13-1-2.46-.06-3.45,1.48-1.59,4.9-1,7.19,0a37.48,37.48,0,0,1,12.11,8,12.46,12.46,0,0,1,.52-5.41,1.57,1.57,0,0,1,.72-1c1-.53,2.32.28,3,1A44.59,44.59,0,0,1,374.45,187a8.15,8.15,0,0,1,8.9-8.19,7,7,0,0,1,6.52,5.28c.44,2.52-.74,5-2,7.41a31.06,31.06,0,0,1,17.41,3.86c1.13.67,2.27,1.59,2.06,2.64-.31,1.61-3.26,2-5.51,2,7.08,1.72,12.7,6.25,14.3,11.52a1.72,1.72,0,0,1-.29,1.92,3.51,3.51,0,0,1-1.44.57,24.78,24.78,0,0,1-12.09-.78,61.18,61.18,0,0,1-10.55-4.64,32.72,32.72,0,0,1,6.11,8c.2.36.38.77.15,1.12a1.9,1.9,0,0,1-1,.58c-4.69,1.45-10.33-.26-13.66-3.06s-4.86-6.44-6.32-10a6.8,6.8,0,0,1-2.69,6.32c-2.24,1.59-6.38,1.88-8.39.13a5,5,0,0,1-1.49-2.78,15.46,15.46,0,0,1,.63-9.09c-3.38,3-9.87,3.75-14.4,1.75-1.17-.52-2.27-1.28-2.48-2.26-.26-1.17.86-2.31,2.29-2.89a15.8,15.8,0,0,1,4.73-.85c-4.49-.14-9.85-.87-11.54-3.88a1.85,1.85,0,0,1,.6-2.68,5.25,5.25,0,0,1,2.47-.36c2.21,0,7.22,1.13,8.92.28C350.12,184.84,345.24,181.09,342.48,175.54Z"/><path class="cls-9" d="M245.21,157.28c-12.73,5.62-24.11,18-25.25,31.95-.57,6.89,1.32,13.51,1.24,20.37-.11,9.74-4.14,19.29-6.95,28.86-4.43,15-5.79,31.62.63,44.75s22.35,21.14,36.3,14.8c13.6-6.19,20.24-22.28,29.4-34.71,7.92-10.73,18.44-19.36,25.59-30.62,8.84-13.91,11.76-31.38,7.73-46.34C305.59,155.45,274.28,144.47,245.21,157.28Z"/><path class="cls-10" d="M306.17,232.68c8.84-13.91,11.76-31.38,7.73-46.34a48.94,48.94,0,0,0-7.28-15.72c.26,4.66,1,9.55.86,12a45.42,45.42,0,0,1-9,25.19c-6,7.88-14.33,13.65-19.82,21.88-5.27,7.9-7.41,17.32-10.95,26.09s-9.41,17.74-18.06,20.52c-5.13,1.64-10.46.82-15.44-.4-5.56-1.37-11.27-3.42-14.68-8-2.48-3.35-3.48-7.7-5.07-11.65a8.72,8.72,0,0,0-3.18-4.4c-1.59,11-1,22,3.59,31.36,6.42,13.12,22.35,21.14,36.3,14.8,13.6-6.19,20.24-22.28,29.4-34.71C288.5,252.57,299,243.94,306.17,232.68Z"/><path class="cls-11" d="M256.83,163.48c-8.52,2.67-16.65,9.41-19.29,18.29-1.42,4.78-1.19,9.74-1.49,14.63A68.3,68.3,0,0,1,229.7,221c-1.56,3.33-3.41,6.6-4.2,10.15s-.32,7.55,2.21,9.7c2.83,2.41,7.5,1.68,10.67-.89s5-6.57,6-10.53,1.15-8,1.75-12c.87-5.79,2.67-11.68,6.22-16.48s9.08-8.37,14.61-8.29c4.9.06,9.36,2.88,14.29,2.26,6.88-.88,12.28-8.88,11.81-16C291.89,161.46,270.06,159.34,256.83,163.48Z"/><path class="cls-12" d="M366.29,377.33l17.15,17.84s34.66,15,75.91-19.48c46.42-38.77,62.83-84.37,36.55-109.38-4.26-4.06-21.12-9-21.12-9L364.63,377.19Z"/><path class="cls-13" d="M481.54,261.51c17.48,15.62,5.85,54.21-26,86.19s-71.8,45.25-89.28,29.63-5.85-54.21,26-86.19S464.06,245.89,481.54,261.51Z"/><path class="cls-14" d="M477.84,265.48c13.28,11.86,2.55,47.26-26.76,76.71s-68.61,42.88-81.88,31-1.75-50.44,27.56-79.89S464.57,253.62,477.84,265.48Z"/><path class="cls-15" d="M386.78,349.07c-1.79.37-3.88.57-5.26-.59-2.2-1.84-.76-5.29,1-7.49a42.81,42.81,0,0,1,13.9-11.1,27.64,27.64,0,0,1-8.16-1.57,2.61,2.61,0,0,1-1.43-.94c-.66-1.15.76-2.37,2-3a76.7,76.7,0,0,1,20-6.47,17.38,17.38,0,0,1-8.16-3.27c-2.25-1.86-3.68-4.81-3-7.57.87-3.6,5.06-5.79,9-5.78s7.56,1.73,11,3.52a25,25,0,0,1,8.41-17.4c1.19-1.05,2.75-2.06,4.31-1.65,2.41.64,2.57,3.78,2.22,6.12a24.62,24.62,0,0,1,19.61-12.7,3.54,3.54,0,0,1,2.87.67,2.92,2.92,0,0,1,.66,1.6c.74,4.28-.65,8.7-2.94,12.45s-5.45,6.95-8.59,10.11a54,54,0,0,1,13.08-4.84,2.29,2.29,0,0,1,1.73.06,1.89,1.89,0,0,1,.73,1.16c1.53,5.16-1.9,10.71-6.64,13.65s-10.51,3.84-16.1,4.68c3.48.24,7.12,1.38,9.22,4s1.94,7-1,8.77a9.38,9.38,0,0,1-4.46,1,34.18,34.18,0,0,1-13.73-2.38,11.6,11.6,0,0,1,.57,15.33,5.45,5.45,0,0,1-3.79,2.16,4.6,4.6,0,0,1-4.08-2.94,12.18,12.18,0,0,1-.61-5.1c-.86,4.66-2.75,10.11-7.57,11.3-1.45.35-3.27.1-4-1.14a4,4,0,0,1-.19-2.64c.38-2.3,2.77-7.31,1.72-9.24C402,342.89,395.63,347.26,386.78,349.07Z"/><path class="cls-17" d="M358.61,305.18a26,26,0,1,1-26-26A26,26,0,0,1,358.61,305.18Z"/><path class="cls-18" d="M322,288.26a23.87,23.87,0,0,0-6.19,7.42A21,21,0,0,0,312.61,306c0,3.63,1.63,7.4,4.75,9.27a5.59,5.59,0,0,0,3.9.84c2.74-.57,4.09-3.59,5.17-6.17,1.83-4.39,4.3-8.81,8.43-11.18,2.56-1.47,5.94-2.4,6.85-5.21,1.49-4.64-4.4-7.48-8-8.3C329.78,284.31,325.21,285.86,322,288.26Z"/><path class="cls-17" d="M270,380.94a26,26,0,1,1-26-26A26,26,0,0,1,270,380.94Z"/><path class="cls-18" d="M233.42,364a24,24,0,0,0-6.19,7.41,21,21,0,0,0-3.2,10.28c0,3.63,1.63,7.41,4.74,9.27a5.54,5.54,0,0,0,3.9.84c2.75-.56,4.09-3.58,5.17-6.17,1.83-4.38,4.31-8.81,8.43-11.18,2.56-1.47,5.95-2.39,6.85-5.2,1.49-4.64-4.39-7.48-8-8.3C241.19,360.07,236.63,361.63,233.42,364Z"/><path class="cls-17" d="M534.43,386.66a26,26,0,1,1-26-26A26,26,0,0,1,534.43,386.66Z"/><path class="cls-18" d="M497.82,369.74a23.87,23.87,0,0,0-6.19,7.42,21,21,0,0,0-3.2,10.28c0,3.63,1.62,7.4,4.74,9.27a5.59,5.59,0,0,0,3.9.84c2.74-.57,4.09-3.59,5.17-6.17,1.83-4.39,4.3-8.82,8.43-11.18,2.56-1.47,5.95-2.4,6.85-5.21,1.49-4.64-4.4-7.48-8-8.3C505.59,365.78,501,367.34,497.82,369.74Z"/><path class="cls-17" d="M672.68,235.42a26,26,0,1,1-26-26A26,26,0,0,1,672.68,235.42Z"/><path class="cls-18" d="M636.07,218.5a24,24,0,0,0-6.19,7.41,21,21,0,0,0-3.2,10.28c0,3.63,1.63,7.41,4.74,9.27a5.54,5.54,0,0,0,3.9.85c2.74-.57,4.09-3.59,5.17-6.17,1.83-4.39,4.3-8.82,8.43-11.18,2.56-1.47,6-2.4,6.85-5.21,1.49-4.64-4.4-7.48-8-8.3C643.84,214.54,639.27,216.1,636.07,218.5Z"/><circle class="cls-17" cx="553.24" cy="103" r="25.99"/><path class="cls-18" d="M542.63,86.09a24,24,0,0,0-6.19,7.41,21,21,0,0,0-3.2,10.28c0,3.63,1.63,7.4,4.74,9.27a5.54,5.54,0,0,0,3.9.84c2.75-.56,4.09-3.58,5.17-6.17,1.83-4.38,4.3-8.81,8.43-11.18,2.56-1.47,5.95-2.39,6.85-5.2,1.49-4.64-4.4-7.49-8-8.3C550.4,82.13,545.83,83.69,542.63,86.09Z"/><circle class="cls-17" cx="174.81" cy="239.26" r="25.99"/><path class="cls-18" d="M164.2,222.34a24,24,0,0,0-6.19,7.41,21.11,21.11,0,0,0-3.2,10.28c0,3.63,1.63,7.41,4.74,9.27a5.55,5.55,0,0,0,3.91.84c2.74-.56,4.08-3.58,5.16-6.16,1.83-4.39,4.31-8.82,8.43-11.19,2.56-1.46,5.95-2.39,6.85-5.2,1.5-4.64-4.39-7.48-8-8.3C172,218.38,167.41,219.94,164.2,222.34Z"/><path class="cls-17" d="M434,139.43a26,26,0,1,1-26-26A26,26,0,0,1,434,139.43Z"/><path class="cls-18" d="M397.37,122.51a24.15,24.15,0,0,0-6.19,7.42,21.08,21.08,0,0,0-3.2,10.28c0,3.63,1.63,7.4,4.74,9.27a5.6,5.6,0,0,0,3.91.84c2.74-.57,4.08-3.59,5.16-6.17,1.83-4.39,4.31-8.82,8.43-11.18,2.56-1.47,5.95-2.4,6.85-5.21,1.5-4.64-4.39-7.48-8-8.3C405.14,118.55,400.58,120.11,397.37,122.51Z"/><path class="cls-17" d="M314.45,101.49a23.12,23.12,0,1,1-23.12-23.12A23.11,23.11,0,0,1,314.45,101.49Z"/><path class="cls-18" d="M281.9,86.45A21.28,21.28,0,0,0,276.39,93a18.77,18.77,0,0,0-2.85,9.14,9.6,9.6,0,0,0,4.22,8.24,5,5,0,0,0,3.47.75c2.44-.5,3.64-3.19,4.6-5.48,1.62-3.91,3.82-7.84,7.49-10,2.28-1.3,5.29-2.13,6.09-4.63,1.33-4.12-3.9-6.65-7.08-7.38C288.81,82.93,284.75,84.31,281.9,86.45Z"/><path class="cls-17" d="M479.71,23.11A23.12,23.12,0,1,1,456.6,0,23.12,23.12,0,0,1,479.71,23.11Z"/><path class="cls-18" d="M447.16,8.07a21.23,21.23,0,0,0-5.5,6.59,18.59,18.59,0,0,0-2.85,9.14A9.59,9.59,0,0,0,443,32.05a5,5,0,0,0,3.47.75c2.43-.51,3.63-3.19,4.59-5.49,1.63-3.9,3.83-7.84,7.5-9.94,2.27-1.31,5.28-2.13,6.09-4.63,1.33-4.13-3.91-6.65-7.08-7.38C454.07,4.55,450,5.94,447.16,8.07Z"/><path class="cls-17" d="M556.64,238.42a23.12,23.12,0,1,1-23.12-23.11A23.12,23.12,0,0,1,556.64,238.42Z"/><path class="cls-18" d="M524.09,223.38a21.4,21.4,0,0,0-5.51,6.59,18.77,18.77,0,0,0-2.85,9.14c0,3.23,1.45,6.59,4.22,8.24a4.89,4.89,0,0,0,3.47.75c2.44-.5,3.64-3.18,4.6-5.48,1.62-3.9,3.82-7.84,7.49-9.94,2.28-1.31,5.29-2.14,6.09-4.63,1.33-4.13-3.9-6.66-7.08-7.38C531,219.86,526.94,221.24,524.09,223.38Z"/><path class="cls-19" d="M836.83,348.71H820.15c-2.73,61.62-131.91,95.45-368.07,95.45-228.55,0-363.77-44.48-368.07-95.45H67.3s-5.92,79,38.22,174.27c66.2,142.94,157.71,168.7,157.71,168.7l187,3.61,187-3.61S728.65,665.92,794.85,523C839,427.67,836.83,348.71,836.83,348.71Z"/><ellipse class="cls-20" cx="456.6" cy="737.52" rx="236.31" ry="44.47"/><path class="cls-19" d="M640.92,722.71v-33L452.07,665.92,263.23,691.68v31s-1.6,14.94,55.68,34.68c78.33,27,205.6,18.11,266.33,0C643.29,740.08,640.92,722.71,640.92,722.71Z"/><path class="cls-2" d="M585.1,757.39c58.06-17.31,55.68-34.68,55.68-34.68v-33L554.2,678.79l-.41.24c-9.93,6-19.47,11.39-20.22,23.74-.78,13,6.29,28.72.65,41.12-3.46,7.64-12.57,10.65-20.76,12.48-62.52,13.92-128,5.36-190.23-9.69-19.44-4.7-39.17-10.22-55.54-21.73a22.64,22.64,0,0,0-4.6-2.52v.28s-1.59,14.94,55.68,34.68C397.1,784.39,524.37,775.5,585.1,757.39Z"/><path class="cls-21" d="M159.75,469.82c-4,10.59-.6,22.41,3.37,33,10.88,29,26.13,56.28,43.37,82.05,12.4,18.53,27.92,37.7,49.83,41.84,7.69,1.45,16,.8,22.82-3s12-11,12.19-18.83-4.45-15.13-8.64-21.91c-10.24-16.57-18.87-34.36-23.18-53.36-2.87-12.62-3.92-26-10.4-37.22C238,473.19,172.23,436.6,159.75,469.82Z"/><path class="cls-21" d="M292.28,704.26a10.3,10.3,0,0,0-5.23,1.19c-3.2,2-3.59,6.81-1.76,10.11s5.23,5.39,8.58,7.13c13.89,7.23,29.33,10.92,44.74,13.71,5.91,1.08,12.22,2,17.76-.34s9.6-9.18,6.83-14.51c-2.63-5.06-9.33-6-15-6.5C329.65,713.34,310.43,703.7,292.28,704.26Z"/><path class="cls-2" d="M836,348.71H819.4c-1.53,34.53-42.77,60.33-120.29,76.35A297.81,297.81,0,0,1,667.79,522C613.92,625,562.87,653.66,500.43,674.9,423,701.26,332.26,694.64,332.26,694.64s90.95,20.78,163.88,20.78c72.52,0,140.12-23.74,140.12-23.74S727.77,665.92,794,523C838.11,427.67,836,348.71,836,348.71Z"/><path class="cls-1" d="M836.53,342.83H820a43.6,43.6,0,0,1,.16,5.25c-1.87,62-131.13,96.08-368.1,96.08-229.5,0-364.89-44.85-368.12-96.08.16-1.78.39-3.53.66-5.25H67.86c-.29,1.93-.53,3.89-.7,5.88,3.38,57.43,144.9,107.7,384.78,107.7,247.69,0,382.8-38.19,384.76-107.7A54.69,54.69,0,0,0,836.53,342.83Z"/></g></g></svg>