<svg xmlns="http://www.w3.org/2000/svg" viewBox="0 0 876.28 954.92"><defs><style>.cls-1{fill:#f7d3b0;}.cls-2{fill:#e2bfa3;}.cls-3{fill:#cead97;}.cls-4{fill:#6fb56b;}.cls-5{fill:#81cc7a;}.cls-6{fill:#89e269;}.cls-7{fill:#5d9b5a;}.cls-8{fill:#8fc687;}.cls-9{fill:#b0eda9;}.cls-10{fill:#c1ffb8;}.cls-11{fill:#ffb5a9;}.cls-12{fill:#ff9369;}.cls-13{fill:#ff7b5c;}.cls-14{fill:#fff;opacity:0.38;}.cls-15{fill:#d34722;}.cls-16{fill:#f2a688;}.cls-17{fill:#ff5a27;}.cls-18{fill:#9cd6e8;}.cls-19{fill:#e7f2f0;}.cls-20{fill:#96c8e2;}.cls-21{fill:#b8f0ff;}.cls-22{fill:#ef9116;}.cls-23{fill:#ffdc83;}.cls-24{fill:#ffba1f;}.cls-25{fill:#36383f;}</style></defs><g id="Layer_2" data-name="Layer 2"><g id="Layer_2-2" data-name="Layer 2"><path class="cls-1" d="M20,518.55C23.38,576,164.9,626.25,404.78,626.25c247.69,0,382.8-38.18,384.76-107.7S657.37,398.05,410.65,399.11C202.86,400,28.82,414.77,20,518.55Z"/><path class="cls-2" d="M36.66,517.92C39.89,569.16,175.29,614,404.79,614c237,0,366.23-34.06,368.1-96.08S646.44,410.41,410.4,411.35c-198.8.8-365.31,14-373.74,106.57Z"/><path class="cls-3" d="M36.66,518.1c2.59,41.07,90.12,78,243,91.09q-12.31-8.36-23.92-17.68A374.61,374.61,0,0,1,146.6,447.87c-2-4.7-4.2-9.63-6.28-14.67C79.54,448.59,40.63,474.57,36.66,518.1Z"/><path class="cls-4" d="M208.52,577.17c-2.82-3-6.08-5.75-8-9.4-2.09-3.9-2.48-8.46-3.6-12.75a38.43,38.43,0,0,0-23.21-25.78c-2.89-1.08-6.1-2-8-4.38s-1.91-5.87-2.28-9a32.93,32.93,0,0,0-21.94-26.8c-3.56-1.16-7.44-1.76-10.41-4-6.6-5-5.57-15.25-9.49-22.56-2.21-4.11-5.93-7.15-9.56-10.09L93.29,437.21C86.88,432,80,426.64,71.87,425.5c-4.22-.59-8.89-.09-12.39-2.53-3.18-2.22-4.45-6.23-6.26-9.66-7.91-15-30.54-19.23-43.51-8.37s-12.91,33.63,0,44.6C.48,457-.19,471.47,5,482.13s14.76,18.4,24.12,25.66c2.36,1.84,4.81,3.76,6.2,6.42,2,3.82,1.44,8.4,1.48,12.71.16,19.42,14.84,37.79,33.74,42.23l148.11,57.32A49.46,49.46,0,0,0,208.52,577.17Z"/><path class="cls-5" d="M174,469.28c-8-10.29-16-20.73-21-32.76s-6.49-26-1.24-37.94c1.35-3,3.13-6,3.6-9.25.56-3.92-.81-7.82-1.58-11.71a38.95,38.95,0,0,1,51.54-44.13,27.72,27.72,0,0,1,45.16,23.42c10.2-2.68,21.06,3.91,26.48,13s6.53,20,7,30.51a46.69,46.69,0,0,1,47.22,61.32c14.36,11.6,28.21,25.9,31.56,44.06s-8.58,39.94-27,40.64c10.26,1,15,14.85,10.55,24.17S332,585.18,322.56,589.21a231.7,231.7,0,0,1-60.21,16.4c-12.22,1.6-25,2.17-36.53-2.13-25.31-9.41-37-37.37-46-60.65C171.84,522.22,146.59,486.56,174,469.28Z"/><path class="cls-4" d="M534.63,413a30.16,30.16,0,0,1,32.64-11.91C568.6,386.18,581,373,595.83,370.68s30.63,6.62,36.37,20.47c9.48-7.74,25.1,1.16,27.67,13.13s-3.78,24-11.25,33.71c9.84,3,14.62,14.93,13.1,25.11s-7.7,19-13.7,27.33c12.84,9.63,15.42,29.44,7.6,43.45s-24,22.11-40,22.82c-16.74.74-30.67-6.11-45.26-13.08-51.65,63.67-120.33-85.23-34.6-96.16C529.08,437.13,527.56,423.66,534.63,413Z"/><path class="cls-5" d="M606.4,474.39c6.94-11.5,15.17-22.44,25.8-30.65,7.76-6,16.61-10.38,25.39-14.73,24.2-12,53.63-23.9,76.83-10.09,4.24,2.53,8,5.82,12.47,8,9.83,4.73,21.34,3.2,32.25,3.14,11.1-.07,22.58,1.65,32,7.6s16.2,16.83,14.91,27.86c-.68,5.81-3.49,11.3-3.57,17.16-.07,5,1.9,9.88,2.62,14.87,1.83,12.76-6.55,27-19.25,29.14-4.47.77-9.08.11-13.56.77-19.78,2.88-28.17,28.32-46.62,36-5.19,2.17-10.89,2.78-16.24,4.49-5.7,1.82-10.92,4.86-16.35,7.36-34.85,16-79.44,7.56-106-20.15C583.76,530.76,590.33,501,606.4,474.39Z"/><path class="cls-4" d="M540.66,568.1c1.78.42,3.68,1.08,5.37.38,2.15-.89,2.89-3.49,3.67-5.68,4.44-12.49,19.59-20,32.22-16,2.73.87,5.45,2.21,8.3,1.9,4-.43,6.87-3.93,10.07-6.4,8.16-6.3,20.82-5.8,28.46,1.12,2.08,1.87,3.86,4.19,6.41,5.34,2.75,1.26,6,1,8.88,1.81,10.13,3,12.72,18.08,22.9,20.88,6.65-11.25,23.74-13.05,34.47-5.59s15.35,21.53,14.52,34.57c-1.82,28.88-30.08,53.38-58.93,51.08-13-1-25.38-6.67-38.4-6.61-12.55.05-24.39,5.36-36.05,10-28.29,11.26-56.44,7.28-65-25C512.76,611.69,505,559.79,540.66,568.1Z"/><path class="cls-6" d="M322.4,517.55c-7.15-14.47-7.66-32.52,1.93-45.7,8.1-11.14,21.83-17.27,34.91-22.9-17.16-16-21.32-42.79-9.69-62.65s38-31,61.65-26.09c-5.27-17.45,9.27-36.85,28.18-40.85s39.28,5.57,50.05,20.65c13.23-8,32.68-5.11,42.64,6.31s9,29.82-2,40.34c18.75,15.64,20.59,45.84,3.87,63.39,10.13,8.06,15.58,21,14.07,33.35s-9.93,23.8-21.74,29.53c2.44,8.09,4.82,17.08.82,24.62-4.66,8.81-16.35,12.2-26.86,12.44s-21.15-1.76-31.45.22c4,9.85-4.08,21.06-14.44,25.19s-22.11,3.11-33.31,2l-37.78-3.73c-7.07-.7-14.5-1.53-20.23-5.45-6.62-4.53-9.15-15.62-15.25-21.8C338.36,536.86,328.47,529.82,322.4,517.55Z"/><path class="cls-6" d="M146.52,538.65c9.14-5.86,22.61-3.52,29.22,5.1,7.93-10.76,24.55-12.83,36.11-6.13S229.81,558,230,571.4c18.78-6.06,38.59,7.65,49.57,24,1.82,2.72,3.59,5.61,6.31,7.43,3.3,2.2,7.47,2.47,11.41,3,33.24,4.23,62.17,31.76,68.05,64.75,1.8,10.1,1.41,21.21-4.41,29.65-4.67,6.77-12.17,10.93-19.39,14.85-8.28,4.49-16.88,9.08-26.27,9.71-26.94,1.83-44.67-27.5-69.23-38.73-20-9.14-43.23-5.59-63.25-14.34-15.6-6.81-31.18-20.67-45-30.9-11.68-8.66-19.13-17.78-23.55-31.85-5.51-17.51-3.09-50.65,24.33-42.06C134.58,557,137.19,544.65,146.52,538.65Z"/><path class="cls-7" d="M630.74,452.54l14.73-2.42s8.33,19.78,6.54,36.44-23.74,50.21-23.74,50.21L432.38,672.22l-6-8.43,90.09-108.43L630.74,452.54Z"/><path class="cls-8" d="M574.85,466.56l55.89-14s9.2,17.59,6.28,30.14-19.69,42.49-19.69,42.49l-42.48-58.61Z"/><path class="cls-9" d="M574.85,466.56c-4.53,3.58-172,148.36-172,148.36l23.55,48.87L617.33,525.17Z"/><path class="cls-10" d="M559.26,490a57.1,57.1,0,0,1,9.31-5.2c3.47-1.52,8.11-2.38,10.33.69,1.46,2,1.12,5-.16,7.23a18.57,18.57,0,0,1-5.37,5.3c-6.23,4.59-12.92,8.95-20.37,10.17-1.51.25-3.46.11-4-1.39a3.8,3.8,0,0,1,.49-2.72,43.21,43.21,0,0,1,11.16-14.53Z"/><path class="cls-10" d="M561.34,514.45a56.28,56.28,0,0,1,9.31-5.2c3.47-1.52,8.11-2.38,10.33.69,1.46,2,1.12,5-.17,7.23a18.42,18.42,0,0,1-5.36,5.3c-6.23,4.59-12.92,8.95-20.37,10.18-1.51.24-3.46.1-4-1.4a3.86,3.86,0,0,1,.5-2.72A43.21,43.21,0,0,1,562.78,514Z"/><path class="cls-10" d="M524.62,520.49a55.52,55.52,0,0,1,9.31-5.19c3.47-1.53,8.11-2.39,10.33.68,1.46,2,1.12,5-.17,7.24a18.42,18.42,0,0,1-5.37,5.29c-6.22,4.59-12.91,9-20.37,10.18-1.5.25-3.45.1-4-1.39a3.84,3.84,0,0,1,.5-2.72,43.11,43.11,0,0,1,11.16-14.53Z"/><path class="cls-10" d="M525.83,543.42a56.28,56.28,0,0,1,9.31-5.2c3.47-1.52,8.11-2.38,10.33.69,1.46,2,1.12,5-.16,7.23a18.57,18.57,0,0,1-5.37,5.3c-6.23,4.58-12.92,8.95-20.37,10.17-1.51.25-3.46.11-4-1.39a3.86,3.86,0,0,1,.5-2.72A43.21,43.21,0,0,1,527.27,543Z"/><path class="cls-10" d="M492.24,544.24a56.31,56.31,0,0,1,9.31-5.19c3.47-1.52,8.11-2.39,10.33.69,1.46,2,1.12,5-.16,7.23a18.67,18.67,0,0,1-5.37,5.29c-6.23,4.59-12.92,9-20.37,10.18-1.51.25-3.46.1-4-1.39a3.8,3.8,0,0,1,.49-2.72,43.21,43.21,0,0,1,11.16-14.53Z"/><path class="cls-10" d="M486.51,572.25a56.37,56.37,0,0,1,9.31-5.2c3.47-1.52,8.11-2.39,10.33.69,1.46,2,1.13,5-.16,7.23a18.83,18.83,0,0,1-5.37,5.3c-6.23,4.58-12.92,8.94-20.37,10.17-1.51.25-3.46.11-3.95-1.39a3.8,3.8,0,0,1,.49-2.72A43.34,43.34,0,0,1,488,571.8Z"/><path class="cls-10" d="M454.49,579.51a56.69,56.69,0,0,1,9.31-5.2c3.47-1.52,8.11-2.38,10.33.69,1.46,2,1.12,5-.16,7.23a18.57,18.57,0,0,1-5.37,5.3c-6.23,4.58-12.92,9-20.37,10.17-1.51.25-3.46.11-4-1.39a3.8,3.8,0,0,1,.49-2.72,43.21,43.21,0,0,1,11.16-14.53Z"/><path class="cls-10" d="M446.25,611.29a56.31,56.31,0,0,1,9.31-5.19c3.47-1.53,8.11-2.39,10.33.68,1.46,2,1.13,5-.16,7.24a18.67,18.67,0,0,1-5.37,5.29c-6.22,4.59-12.92,9-20.37,10.18-1.51.25-3.46.1-3.95-1.39a3.79,3.79,0,0,1,.5-2.72,43.11,43.11,0,0,1,11.15-14.53Z"/><path class="cls-10" d="M420.55,608.62a56.31,56.31,0,0,1,9.31-5.19c3.47-1.53,8.11-2.39,10.33.68,1.46,2,1.12,5-.16,7.24a18.67,18.67,0,0,1-5.37,5.29c-6.23,4.59-12.92,9-20.37,10.18-1.51.25-3.46.1-4-1.39a3.79,3.79,0,0,1,.49-2.72A43,43,0,0,1,422,608.18Z"/><path class="cls-7" d="M332.85,648.18l2.68,14.68s-19.63,8.68-36.32,7.18-50.62-22.85-50.62-22.85L109.73,453.69l8.33-6.1,110,88.17L332.85,648.18Z"/><path class="cls-8" d="M317.85,592.54l15,55.64s-17.42,9.5-30,6.8S260,636,260,636l57.85-43.5Z"/><path class="cls-9" d="M317.85,592.54c-3.66-4.47-151.35-169.35-151.35-169.35l-48.44,24.4L260,636Z"/><path class="cls-10" d="M294.18,577.36a56.28,56.28,0,0,1,5.35,9.22c1.59,3.44,2.53,8.06-.5,10.34-2,1.5-5,1.21-7.24,0a18.66,18.66,0,0,1-5.39-5.27c-4.69-6.15-9.17-12.76-10.53-20.19-.27-1.51-.16-3.45,1.32-4a3.86,3.86,0,0,1,2.73.45,43.28,43.28,0,0,1,14.72,10.9Z"/><path class="cls-10" d="M269.74,579.87a56.61,56.61,0,0,1,5.35,9.21c1.59,3.45,2.53,8.07-.5,10.35-2,1.49-5,1.21-7.24,0a18.79,18.79,0,0,1-5.39-5.27c-4.69-6.15-9.17-12.76-10.53-20.19-.27-1.51-.16-3.46,1.32-4a3.81,3.81,0,0,1,2.73.45,43.15,43.15,0,0,1,14.72,10.9Z"/><path class="cls-10" d="M263.05,543.26a56.33,56.33,0,0,1,5.36,9.22c1.58,3.44,2.53,8.06-.51,10.34-2,1.49-5,1.21-7.24,0a18.75,18.75,0,0,1-5.38-5.27c-4.7-6.15-9.18-12.76-10.53-20.19-.28-1.51-.17-3.46,1.32-4a3.81,3.81,0,0,1,2.73.45,43.34,43.34,0,0,1,14.72,10.9Z"/><path class="cls-10" d="M240.15,544.87a55.57,55.57,0,0,1,5.35,9.22c1.59,3.44,2.53,8.07-.5,10.34-2,1.5-5,1.21-7.24,0a18.38,18.38,0,0,1-5.38-5.27c-4.7-6.14-9.18-12.76-10.54-20.19-.27-1.5-.16-3.45,1.33-4a3.77,3.77,0,0,1,2.72.44,43.42,43.42,0,0,1,14.73,10.9Z"/><path class="cls-10" d="M238.73,511.31a55.83,55.83,0,0,1,5.36,9.21c1.58,3.44,2.53,8.07-.51,10.34-2,1.5-5,1.21-7.23,0a18.57,18.57,0,0,1-5.39-5.28c-4.69-6.14-9.17-12.76-10.53-20.19-.28-1.5-.16-3.45,1.32-4a3.85,3.85,0,0,1,2.73.44,43.28,43.28,0,0,1,14.72,10.9Z"/><path class="cls-10" d="M210.64,506.07a56.61,56.61,0,0,1,5.35,9.21c1.59,3.45,2.53,8.07-.5,10.35-2,1.49-5,1.21-7.24,0a18.7,18.7,0,0,1-5.39-5.28c-4.69-6.14-9.17-12.75-10.53-20.19-.27-1.5-.16-3.45,1.32-4a3.81,3.81,0,0,1,2.73.45,43,43,0,0,1,14.72,10.9Z"/><path class="cls-10" d="M202.81,474.18a56.66,56.66,0,0,1,5.36,9.21c1.58,3.45,2.53,8.07-.51,10.35-2,1.49-5,1.21-7.23,0a18.57,18.57,0,0,1-5.39-5.28c-4.69-6.14-9.17-12.75-10.53-20.19-.27-1.5-.16-3.45,1.32-4a3.81,3.81,0,0,1,2.73.45,43,43,0,0,1,14.72,10.9Z"/><path class="cls-10" d="M170.89,466.5a56.66,56.66,0,0,1,5.36,9.21c1.58,3.45,2.53,8.07-.51,10.35-2,1.49-5,1.21-7.23,0a18.57,18.57,0,0,1-5.39-5.28c-4.7-6.14-9.17-12.75-10.53-20.18-.28-1.51-.17-3.46,1.32-4a3.81,3.81,0,0,1,2.73.45,43.21,43.21,0,0,1,14.72,10.9Z"/><path class="cls-10" d="M173.11,440.75a56.33,56.33,0,0,1,5.36,9.22c1.58,3.44,2.53,8.07-.51,10.34-2,1.5-5,1.21-7.23,0a18.54,18.54,0,0,1-5.39-5.27c-4.7-6.14-9.17-12.76-10.53-20.19-.28-1.5-.17-3.45,1.32-4a3.86,3.86,0,0,1,2.73.45,43.47,43.47,0,0,1,14.72,10.9Z"/><path class="cls-7" d="M499.76,484.24l3.1,14.6s-19.37,9.24-36.1,8.22-51.26-21.38-51.26-21.38L271.11,296.28l8.15-6.34,112.48,85,108,109.34Z"/><path class="cls-8" d="M483.15,429.06l16.61,55.18s-17.15,10-29.82,7.67-43.36-17.7-43.36-17.7l56.57-45.15Z"/><path class="cls-9" d="M483.15,429.06C479.37,424.69,327,264.15,327,264.15l-47.72,25.79L426.58,474.21Z"/><path class="cls-10" d="M459.05,414.57a56.67,56.67,0,0,1,5.62,9.06c1.68,3.39,2.76,8-.21,10.35-1.94,1.55-5,1.36-7.23.17a18.53,18.53,0,0,1-5.54-5.12c-4.87-6-9.53-12.48-11.11-19.87-.32-1.5-.26-3.45,1.21-4a3.75,3.75,0,0,1,2.74.37,43.08,43.08,0,0,1,15,10.47Z"/><path class="cls-10" d="M434.69,417.78a56,56,0,0,1,5.62,9.06c1.69,3.4,2.76,8-.2,10.35-1.95,1.55-5,1.36-7.24.17a18.47,18.47,0,0,1-5.53-5.11c-4.88-6-9.54-12.49-11.11-19.88-.32-1.5-.27-3.45,1.2-4a3.75,3.75,0,0,1,2.74.37,43.12,43.12,0,0,1,15,10.47Z"/><path class="cls-10" d="M427,381.38a56,56,0,0,1,5.62,9.06c1.68,3.39,2.76,8-.2,10.35-1.95,1.55-5,1.36-7.24.17a18.38,18.38,0,0,1-5.53-5.12c-4.88-6-9.54-12.48-11.12-19.87-.31-1.5-.26-3.45,1.21-4a3.75,3.75,0,0,1,2.74.37,43.21,43.21,0,0,1,15,10.47Z"/><path class="cls-10" d="M404.11,383.66a56.14,56.14,0,0,1,5.62,9c1.68,3.4,2.76,8-.21,10.36-1.95,1.55-5,1.35-7.23.17a18.67,18.67,0,0,1-5.54-5.12c-4.87-6-9.54-12.49-11.11-19.88-.32-1.49-.26-3.44,1.21-4a3.86,3.86,0,0,1,2.74.37,43.3,43.3,0,0,1,15,10.47Z"/><path class="cls-10" d="M401.72,350.14a56,56,0,0,1,5.62,9.06c1.69,3.39,2.77,8-.2,10.35-1.95,1.55-5,1.36-7.24.17a18.38,18.38,0,0,1-5.53-5.12c-4.87-6-9.54-12.48-11.11-19.87-.32-1.5-.27-3.45,1.2-4a3.75,3.75,0,0,1,2.74.37,43.12,43.12,0,0,1,15,10.47Z"/><path class="cls-10" d="M373.49,345.72a56.58,56.58,0,0,1,5.62,9c1.68,3.4,2.76,8-.21,10.36-1.95,1.55-5,1.35-7.23.17a18.54,18.54,0,0,1-5.54-5.12c-4.87-6-9.54-12.48-11.11-19.87-.32-1.5-.27-3.45,1.2-4a3.85,3.85,0,0,1,2.74.37,43.38,43.38,0,0,1,15,10.47Z"/><path class="cls-10" d="M364.75,314.07a56.14,56.14,0,0,1,5.62,9.05c1.68,3.4,2.76,8-.21,10.36-2,1.55-5,1.35-7.23.17a18.79,18.79,0,0,1-5.54-5.12c-4.87-6-9.54-12.49-11.11-19.88-.32-1.49-.26-3.44,1.21-4a3.86,3.86,0,0,1,2.74.37,43.44,43.44,0,0,1,15,10.47Z"/><path class="cls-10" d="M332.62,307.31a56.67,56.67,0,0,1,5.62,9.06c1.68,3.4,2.76,8-.21,10.35-1.95,1.55-5,1.36-7.23.17a18.51,18.51,0,0,1-5.54-5.11c-4.87-6-9.54-12.49-11.11-19.88-.32-1.49-.26-3.45,1.2-4a3.83,3.83,0,0,1,2.75.37,43.3,43.3,0,0,1,15,10.47Z"/><path class="cls-10" d="M334.09,281.51a56,56,0,0,1,5.62,9.06c1.68,3.4,2.76,8-.2,10.35-1.95,1.56-5,1.36-7.24.18a18.64,18.64,0,0,1-5.53-5.12c-4.88-6-9.54-12.49-11.12-19.88-.31-1.49-.26-3.45,1.21-4a3.85,3.85,0,0,1,2.74.37,43.21,43.21,0,0,1,15,10.47Z"/><path class="cls-11" d="M180.7,506.41c7.58-4.66,14.11-11.53,16.8-20,4.65-14.68-3.25-30.85-14.72-41.14s-26-16.23-39.63-23.46c-10.18-5.42-20.05-11.73-27.82-20.24s-13.3-19.47-13.59-31,5.32-23.46,15.39-29.08c5.43-3,11.74-4.11,18-4.38,4.48-.2,9.61-.28,12.52-3.69,4.22-4.94.56-12.42-3.15-17.76-2.85-4.1-5.92-8.39-10.48-10.41-3-1.36-6.46-1.56-9.79-1.59-20.38-.18-40.9,5.64-57.65,17.25S37,350,31.83,369.69c-8,30.47,2.8,63.74,22.67,88.18,18.06,22.21,42.69,37.76,68.37,49.75C141,516.07,163.19,517.16,180.7,506.41Z"/><path class="cls-12" d="M160.29,430.66a10.77,10.77,0,0,1-1.91,2.75c-3,3.13-7.48,4.35-11.37,6.35s-7.67,5.63-7.21,10c.15,1.45.78,2.83.91,4.28.45,5.14-4.92,8.53-8.34,12.38a19.45,19.45,0,0,0-4.45,16.53c.86,4.22,2.9,9.31-.21,12.3,5.06.76,8.2-5.6,8.08-10.71s-1.69-10.64.87-15.06c4.38-7.57,17.09-5.88,22.09-13.06,2.18-3.13,2.31-7.23,3.71-10.78,2.14-5.46,5.77-7.2,9.82-8.16C168.42,435,164.38,432.79,160.29,430.66Z"/><path class="cls-12" d="M67.24,343.33c0,3.17,0,6.35-.08,9.52,0,1.46,0,3.08,1,4.12,2.31,2.37,6-.56,8.93-2,4-1.92,8.65-.88,12.91.2l13.93,3.5a30.27,30.27,0,0,1,13.49-16.87c.57-.32,1.15-.61,1.73-.88-3.63,0-7.31,1.37-10.81.41-4.38-1.2-7.48-5.75-12-6.16s-8.29,3.6-12.23,6.08A20.43,20.43,0,0,1,67.24,343.33Z"/><path class="cls-12" d="M102.84,377.53a15.17,15.17,0,0,1-3.16,0c-3.92-.43-8.47-2.06-11.39.59-2.28,2.06-2.27,5.81-4.44,8-3.45,3.44-9.6.76-14,2.8-3.87,1.78-5.28,6.55-8.37,9.49-3.34,3.18-8.29,3.91-12.23,6.29s-6.61,8.45-3.06,11.39c3.13-6,12.19-7.79,17.38-3.44,2.6-8.9,12.71-14.85,21.75-12.8,3.49.8,7.36,2.54,10.38.63,1.55-1,2.42-2.71,3.38-4.27a20.73,20.73,0,0,1,7.59-7.52A45.37,45.37,0,0,1,102.84,377.53Z"/><path class="cls-12" d="M115.68,401.86c-.51-.56-1-1.13-1.49-1.7a7.69,7.69,0,0,0-.72.28c-6.48,2.78-7.29,11.39-10.38,17.72-2.76,5.66-8,10.49-8.12,16.78-.08,5,3.24,10.18,1.24,14.79-1.25,2.9-4.32,4.66-5.69,7.5-1.11,2.28-1,4.95-.65,7.47a56.84,56.84,0,0,0,7,20.82c2.31-.27,3.58-3,3.36-5.33s-1.46-4.39-2.2-6.6a16.52,16.52,0,0,1,5-17.52c1.7-1.42,3.74-2.53,5-4.37,2-2.9,1.49-6.74,1.82-10.25,1-10.42,11.08-19.13,21.54-18.57,1.91.1,4,.43,5.59-.64a7.19,7.19,0,0,0,2.08-2.62C130.44,414.76,122.3,409.11,115.68,401.86Z"/><path class="cls-13" d="M222.63,320.88a54.6,54.6,0,0,1-24.4-11.45,20.38,20.38,0,0,0-4.54-3.2,17,17,0,0,0-5.75-1.07L160,303.24A25,25,0,0,1,170.18,297a421.34,421.34,0,0,0-54.74,4.39c-3.74.54-8.1,1.63-9.46,5.14-1,2.57.09,5.44,1.31,7.9,4.38,8.78,12.92,20.47,22.21,24.62,8.87,4,22.61,2.9,32.07,2.28A125.77,125.77,0,0,0,222.63,320.88Z"/><path class="cls-14" d="M181.92,482.44c-1.52-4.44-6.83-6.69-11.48-6.09s-8.72,3.37-12.33,6.36-7.06,6.3-11.29,8.33c-6,2.9-13.14,2.85-19.71,1.49s-12.8-3.95-19.19-6c-1.45-.46-3.45-.69-4.13.67a2.85,2.85,0,0,0-.09,1.78c1,4.92,6.17,7.69,10.81,9.63,9.75,4.07,20,7.44,30.58,7.52C154.53,506.19,186.9,497,181.92,482.44Z"/><path class="cls-4" d="M267.53,609.12c3.37-19,21.83-34,41.08-33.51-7.37-14,1.81-31.74,14.78-40.8a59.49,59.49,0,0,1,54.92-6.45c4.55,1.79,8.94,4.18,13.76,4.95,3.71.59,7.51.19,11.26.43,17.61,1.13,32.48,18.52,30.86,36.1,20.87-2.58,42.78,8.54,53,26.9,3.29,5.89,5.43,12.35,8.4,18.4,3.65,7.42,8.56,14.21,11.64,21.88,8.74,21.73.25,48.74-18.72,62.48s-46.47,13.7-66.07.88c-4.24-2.77-8.32-6.16-13.29-7.15-7.15-1.42-14.15,2.41-21.09,4.64-18.17,5.82-38.44.51-54.58-9.67-15.42-9.73-26.94-24.08-41.68-34.42C276.54,643.06,263.86,629.81,267.53,609.12Z"/><path class="cls-11" d="M726.18,341.93c-8.74-.48-17.86,1.42-24.78,6.78-12,9.28-14.62,26.77-11.09,41.5s12,27.69,18.93,41.13c5.2,10.07,9.66,20.7,11.18,31.92s-.12,23.19-6.33,32.66-17.42,16-28.7,14.91c-6.08-.58-11.8-3.24-17-6.49-3.74-2.34-7.93-5.15-12.2-4-6.17,1.64-7.39,9.74-7.37,16.12,0,4.91.09,10.1,2.65,14.29,1.7,2.79,4.35,4.87,7,6.76,16.38,11.53,36.23,18.3,56.27,18.27s40.14-7,55.34-20c23.49-20.17,33.36-53.12,31-84-2.19-28.06-13.42-54.4-27.48-78.46C763.72,356.33,746.35,343,726.18,341.93Z"/><path class="cls-12" d="M700.33,414.59a10.74,10.74,0,0,1,3.09-1.15c4.21-.83,8.48.66,12.74,1.22s9.35-.26,11.41-4c.68-1.26.95-2.73,1.66-4,2.5-4.4,8.74-4.14,13.66-5.35a19.11,19.11,0,0,0,12.84-10.87c1.67-3.9,2.86-9.15,7-9.84-3.67-3.43-9.77,0-12.53,4.15s-4.58,9.54-9.12,11.69c-7.77,3.67-17.11-4.8-25.16-1.79-3.52,1.32-5.91,4.56-9,6.65-4.79,3.21-8.7,2.59-12.5,1.11C696.19,406.54,698.21,410.59,700.33,414.59Z"/><path class="cls-12" d="M726.76,537.24l5.39-7.66c.83-1.17,1.69-2.5,1.45-3.92-.54-3.2-5.13-2.87-8.33-3.37-4.28-.66-7.49-4.12-10.34-7.38l-9.3-10.62a29.8,29.8,0,0,1-20.35,6.11c-.63-.07-1.26-.15-1.89-.26,3,2,6.68,3,9,5.71,2.88,3.42,2.84,8.83,6.27,11.69s8.71,1.72,13.29,1.93A20,20,0,0,1,726.76,537.24Z"/><path class="cls-12" d="M717.09,489.68a15,15,0,0,1,2.56,1.77c2.92,2.54,5.69,6.4,9.53,5.9,3-.39,5.08-3.44,8.06-4,4.71-.85,8.18,4.75,12.9,5.58,4.13.72,7.93-2.35,12.08-3,4.47-.7,8.88,1.47,13.4,1.75s10.07-3.14,8.85-7.5c-5.9,3.1-14.22-.51-16-6.93-7.07,5.74-18.58,4.9-24.74-1.82-2.38-2.59-4.53-6.16-8-6.31-1.8-.07-3.48.84-5.13,1.57a20.42,20.42,0,0,1-10.33,1.84A44.85,44.85,0,0,1,717.09,489.68Z"/><path class="cls-12" d="M720.31,462.83c.1.73.18,1.46.25,2.2q.38.11.75.18c6.79,1.37,12.25-5.14,18.29-8.54,5.4-3,12.35-4,15.95-9,2.88-4,3.08-10,7.27-12.65,2.63-1.65,6.1-1.36,8.8-2.89,2.17-1.23,3.55-3.46,4.69-5.67a55.85,55.85,0,0,0,6-20.75c-2-1.07-4.58.43-5.69,2.43s-1.28,4.37-1.91,6.57a16.26,16.26,0,0,1-13.8,11.4c-2.18.2-4.45,0-6.49.74-3.23,1.23-5,4.62-7.2,7.26-6.63,7.89-19.66,9.29-27.8,3-1.49-1.15-3-2.59-4.88-2.61a7.11,7.11,0,0,0-3.15.95C715.59,444.14,719,453.26,720.31,462.83Z"/><path class="cls-13" d="M588.55,468.52a53.74,53.74,0,0,1,13.33,22.9,20,20,0,0,0,1.88,5.13,16.87,16.87,0,0,0,4,4.08l21.51,17.16a24.49,24.49,0,0,1-11.72-.61,414.26,414.26,0,0,0,46.72,27.06c3.32,1.64,7.46,3.21,10.52,1.12,2.24-1.52,3-4.44,3.36-7.12,1.36-9.54,1-23.78-4.19-32.32-5-8.17-16.67-15-24.67-19.78A123.57,123.57,0,0,0,588.55,468.52Z"/><path class="cls-14" d="M711.79,360.63c-1.25,4.44,1.78,9.22,5.88,11.34s8.93,2.14,13.53,1.75,9.23-1.15,13.78-.43c6.52,1,12.22,5,16.77,9.82s8.15,10.35,12.17,15.58c.92,1.19,2.4,2.49,3.71,1.76a2.71,2.71,0,0,0,1.07-1.39c1.91-4.56-.69-9.66-3.36-13.83-5.6-8.74-12-17.2-20.52-23.17C747.22,356.73,715.91,346.06,711.79,360.63Z"/><path class="cls-15" d="M390.59,502.43c-5.14,16.89-6.15,35.22-7.1,53.25a13.48,13.48,0,0,0,.28,4.58,8.16,8.16,0,0,0,3.21,4.15c4.69,3.42,10.4,3.72,15.82,3.53a6.16,6.16,0,0,0,3.3-.77c2.33-1.53,2.73-5.44,2.52-8.71-1.15-18.45-12.23-35.6-9.34-53.74.51-3.17,8.32-17.12,3.83-17.61C399.9,486.75,391.45,499.61,390.59,502.43Z"/><path class="cls-15" d="M523.06,492.41c6.61,3.34,9.63,12.74,11.42,21.31a220.33,220.33,0,0,1,3.59,23.41,24.4,24.4,0,0,1,0,6.33,13.39,13.39,0,0,1-6.4,9.12c-3,1.8-6.42,2.41-9.75,3a7.5,7.5,0,0,1-4.5-.14c-2-.93-3.29-3.58-3.6-6.23a25.67,25.67,0,0,1,.66-8c2.51-12.94,6.07-25.67,11.54-37.1.61-1.29,1.33-2.64,2.47-3.12a2,2,0,0,1,2.54,2Z"/><path class="cls-16" d="M503.51,665.9c-.69,3.12-1.44,6.73.05,9.39a7.38,7.38,0,0,0,4.27,3.14,22.13,22.13,0,0,0,11.16,1,6,6,0,0,0,3.88-1.91c1.39-1.7,1.51-4.4,1.48-6.83a140.34,140.34,0,0,0-4.43-33.28c-1.3-5-11.57-15-13.53-5.76-1,4.86.09,11.46-.3,16.58A127.66,127.66,0,0,1,503.51,665.9Z"/><path class="cls-16" d="M429.58,649.34a13.9,13.9,0,0,1,.62,3.85,15.86,15.86,0,0,1-.95,4.26,49,49,0,0,0-1.59,20.78,9.59,9.59,0,0,1,0,4.06,4.86,4.86,0,0,1-1.8,2.41c-4.72,3.63-11.36,0-14.18-5.93s-2.74-13.34-2-20.18a128.12,128.12,0,0,1,3-17.1c.89-3.6,5.46-11.84,8.86-13.1C428.8,625.71,428.26,644.21,429.58,649.34Z"/><path class="cls-16" d="M370.54,577.46c12.3-6.55,27.85-2.06,36.6,10.57l11.68-16.91c-1.8-11.23-4-23.29-10.88-30.89-3.38-3.7-8.26-8.4-6.21-13.36.61-1.47,1.78,2.34,2.91,1.46,7.47-5.78,16.28-8.27,25-9.82a140.87,140.87,0,0,1,77.73,8.36c3,1.2,6.28,2.94,7.28,6.61,1.54,5.66-4.09,6.11-8.86,5.35q-.81,14.91-1.63,29.81l11.09,8.51a30.07,30.07,0,0,1,40.23-6.72c12.85,8.36,21,26.16,21.48,44.15.11,4,.72,9.34,3.92,9.85a4.48,4.48,0,0,0,3-.93c8.43-5.49,10.27-19.74,8.44-31.37-2.35-15-9.19-28.8-18.89-38.2s-22.15-14.27-34.4-13.46c-5.9.39-11.69,2-17.49,3.46-1.8.45-4,.76-5.25-.86-1.77-2.2-.59-5.9.67-8.58,3.69-7.84,7.44-17,5.14-25.61-2.8-10.52-12.89-14.57-21.66-16.6-27.75-6.45-56.43-7.71-84.17-1.41-4.71,1.08-9.47,2.4-13.62,5.35a20.69,20.69,0,0,0-8.54,13.61c-1.75,11.64,7,21.83,8.07,33.6a13.65,13.65,0,0,1-.69,6.38,8.26,8.26,0,0,1-8.41,4.83c-3.27-.23-6.37-1.78-9.57-2.67-9.12-2.55-19.13.55-26.2,8.11S346.43,579.23,347,590.72c.12,2.47,1.27,13.39,5.24,11.8,1.34-.54,2.06-4.93,2.66-6.39a43.93,43.93,0,0,1,3.54-6.94A33.14,33.14,0,0,1,370.54,577.46Z"/><path class="cls-15" d="M340.35,648.74c.68,5.76,1.53,11.7,4.09,16.59a23.12,23.12,0,0,0,15,11.53c15.82,4,31.4-6.43,45.35-16.46,2.47,3.15,1.82,8.26,1.07,12.55-2.18,12.62-3.31,27.3,3.5,37.08,5.53,7.93,14.59,10.09,22.94,11.55,26.32,4.59,53.49,6.93,79.15-1.53,6-2,12.05-4.64,17-9.32a29.47,29.47,0,0,0,9.24-19.41c.83-15.34-11.15-27.19-13.86-42.2,18.29,5.13,37.63,9,55.55,2.24,7-2.61,13.72-7,18.16-14.1,5.29-8.5,6.66-20.06,5.21-30.68s-5.45-20.44-10-29.59a207.57,207.57,0,0,1-10.06,35.19c-1.31,3.4-2.76,6.84-5.08,9.28-2.52,2.64-5.82,3.84-9,4.76A79.52,79.52,0,0,1,531,627.76c-3.61-.72-7.75-1.52-10.52,1.42a11.5,11.5,0,0,0-2.48,5.1c-1.94,7.53-.28,15.66.8,23.46s1.37,16.63-2.65,22.75c-5,7.54-14,7.64-21.86,8-16.61.86-33,5.92-49.65,5.07-9-.47-18.38-2.9-25.57-9.75s-11.68-18.93-9-29.67c1.05-4.21,3.08-8,4-12.23s.33-9.59-2.72-11.85-7-.46-10.05,1.72c-10.62,7.54-21.14,19.85-33.1,16.57-6.79-1.85-12-8.46-16.7-14.83a93.5,93.5,0,0,1-8.92-14c-2-4.1-2.62-10.84-5.14-14.14C336.34,619.21,338.73,635,340.35,648.74Z"/><path class="cls-17" d="M566.63,542.87c-21.84-13.3-40.36-2.13-40.36-2.13l-7.68-4.69s16-12.67,13.79-30.83c-2.08-16.92-38.38-34-113.67-23.63-45.49,6.28-21.33,56.8-21.33,56.8l-4,12.44s-21.83-11.72-37.39-.58-29.87,60.16-7.18,95.45,57.4-12.24,57.4-12.24l5.51,10.94s-16.09,30.51,1,47.27,91.84,12.84,111.45-.81-1.74-52.21-1.74-52.21L536,635.06s42.23,14.05,59-15.56S588.48,556.17,566.63,542.87ZM578,613.65c-13.91,24.56-53.67,2.92-53.67,2.92l-15.9,10.7s17.7,32,1.44,43.31-78.24,14.56-92.43.66,7.75-42.44,7.75-42.44l-16.52-12.47s-25.45,46.06-44.26,16.79-10.27-66.8,2.63-76,39.35,8.62,39.35,8.62l6-21.71s-27.69-41.76,10-47c62.44-8.63,95.48,5.49,94.27,19.6-1.27,14.75-6.69,20.64-9.43,22.56h0l7.82,15.91s21.94-16.45,40.06-5.42S591.93,589.09,578,613.65Z"/><path class="cls-18" d="M789.54,521.64H772.86c-2.74,61.61-131.92,95.45-368.07,95.45-228.55,0-363.77-44.48-368.07-95.45H20s-5.92,79,38.22,174.27c66.2,142.94,157.71,168.7,157.71,168.7l187,3.61,187-3.61s91.51-25.76,157.71-168.7C791.7,600.6,789.54,521.64,789.54,521.64Z"/><path class="cls-19" d="M645.61,910.44c0,24.56-105.8,44.48-236.31,44.48S173,935,173,910.44,278.79,866,409.3,866,645.61,885.88,645.61,910.44Z"/><path class="cls-18" d="M593.63,895.63v-33L404.78,838.85,215.94,864.61v31s-1.6,15,55.68,34.69c78.32,27,205.6,18.11,266.32,0C596,913,593.63,895.63,593.63,895.63Z"/><path class="cls-20" d="M537.8,930.32c58.06-17.32,55.69-34.69,55.69-34.69v-33l-86.58-10.89c-.14.08-.28.16-.41.25-9.93,6-19.47,11.38-20.22,23.74-.79,13,6.28,28.71.65,41.12-3.46,7.63-12.58,10.65-20.76,12.47-62.53,13.92-128,5.37-190.23-9.68-19.44-4.7-39.18-10.23-55.54-21.73a21.71,21.71,0,0,0-4.6-2.52v.27s-1.6,15,55.68,34.69C349.81,957.31,477.08,948.43,537.8,930.32Z"/><path class="cls-14" d="M112.46,642.74c-4,10.59-.61,22.42,3.37,33,10.88,29,26.12,56.29,43.37,82,12.4,18.54,27.92,37.71,49.83,41.84,7.69,1.46,16,.81,22.82-3s12-11,12.18-18.84-4.44-15.13-8.63-21.9c-10.24-16.58-18.88-34.36-23.18-53.36-2.87-12.62-3.92-26-10.4-37.22C190.71,646.12,124.94,609.53,112.46,642.74Z"/><path class="cls-14" d="M245,877.18a10.38,10.38,0,0,0-5.23,1.19c-3.2,2-3.59,6.81-1.76,10.11s5.23,5.4,8.58,7.14c13.89,7.22,29.33,10.91,44.74,13.71,5.91,1.07,12.22,2,17.76-.35s9.6-9.17,6.83-14.5c-2.63-5.06-9.34-6-15-6.51C282.35,886.26,263.13,876.62,245,877.18Z"/><path class="cls-20" d="M788.65,521.64H772.11C770.58,556.16,729.34,582,651.81,598a297.58,297.58,0,0,1-31.31,96.95c-53.88,103-104.92,131.65-167.36,152.9C375.67,874.18,285,867.57,285,867.57s91,20.77,163.88,20.77c72.53,0,140.13-23.73,140.13-23.73s91.5-25.76,157.71-168.7C790.82,600.6,788.65,521.64,788.65,521.64Z"/><path class="cls-21" d="M789.24,515.75H772.73a45.9,45.9,0,0,1,.16,5.25c-1.87,62-131.14,96.09-368.1,96.09-229.5,0-364.9-44.85-368.13-96.09.17-1.78.39-3.52.67-5.25H20.57c-.29,1.93-.53,3.89-.7,5.89,3.38,57.43,144.9,107.69,384.78,107.69,247.69,0,382.8-38.18,384.75-107.69A52.47,52.47,0,0,0,789.24,515.75Z"/><path class="cls-22" d="M370.15,313.5c-14.4-2.68-29.57-1.69-44.47-.7a11.13,11.13,0,0,0-3.74.7,6.85,6.85,0,0,0-3.07,3.16c-2.31,4.33-2,9.21-1.24,13.81a5.53,5.53,0,0,0,1,2.74c1.5,1.82,4.76,1.77,7.42,1.27,15-2.84,28-14,43.17-13.35,2.65.12,14.92,5.36,14.86,1.49C384,319.86,372.56,314,370.15,313.5Z"/><path class="cls-22" d="M392.23,425.26c-2.05,6-9.46,9.48-16.31,11.86a173.56,173.56,0,0,1-18.85,5.4,19.18,19.18,0,0,1-5.2.67,11.13,11.13,0,0,1-8.16-4.53,24.62,24.62,0,0,1-3.48-8,6.59,6.59,0,0,1-.36-3.84c.56-1.82,2.6-3.15,4.75-3.69a21.1,21.1,0,0,1,6.59-.24c10.89.85,21.71,2.6,31.68,6.1a4.9,4.9,0,0,1,2.82,1.8,1.65,1.65,0,0,1-1.41,2.36Z"/><path class="cls-23" d="M247.69,426c-2.63-.27-5.67-.54-7.7,1a6.33,6.33,0,0,0-2.14,4,19.85,19.85,0,0,0,.38,9.6,5.34,5.34,0,0,0,2,3.11c1.55,1,3.78.84,5.77.57a111.86,111.86,0,0,0,26.87-7.11c4-1.61,11.12-11.35,3.32-12.1-4.1-.39-9.4,1.23-13.65,1.42A103.12,103.12,0,0,1,247.69,426Z"/><path class="cls-23" d="M253.57,361.45a11.56,11.56,0,0,1-3.09.91,12.89,12.89,0,0,1-3.61-.38,39.08,39.08,0,0,0-17.23.73,7.51,7.51,0,0,1-3.33.44,4.11,4.11,0,0,1-2.17-1.29c-3.47-3.65-1.2-9.67,3.4-12.67s10.66-3.66,16.35-3.74a102.35,102.35,0,0,1,14.36.82c3.05.39,10.29,3.46,11.69,6.23C272.9,358.4,257.65,359.8,253.57,361.45Z"/><path class="cls-23" d="M306.44,304c6.66,9.81,4.6,23.5-4.86,32.21l15.11,8.25c9-2.66,18.72-5.72,24.23-12.36,2.69-3.25,6-7.88,10.33-6.63,1.27.37-1.74,1.75-.9,2.62,5.53,5.78,8.49,13,10.68,20.3a125,125,0,0,1,1.26,67c-.68,2.64-1.76,5.63-4.68,6.86-4.48,1.87-5.44-2.88-5.32-7l-24.65,1.6q-2.91,5.16-5.83,10.3a26.43,26.43,0,0,1,9.73,33.57c-5.53,11.78-19.3,20.49-34,22.72-3.28.5-7.59,1.55-7.68,4.32a4,4,0,0,0,1.08,2.51c5.39,6.62,17.29,6.76,26.65,4,12.05-3.51,22.69-10.72,29.4-19.91s9.4-20.29,7.46-30.64c-.94-5-2.89-9.75-4.67-14.53-.56-1.5-1-3.29.16-4.57,1.62-1.72,4.78-1.09,7.11-.28,6.83,2.35,14.72,4.63,21.57,1.8C387,422.7,389.22,413.7,390,406c2.39-24.27.43-48.81-7.65-71.78-1.37-3.9-2.95-7.82-5.81-11.06a17.11,17.11,0,0,0-12.07-5.91c-9.74-.32-17.19,8.16-26.76,10.25a10.81,10.81,0,0,1-5.3.05,7.12,7.12,0,0,1-4.85-6.68c-.15-2.8.79-5.6,1.19-8.4,1.14-8-2.45-16.23-9.39-21.49s-16.88-7.38-26.25-5.75c-2,.35-10.87,2.43-9.15,5.64.58,1.09,4.27,1.27,5.53,1.63a36.26,36.26,0,0,1,6.07,2.32A28,28,0,0,1,306.44,304Z"/><path class="cls-22" d="M244.74,285.43c-4.66,1.15-9.45,2.47-13.2,5.14a19.71,19.71,0,0,0-7.9,13.93c-1.61,13.87,8.56,26.09,18.26,36.95-2.33,2.43-6.6,2.38-10.2,2.18-10.59-.59-22.76-.08-30.08,6.7-5.94,5.5-6.77,13.43-7.09,20.69-1,22.86-.11,46.23,9.52,67.22,2.27,4.93,5.07,9.79,9.44,13.55a24,24,0,0,0,16.9,5.91c12.69-.84,21.17-12.22,33.21-16-2.3,16.09-3.44,32.94,4,47.52,2.87,5.65,7.17,11,13.49,14,7.53,3.65,17.17,3.66,25.74,1.36S323,497.88,330,493.06a167.43,167.43,0,0,1-30-5c-2.93-.78-5.91-1.67-8.15-3.4-2.44-1.88-3.76-4.56-4.86-7.21a70.8,70.8,0,0,1-5.19-31.78c.22-3.14.45-6.75-2.26-8.82a9.62,9.62,0,0,0-4.44-1.59c-6.39-.9-12.9,1.33-19.19,3s-13.52,2.83-19,0c-6.72-3.47-7.74-11.15-8.9-17.79-2.44-14.06-8.32-27.53-9.35-41.76-.56-7.75.46-15.93,5.34-22.74s14.33-11.85,23.42-10.66c3.57.46,6.87,1.82,10.46,2.18s7.91-.68,9.45-3.5-.35-6-2.46-8.38c-7.3-8.28-18.51-16-17.07-26.52.81-6,5.7-11.06,10.44-15.7a76.71,76.71,0,0,1,10.58-9c3.15-2.13,8.63-3.32,11.08-5.8C268.57,279.05,255.84,282.67,244.74,285.43Z"/><path class="cls-24" d="M355.34,467.42c8.63-19.93-2.47-34.58-2.47-34.58l3.05-7s12.08,12.37,26.76,8.65c13.68-3.47,23.94-36.08,7.53-99.13-9.91-38.09-48.88-12.46-48.88-12.46l-10.63-2.15S338,301,327.26,288.86s-52.52-19.39-79.14,3.47S264.17,340,264.17,340l-8.41,5.79s-26.73-10.63-38.71,5.62-1,79.47,12.31,94.79,42.7-6.72,42.7-6.72l4.36,11.19S269.3,488,295.37,499.3,346.7,487.35,355.34,467.42Zm-56.95,16.8c-21.62-9.38-8-45.4-8-45.4l-10.45-12.46s-24.42,18.28-35.42,5.58-20.14-65.14-10.21-78.62S270,355.66,270,355.66l8.52-15.32s-40.49-17-18.42-36,53.79-15.45,62.73-5.4-3,34.36-3,34.36l18.45,2.89s31.4-27.76,39.62,3.83c13.61,52.28,5.47,81.83-6.24,82.21-12.25.4-17.66-3.62-19.52-5.76h0l-12.25,8.25s15.81,17,8.64,33.56S320,493.59,298.39,484.22Z"/><path class="cls-15" d="M617.35,135.22c-10.62,12.4-19,27.46-27.12,42.28a14.78,14.78,0,0,0-1.71,3.95,7.63,7.63,0,0,0,.52,4.61c1.86,4.5,5.72,6.74,9.59,8.47a4.23,4.23,0,0,0,2.63.51c2.27-.47,4.17-3.62,5.39-6.44,6.87-15.92,6.26-34.18,15.84-48.43,1.67-2.49,12.93-11.48,10-13.46C630.39,125.29,619.13,133.15,617.35,135.22Z"/><path class="cls-15" d="M714.19,173c3.24,5.12,1.44,14.07-.88,21.9-2.07,7-4.49,14-7.23,20.92a27.81,27.81,0,0,1-2.61,5.34,12.73,12.73,0,0,1-8.27,5.43c-2.87.46-5.5-.21-8.08-.88A5,5,0,0,1,684,224c-1-1.49-.8-4.15.08-6.49a28.75,28.75,0,0,1,3.77-6.45c7.14-10,14.93-19.45,23.51-27.16,1-.87,2-1.75,3-1.75s1.66,1.4.93,2.59Z"/><path class="cls-16" d="M628.31,312c-1.78,2.39-3.8,5.15-3.86,7.91a6,6,0,0,0,1.67,4.13,14.7,14.7,0,0,0,7.41,4.7,4.52,4.52,0,0,0,3.51-.25c1.68-1,2.89-3.18,3.87-5.23a155.87,155.87,0,0,0,10.76-29.51c1.18-4.69-1.85-16.65-7.07-9.57-2.74,3.73-4.71,9.67-7.1,13.84A141.59,141.59,0,0,1,628.31,312Z"/><path class="cls-16" d="M583.49,272.29a15.24,15.24,0,0,1-1.16,3.45,17.82,17.82,0,0,1-2.44,3.25,54.71,54.71,0,0,0-9.76,16.91,10.77,10.77,0,0,1-1.66,3.42,4.74,4.74,0,0,1-2.26,1.41c-4.81,1.39-8-4-7.46-9.94s3.64-12.16,7-17.66a141.08,141.08,0,0,1,9.2-13.33c2.12-2.72,8.74-8.05,11.65-7.92C592.78,252.15,584.7,267.51,583.49,272.29Z"/><path class="cls-16" d="M572.11,191.29c11.32-1.22,20.33,8,21.2,21.64l15.21-10.14c3.41-10.06,6.91-21,5.24-29.75-.82-4.29-2.28-9.94,1.22-13.4,1-1,.27,2.59,1.42,2.25,7.63-2.26,14.83-1.27,21.58.46,20.08,5.16,37.64,16.93,50.9,34.13,1.57,2,3.16,4.66,2.33,8.09-1.27,5.29-5.4,3.71-8.42,1.41l-13.54,24.48q2.1,5.52,4.21,11c12.44-7.16,25.43-3.14,30.94,8.37s3.79,29.31-3.34,44.6c-1.59,3.41-3.39,8.1-1.36,9.65a3.14,3.14,0,0,0,2.52.28c8.18-1.68,15.4-13,19-23.42,4.58-13.41,5.55-27.42,2.68-38.7S714.31,222.56,705.4,219c-4.29-1.73-9-2.36-13.67-3.18-1.46-.26-3.08-.75-3.32-2.57-.33-2.46,2-5.16,4-7,5.84-5.3,12.27-11.66,14.25-19.72,2.42-9.83-3-16.75-8.24-21.52-16.73-15.09-36.27-26.15-58.3-30.52-3.74-.74-7.62-1.29-11.75-.26a20.1,20.1,0,0,0-11.64,8.46c-6.07,9.17-4.18,20.79-8.33,31.06a15.31,15.31,0,0,1-3.14,5.11,6.33,6.33,0,0,1-7.9,1.13c-2.19-1.33-3.72-3.71-5.58-5.57-5.32-5.33-13.61-6.21-21.7-2.33s-15.62,12.29-20,22.14c-.94,2.12-4.68,11.7-1.25,11.75,1.16,0,3.5-3.42,4.52-4.45a45.54,45.54,0,0,1,5.37-4.59A28.63,28.63,0,0,1,572.11,191.29Z"/><path class="cls-15" d="M521.33,240.67c-1.93,5.08-3.8,10.36-4.05,15.37A18.92,18.92,0,0,0,523,271c9.41,8.87,24.65,5.55,38.57,2,.42,3.51-2.16,7.58-4.47,10.93-6.78,9.84-13.67,21.78-13,32.38.57,8.59,6,13.57,11.24,17.7,16.5,13,34.53,24.48,56,26.31,5,.43,10.35.3,15.78-1.9a30,30,0,0,0,14.53-13.09c7-12.6,3.52-26.74,7.87-40.3,10.66,10.69,22.59,20.67,37.93,21.26A28.94,28.94,0,0,0,706,320.7c7.24-5.29,13-14.54,16.41-24s4.69-19.09,5.29-28.38a225.06,225.06,0,0,1-21.68,26.07c-2.33,2.4-4.78,4.79-7.42,6a14.28,14.28,0,0,1-8.3.85,52.2,52.2,0,0,1-26.88-11.78c-2.23-1.87-4.79-4-8-2.49a11.89,11.89,0,0,0-3.86,3.43c-4.49,5.65-6.71,13.07-9.2,20s-6,14.45-11.33,18.19c-6.61,4.61-13,1.54-18.63-.85-12-5.07-25.58-6.54-36.85-13.05-6.13-3.55-11.65-8.84-13.82-17.11s-.3-20,6-28.08c2.49-3.18,5.48-5.63,7.89-8.89s4.23-7.93,3-10.9-4.69-2.82-7.75-2.06c-10.57,2.64-23,9.31-30.06,2.39-4-3.93-4.87-11.3-5.5-18.3a90.45,90.45,0,0,1-.4-14.89c.29-4.14,2.67-10,2.28-13.67C530.81,214.45,525.9,228.57,521.33,240.67Z"/><path class="cls-17" d="M723.67,230.59c-9.74-18.79-27.35-15.86-27.35-15.86l-3.42-6.63S709.38,203,715.38,187c5.59-14.95-12.68-42-69.68-59.49-34.44-10.58-38.56,40.3-38.56,40.3l-8,9.06s-10.4-17.46-25.91-13.52-45.93,40.15-44.75,77.72,45.25,9.73,45.25,9.73l-.69,11.11s-24,20-19,40.09,58.9,42.81,78.3,38.18,20.51-44.49,20.51-44.49l11,1.71s23.7,26.53,47.76,7.5S733.42,249.38,723.67,230.59Zm-21.49,63.46c-19.95,15.78-38.76-16.26-38.76-16.26l-15.57,3.45s-.93,33.05-17,36.9-60.79-15-64.93-31.67,23.08-33,23.08-33l-6.37-16.24s-37,29.84-37.94-1.32,20.61-59.73,33.48-63,23.94,21,23.94,21l13.21-16.17s-2-44.75,26.56-36c47.27,14.52,64.5,37.91,57.79,49.34-7,12-13.27,15-16,15.67h0l-1.15,16.1s22.2-6.17,30.28,9.41S722.13,278.26,702.18,294.05Z"/><path class="cls-11" d="M356.12,216.15c-5,8.87-7.75,19.38-5.73,29.37,3.49,17.28,20.38,29.1,37.57,33s35.09,1.81,52.73,1.51c13.19-.22,26.59.62,39.09,4.84s24.13,12.12,30.81,23.5,7.69,26.45.73,37.66c-3.76,6.05-9.49,10.64-15.56,14.37-4.38,2.68-9.48,5.6-10.5,10.64-1.49,7.29,6.34,12.75,13,16,5.13,2.52,10.58,5.12,16.28,4.62,3.8-.33,7.34-2,10.69-3.84,20.51-11.13,37.84-28.36,48.18-49.28s13.46-45.51,7.7-68.13c-8.91-35-38.18-62.29-71.65-75.75-30.42-12.22-63.72-14.13-96.1-11.9C390.57,184.42,367.68,195.66,356.12,216.15Z"/><path class="cls-12" d="M418.59,280.71a12.34,12.34,0,0,1,.4-3.82c1.31-4.82,5.07-8.52,7.86-12.67s4.56-9.89,1.69-14c-1-1.37-2.35-2.4-3.29-3.79-3.3-4.89.19-11.27,1.48-17a22.24,22.24,0,0,0-4.71-19c-3.2-3.76-8.07-7.72-6.62-12.44-5.48,2-5.11,10.16-2.15,15.21s7.59,9.72,7.49,15.57c-.19,10-13.86,15.38-14.88,25.34-.45,4.35,1.7,8.53,2.27,12.86.87,6.66-1.8,10.42-5.31,13.62C408.05,280.87,413.31,280.85,418.59,280.71Z"/><path class="cls-12" d="M560.27,316.55l-5.2-9.58c-.8-1.47-1.74-3.07-3.34-3.55-3.63-1.08-5.66,3.87-7.84,7-2.9,4.12-8.17,5.68-13,7L515,321.57c1.49,8.39.31,17.19-4.16,24.39-.39.63-.81,1.24-1.24,1.84,3.61-2.06,6.56-5.43,10.59-6.41,5.06-1.23,10.69,1.61,15.45-.49s6.3-8.21,8.88-12.87A23.39,23.39,0,0,1,560.27,316.55Z"/><path class="cls-12" d="M505.63,302.05a17.16,17.16,0,0,1,3.17-1.75c4.17-1.74,9.63-2.63,11.09-6.91,1.14-3.33-1-7.08,0-10.46,1.55-5.36,9.18-6.09,12.48-10.58,2.9-3.94,1.66-9.5,3.12-14.16,1.58-5,6.13-8.51,8.76-13.09S546.2,233,541,232c.19,7.75-7.89,14.57-15.5,13.09C527.85,255.45,521,267,510.83,270c-3.93,1.14-8.78,1.54-10.75,5.13-1,1.84-.92,4.06-1,6.16A23.84,23.84,0,0,1,495.64,293,51.8,51.8,0,0,1,505.63,302.05Z"/><path class="cls-12" d="M479.27,284.8c.81.28,1.62.57,2.43.88.2-.23.39-.45.57-.68,4.94-6.38,1-15.46.56-23.52-.38-7.19,2.21-15-1.18-21.31-2.7-5.08-8.89-8.41-9.45-14.13-.35-3.6,1.75-7.07,1.55-10.68-.17-2.89-1.78-5.49-3.5-7.83a65.15,65.15,0,0,0-18.56-17c-2.16,1.56-1.92,5-.4,7.21s3.9,3.59,5.86,5.39a18.92,18.92,0,0,1,4.77,20.3c-.92,2.37-2.35,4.61-2.59,7.15-.38,4,2.25,7.59,3.86,11.28,4.81,11-.48,25.32-11.27,30.56-2,.95-4.24,1.79-5.24,3.74a8.23,8.23,0,0,0-.63,3.77C457.32,280.07,468.62,281.21,479.27,284.8Z"/><path class="cls-13" d="M417.07,425.27a62.46,62.46,0,0,1,30.79-2.07,23,23,0,0,0,6.33.69,19.59,19.59,0,0,0,6.35-2.12l29-13.57a28.67,28.67,0,0,1-6.7,11.91,481.09,481.09,0,0,0,52.4-34.77c3.44-2.61,7.21-6.12,6.62-10.4-.44-3.12-3.1-5.4-5.7-7.18-9.25-6.36-24.3-13.34-35.9-12.35-11.09.95-24.27,9.64-33.4,15.52A144.07,144.07,0,0,0,417.07,425.27Z"/><path class="cls-14" d="M368.2,240.84c4,3.6,10.54,2.91,14.87-.27s6.86-8.22,8.83-13.22,3.57-10.23,6.68-14.61c4.45-6.26,11.58-10.15,18.92-12.42s15-3.15,22.55-4.65c1.72-.34,3.84-1.22,3.76-3a3.14,3.14,0,0,0-.89-1.83c-3.78-4.36-10.45-4.28-16.18-3.65-12,1.33-24.17,3.65-34.79,9.44C382.45,201.84,355.12,229,368.2,240.84Z"/><path class="cls-6" d="M130.71,208c9.75,10.22,18,22.73,30.82,28.59,17,7.74,38.12,1,50.8-12.66a42.48,42.48,0,0,0,9.74-16.15c4.55-14.74-2-31.5-13.78-41.43S180.34,152.73,165,153.7s-30.19,6.19-44.3,12.42c-8.07,3.56-26.88,9.75-18.59,19.93C109,194.56,122.7,199.59,130.71,208Z"/><path class="cls-6" d="M237.74,243.05l8.14-11.72a1.33,1.33,0,0,0-.09-2.09,221.68,221.68,0,0,0-24.18-22.18c-3.64-2.87-7.54-5.71-12.09-6.63s-9.92.62-12.1,4.72c-4.52,8.46,14,13,18.9,16.36C218.88,223.22,240,239.86,237.74,243.05Z"/><path class="cls-14" d="M154.12,174.49c2.85,1.07,6,.92,9,1.29,9.65,1.18,17.83,7.64,24.39,14.82,3.09,3.37,6.06,7.05,10.13,9.12s9.7,2,12.59-1.55c2.41-3,2.18-7.29,1-10.92-3-9.34-11.41-16.25-20.65-19.59s-19.31-3.54-29.12-2.91C156.17,165.08,142.35,170.08,154.12,174.49Z"/><path class="cls-6" d="M325.82,13.36c-10.35,3.56-21.83,5.31-30.11,12.47-10.94,9.44-13,26.52-7.52,39.87a33,33,0,0,0,8.23,12.09c8.9,8,22.82,8.79,33.63,3.69S348.67,66.2,353,55.05s5.41-23.28,5.58-35.23c.11-6.83,1.83-22.08-8-19.54C342.29,2.41,334.32,10.44,325.82,13.36Z"/><path class="cls-6" d="M266.49,77.41l5.63,9.52a1,1,0,0,0,1.49.61,171.48,171.48,0,0,0,23.45-9.85c3.2-1.64,6.46-3.47,8.58-6.38s2.77-7.18.59-10.05c-4.5-5.91-13.7,5.62-17.64,8C286.56,70.54,268,80,266.49,77.41Z"/><path class="cls-14" d="M341.83,40.69c-1.68,1.66-2.58,3.92-3.82,5.93-4,6.41-11.16,10.09-18.33,12.38-3.37,1.08-6.93,2-9.7,4.19s-4.54,6.18-3,9.36c1.3,2.66,4.43,3.9,7.36,4.24,7.57.88,15.14-2.78,20.48-8.21S343.58,56.13,346.31,49C347.79,45.18,348.74,33.83,341.83,40.69Z"/><path class="cls-6" d="M845.8,330.94c-10,5.79-19.34,13.73-30.78,15.39-15.1,2.19-30.17-7.95-37-21.6a34.86,34.86,0,0,1-3.95-14.92c-.19-12.62,8.78-24.29,20.33-29.38s25.08-4.28,37,0,22.3,11.8,31.95,19.92c5.52,4.65,18.88,13.83,10,19.93C865.93,325.38,854,326.19,845.8,330.94Z"/><path class="cls-6" d="M753.67,333.94q-1.86-5.54-3.7-11.07a1.46,1.46,0,0,1-.08-1.06,1.43,1.43,0,0,1,.63-.56,179.38,179.38,0,0,1,24.08-11.88c3.52-1.42,7.23-2.75,11-2.43s7.65,2.76,8.42,6.48c1.61,7.68-14,7-18.6,8.51C773,322.69,752.66,330.92,753.67,333.94Z"/><path class="cls-14" d="M835.08,299.26c-2.48.19-4.91-.65-7.36-1.05-7.86-1.28-15.77,1.91-22.57,6-3.2,1.95-6.37,4.16-10,4.85s-8.07-.66-9.53-4.11c-1.21-2.87,0-6.23,1.72-8.8C791.82,289.55,800,286,808,285.53s16,1.65,23.55,4.39C835.63,291.4,845.34,298.5,835.08,299.26Z"/><path class="cls-6" d="M492.56,140.67c11.57-2.47,24.11-2.85,33.94-9.44,13-8.71,17.45-26.76,13.26-41.81a35.63,35.63,0,0,0-7.24-14C524,65.66,509.17,63,496.91,67s-22,14-28.05,25.38-8.84,24.27-10.59,37.07c-1,7.31-4.84,23.46,6.07,22C473.45,150.27,483.06,142.7,492.56,140.67Z"/><path class="cls-6" d="M564.59,79.69l-4.8-11a1.11,1.11,0,0,0-1.53-.85,185.29,185.29,0,0,0-26.44,7.52c-3.65,1.34-7.39,2.87-10,5.72s-3.91,7.34-1.95,10.7c4.06,6.94,15.44-4.23,20-6.31C542.15,84.44,563.28,76.7,564.59,79.69Z"/><path class="cls-14" d="M478.94,109.26c2-1.57,3.29-3.87,4.88-5.86C488.9,97,497.1,94,505.1,92.49c3.77-.72,7.69-1.22,11-3.22s5.68-6,4.42-9.66c-1.05-3-4.25-4.76-7.35-5.51-8-1.93-16.61,1-23.05,6.13s-11,12.23-14.86,19.5C473.13,103.66,470.63,115.72,478.94,109.26Z"/><path class="cls-25" d="M328.42,197.33A10.42,10.42,0,1,1,318,186.92,10.42,10.42,0,0,1,328.42,197.33Z"/><path class="cls-25" d="M204.84,86.08A12.45,12.45,0,1,1,192.4,73.63,12.44,12.44,0,0,1,204.84,86.08Z"/><path class="cls-25" d="M624.45,60.17a9.12,9.12,0,1,1-9.12-9.11A9.12,9.12,0,0,1,624.45,60.17Z"/><circle class="cls-25" cx="466.5" cy="27.93" r="9.7" transform="translate(364.43 483.98) rotate(-80.81)"/><circle class="cls-25" cx="32.26" cy="303.02" r="12.25"/></g></g></svg>