<svg xmlns="http://www.w3.org/2000/svg" viewBox="0 0 826.17 854.51"><defs><style>.cls-1{fill:#f7d3b0;}.cls-2{fill:#e2bfa3;}.cls-3{fill:#cead97;}.cls-4{fill:#6fb56b;}.cls-5{fill:#81cc7a;}.cls-6{fill:#89e269;}.cls-7{fill:#0a0b0c;}.cls-8{fill:#36383f;}.cls-9{fill:#ff5a27;}.cls-10{fill:#ff8b78;}.cls-11{fill:#ffb164;}.cls-12,.cls-21{fill:#fff;}.cls-12{opacity:0.52;}.cls-13{fill:#ef9116;}.cls-14{fill:#ffdc83;}.cls-15{fill:#ffba1f;}.cls-16{fill:#f4dcb5;}.cls-17{fill:#ffe6ae;}.cls-18{fill:#9cd6e8;}.cls-19{fill:#e7f2f0;}.cls-20{fill:#96c8e2;}.cls-21{opacity:0.38;}.cls-22{fill:#b8f0ff;}.cls-23{fill:#d34722;}.cls-24{fill:#f2a688;}</style></defs><g id="Layer_2" data-name="Layer 2"><g id="Layer_2-2" data-name="Layer 2"><path class="cls-1" d="M20,418.14c3.37,57.43,144.89,107.7,384.77,107.7,247.69,0,382.8-38.18,384.76-107.7S657.37,297.64,410.65,298.7C202.86,299.59,28.82,314.37,20,418.14Z"/><path class="cls-2" d="M36.66,417.51c3.23,51.24,138.63,96.08,368.13,96.08,237,0,366.23-34.06,368.1-96.08S646.44,310,410.4,311c-198.8.79-365.31,14-373.74,106.56Z"/><path class="cls-3" d="M36.66,417.69c2.59,41.07,90.12,78,243,91.09q-12.31-8.36-23.92-17.68A374.61,374.61,0,0,1,146.6,347.46c-2-4.7-4.2-9.63-6.28-14.67C79.54,348.18,40.63,374.16,36.66,417.69Z"/><path class="cls-4" d="M208.52,476.77c-2.82-3-6.08-5.76-8-9.41-2.09-3.9-2.48-8.46-3.6-12.75a38.43,38.43,0,0,0-23.21-25.78c-2.89-1.08-6.1-1.95-8-4.38s-1.91-5.87-2.28-9a32.94,32.94,0,0,0-21.94-26.8c-3.56-1.16-7.44-1.76-10.41-4-6.6-5-5.57-15.25-9.49-22.56-2.21-4.11-5.93-7.16-9.56-10.1L93.29,336.8c-6.41-5.18-13.25-10.57-21.42-11.71-4.22-.59-8.89-.09-12.39-2.53-3.18-2.22-4.45-6.23-6.26-9.66-7.91-15-30.54-19.23-43.51-8.37s-12.91,33.63,0,44.6C.48,356.6-.19,371.06,5,381.72s14.76,18.4,24.12,25.66c2.36,1.84,4.81,3.76,6.2,6.42,2,3.82,1.44,8.4,1.48,12.71.16,19.42,14.84,37.79,33.74,42.23l148.11,57.32A49.44,49.44,0,0,0,208.52,476.77Z"/><path class="cls-4" d="M174,368.87c-8-10.28-16-20.73-21-32.75s-6.49-26.05-1.24-37.95c1.35-3,3.13-6,3.6-9.25.56-3.92-.81-7.82-1.58-11.71a38.95,38.95,0,0,1,51.54-44.13,27.72,27.72,0,0,1,45.16,23.42c10.2-2.68,21.06,3.91,26.48,13s6.53,20,7,30.51a46.7,46.7,0,0,1,47.22,61.32c14.36,11.6,28.21,25.9,31.56,44.06s-8.58,39.94-27,40.65c10.26,1,15,14.84,10.55,24.16S332,484.78,322.56,488.8a231.7,231.7,0,0,1-60.21,16.4c-12.21,1.6-25,2.17-36.53-2.13-25.31-9.41-37-37.36-46-60.65C171.84,421.81,146.59,386.15,174,368.87Z"/><path class="cls-4" d="M534.63,312.61a30.14,30.14,0,0,1,32.64-11.9c1.33-14.94,13.74-28.17,28.56-30.44s30.63,6.62,36.37,20.47c9.48-7.74,25.1,1.16,27.67,13.13s-3.78,24-11.25,33.71c9.84,3,14.62,14.93,13.1,25.11S654,381.66,648,390c12.84,9.63,15.42,29.44,7.6,43.46s-24,22.1-40,22.81c-16.74.74-30.67-6.11-45.26-13.08C518.66,506.88,450,358,535.72,347.05,529.08,336.72,527.56,323.25,534.63,312.61Z"/><path class="cls-5" d="M606.4,374c6.94-11.5,15.17-22.44,25.8-30.65,7.76-6,16.61-10.38,25.39-14.73,24.2-12,53.63-23.89,76.83-10.08,4.24,2.52,8,5.81,12.47,8,9.83,4.73,21.34,3.2,32.25,3.14,11.1-.06,22.59,1.66,32,7.61S827.3,354,826,365.07c-.68,5.81-3.49,11.3-3.57,17.16-.07,5,1.9,9.88,2.62,14.87,1.83,12.76-6.55,27-19.25,29.14-4.47.77-9.08.11-13.56.77-19.78,2.88-28.17,28.32-46.62,36-5.19,2.17-10.89,2.78-16.24,4.49-5.7,1.82-10.92,4.86-16.35,7.36-34.85,16-79.44,7.56-106-20.15C583.76,430.36,590.33,400.6,606.4,374Z"/><path class="cls-4" d="M540.66,467.7c1.78.41,3.68,1.07,5.37.37,2.15-.89,2.89-3.48,3.67-5.68,4.44-12.49,19.59-20,32.22-16,2.73.87,5.45,2.21,8.3,1.9,4-.43,6.87-3.93,10.07-6.4,8.16-6.3,20.82-5.8,28.46,1.12,2.08,1.87,3.86,4.19,6.41,5.35,2.75,1.25,6,.95,8.88,1.8,10.13,3,12.72,18.08,22.9,20.88,6.65-11.25,23.74-13.05,34.47-5.59s15.35,21.53,14.52,34.57c-1.82,28.88-30.08,53.38-58.93,51.09-13-1-25.38-6.68-38.4-6.62-12.55.05-24.39,5.36-36.05,10-28.28,11.26-56.44,7.28-65-25C512.76,511.29,505,459.39,540.66,467.7Z"/><path class="cls-6" d="M322.4,417.14c-7.15-14.47-7.66-32.52,1.93-45.7,8.1-11.13,21.83-17.27,34.91-22.9-17.16-16-21.32-42.79-9.69-62.65s38-31,61.65-26.09c-5.27-17.45,9.27-36.85,28.18-40.85s39.28,5.57,50.05,20.65c13.23-8,32.68-5.11,42.64,6.31s9,29.82-2,40.34c18.75,15.65,20.59,45.84,3.87,63.39,10.13,8.06,15.58,21,14.07,33.35s-9.93,23.8-21.74,29.53c2.44,8.09,4.82,17.08.82,24.62-4.66,8.81-16.35,12.2-26.86,12.44s-21.15-1.76-31.45.22c4,9.85-4.08,21.06-14.44,25.19s-22.11,3.11-33.31,2l-37.78-3.73c-7.07-.7-14.5-1.53-20.23-5.45-6.62-4.53-9.15-15.62-15.25-21.8C338.36,436.45,328.47,429.41,322.4,417.14Z"/><path class="cls-7" d="M504.52,31.35c7.47,6,13.28,13.41,14.36,19.95.23,1.41.81,3.38,2.75,4.08a3.46,3.46,0,0,0,2.39-.05c7-2.3,8.45-9.92,3.39-17.4-3.83-5.66-10.54-10.64-17.18-15.08Q503,18,495.44,13.6c-6.4-3.74-13.51-7.53-20.3-8.87-5.05-1-13.84-.6-11.4,4.7S476,16,481.14,18.12A95.54,95.54,0,0,1,504.52,31.35Z"/><path class="cls-8" d="M532.1,43.4c-4.54-8.23-13.18-16.19-22.67-22.76s-19.9-12-30.21-17.27c-10.8-5.58-22.93-3.61-27.53,1.38-4.27,4.62-3.76,12.35,1.1,19.88s13.14,14.18,21.54,20.31c8.83,6.45,18.3,12.69,28.38,16.69s20.95,5.43,27.18,2C536.43,60.07,536.65,51.64,532.1,43.4Zm-21.13,6C505.1,48,499.22,44.54,493.85,41a167.14,167.14,0,0,1-14.46-10.79C475.58,27,471.91,23.6,469.54,20s-3.27-7.47-1.33-9.75c7.58-9,31.6,8.38,41.33,16.14,5.4,4.31,10.18,9.28,12.59,14.27A9.21,9.21,0,0,1,523.31,46C522.61,49.89,516.85,50.91,511,49.44Z"/><path class="cls-9" d="M292,481,517.52,378.88s41.76,93-53.44,141.51C361.3,572.78,292,481,292,481Z"/><path class="cls-10" d="M311,472.37s60.14,63.19,125.19,39.92c100.39-35.9,68.42-127.57,68.42-127.57Z"/><path class="cls-9" d="M466.52,401.65,358,451.06c-2.38,2-4.81,4.08-6.08,6.91s-1,6.57,1.43,8.5c6.07,4.8,15.69-6.29,22-1.74C377,466,377.8,468,379,469.8a14.71,14.71,0,0,0,18.05,5c3.55-1.7,6.22-4.77,9.23-7.31s6.87-4.67,10.73-3.88a21.11,21.11,0,0,1,5.64,2.58,33.14,33.14,0,0,0,19.26,3.8c5.06-.54,10.49-2.72,12.6-7.35,2.56-5.63-.77-12.07-.91-18.25a4.08,4.08,0,0,1,3.46-4.7c4.88-1.51,11.34-1.58,13.3-6.3,1.86-4.49-2.16-9.05-5.52-12.56a5.51,5.51,0,0,1-1.7-2.75c-.33-2.09,1.69-3.79,3.64-4.62s4.19-1.42,5.39-3.16C474.44,406.93,470.59,402.28,466.52,401.65Z"/><path class="cls-11" d="M343.57,470.5a28.12,28.12,0,0,0-9.68,6.65c-1.08,1.13-2,3.1-.76,4.05a2.53,2.53,0,0,0,1.69.37c3.82-.18,7.12-2.59,10.16-4.9a6.91,6.91,0,0,0,2.26-2.37,2.38,2.38,0,0,0-.59-3c-1.07-.7-2.88-.22-3.46-1.36Z"/><path class="cls-11" d="M353.1,492a30.65,30.65,0,0,1,3.25-5.23l-.46.59c.58-.74,1.2-1.46,1.84-2.15a3.05,3.05,0,0,0,.86-2.08,2.94,2.94,0,0,0-5-2.08,32.62,32.62,0,0,0-5.55,8,3.2,3.2,0,0,0-.29,2.27,2.95,2.95,0,0,0,3.62,2.06A2.91,2.91,0,0,0,353.1,492Z"/><path class="cls-11" d="M368.74,496.69a22.09,22.09,0,0,1,1.38-4.57l-.3.7a23.09,23.09,0,0,1,2-3.69,2.94,2.94,0,1,0-5.08-3,24.37,24.37,0,0,0-3.69,9,3.12,3.12,0,0,0,.3,2.26,3,3,0,0,0,1.76,1.35,3,3,0,0,0,2.27-.29,2.91,2.91,0,0,0,1.35-1.76Z"/><path class="cls-11" d="M388.31,503.75l1.65-8.28a3.07,3.07,0,0,0-.3-2.26,2.93,2.93,0,0,0-5.37.7l-1.65,8.27a3.09,3.09,0,0,0,.3,2.27,2.94,2.94,0,0,0,5.37-.7Z"/><path class="cls-11" d="M407.35,505.44l.33-9.5a3,3,0,0,0-2.94-2.95,3,3,0,0,0-2.94,2.95l-.33,9.5a3,3,0,0,0,2.94,2.94,3,3,0,0,0,2.94-2.94Z"/><path class="cls-11" d="M431.27,500.89a48.9,48.9,0,0,0-.95-9A3,3,0,0,0,429,490.1a2.95,2.95,0,0,0-4.32,3.33c.17.88.32,1.78.45,2.67,0-.26-.08-.52-.11-.78a45.06,45.06,0,0,1,.39,5.57,2.95,2.95,0,0,0,5.89,0Z"/><path class="cls-11" d="M455.54,490.64q-2.76-4.81-5.16-9.82a3,3,0,0,0-4-1.06,3,3,0,0,0-1.06,4q2.4,5,5.16,9.82a3,3,0,0,0,4,1.06,3,3,0,0,0,1.06-4Z"/><path class="cls-11" d="M477.73,476.44a24.47,24.47,0,0,1-3.89-4l.46.59a24.43,24.43,0,0,1-3.13-5.34l.29.71-.06-.15a3.29,3.29,0,0,0-1.35-1.76,3,3,0,0,0-2.27-.29,3,3,0,0,0-1.75,1.35,2.8,2.8,0,0,0-.3,2.27,27.34,27.34,0,0,0,7.83,10.77,3.19,3.19,0,0,0,2.08.86,3,3,0,0,0,2.09-.86c1-1.08,1.27-3.12,0-4.16Z"/><path class="cls-11" d="M478.58,465.14a25.28,25.28,0,0,1,6.15,1.69l-.7-.29c.41.18.83.36,1.24.56a3.12,3.12,0,0,0,2.26.3,3.05,3.05,0,0,0,1.76-1.35,3,3,0,0,0,.3-2.27,2.93,2.93,0,0,0-1.36-1.76,27.06,27.06,0,0,0-8.09-2.55,2.22,2.22,0,0,0-1.17-.06,2.27,2.27,0,0,0-1.1.35,2.94,2.94,0,0,0-1.05,4,2.81,2.81,0,0,0,1.76,1.35Z"/><path class="cls-11" d="M486.79,449.22a31.32,31.32,0,0,1,5.3.24l-.78-.1a30.79,30.79,0,0,1,4.63,1,2.94,2.94,0,1,0,1.56-5.67,33.42,33.42,0,0,0-10.71-1.34,2.94,2.94,0,1,0,0,5.88Z"/><path class="cls-11" d="M491.75,433.5h9.93a2.94,2.94,0,0,0,0-5.88h-9.93a2.94,2.94,0,1,0,0,5.88Z"/><path class="cls-11" d="M491.3,415.65l11.19-2a3,3,0,0,0,2.05-3.62,3,3,0,0,0-3.62-2.05l-11.18,2a2.94,2.94,0,0,0-2.06,3.61,3,3,0,0,0,3.62,2.06Z"/><path class="cls-11" d="M490.47,402l9.52-2.87a2.94,2.94,0,1,0-1.56-5.67l-9.52,2.87a2.94,2.94,0,1,0,1.56,5.67Z"/><path class="cls-12" d="M343.13,464.4c-3.42,1.37-7,2.84-9.38,5.63s-3.23,7.31-.82,10.09c2,2.37,5.7,2.69,8.67,1.71s5.45-3,8-4.83c20.83-14.93,48.3-17.37,70.34-30.46,3.11-1.85,6.44-5.77,4.12-8.54-1-1.22-2.75-1.52-4.34-1.62-12.55-.78-25.95,7.65-37.3,12.22Z"/><path class="cls-9" d="M41,238,233.89,393.13s-64.13,79.23-150.4,16.18C-9.65,341.25,41,238,41,238Z"/><path class="cls-10" d="M57.26,251.05S28,333.23,78.14,380.78c77.34,73.38,144.72,3.47,144.72,3.47Z"/><path class="cls-9" d="M190.55,357.9,97.46,283.34c-2.84-1.24-5.81-2.46-8.9-2.31s-6.32,2.08-6.94,5.11c-1.55,7.58,12.69,11.17,11.46,18.81-.33,2.08-1.82,3.75-2.87,5.57a14.72,14.72,0,0,0,3.66,18.38c3.12,2.4,7.07,3.39,10.69,4.93s7.27,4,8.31,7.82c.55,2,.29,4.12.24,6.2a33.12,33.12,0,0,0,5.3,18.9c2.77,4.28,7.16,8.14,12.25,7.93,6.18-.26,10.42-6.14,15.87-9.05a5.1,5.1,0,0,1,2.89-.76,5,5,0,0,1,2.87,1.72c3.55,3.67,6.53,9.4,11.62,9,4.85-.36,7.1-6,8.72-10.59a5.47,5.47,0,0,1,1.68-2.75c1.72-1.24,4.15-.2,5.77,1.16s3.16,3.1,5.26,3.38C189.41,367.35,191.83,361.81,190.55,357.9Z"/><path class="cls-11" d="M73.62,279.26a28.34,28.34,0,0,0-10.31-5.64c-1.49-.45-3.67-.38-4,1.15a2.59,2.59,0,0,0,.43,1.69c1.88,3.32,5.52,5.18,9,6.84a6.83,6.83,0,0,0,3.13.95,2.39,2.39,0,0,0,2.39-1.86c.14-1.28-1.1-2.67-.35-3.71Z"/><path class="cls-11" d="M58.76,297.46a30.1,30.1,0,0,1,6.14.54l-.74-.15c.93.19,1.84.41,2.75.68a3.1,3.1,0,0,0,2.24-.17,3,3,0,0,0,1.47-1.71,3,3,0,0,0-1.88-3.71,32.33,32.33,0,0,0-9.62-1.35,3.11,3.11,0,0,0-2.16.76,2.93,2.93,0,0,0-.2,4.15,2.93,2.93,0,0,0,2,1Z"/><path class="cls-11" d="M61.61,313.54a22.7,22.7,0,0,1,4.7-.83l-.76.05a21.83,21.83,0,0,1,4.2.13,3,3,0,0,0,2.16-.76,3.06,3.06,0,0,0,1-2A3,3,0,0,0,70.11,307a24.3,24.3,0,0,0-9.67.76,3.13,3.13,0,0,0-1.89,1.29,2.95,2.95,0,0,0,.88,4.07,2.9,2.9,0,0,0,2.18.41Z"/><path class="cls-11" d="M64.15,334.19l8.12-2.26a3.15,3.15,0,0,0,1.89-1.29,2.94,2.94,0,0,0-3-4.48L63,328.43a3.16,3.16,0,0,0-1.89,1.28,2.94,2.94,0,0,0,3.06,4.48Z"/><path class="cls-11" d="M71.23,351.94l8.63-4a3,3,0,0,0,1.3-3.95,3,3,0,0,0-4-1.3l-8.63,4a2.94,2.94,0,0,0,2.66,5.25Z"/><path class="cls-11" d="M86.09,371.23a49.23,49.23,0,0,0,7.62-4.91,2.94,2.94,0,0,0,.2-4.16,3,3,0,0,0-4.15-.2c-.72.56-1.45,1.09-2.19,1.6l.65-.44A45.52,45.52,0,0,1,83.43,366a2.94,2.94,0,1,0,2.66,5.25Z"/><path class="cls-11" d="M106.18,388.27q3.06-4.63,6.44-9a3,3,0,0,0-.87-4.07,3,3,0,0,0-4.07.88q-3.37,4.4-6.44,9a2.94,2.94,0,0,0,4.94,3.2Z"/><path class="cls-11" d="M128.87,401.65a25.25,25.25,0,0,1,1.81-5.27c-.11.23-.22.45-.32.68a24.55,24.55,0,0,1,3.35-5.2l-.5.58.1-.12a3.23,3.23,0,0,0,1-2,2.93,2.93,0,0,0-2.76-3.11,2.81,2.81,0,0,0-2.15.75,27.25,27.25,0,0,0-6.08,11.86,3.21,3.21,0,0,0,.17,2.24,3,3,0,0,0,1.71,1.47c1.41.4,3.36-.27,3.71-1.88Z"/><path class="cls-11" d="M139.34,397.31a24.85,24.85,0,0,1,1.26,6.26c0-.26,0-.51,0-.76,0,.45,0,.9.06,1.36a3.13,3.13,0,0,0,.75,2.15,3,3,0,0,0,2,1,2.95,2.95,0,0,0,3.12-2.76,27,27,0,0,0-1.37-8.37,2.19,2.19,0,0,0-.49-1.07,2.1,2.1,0,0,0-.8-.82,2.93,2.93,0,0,0-4.07.87,2.82,2.82,0,0,0-.41,2.18Z"/><path class="cls-11" d="M157.25,397.46a31.3,31.3,0,0,1,2.18,4.83c-.09-.25-.18-.49-.26-.74a31.15,31.15,0,0,1,1.2,4.58,2.94,2.94,0,1,0,5.77-1.17,33.49,33.49,0,0,0-3.64-10.16,2.94,2.94,0,1,0-5.25,2.66Z"/><path class="cls-11" d="M173.51,394.79l4.49,8.86A3,3,0,0,0,182,405a3,3,0,0,0,1.3-4l-4.49-8.85a3,3,0,0,0-3.95-1.3,3,3,0,0,0-1.3,4Z"/><path class="cls-11" d="M189.24,386.33l6.81,9.09a3,3,0,0,0,4.16.2,3,3,0,0,0,.2-4.16l-6.81-9.09a3,3,0,0,0-4.16-.2,3,3,0,0,0-.2,4.16Z"/><path class="cls-11" d="M201.06,379.42l6.87,7.2a2.94,2.94,0,1,0,4.35-3.95l-6.86-7.2a2.94,2.94,0,0,0-4.36,3.95Z"/><path class="cls-12" d="M78.86,276.12c-2.77-2.43-5.68-4.94-9.25-5.83s-8,.41-9.38,3.82c-1.19,2.89.18,6.3,2.39,8.51s5.14,3.5,7.91,4.94c22.73,11.85,37.31,35.26,58.94,49,3.05,1.94,8.05,3.15,9.48-.17.62-1.46.11-3.15-.52-4.61-5-11.55-18.54-19.7-27.74-27.77Z"/><path class="cls-9" d="M522.46,324.26,745.93,217.67s43.61,92.14-50.61,142.56C593.61,414.66,522.46,324.26,522.46,324.26Z"/><path class="cls-10" d="M541.33,315.27s61.38,62,126,37.41c99.65-37.89,65.86-128.91,65.86-128.91Z"/><path class="cls-9" d="M695.4,241.46,587.85,293c-2.34,2-4.73,4.17-5.93,7s-.87,6.6,1.59,8.47c6.16,4.69,15.57-6.6,21.92-2.18,1.73,1.21,2.59,3.27,3.78,5A14.72,14.72,0,0,0,627.35,316c3.52-1.77,6.12-4.89,9.08-7.49s6.78-4.81,10.65-4.1a21.26,21.26,0,0,1,5.69,2.47,33.11,33.11,0,0,0,19.34,3.42c5-.64,10.43-2.93,12.45-7.61,2.44-5.67-1-12.05-1.27-18.22a5,5,0,0,1,.56-2.94,5.08,5.08,0,0,1,2.79-1.83c4.85-1.61,11.31-1.81,13.17-6.56,1.78-4.53-2.33-9-5.76-12.45A5.5,5.5,0,0,1,692.3,258c-.37-2.09,1.61-3.82,3.54-4.7s4.17-1.5,5.33-3.27C703.42,246.58,699.47,242,695.4,241.46Z"/><path class="cls-11" d="M573.85,312.75a28.25,28.25,0,0,0-9.56,6.84c-1,1.15-1.93,3.15-.67,4.07a2.6,2.6,0,0,0,1.7.34c3.81-.26,7.06-2.74,10.06-5.11a7,7,0,0,0,2.21-2.41,2.38,2.38,0,0,0-.65-3c-1.09-.68-2.88-.17-3.49-1.3Z"/><path class="cls-11" d="M583.81,334a29.47,29.47,0,0,1,3.14-5.3l-.45.6c.56-.75,1.16-1.48,1.8-2.18a3.13,3.13,0,0,0,.82-2.1,3,3,0,0,0-5.07-2,32.5,32.5,0,0,0-5.38,8.09,3.09,3.09,0,0,0-.25,2.27,2.93,2.93,0,0,0,3.66,2,2.88,2.88,0,0,0,1.73-1.38Z"/><path class="cls-11" d="M599.53,338.43a22.31,22.31,0,0,1,1.29-4.6c-.1.24-.19.47-.28.71a22,22,0,0,1,1.93-3.73,2.94,2.94,0,0,0-1.14-4,3,3,0,0,0-4,1.13,24.2,24.2,0,0,0-3.5,9,3.13,3.13,0,0,0,.34,2.26,2.93,2.93,0,0,0,4,1,2.91,2.91,0,0,0,1.32-1.79Z"/><path class="cls-11" d="M619.24,345.1q.75-4.16,1.48-8.31a3.13,3.13,0,0,0-.34-2.26,3,3,0,0,0-1.78-1.32,3,3,0,0,0-3.58,2.13c-.49,2.77-1,5.54-1.48,8.31a3.13,3.13,0,0,0,.34,2.26,2.95,2.95,0,0,0,5.36-.81Z"/><path class="cls-11" d="M638.31,346.41c.05-3.17.09-6.34.14-9.51a3,3,0,0,0-3-2.88,3,3,0,0,0-2.88,3c-.05,3.17-.09,6.34-.14,9.5a3,3,0,0,0,3,2.89,3,3,0,0,0,2.88-3Z"/><path class="cls-11" d="M662.13,341.38a49.45,49.45,0,0,0-1.12-9,3,3,0,0,0-1.39-1.74,2.94,2.94,0,0,0-4.25,3.41c.19.89.35,1.78.49,2.67l-.12-.78a45.05,45.05,0,0,1,.51,5.56,2.94,2.94,0,0,0,5.88-.12Z"/><path class="cls-11" d="M686.19,330.65q-2.85-4.75-5.35-9.72a3,3,0,0,0-4-1,3,3,0,0,0-1,4q2.5,5,5.35,9.72a2.94,2.94,0,1,0,5-3.07Z"/><path class="cls-11" d="M708.09,316a25,25,0,0,1-4-3.92l.48.59a24.65,24.65,0,0,1-3.24-5.27l.31.69-.06-.14a3.3,3.3,0,0,0-1.39-1.73A3,3,0,0,0,698,306a2.93,2.93,0,0,0-1.73,1.39,2.79,2.79,0,0,0-.25,2.27,27.22,27.22,0,0,0,8,10.61,3.12,3.12,0,0,0,2.09.82,3,3,0,0,0,2.06-.9c1-1.1,1.21-3.15-.08-4.16Z"/><path class="cls-11" d="M708.72,304.7a24.51,24.51,0,0,1,6.18,1.57l-.71-.29c.42.17.84.35,1.25.54a3.17,3.17,0,0,0,2.28.26,3.1,3.1,0,0,0,1.73-1.39,3,3,0,0,0,.25-2.27,2.9,2.9,0,0,0-1.39-1.73,27.35,27.35,0,0,0-8.14-2.4,2.36,2.36,0,0,0-1.18,0,2.22,2.22,0,0,0-1.08.37,3,3,0,0,0-1.32,1.79,3,3,0,0,0,.34,2.26,2.84,2.84,0,0,0,1.79,1.32Z"/><path class="cls-11" d="M716.61,288.62a31.27,31.27,0,0,1,5.3.13l-.78-.09a30.79,30.79,0,0,1,4.65.9,3,3,0,0,0,3.58-2.12,3,3,0,0,0-2.13-3.58,33.24,33.24,0,0,0-10.74-1.12,2.94,2.94,0,1,0,.12,5.88Z"/><path class="cls-11" d="M721.26,272.8l9.92-.19a2.95,2.95,0,1,0-.11-5.89l-9.93.2a2.94,2.94,0,0,0,.12,5.88Z"/><path class="cls-11" d="M720.45,255l11.15-2.19a3,3,0,0,0,2-3.66,3,3,0,0,0-3.66-2l-11.15,2.19a3,3,0,0,0-2,3.66,3,3,0,0,0,3.66,2Z"/><path class="cls-11" d="M719.35,241.32l9.46-3.07a2.94,2.94,0,0,0-1.67-5.64l-9.47,3.06a2.95,2.95,0,0,0,1.68,5.65Z"/><path class="cls-12" d="M573.28,306.66c-3.39,1.44-6.91,3-9.26,5.81s-3.09,7.38-.62,10.11c2.09,2.32,5.75,2.58,8.7,1.53s5.39-3.11,7.89-5c20.53-15.35,48-18.33,69.72-31.86,3.07-1.91,6.33-5.9,3.95-8.62-1-1.2-2.78-1.47-4.37-1.54-12.56-.53-25.79,8.17-37,13Z"/><path class="cls-13" d="M284.56,286.44c-12.55,7.1-22.69,17.72-32.63,28.17a8.75,8.75,0,0,0-2.12,3,6.9,6.9,0,0,0,.33,4.58c1.84,5.06,6,8.85,10.28,12.16a7.5,7.5,0,0,0,2.91,1.62c2.56.53,4.87-1.62,6.38-3.75,8.55-12,8.85-29.57,20.33-38.87,2-1.63,15.09-5.25,11.92-8.39C299.69,282.71,286.67,285.25,284.56,286.44Z"/><path class="cls-13" d="M390.89,364c3.35,6.23.85,13.9-2.16,20.3A143.38,143.38,0,0,1,379.5,401a15.71,15.71,0,0,1-3.2,3.91c-2.62,2.07-6.31,2.36-9.55,1.55s-6.14-2.59-9-4.33a9.18,9.18,0,0,1-3.36-2.93,6.14,6.14,0,0,1,.43-6.1,16.88,16.88,0,0,1,4.57-4.46c8.53-6.35,17.75-11.91,27.77-15.47a5.15,5.15,0,0,1,3.48-.34c1.11.43,1.78,2,.9,2.85Z"/><path class="cls-14" d="M287.31,458.11c-2.12,1.48-4.53,3.21-4.75,5.79a7.32,7.32,0,0,0,1.65,4.63,26.88,26.88,0,0,0,8,7.64,6.64,6.64,0,0,0,3.93,1.28c1.94-.16,3.41-1.74,4.62-3.25A91.11,91.11,0,0,0,314.43,451c1.58-3.91-1.18-16.52-7.4-12.09-3.27,2.33-5.78,7.09-8.69,10A84,84,0,0,1,287.31,458.11Z"/><path class="cls-14" d="M239.29,401.21A8.93,8.93,0,0,1,237.8,404a10.67,10.67,0,0,1-2.91,2,31.78,31.78,0,0,0-11.82,11.74,6.11,6.11,0,0,1-2,2.51,4.14,4.14,0,0,1-2.6.35c-5.46-.77-8.69-7.17-7.81-12.61s4.72-9.91,8.77-13.65a84,84,0,0,1,11-8.61c2.52-1.65,10.22-3.81,13.46-2.43C250.77,386.22,240.9,397.22,239.29,401.21Z"/><path class="cls-14" d="M230.91,319.79a32.33,32.33,0,0,1,22.56,29.62l17.56-3c4.37-8,8.87-16.8,7.47-25.83-.68-4.4-2-10.37,2.09-12.12,1.22-.52.16,2.56,1.47,2.74,8.66,1.17,16.67,5.22,24.13,9.78a171.28,171.28,0,0,1,55.11,54.27c1.65,2.61,3.29,5.77,2.18,8.66-1.71,4.44-6.25,1.16-9.5-2.32L337.5,398.85l4.13,12.24c14.3-1.38,28.62,8.05,34.16,21.31s2.67,29.31-6.14,40.66c-2,2.53-4.22,6.19-2,8.53a5.23,5.23,0,0,0,2.81,1.35c9.24,2,17.93-5.61,22.47-13.9a50.93,50.93,0,0,0-14.32-65.39c-4.7-3.49-10-6.14-15.12-8.93-1.61-.87-3.41-2-3.58-3.85-.23-2.47,2.57-4,4.9-4.84,6.82-2.47,14.35-5.7,17-12.46,3.24-8.22-2.41-17.09-8.07-23.88-17.91-21.5-39.17-40.41-63.59-54.08-4.14-2.32-8.45-4.51-13.13-5.33s-9.83-.08-13.48,3c-7.28,6-5.8,17.82-11,25.72a8.92,8.92,0,0,1-3.79,3.47c-3,1.26-6.52-.15-8.89-2.35s-4-5.12-5.95-7.69a29.85,29.85,0,0,0-47.73.66c-1.17,1.59-5.87,9-2,10.55,1.3.51,4.1-1.72,5.3-2.24a33.61,33.61,0,0,1,6.26-2A30.93,30.93,0,0,1,230.91,319.79Z"/><path class="cls-13" d="M171.43,344.43c-2.43,4-4.81,8.14-5.35,12.76-.69,5.94,1.81,11.91,5.57,16.56,10.06,12.45,27.28,15.91,43.06,18.57.28,3.5-2.83,6.22-5.59,8.39-8.12,6.35-16.48,14.64-16.27,25,.17,8.36,6,15.41,11.62,21.59,17.76,19.46,37.32,38.07,61.25,49.1,5.63,2.59,11.57,4.77,17.76,5s12.7-1.59,17-6.07c8.47-8.88,5.38-23.72,11-34.65,11.36,14.72,24.17,29.3,41.3,36.5,6.64,2.8,14,4.39,21.08,2.83,8.39-1.87,15.34-8.1,19.66-15.52s6.27-16,7.45-24.51a142.21,142.21,0,0,1-25.67,15.23c-2.74,1.26-5.61,2.45-8.62,2.48-3.28,0-6.41-1.32-9.34-2.79a97.64,97.64,0,0,1-29.45-22.77c-2.39-2.73-5.14-5.84-8.76-5.79a8.8,8.8,0,0,0-4.5,1.56c-5.33,3.4-8.22,9.44-11.37,14.91s-7.46,11.06-13.66,12.27c-7.65,1.49-14.6-4.16-20.81-8.88-13.13-10-28.26-17.25-40.52-28.28-6.67-6-12.56-13.39-14.55-22.15s.75-19,8.27-23.9c2.95-1.92,6.42-2.94,9.3-5s5.16-5.67,4-9-5.09-4.68-8.57-5.29c-12-2.09-26.28-1.19-33.75-10.77-4.24-5.43-4.84-12.77-5.18-19.65a74.46,74.46,0,0,1,.35-14.24c.55-3.79,3.53-8.31,3.3-11.93C183.45,323.78,177.2,335,171.43,344.43Z"/><path class="cls-15" d="M398.4,422.54c-9.9-22-29.75-26.82-29.75-26.82L365.18,388s18.71,2.36,26.29-10.19c7-11.69-11.94-45.14-74.77-86.36-38-24.9-45.33,21.36-45.33,21.36l-9.39,5.1s-10.7-21-28.27-24-53.56,18-54.26,54,50.11,28.79,50.11,28.79l-1.38,10.19s-27.88,8.55-23.37,29.65,63.61,65.94,85.56,70,25.35-33.13,25.35-33.13l12.2,6.37s25.09,35.32,53,27.77S408.29,444.51,398.4,422.54Zm-27.47,50.62C347.76,479.43,328.44,441,328.44,441l-17.62-3.48S308,468.35,289.8,465s-67.22-40.53-71-58,27.61-21.13,27.61-21.13l-6.25-18.1s-43,12.17-42.39-17.68,26.28-47.47,40.85-45,25.66,30.17,25.66,30.17L280,325.7s.18-43.12,31.66-22.47c52.11,34.18,70.14,63.73,62,71.62-8.51,8.25-15.66,8.44-18.73,7.88h0l-2.15,14.7s25.16,3.79,33.37,22S394.11,466.89,370.93,473.16Z"/><path class="cls-13" d="M518.42,479.45c9.71,10.67,22.3,18.21,34.7,25.58a8.63,8.63,0,0,0,3.39,1.41,6.85,6.85,0,0,0,4.39-1.34c4.52-2.91,7.29-7.85,9.58-12.72a7.3,7.3,0,0,0,.93-3.19c0-2.62-2.65-4.39-5.06-5.39-13.65-5.67-30.8-2.08-42.42-11.21-2-1.6-8.46-13.56-10.81-9.77C511.43,465.53,516.8,477.67,518.42,479.45Z"/><path class="cls-13" d="M570.54,358.57c5.33-4.63,13.36-3.9,20.27-2.38a143.17,143.17,0,0,1,18.25,5.31,15.58,15.58,0,0,1,4.52,2.26c2.6,2.1,3.7,5.63,3.63,9a33.17,33.17,0,0,1-2.23,9.72,9.2,9.2,0,0,1-2.11,3.93,6.12,6.12,0,0,1-6,.93,16.83,16.83,0,0,1-5.36-3.46c-8.08-6.92-15.54-14.67-21.23-23.66a5.12,5.12,0,0,1-1.11-3.32c.17-1.18,1.6-2.18,2.58-1.51Z"/><path class="cls-14" d="M685.21,438.74c1.92,1.74,4.14,3.71,6.71,3.35a7.35,7.35,0,0,0,4.14-2.63,27,27,0,0,0,5.67-9.53,6.63,6.63,0,0,0,.38-4.13c-.59-1.84-2.46-2.93-4.2-3.78a91.37,91.37,0,0,0-25.65-8.14c-4.17-.67-15.85,4.8-10.16,9.89,3,2.67,8.2,4.07,11.67,6.26A84.19,84.19,0,0,1,685.21,438.74Z"/><path class="cls-14" d="M640.37,498.17a9.13,9.13,0,0,1,3,.85,10.76,10.76,0,0,1,2.61,2.39,31.89,31.89,0,0,0,14.07,8.93,6,6,0,0,1,2.9,1.44,4.16,4.16,0,0,1,.92,2.46c.47,5.49-5.07,10.06-10.57,10.4s-10.71-2.41-15.25-5.52a84.33,84.33,0,0,1-10.84-8.84c-2.16-2.08-6-9.11-5.35-12.58C623.2,490.3,636.12,497.49,640.37,498.17Z"/><path class="cls-14" d="M562.82,524.38c.85-13.25,11-25.39,23.89-28.56q-3.39-8.24-6.8-16.46c-8.79-2.48-18.35-4.93-26.84-1.56-4.15,1.64-9.67,4.26-12.29.65-.77-1.07,2.47-.73,2.35-2-.78-8.71,1.4-17.41,4.19-25.7A171.23,171.23,0,0,1,588,385c2.19-2.19,4.9-4.49,8-4.05,4.72.69,2.52,5.84-.15,9.78l20.47,12.25,11-6.74c-4.51-13.64,1.51-29.69,13.21-38s28-9.09,41-3c2.9,1.35,7,2.74,8.76.1a5.32,5.32,0,0,0,.7-3c-.14-9.45-9.45-16.24-18.54-18.84a51,51,0,0,0-60.59,28.45c-2.36,5.37-3.78,11.09-5.36,16.73-.49,1.76-1.23,3.77-3,4.34-2.36.77-4.46-1.62-5.8-3.7-3.93-6.11-8.74-12.74-15.92-13.83-8.74-1.33-16.13,6.14-21.5,13.16-17,22.23-30.73,47.15-38.65,74-1.34,4.55-2.53,9.24-2.29,14s2.1,9.61,5.86,12.5c7.51,5.76,18.67,1.7,27.53,5a9,9,0,0,1,4.22,2.92c1.88,2.64,1.3,6.39-.33,9.2s-4.11,5-6.17,7.49A29.84,29.84,0,0,0,561.73,550c1.81.79,10.09,3.73,10.74-.36.21-1.37-2.59-3.61-3.36-4.67a33.49,33.49,0,0,1-3.35-5.65A31,31,0,0,1,562.82,524.38Z"/><path class="cls-13" d="M600,576.93c4.41,1.49,9,2.88,13.63,2.39,6-.64,11.21-4.41,14.92-9.1,9.9-12.57,9.47-30.13,8.57-46.1,3.35-1,6.69,1.38,9.41,3.59,8,6.51,17.93,12.83,27.94,10.34,8.12-2,13.7-9.25,18.48-16.12,15-21.63,28.86-44.83,34.31-70.61,1.28-6.06,2.09-12.34,1-18.43s-4.36-12-9.68-15.21c-10.54-6.29-24.32,0-36.22-3,11.84-14.33,23.22-30.06,26.45-48.36,1.25-7.09,1.16-14.67-1.92-21.18-3.67-7.76-11.29-13.16-19.49-15.73s-17-2.57-25.54-1.84a143.14,143.14,0,0,1,20.53,21.66c1.84,2.39,3.63,4.93,4.33,7.86.75,3.19.13,6.54-.66,9.72a97.43,97.43,0,0,1-15.68,33.77c-2.12,2.93-4.54,6.3-3.7,9.82a8.77,8.77,0,0,0,2.52,4c4.49,4.45,11,5.93,17.06,7.79s12.44,4.82,15,10.6c3.15,7.13-.83,15.16-4,22.26-6.82,15-10.56,31.38-18.6,45.78-4.38,7.83-10.28,15.21-18.37,19.1s-18.69,3.47-25.14-2.77c-2.53-2.45-4.29-5.62-6.91-8s-6.67-3.77-9.64-1.89-3.45,6-3.27,9.52c.61,12.13,4.66,25.9-3,35.31-4.36,5.33-11.39,7.55-18,9.4a74.77,74.77,0,0,1-14,2.81c-3.82.31-8.89-1.6-12.36-.57C577.23,569.78,589.55,573.39,600,576.93Z"/><path class="cls-15" d="M625.92,338.3c-19.23,14.51-19.57,34.95-19.57,34.95l-6.77,5.1s-1.85-18.78-15.76-23.38c-13-4.29-41.38,21.64-67.65,92C500.29,489.55,547,486.48,547,486.48l7.07,8S536,509.59,537,527.39s29.43,48.24,64.68,41,17-55.24,17-55.24l10.25-.92S643.38,537.47,663,528.4s50.22-76.63,49.28-98.93-37.92-17.39-37.92-17.39l3.51-13.3s28.88-32.3,15.32-57.87S645.15,323.78,625.92,338.3Zm55.45,15.56c11.24,21.22-21.93,48.56-21.93,48.56l.5,17.95s30.67-4.08,31.45,14.42-24.63,74.52-40.86,82.05S623.8,494.6,623.8,494.6l-16.26,10.1s21.39,39.21-7.85,45.26-52.12-15.12-52.92-29.88,23.73-31.7,23.73-31.7l-12.78-13.14s-42.09,9.38-28.92-25.9C550.58,391,575.41,366.82,584.9,373c9.92,6.46,11.7,13.39,11.83,16.51h0l14.81-1.17S609.66,363,625.6,350.94,670.12,332.65,681.37,353.86Z"/><polygon class="cls-16" points="518.54 537.09 585.57 546.46 620.38 494.96 595.02 458.16 518.54 537.09 518.54 537.09"/><polygon class="cls-17" points="518.54 402.67 463.53 475.9 518.54 537.09 595.02 458.16 518.54 402.67"/><path class="cls-12" d="M494.55,454c5.18-9,11-18.52,20.61-22.42,8.17-3.33,17.72-1.76,25.54,2.32s14.21,10.43,20.16,16.95c2.2,2.4,4.43,5,5.08,8.19,1,4.85-2.08,9.75-6.09,12.64-5.08,3.66-12.85,4.58-17.24.12-1.66-1.69-2.66-3.95-4.33-5.63-4.42-4.47-12.17-3.48-17.36.08s-8.67,9-12.86,13.7-9.85,8.88-16.12,8.43a9.26,9.26,0,0,1-5.27-1.94C476.86,478.38,490.45,461.11,494.55,454Z"/><polygon class="cls-16" points="384.18 368.35 442.78 376.53 473.21 331.51 451.04 299.34 384.18 368.35 384.18 368.35"/><polygon class="cls-17" points="384.18 250.83 336.09 314.85 384.18 368.35 451.04 299.34 384.18 250.83"/><path class="cls-12" d="M363.21,295.72c4.52-7.83,9.63-16.19,18-19.6,7.15-2.91,15.49-1.54,22.33,2S416,287.27,421.18,293c1.92,2.1,3.87,4.37,4.44,7.16.85,4.24-1.82,8.52-5.33,11.05-4.44,3.2-11.23,4-15.07.1-1.45-1.47-2.33-3.45-3.79-4.92-3.86-3.9-10.64-3-15.17.07s-7.58,7.88-11.24,12-8.61,7.76-14.09,7.37a8.25,8.25,0,0,1-4.62-1.69C347.74,317,359.63,301.92,363.21,295.72Z"/><polygon class="cls-16" points="643.18 155.64 650.94 214.3 702.46 231.6 727.54 201.64 643.18 155.64 643.18 155.64"/><polygon class="cls-17" points="756.42 124.25 681.89 95.01 643.18 155.64 727.54 201.64 756.42 124.25"/><path class="cls-12" d="M707.57,116c8.75,2.27,18.17,5,23.7,12.13,4.71,6.11,5.62,14.51,4,22.06s-5.47,14.41-9.58,20.94c-1.51,2.41-3.18,4.9-5.72,6.19-3.85,2-8.69.52-12.06-2.18-4.27-3.42-6.86-9.75-4.13-14.49,1-1.8,2.7-3.17,3.73-5,2.73-4.76.09-11.06-4.12-14.6s-9.62-5.2-14.54-7.63-9.79-6.23-10.87-11.61a8.12,8.12,0,0,1,.4-4.9C682.91,106.82,700.63,114.24,707.57,116Z"/><polygon class="cls-16" points="86.11 227.49 116.59 287.92 178.74 287.2 194.55 245.4 86.11 227.49 86.11 227.49"/><polygon class="cls-17" points="196.6 150.94 105.09 147.42 86.11 227.49 194.55 245.4 196.6 150.94"/><path class="cls-12" d="M140.74,160.46c10.31-.84,21.5-1.49,30.16,4.17,7.4,4.82,11.54,13.56,12.64,22.32s-.48,17.62-2.45,26.22c-.72,3.18-1.59,6.5-3.84,8.84-3.43,3.57-9.2,3.84-13.86,2.19-5.9-2.09-11.08-7.94-9.91-14.1.44-2.33,1.72-4.43,2.16-6.76,1.15-6.18-4.08-12-9.95-14.22s-12.35-2-18.59-2.77-12.91-3-16.11-8.45a9.3,9.3,0,0,1-1.41-5.44C110.63,159.79,132.57,161.14,140.74,160.46Z"/><path class="cls-6" d="M146.53,438.25c9.13-5.87,22.6-3.52,29.21,5.09,7.93-10.76,24.55-12.83,36.11-6.12s18,20.41,18.13,33.77c18.78-6.06,38.59,7.65,49.57,24,1.82,2.72,3.59,5.61,6.31,7.43,3.3,2.2,7.47,2.47,11.41,3,33.24,4.23,62.17,31.76,68.05,64.75,1.8,10.1,1.41,21.21-4.41,29.65-4.67,6.77-12.17,10.93-19.39,14.85-8.28,4.49-16.88,9.08-26.27,9.72-26.94,1.82-44.67-27.51-69.23-38.74-20-9.13-43.23-5.59-63.25-14.34-15.6-6.81-31.18-20.67-45-30.9-11.68-8.66-19.13-17.78-23.55-31.85-5.51-17.5-3.08-50.65,24.33-42.06C134.58,456.62,137.19,444.24,146.53,438.25Z"/><path class="cls-18" d="M789.54,421.23H772.86c-2.74,61.61-131.92,95.45-368.07,95.45C176.24,516.68,41,472.2,36.72,421.23H20s-5.92,79,38.22,174.27c66.2,142.94,157.7,168.7,157.7,168.7l187,3.61,187-3.61s91.51-25.76,157.71-168.7C791.7,500.19,789.54,421.23,789.54,421.23Z"/><ellipse class="cls-19" cx="409.3" cy="810.03" rx="236.31" ry="44.47"/><path class="cls-18" d="M593.63,795.22v-33L404.78,738.44,215.93,764.2v31s-1.59,14.95,55.69,34.69c78.32,27,205.6,18.11,266.32,0C596,812.59,593.63,795.22,593.63,795.22Z"/><path class="cls-20" d="M537.8,829.91c58.06-17.32,55.69-34.69,55.69-34.69v-33L506.91,751.3c-.14.08-.28.16-.41.25-9.93,6-19.47,11.39-20.22,23.74-.79,13,6.28,28.72.65,41.12-3.46,7.63-12.58,10.65-20.76,12.47-62.53,13.93-128,5.37-190.23-9.68-19.44-4.7-39.18-10.23-55.54-21.73a22.64,22.64,0,0,0-4.6-2.52v.27s-1.6,14.95,55.68,34.69C349.81,856.9,477.08,848,537.8,829.91Z"/><path class="cls-21" d="M112.46,542.33c-4,10.59-.61,22.42,3.37,33,10.88,29,26.12,56.28,43.37,82,12.4,18.53,27.92,37.7,49.83,41.84,7.69,1.45,16,.8,22.82-3s12-11,12.18-18.84-4.44-15.12-8.63-21.9c-10.24-16.57-18.88-34.36-23.18-53.36-2.87-12.62-3.92-26-10.4-37.22C190.71,545.71,124.94,509.12,112.46,542.33Z"/><path class="cls-21" d="M245,776.77a10.39,10.39,0,0,0-5.23,1.2c-3.2,2-3.59,6.8-1.76,10.11s5.23,5.39,8.58,7.13c13.89,7.23,29.33,10.91,44.74,13.71,5.91,1.07,12.22,2,17.76-.35s9.6-9.17,6.83-14.5c-2.63-5.06-9.34-6-15-6.5C282.35,785.85,263.13,776.21,245,776.77Z"/><path class="cls-20" d="M788.65,421.23H772.11c-1.53,34.53-42.77,60.33-120.3,76.35a297.6,297.6,0,0,1-31.31,96.94c-53.87,103-104.92,131.66-167.36,152.9C375.67,773.77,285,767.16,285,767.16s91,20.78,163.88,20.78C521.37,787.94,589,764.2,589,764.2s91.51-25.76,157.71-168.7C790.82,500.19,788.65,421.23,788.65,421.23Z"/><path class="cls-22" d="M789.23,415.35h-16.5a45.65,45.65,0,0,1,.16,5.24c-1.87,62-131.14,96.09-368.1,96.09-229.5,0-364.9-44.85-368.13-96.09.17-1.78.39-3.52.67-5.24H20.57c-.29,1.93-.53,3.88-.7,5.88,3.38,57.43,144.9,107.69,384.78,107.69,247.69,0,382.8-38.18,384.75-107.69A50,50,0,0,0,789.23,415.35Z"/><path class="cls-23" d="M365.65,169.5c4.05,12,11.54,22.5,18.92,32.8a7.73,7.73,0,0,0,2.22,2.33,6.12,6.12,0,0,0,4,.47c4.67-.75,8.63-3.75,12.19-6.87a6.29,6.29,0,0,0,1.87-2.24c.89-2.12-.58-4.47-2.17-6.12-9-9.37-24.06-12.52-30.19-24-1.07-2-2-13.89-5.26-11.67C364.92,155.83,365,167.49,365.65,169.5Z"/><path class="cls-23" d="M450.16,90.57c5.92-1.85,12.13,1.57,17.15,5.22a127.27,127.27,0,0,1,12.82,10.7,13.88,13.88,0,0,1,2.84,3.42c1.35,2.6,1,5.83-.24,8.49a29.05,29.05,0,0,1-5.22,7,8.12,8.12,0,0,1-3.08,2.42,5.4,5.4,0,0,1-5.19-1.38,14.82,14.82,0,0,1-3.1-4.68,94.19,94.19,0,0,1-8.75-26.51,4.5,4.5,0,0,1,.27-3.06c.55-.89,2.06-1.2,2.61-.31Z"/><path class="cls-24" d="M514.21,195.47c.93,2.07,2,4.44,4.21,5.06a6.42,6.42,0,0,0,4.27-.67,23.71,23.71,0,0,0,7.92-5.67,5.84,5.84,0,0,0,1.75-3.18c.18-1.7-.94-3.22-2-4.52a80.14,80.14,0,0,0-17.78-15.59c-3.12-2-14.45-1.72-11.65,4.38,1.46,3.21,5.16,6.17,7.17,9.15A74,74,0,0,1,514.21,195.47Z"/><path class="cls-24" d="M457.2,227.5a8.12,8.12,0,0,1,2.12,1.74,9.36,9.36,0,0,1,1.26,2.85,28,28,0,0,0,8.18,12.14,5.49,5.49,0,0,1,1.83,2.18,3.64,3.64,0,0,1-.14,2.3c-1.55,4.59-7.62,6.32-12.16,4.65s-7.77-5.71-10.33-9.81a73.66,73.66,0,0,1-5.61-10.93c-1-2.44-1.6-9.44.12-12C446.15,215.12,454,225.46,457.2,227.5Z"/><path class="cls-24" d="M385.56,221.29a28.41,28.41,0,0,1,29.28-14.57q.17-7.83.32-15.65c-6.2-5.09-13-10.42-21.05-10.71-3.91-.13-9.28,0-10.11-3.8-.25-1.13,2.24.28,2.61-.82,2.44-7.28,7.25-13.51,12.42-19.19A150.27,150.27,0,0,1,455,118c2.53-1,5.52-1.89,7.83-.45,3.55,2.21,0,5.58-3.57,7.81l12.16,17.06,11.24-1.53c1.18-12.57,11.67-23.37,24-26s25.73,2.55,34.07,12c1.85,2.11,4.63,4.66,7,3.17a4.63,4.63,0,0,0,1.64-2.2c3.22-7.66-1.89-16.4-8.29-21.69a44.75,44.75,0,0,0-58.78,1.56c-3.79,3.48-6.94,7.59-10.2,11.58-1,1.24-2.32,2.6-3.91,2.44-2.17-.2-3-2.87-3.37-5-1-6.29-2.55-13.32-7.93-16.73-6.57-4.15-15.15-.74-21.94,3-21.51,11.9-41.33,27.12-57.16,45.93-2.68,3.19-5.29,6.55-6.76,10.45s-1.7,8.46.31,12.12c4,7.28,14.42,7.94,20.38,13.73a7.82,7.82,0,0,1,2.36,3.84c.6,2.79-1.2,5.6-3.49,7.29s-5.07,2.57-7.61,3.86a26.23,26.23,0,0,0-7.32,41.29c1.18,1.27,6.81,6.55,8.77,3.49.66-1-.81-3.82-1.06-4.94a29.83,29.83,0,0,1-.71-5.73A27.28,27.28,0,0,1,385.56,221.29Z"/><path class="cls-23" d="M397,276.68c3,2.75,6.23,5.49,10.12,6.72,5,1.58,10.58.4,15.21-2.07,12.4-6.62,18.24-20.91,23.13-34.08,3.07.33,4.9,3.46,6.32,6.21,4.14,8,9.91,16.63,18.84,18.15,7.24,1.24,14.28-2.62,20.54-6.46,19.72-12.12,39-25.92,52.48-44.74,3.16-4.42,6-9.2,7.28-14.49s.72-11.22-2.44-15.64c-6.26-8.78-19.57-8.56-28.08-15.19,14.57-7.37,29.27-16,38.31-29.61,3.51-5.26,6.11-11.39,5.92-17.71-.22-7.55-4.45-14.57-10.15-19.52s-12.76-8.06-19.9-10.48a126.3,126.3,0,0,1,8.9,24.66,19.06,19.06,0,0,1,.71,7.85c-.52,2.83-2.2,5.31-4,7.59a85.64,85.64,0,0,1-24.51,21.65c-2.74,1.61-5.88,3.48-6.44,6.61a7.61,7.61,0,0,0,.61,4.14c2.05,5.15,6.78,8.64,11,12.27s8.31,8.25,8.33,13.8c0,6.85-6,11.92-11.09,16.49-10.78,9.68-19.55,21.54-31.09,30.29-6.29,4.77-13.63,8.63-21.51,8.9s-16.27-3.78-19.26-11.08c-1.17-2.86-1.48-6-2.75-8.85s-4-5.38-7.1-4.92-4.88,3.62-6,6.51c-3.78,10-5.37,22.49-14.86,27.35-5.39,2.76-11.82,2.07-17.82,1.22a65.43,65.43,0,0,1-12.22-2.65c-3.18-1.1-6.59-4.42-9.75-4.82C381.17,262.9,389.81,270.14,397,276.68Z"/><path class="cls-9" d="M501.87,93.76A42.45,42.45,0,0,0,473.81,115l-7.25,1.71s5.13-15.76-4.45-24.36c-8.92-8-40.91,2.84-86.85,50.25-27.75,28.64,10.94,42.63,10.94,42.63l2.86,9s-19.88,5.76-25.37,20.43,6.7,49.18,37.64,55.72,33.11-38.47,33.11-38.47l8.57,2.87s2.76,25.46,21.71,25,67.4-44,74.5-62.26-24.4-27.34-24.4-27.34l7.51-9.47S557,144.89,555,119.53,522.45,88.85,501.87,93.76ZM541,125.81c1.59,21-34.74,31.36-34.74,31.36l-5.92,14.62s26.12,7.51,20.23,22.67-46.06,51.3-61.77,51.64-13.68-27.31-13.68-27.31l-16.64,2.41s3.4,39.08-22.26,33.65-36.62-30.51-32.06-42.67S404.42,195,404.42,195l-5.66-15.08s-37.18-7.27-14.16-31c38.1-39.32,66.57-50,72-41.68,5.71,8.7,4.7,14.9,3.7,17.46h0L472.67,129s7.42-21.09,24.49-25.16S539.42,104.78,541,125.81Z"/><path class="cls-7" d="M303.63,231.19c9.42,7.75,16.14,19.28,16.3,31.47,0,2.64.44,6.17,3.05,6.54a4.79,4.79,0,0,0,3.44-1.35c10.45-8.1,14.2-23.75,8.55-35.72-4.28-9-12.81-15.28-21.36-20.48a210.14,210.14,0,0,0-19.2-10.37c-8.36-4-17.71-7.67-27.15-6.74-7,.69-19.67,6-17.3,15.1s16.14,6.5,23,7.9C284,219.78,294.88,224,303.63,231.19Z"/><path class="cls-8" d="M340.52,240.37c-4.75-13.71-15.41-24.74-27.59-32.63s-25.93-13-39.54-18c-14.27-5.26-32,4.88-39.68,17A41.6,41.6,0,0,0,231.05,245c5.28,12,15.79,20.84,26.49,28.42,11.27,8,23.49,15.25,37.06,17.81s28.81-.3,38.45-10.19C343.17,270.64,345.27,254.08,340.52,240.37ZM309,263.14c-8.09.18-15.77-3.44-22.69-7.63A126.92,126.92,0,0,1,267.92,242c-4.76-4.21-9.3-8.91-11.92-14.71s-3.08-12.88.17-18.34c12.76-21.48,43.43-.08,55.69,10,6.81,5.6,12.59,12.82,15,21.32a20,20,0,0,1,.55,9.87C325.56,258,317.1,263,309,263.14Z"/><path class="cls-7" d="M551.77,287.37c11.29-4.6,24.63-5,35.43.63,2.34,1.23,5.64,2.54,7.21.42a4.83,4.83,0,0,0,.45-3.67c-2.16-13.05-14.15-23.78-27.36-24.5-10-.55-19.53,4-28.18,9.05a211.17,211.17,0,0,0-18.25,11.95c-7.46,5.47-15.17,11.94-18.84,20.68-2.73,6.49-4.05,20.17,5,22.4s13.41-11.11,17.91-16.51C532.4,299.2,541.29,291.64,551.77,287.37Z"/><path class="cls-8" d="M577.39,259.28c-14.32-2.34-29.1,1.79-41.83,8.76s-23.73,16.63-34.62,26.22c-11.42,10.05-10.95,30.5-3.91,43a41.59,41.59,0,0,0,32.37,20.53c13.07,1.07,25.84-4,37.6-9.79,12.39-6.11,24.58-13.4,33.29-24.13s13.44-25.48,9.32-38.67C605.27,271.34,591.71,261.63,577.39,259.28Zm5,38.55c-3.68,7.2-10.52,12.24-17.5,16.33a127,127,0,0,1-20.67,9.74c-6,2.18-12.26,3.94-18.61,3.5s-12.79-3.42-16.06-8.88c-12.82-21.44,20.59-38.24,35.28-44.24,8.17-3.33,17.27-5,25.87-3a20.08,20.08,0,0,1,9,4.21C585.75,280.81,586.12,290.62,582.43,297.83Z"/><path class="cls-7" d="M389.16,112c12.8-2.43,25.86-1.48,33.93,3.87,1.75,1.16,4.39,2.47,6.78,1a4.67,4.67,0,0,0,1.95-2.75c3.32-10.14-3.81-19.46-16.26-21.28-9.42-1.37-20.5,1.18-30.94,4.2q-11.37,3.28-22.55,7.35c-9.47,3.45-19.58,7.63-26.74,13.94-5.32,4.68-12.26,15-4.4,17.53s17.53-7.17,24.12-10.85C365.57,119.1,377.27,114.2,389.16,112Z"/><path class="cls-8" d="M425.51,93c-12.85-3.16-28.82-1.43-44,2.66s-29.79,10.39-44.27,16.65c-15.17,6.55-23.18,22.17-21.56,32.35,1.5,9.45,10.4,16.63,22.74,18.73,12.17,2.06,26.59-.56,40.34-3.85,14.48-3.47,29.27-7.86,42.11-15.19s23.51-18.11,25-28.54C447.42,104.87,438.35,96.17,425.51,93Zm-11.09,29.82c-6.54,5.13-15.22,8.32-23.65,10.76a204.83,204.83,0,0,1-24,5.44c-6.67,1.09-13.47,1.82-19.41.88s-10.93-3.83-11.82-8.3c-3.5-17.55,35.69-27.14,52.35-30.3,9.26-1.75,18.72-2.13,26.22.17,2.84.86,5.4,2.14,6.89,4.06C424.66,110.21,421,117.71,414.42,122.84Z"/></g></g></svg>