<svg xmlns="http://www.w3.org/2000/svg" viewBox="0 0 826.17 909.03"><defs><style>.cls-1{fill:#f7d3b0;}.cls-2{fill:#e2bfa3;}.cls-3{fill:#cead97;}.cls-4{fill:#6fb56b;}.cls-5{fill:#81cc7a;}.cls-6{fill:#89e269;}.cls-7{fill:#59b24f;}.cls-8{fill:#84d17d;}.cls-9{fill:#b0eda9;}.cls-10{fill:#c1ffb8;}.cls-11{fill:#e24c24;}.cls-12{fill:#ff5a27;}.cls-13{fill:#ff8b78;}.cls-14{fill:#ffb164;}.cls-15,.cls-19{fill:#fff;}.cls-15{opacity:0.24;}.cls-16{fill:#9cd6e8;}.cls-17{fill:#e7f2f0;}.cls-18{fill:#96c8e2;}.cls-19{opacity:0.38;}.cls-20{fill:#b8f0ff;}.cls-21{fill:#0a0b0c;}.cls-22{fill:#36383f;}</style></defs><g id="Layer_2" data-name="Layer 2"><g id="Layer_2-2" data-name="Layer 2"><path class="cls-1" d="M20,472.67C23.38,530.1,164.9,580.36,404.78,580.36c247.69,0,382.8-38.18,384.76-107.69S657.37,352.17,410.65,353.22C202.86,354.11,28.82,368.89,20,472.67Z"/><path class="cls-2" d="M36.66,472c3.23,51.24,138.63,96.09,368.13,96.09,237,0,366.23-34.07,368.1-96.09S646.44,364.53,410.4,365.47c-198.8.79-365.31,14-373.74,106.56Z"/><path class="cls-3" d="M36.66,472.21c2.59,41.08,90.12,78,243,91.09q-12.31-8.35-23.92-17.68A374.46,374.46,0,0,1,146.6,402c-2-4.69-4.2-9.62-6.28-14.67C79.54,402.7,40.63,428.68,36.66,472.21Z"/><path class="cls-4" d="M208.52,531.29c-2.82-3-6.08-5.76-8-9.41-2.09-3.9-2.48-8.46-3.6-12.74a38.39,38.39,0,0,0-23.21-25.78c-2.89-1.09-6.1-1.95-8-4.39s-1.91-5.87-2.28-9a32.93,32.93,0,0,0-21.94-26.79c-3.56-1.17-7.44-1.77-10.41-4-6.6-5-5.57-15.25-9.49-22.56-2.21-4.11-5.93-7.16-9.56-10.1L93.29,391.33c-6.41-5.19-13.25-10.58-21.42-11.72-4.22-.59-8.89-.09-12.39-2.53-3.18-2.22-4.45-6.22-6.26-9.66-7.91-15-30.54-19.23-43.51-8.37s-12.91,33.63,0,44.61C.48,411.12-.19,425.58,5,436.25s14.76,18.39,24.12,25.66c2.36,1.84,4.81,3.75,6.2,6.41,2,3.82,1.44,8.4,1.48,12.72.16,19.42,14.84,37.78,33.74,42.22l148.11,57.33A49.45,49.45,0,0,0,208.52,531.29Z"/><path class="cls-5" d="M174,423.39c-8-10.28-16-20.72-21-32.75s-6.49-26.05-1.24-37.94c1.35-3,3.13-6,3.6-9.26.56-3.92-.81-7.82-1.58-11.7a38.95,38.95,0,0,1,51.54-44.14A27.72,27.72,0,0,1,250.54,311c10.2-2.68,21.06,3.91,26.48,13s6.53,20,7,30.51a46.7,46.7,0,0,1,47.22,61.33c14.36,11.59,28.21,25.9,31.56,44.05s-8.58,39.95-27,40.65c10.26,1,15,14.85,10.55,24.16S332,539.3,322.56,543.32a231.3,231.3,0,0,1-60.21,16.4c-12.21,1.6-25,2.17-36.53-2.12-25.31-9.42-37-37.37-46-60.66C171.84,476.34,146.59,440.67,174,423.39Z"/><path class="cls-4" d="M534.63,367.14a30.13,30.13,0,0,1,32.64-11.91c1.33-14.93,13.74-28.16,28.56-30.44s30.63,6.63,36.37,20.47c9.48-7.74,25.1,1.16,27.67,13.13s-3.78,24-11.25,33.72c9.84,3,14.62,14.93,13.1,25.1s-7.7,19-13.7,27.33c12.84,9.63,15.42,29.44,7.6,43.46s-24,22.11-40,22.81c-16.74.74-30.67-6.11-45.26-13.08C518.66,561.4,450,412.5,535.72,401.57,529.08,391.24,527.56,377.78,534.63,367.14Z"/><path class="cls-5" d="M606.4,428.5c6.94-11.5,15.17-22.44,25.8-30.65,7.76-6,16.61-10.37,25.39-14.72,24.2-12,53.63-23.9,76.83-10.09,4.24,2.52,8,5.82,12.47,7.95,9.83,4.73,21.34,3.2,32.25,3.14,11.1-.06,22.59,1.66,32,7.61s16.2,16.82,14.91,27.85c-.68,5.82-3.49,11.3-3.57,17.16-.07,5.05,1.9,9.88,2.62,14.88,1.83,12.75-6.55,26.95-19.25,29.14-4.47.77-9.08.11-13.56.76-19.78,2.89-28.17,28.32-46.62,36-5.19,2.16-10.89,2.77-16.24,4.48-5.7,1.83-10.92,4.86-16.35,7.36-34.85,16-79.44,7.56-106-20.15C583.76,484.88,590.33,455.12,606.4,428.5Z"/><path class="cls-4" d="M540.66,522.22c1.78.41,3.68,1.07,5.37.38,2.15-.89,2.89-3.49,3.67-5.69,4.44-12.49,19.59-20,32.22-16,2.73.87,5.45,2.22,8.3,1.91,4-.44,6.87-3.93,10.07-6.4,8.16-6.31,20.82-5.81,28.46,1.11,2.08,1.88,3.86,4.19,6.41,5.35,2.75,1.26,6,.95,8.88,1.8,10.13,3,12.72,18.08,22.9,20.88,6.65-11.25,23.74-13.05,34.47-5.59s15.35,21.53,14.52,34.57C714.11,583.46,685.85,608,657,605.66c-13-1-25.38-6.67-38.4-6.62-12.55.05-24.39,5.37-36.05,10-28.28,11.25-56.44,7.27-65-25C512.76,565.81,505,513.91,540.66,522.22Z"/><path class="cls-6" d="M322.4,471.66c-7.15-14.47-7.66-32.51,1.93-45.69,8.1-11.14,21.83-17.27,34.91-22.91-17.16-15.95-21.32-42.79-9.69-62.64s38-31,61.65-26.1c-5.27-17.45,9.27-36.85,28.18-40.85s39.28,5.58,50.05,20.65c13.23-8,32.68-5.11,42.64,6.31s9,29.83-2,40.34c18.75,15.65,20.59,45.84,3.87,63.39,10.13,8.07,15.58,21,14.07,33.35s-9.93,23.81-21.74,29.53c2.44,8.1,4.82,17.09.82,24.63-4.66,8.8-16.35,12.2-26.86,12.43s-21.15-1.75-31.45.22c4,9.85-4.08,21.06-14.44,25.2s-22.11,3.1-33.31,2l-37.78-3.73c-7.07-.7-14.5-1.52-20.23-5.45-6.62-4.53-9.15-15.62-15.25-21.8C338.36,491,328.47,483.93,322.4,471.66Z"/><path class="cls-7" d="M660.66,467.05l17.15,17.83s34.66,15,75.91-19.47C800.14,426.64,816.55,381,790.27,356c-4.27-4.06-21.12-9-21.12-9L659,466.9Z"/><path class="cls-8" d="M775.91,351.22c17.48,15.62,5.85,54.21-26,86.2s-71.8,45.25-89.28,29.63-5.85-54.21,26-86.2S758.43,335.6,775.91,351.22Z"/><path class="cls-9" d="M772.21,355.2c13.27,11.86,2.55,47.25-26.76,76.71s-68.61,42.88-81.89,31-1.74-50.44,27.57-79.89S758.94,343.34,772.21,355.2Z"/><path class="cls-10" d="M681.15,438.79c-1.79.37-3.89.56-5.26-.59-2.21-1.84-.76-5.29,1-7.49a43,43,0,0,1,13.9-11.11,27,27,0,0,1-8.16-1.57,2.54,2.54,0,0,1-1.43-.93c-.67-1.15.76-2.37,2-3a77.24,77.24,0,0,1,20-6.46,17.29,17.29,0,0,1-8.16-3.28c-2.26-1.85-3.69-4.8-3-7.56.87-3.61,5.06-5.8,9-5.78s7.56,1.72,11,3.52a25,25,0,0,1,8.41-17.41c1.19-1.05,2.75-2.05,4.31-1.64,2.41.64,2.57,3.78,2.22,6.12a24.6,24.6,0,0,1,19.61-12.71,3.58,3.58,0,0,1,2.87.67,3,3,0,0,1,.66,1.61c.73,4.28-.65,8.69-2.94,12.45s-5.46,6.95-8.59,10.11a53.84,53.84,0,0,1,13.08-4.85,2.39,2.39,0,0,1,1.73.06,1.91,1.91,0,0,1,.73,1.17c1.52,5.16-1.9,10.71-6.64,13.65s-10.51,3.84-16.1,4.68c3.48.24,7.12,1.38,9.22,4s1.94,7-1,8.77a9.25,9.25,0,0,1-4.46,1,33.84,33.84,0,0,1-13.73-2.38,11.6,11.6,0,0,1,.57,15.33,5.38,5.38,0,0,1-3.8,2.16,4.57,4.57,0,0,1-4.07-2.93,12.2,12.2,0,0,1-.61-5.1c-.86,4.66-2.75,10.1-7.58,11.29-1.44.36-3.26.11-4-1.13a4.06,4.06,0,0,1-.2-2.65c.39-2.29,2.78-7.31,1.73-9.23C696.41,432.6,690,437,681.15,438.79Z"/><path class="cls-7" d="M289,601.3l26.83,20.58s54.24,17.28,118.78-22.47c72.64-44.74,98.31-97.36,57.19-126.22-6.67-4.69-33-10.4-33-10.4L286.44,601.13Z"/><path class="cls-8" d="M469.37,467.64c27.36,18,9.16,62.56-40.64,99.47S316.39,619.32,289,601.3s-9.16-62.56,40.64-99.47S442,449.62,469.37,467.64Z"/><path class="cls-9" d="M463.58,472.23c20.77,13.69,4,54.53-41.87,88.52s-107.36,49.48-128.13,35.8-2.73-58.21,43.13-92.2S442.81,458.54,463.58,472.23Z"/><path class="cls-10" d="M321.1,568.69c-2.81.42-6.08.65-8.23-.68-3.45-2.13-1.18-6.1,1.63-8.65a67.58,67.58,0,0,1,21.75-12.81,56.2,56.2,0,0,1-12.77-1.81,4.29,4.29,0,0,1-2.23-1.08c-1.05-1.33,1.18-2.73,3.11-3.42a152.29,152.29,0,0,1,31.35-7.46c-4.61-.58-9.23-1.64-12.76-3.78s-5.77-5.54-4.72-8.73c1.37-4.16,7.92-6.69,14-6.67s11.83,2,17.18,4.06c.44-7.55,5.27-14.92,13.16-20.08,1.86-1.22,4.3-2.38,6.75-1.9,3.76.73,4,4.36,3.47,7.06,5.69-8.13,17.77-13.9,30.68-14.66,1.59-.09,3.42-.06,4.49.77a3.06,3.06,0,0,1,1,1.86c1.14,4.94-1,10-4.61,14.36s-8.53,8-13.43,11.67a104.11,104.11,0,0,1,20.46-5.59,4.74,4.74,0,0,1,2.7.07,2.3,2.3,0,0,1,1.15,1.34c2.38,6-3,12.36-10.39,15.75s-16.44,4.43-25.19,5.4c5.44.28,11.14,1.59,14.43,4.63s3,8.08-1.59,10.12a18.84,18.84,0,0,1-7,1.17,70.46,70.46,0,0,1-21.49-2.74c6.29,4.7,6.69,12.69.89,17.69a9.51,9.51,0,0,1-5.94,2.49,7.37,7.37,0,0,1-6.37-3.39c-1.06-1.84-1-3.89-.95-5.88-1.35,5.37-4.31,11.66-11.86,13-2.26.41-5.11.12-6.23-1.31a3.46,3.46,0,0,1-.31-3c.6-2.65,4.34-8.44,2.7-10.66C345,561.55,335,566.6,321.1,568.69Z"/><path class="cls-7" d="M298.26,236.92l-24.58,10.8s-28.84,30-11.55,86c19.47,63,57.85,97.64,93.21,80.19,5.74-2.83,17.46-18.33,17.46-18.33L299.07,235.26Z"/><ellipse class="cls-8" cx="332.08" cy="318.92" rx="45.89" ry="88.86" transform="translate(-90.17 135.36) rotate(-20.35)"/><path class="cls-9" d="M363.48,395.56c-17.09,9.12-47.7-15.69-64.91-57.4s-14.52-87.52,2.57-96.64,50.52,17.76,67.73,59.47S380.58,386.45,363.48,395.56Z"/><path class="cls-10" d="M317.85,269.06c.37-2,1-4.24,2.72-5.21,2.71-1.57,5.53,1.27,7,4a47.35,47.35,0,0,1,5.34,18.67,31.85,31.85,0,0,1,4.85-7.83,2.84,2.84,0,0,1,1.51-1.1c1.41-.25,2,1.69,2.12,3.2A88.62,88.62,0,0,1,339.62,304a19.66,19.66,0,0,1,6.54-7.16c2.75-1.61,6.24-1.94,8.69-.18,3.21,2.31,3.67,7.48,2.07,11.51s-4.77,7.15-7.93,10a26,26,0,0,1,13.78,15.44c.56,1.63.92,3.63-.12,5.09-1.61,2.24-4.77,1.18-6.95-.09,5.49,6.5,7.3,16.41,4.6,25.2a4.08,4.08,0,0,1-1.82,2.7,3.11,3.11,0,0,1-1.86.06c-4.52-.9-8.32-4-11.1-7.87s-4.65-8.33-6.5-12.79a61.61,61.61,0,0,1-.52,15.39,2.69,2.69,0,0,1-.76,1.76,2,2,0,0,1-1.45.31c-5.71-.43-9.81-6.12-10.78-12.15s.47-12.35,1.9-18.46c-1.65,3.5-4.25,6.82-7.7,8s-7.7-.71-8.25-4.44a10.75,10.75,0,0,1,.8-5A39.46,39.46,0,0,1,320.18,318a11.91,11.91,0,0,1-15.37-5.36,6.1,6.1,0,0,1-.59-4.76,5.08,5.08,0,0,1,4.55-3.07,12.41,12.41,0,0,1,5.28,1.35c-4.25-2.69-8.86-6.76-8.08-12.21.23-1.63,1.22-3.41,2.74-3.67a4,4,0,0,1,2.69.82c2.11,1.28,6.09,5.7,8.42,5.36C317.77,287.22,316.05,278.9,317.85,269.06Z"/><path class="cls-11" d="M225.32,469.1s5,67.39,92.12,55.23S388,441.79,388,441.79L225.32,469.1Z"/><path class="cls-12" d="M388.23,443.54c2.78,17.71-31.44,37.79-76.42,44.85s-83.71-1.58-86.49-19.29,31.44-37.79,76.42-44.85S385.45,425.83,388.23,443.54Z"/><path class="cls-13" d="M381.46,444.6c2.44,15.59-29,33.47-70.26,39.94s-76.66-.92-79.11-16.5,29-33.47,70.26-39.94S379,429,381.46,444.6Z"/><path class="cls-12" d="M276.52,450.23c-2.78,1.85-5.7,4.69-5,8,.28,1.34,1.16,2.57,1.11,3.94s-1,2.6-.88,3.95a4,4,0,0,0,1.45,2.42c4.57,4.17,11.71,3,17.73,1.55l46.84-11.17c4-1,8.71-2.49,10-6.44,1.07-3.3-.92-7-3.81-8.91s-6.44-2.5-9.88-2.91c-10.35-1.23-21-1.5-31.24.66C293.44,443.26,284.68,444.81,276.52,450.23Z"/><path class="cls-14" d="M247.28,466.42a78.07,78.07,0,0,0,8.53-2.38,2.3,2.3,0,0,0,1.2-1.25A2.38,2.38,0,0,0,257,461a2.36,2.36,0,0,0-3-1.15c-.86.29-1.71.57-2.57.82l.59-.17q-2.67.8-5.38,1.38a2.29,2.29,0,1,0,.71,4.53Z"/><path class="cls-14" d="M252.48,456.34c2.91-.46,2.21-5-.71-4.53s-2.21,5,.71,4.53Z"/><path class="cls-14" d="M252.47,456.26l5.2-.39a2.28,2.28,0,0,0,1.91-2.62,2.29,2.29,0,0,0-.91-1.5,2.56,2.56,0,0,0-1.71-.41l-5.2.39a2.33,2.33,0,0,0-1.5.91,2.37,2.37,0,0,0-.41,1.71,2.34,2.34,0,0,0,.92,1.5,2.55,2.55,0,0,0,1.7.41Z"/><path class="cls-14" d="M265.54,443.16a6.68,6.68,0,0,0,.82,1.22,6.07,6.07,0,0,0,3.85,2.05,2.24,2.24,0,0,0,2.26-1.18,1.75,1.75,0,0,0,.28-.84c0-.2,0-.41,0-.61a2.38,2.38,0,0,0-.49-1.1,2.42,2.42,0,0,0-1.52-.82l-.43-.08.58.14a4,4,0,0,1-.89-.35l.51.28a3.8,3.8,0,0,1-.8-.58l.42.4a3.89,3.89,0,0,1-.6-.74l.31.51-.11-.19a1.69,1.69,0,0,0-.52-.71,1.79,1.79,0,0,0-.73-.48,2.56,2.56,0,0,0-1.78,0,2.31,2.31,0,0,0-1.15,3Z"/><path class="cls-14" d="M280.54,438.18l.78,2.51a1.8,1.8,0,0,0,.53.71,1.73,1.73,0,0,0,.73.48,1.67,1.67,0,0,0,.88.14,1.78,1.78,0,0,0,.9-.18,2.35,2.35,0,0,0,1.19-1.25c.05-.2.09-.39.14-.58a2.29,2.29,0,0,0-.19-1.21l-.78-2.5a1.69,1.69,0,0,0-.52-.71,1.85,1.85,0,0,0-.73-.49,1.68,1.68,0,0,0-.88-.13,1.76,1.76,0,0,0-.9.18,2.31,2.31,0,0,0-1.19,1.25c-.05.2-.1.39-.14.58a2.24,2.24,0,0,0,.18,1.2Z"/><path class="cls-14" d="M311.53,436.23l1.86-2.54a1.64,1.64,0,0,0,.35-.81,2.06,2.06,0,0,0-.27-1.74,1.76,1.76,0,0,0-.58-.66l-.52-.28a2.29,2.29,0,0,0-1.19-.13l-.59.18a2.25,2.25,0,0,0-.91.74l-1.85,2.54a1.75,1.75,0,0,0-.36.81,2,2,0,0,0,.28,1.74,1.68,1.68,0,0,0,.58.66l.51.28a2.34,2.34,0,0,0,1.2.13l.58-.18a2.18,2.18,0,0,0,.91-.74Z"/><path class="cls-14" d="M332.71,436.18l4.17-1.92a2.44,2.44,0,0,0,1.19-1.26,2.34,2.34,0,0,0-.05-1.78,2.28,2.28,0,0,0-1.25-1.19,2.34,2.34,0,0,0-1.78.05L330.82,432a2.3,2.3,0,0,0-1.15,3,2.31,2.31,0,0,0,1.25,1.19,2.41,2.41,0,0,0,1.79,0Z"/><path class="cls-14" d="M349.23,440a28.72,28.72,0,0,0,7.14-1.59,2.28,2.28,0,0,0,1.14-3,2.28,2.28,0,0,0-1.25-1.19,2.54,2.54,0,0,0-1.78.05c-.45.15-.9.3-1.35.43l.59-.17a27.08,27.08,0,0,1-5.2,1,2.29,2.29,0,0,0,.71,4.53Z"/><path class="cls-14" d="M359.84,449.21l6.84.38a2.5,2.5,0,0,0,1.71-.5,2.38,2.38,0,0,0,.83-1.52,2.33,2.33,0,0,0-2-2.54l-6.85-.38a2.5,2.5,0,0,0-1.71.5,2.3,2.3,0,0,0,1.2,4.06Z"/><path class="cls-14" d="M350.93,458.59,355,461a1.7,1.7,0,0,0,.8.35,1.71,1.71,0,0,0,.9.06,2.37,2.37,0,0,0,1.5-.91,2.32,2.32,0,0,0,.41-1.71,2.26,2.26,0,0,0-.91-1.5l-4.1-2.41a1.75,1.75,0,0,0-.81-.36,1.71,1.71,0,0,0-.9-.06,2.34,2.34,0,0,0-1.5.92,2.31,2.31,0,0,0-.41,1.71,2.2,2.2,0,0,0,.92,1.49Z"/><path class="cls-14" d="M335.45,468.14a5.13,5.13,0,0,1,.56.76l-.31-.51a5.64,5.64,0,0,1,.55,1.23c-.06-.19-.11-.39-.17-.59,0,.15.08.29.11.44a1.81,1.81,0,0,0,.33.84,1.76,1.76,0,0,0,.58.66,1.73,1.73,0,0,0,.81.35,1.71,1.71,0,0,0,.9.06,2.34,2.34,0,0,0,1.5-.92,2.3,2.3,0,0,0,.41-1.7,7.71,7.71,0,0,0-.63-1.88,8.21,8.21,0,0,0-1.09-1.64,2.46,2.46,0,0,0-1.52-.83,1.76,1.76,0,0,0-.91.1,1.78,1.78,0,0,0-.8.4,2.34,2.34,0,0,0-.83,1.52c0,.21,0,.41,0,.62a2.25,2.25,0,0,0,.49,1.09Z"/><path class="cls-14" d="M311.48,475.1a8,8,0,0,1,.58,1.42c-.06-.19-.12-.39-.17-.59a8.66,8.66,0,0,1,.31,1.82,2.58,2.58,0,0,0,.91,1.5,2.37,2.37,0,0,0,1.71.41,2.33,2.33,0,0,0,1.5-.91c.09-.18.18-.35.28-.52a2.29,2.29,0,0,0,.13-1.19,8.27,8.27,0,0,0-.28-1.7,10.1,10.1,0,0,0-.79-2.13,2.42,2.42,0,0,0-1.25-1.19,2.56,2.56,0,0,0-1.78,0,2.33,2.33,0,0,0-1.19,1.26,2.29,2.29,0,0,0,0,1.78Z"/><path class="cls-14" d="M293.69,477.27a4,4,0,0,1,.1.76c0-.2,0-.4,0-.61a4.29,4.29,0,0,1-.13,1.07l.15-.58a4,4,0,0,1-.38,1l.29-.51a4,4,0,0,1-.54.75,1.76,1.76,0,0,0-.36.8,1.71,1.71,0,0,0-.06.9,2.34,2.34,0,0,0,.92,1.5,2.3,2.3,0,0,0,1.7.41l.59-.17a2.35,2.35,0,0,0,.91-.74,5.87,5.87,0,0,0,.82-1.27,3.76,3.76,0,0,0,.37-.93,6.18,6.18,0,0,0,.16-3.05,2.44,2.44,0,0,0-.91-1.5,2.37,2.37,0,0,0-1.71-.41,2.28,2.28,0,0,0-1.91,2.62Z"/><path class="cls-14" d="M273.79,472.78a18,18,0,0,1-1.56,1.91c.13-.14.27-.28.4-.43a17.35,17.35,0,0,1-2.77,2.37,2.29,2.29,0,0,0,1.19,4.05h.61a2.34,2.34,0,0,0,1.1-.49,18.86,18.86,0,0,0,4.73-4.7,2.33,2.33,0,0,0,.41-1.7,2.29,2.29,0,0,0-.91-1.5,2.29,2.29,0,0,0-3.2.5Z"/><path class="cls-14" d="M253.9,476.5l1.24-1.7a1.8,1.8,0,0,0,.35-.8,2.34,2.34,0,0,0-.86-2.4l-.51-.28a2.2,2.2,0,0,0-1.19-.13l-.59.17a2.35,2.35,0,0,0-.91.74l-1.24,1.7a1.64,1.64,0,0,0-.35.8,1.76,1.76,0,0,0-.06.91,1.81,1.81,0,0,0,.33.84,1.73,1.73,0,0,0,.58.65l.52.29a2.29,2.29,0,0,0,1.19.13l.59-.18a2.26,2.26,0,0,0,.91-.74Z"/><path class="cls-15" d="M261.93,512.63c5.12,2.32,10.54,4.63,16.13,4.12,2-.18,4.47-1.29,4.39-3.32-.06-1.65-1.77-2.68-3.27-3.36-3.29-1.49-6.72-2.88-9.32-5.38-4.43-4.25-12.77-15.24-20.77-10.24C240.81,499.64,257.83,510.78,261.93,512.63Z"/><path class="cls-11" d="M338.83,334.52S381.1,387.25,446,327.9,457.44,220,457.44,220L338.83,334.52Z"/><path class="cls-12" d="M458.66,221.24c12.31,13-4.53,48.95-37.62,80.23s-69.9,46.08-82.21,33,4.52-48.95,37.61-80.23S446.34,208.21,458.66,221.24Z"/><path class="cls-13" d="M453.67,226c10.84,11.46-5,44-35.3,72.69s-63.72,42.64-74.56,31.17,5-44,35.31-72.69S442.84,214.48,453.67,226Z"/><path class="cls-12" d="M370.35,290c-1.25,3.09-2,7.09.36,9.4,1,.95,2.42,1.46,3.15,2.63s.63,2.71,1.51,3.74a4,4,0,0,0,2.56,1.18c6.13.85,11.35-4.16,15.5-8.75l32.28-35.73c2.78-3.08,5.78-7,4.6-11-1-3.32-4.71-5.23-8.18-5.19s-6.72,1.59-9.79,3.2c-9.23,4.84-18.15,10.64-25.38,18.22C380.35,274.66,374,280.9,370.35,290Z"/><path class="cls-14" d="M355.41,319.88a76.87,76.87,0,0,0,5.69-6.79,2.32,2.32,0,0,0,.28-1.71,2.3,2.3,0,0,0-4.2-.66q-.81,1.08-1.65,2.13l.38-.48q-1.74,2.16-3.65,4.18a2.29,2.29,0,1,0,3.15,3.33Z"/><path class="cls-14" d="M354,308.63c2.14-2-1-5.36-3.15-3.33s1,5.36,3.15,3.33Z"/><path class="cls-14" d="M353.94,308.57,358,305.3a2.31,2.31,0,0,0,.72-1.6,2.37,2.37,0,0,0-.63-1.64,2.32,2.32,0,0,0-1.6-.71,2.5,2.5,0,0,0-1.64.62l-4.07,3.27a2.29,2.29,0,0,0,1.51,3.95,2.55,2.55,0,0,0,1.64-.62Z"/><path class="cls-14" d="M357.3,290.37a6,6,0,0,0,1.37.54,6.12,6.12,0,0,0,1.47.2,6.23,6.23,0,0,0,2.87-.69,1.88,1.88,0,0,0,.69-.59,1.8,1.8,0,0,0,.43-.79,2.56,2.56,0,0,0-.18-1.72l-.35-.5a2.24,2.24,0,0,0-1-.62,2.39,2.39,0,0,0-1.72.17,2.87,2.87,0,0,1-.4.18l.56-.21a3.4,3.4,0,0,1-.93.22l.58-.06a3.65,3.65,0,0,1-1,0l.58.09a3.61,3.61,0,0,1-.92-.27l.54.24-.2-.1a1.75,1.75,0,0,0-.83-.28,2,2,0,0,0-1.68.4,1.76,1.76,0,0,0-.64.66,2.36,2.36,0,0,0-.27,1.7,2.29,2.29,0,0,0,1.05,1.45Z"/><path class="cls-14" d="M366.85,277.78l2.07,1.62a1.66,1.66,0,0,0,.83.29,2,2,0,0,0,1.68-.4,1.76,1.76,0,0,0,.64-.66,2.33,2.33,0,0,0,.27-1.71l-.21-.55a2.32,2.32,0,0,0-.84-.89l-2.06-1.63a1.82,1.82,0,0,0-.84-.28,1.71,1.71,0,0,0-.87,0,2.53,2.53,0,0,0-1.44,1.05,2.31,2.31,0,0,0-.27,1.7c.07.19.14.38.2.56a2.32,2.32,0,0,0,.84.89Z"/><path class="cls-14" d="M391.29,258.63l.09-3.15a1.71,1.71,0,0,0-.16-.87,2.09,2.09,0,0,0-1.21-1.28,1.82,1.82,0,0,0-.86-.21l-.58.06a2.17,2.17,0,0,0-1.05.57l-.39.47a2.25,2.25,0,0,0-.33,1.13l-.09,3.15a1.7,1.7,0,0,0,.16.86,1.75,1.75,0,0,0,.47.78,1.63,1.63,0,0,0,.75.51,1.76,1.76,0,0,0,.85.21l.58-.06a2.38,2.38,0,0,0,1.06-.57l.38-.48a2.22,2.22,0,0,0,.33-1.12Z"/><path class="cls-14" d="M408.72,246.6l2.35-3.95a2.43,2.43,0,0,0,.27-1.71,2.36,2.36,0,0,0-1-1.44,2.31,2.31,0,0,0-1.7-.27,2.36,2.36,0,0,0-1.45,1q-1.17,2-2.35,3.95a2.43,2.43,0,0,0-.27,1.71,2.36,2.36,0,0,0,1.05,1.44,2.31,2.31,0,0,0,1.7.27,2.34,2.34,0,0,0,1.45-1Z"/><path class="cls-14" d="M424.51,240.4a28.73,28.73,0,0,0,5-5.35,2.26,2.26,0,0,0,.28-1.7,2.3,2.3,0,0,0-1-1.44,2.33,2.33,0,0,0-1.71-.28,2.62,2.62,0,0,0-1.44,1.05c-.28.38-.57.76-.87,1.13l.39-.48a26.37,26.37,0,0,1-3.73,3.74,2.3,2.3,0,0,0-.09,3.24,2.34,2.34,0,0,0,3.24.09Z"/><path class="cls-14" d="M438.46,242l5.85-3.56a2.45,2.45,0,0,0,1.13-1.38,2.3,2.3,0,0,0-3.28-2.67l-5.85,3.56a2.45,2.45,0,0,0-1.13,1.38,2.3,2.3,0,0,0,3.28,2.67Z"/><path class="cls-14" d="M436.42,254.76l4.75-.33a1.68,1.68,0,0,0,.86-.16,1.73,1.73,0,0,0,.78-.46,2.29,2.29,0,0,0,.09-3.25,2.26,2.26,0,0,0-1.6-.71l-4.75.33a1.7,1.7,0,0,0-.86.16,1.73,1.73,0,0,0-.78.46,2.32,2.32,0,0,0-.09,3.25,2.28,2.28,0,0,0,1.6.71Z"/><path class="cls-14" d="M429.07,271.39a5.51,5.51,0,0,1,.89.31l-.54-.24a5.2,5.2,0,0,1,1.15.7l-.48-.39.34.3a1.74,1.74,0,0,0,.75.51,1.78,1.78,0,0,0,.85.21,1.72,1.72,0,0,0,.87-.17,1.66,1.66,0,0,0,.77-.46,2.28,2.28,0,0,0,.09-3.24,7.75,7.75,0,0,0-1.58-1.2,7.86,7.86,0,0,0-1.83-.73,2.36,2.36,0,0,0-1.71.18,2.54,2.54,0,0,0-1.13,1.38,2.29,2.29,0,0,0,.18,1.72l.36.5a2.16,2.16,0,0,0,1,.62Z"/><path class="cls-14" d="M413.25,290.7a7.94,7.94,0,0,1,1.29.84l-.48-.38a7.61,7.61,0,0,1,1.28,1.32,1.8,1.8,0,0,0,.75.5,1.58,1.58,0,0,0,.85.21A2.29,2.29,0,0,0,419.3,291l-.06-.59a2.24,2.24,0,0,0-.56-1.05,7.89,7.89,0,0,0-1.2-1.25,10.86,10.86,0,0,0-1.85-1.31,2.43,2.43,0,0,0-1.71-.27,2.53,2.53,0,0,0-1.44,1.05,2.31,2.31,0,0,0,.77,3.15Z"/><path class="cls-14" d="M399.81,302.55a4.78,4.78,0,0,1,.52.58l-.36-.5a4.35,4.35,0,0,1,.51.95l-.21-.55a4.16,4.16,0,0,1,.23,1l-.06-.59a4.13,4.13,0,0,1,0,.93,1.81,1.81,0,0,0,.16.86,1.75,1.75,0,0,0,.47.78,2.31,2.31,0,0,0,3.24.09l.39-.48a2.47,2.47,0,0,0,.33-1.12,6.36,6.36,0,0,0,0-1.51,4.11,4.11,0,0,0-.23-1,6.34,6.34,0,0,0-.62-1.38,6.41,6.41,0,0,0-1-1.23,2.48,2.48,0,0,0-1.6-.71,2.29,2.29,0,0,0-1.74,3.86Z"/><path class="cls-14" d="M380.87,310.13a16.76,16.76,0,0,1-.21,2.45l.09-.58a17.29,17.29,0,0,1-.95,3.52,2.34,2.34,0,0,0,.18,1.72,2.36,2.36,0,0,0,1.38,1.12,2.33,2.33,0,0,0,1.72-.17l.5-.36a2.24,2.24,0,0,0,.62-1,18.77,18.77,0,0,0,1.25-6.55,2.39,2.39,0,0,0-.63-1.64,2.35,2.35,0,0,0-1.6-.71,2.32,2.32,0,0,0-1.64.62,2.34,2.34,0,0,0-.71,1.61Z"/><path class="cls-14" d="M366.57,324.45l.06-2.1a2.22,2.22,0,0,0-1.37-2.15,1.78,1.78,0,0,0-.85-.21l-.59.06a2.17,2.17,0,0,0-1.05.57l-.39.47a2.25,2.25,0,0,0-.33,1.13l-.06,2.1a1.81,1.81,0,0,0,.16.86,1.75,1.75,0,0,0,.47.78,1.54,1.54,0,0,0,.75.5,1.66,1.66,0,0,0,.85.22l.58-.06a2.38,2.38,0,0,0,1.06-.57l.38-.48a2.22,2.22,0,0,0,.33-1.12Z"/><path class="cls-15" d="M393.65,349.69c5.52-1,11.3-2.16,15.63-5.74,1.56-1.29,3-3.6,1.73-5.22-1-1.33-3-1.21-4.59-.92-3.55.63-7.17,1.43-10.73.84-6.06-1-19.16-5.34-22.92,3.32C368.88,350.93,389.23,350.48,393.65,349.69Z"/><path class="cls-11" d="M477.28,534.73s19.48,64.71,101.9,34,51-95.85,51-95.85L477.28,534.73Z"/><path class="cls-12" d="M630.79,474.5c6.55,16.69-22.51,43.7-64.9,60.33s-82.06,16.59-88.61-.1,22.51-43.71,64.9-60.34S624.24,457.81,630.79,474.5Z"/><path class="cls-13" d="M624.41,477c5.76,14.69-21.08,39-59.94,54.2s-75.05,15.71-80.81,1,21.08-39,59.94-54.2S618.65,462.31,624.41,477Z"/><path class="cls-12" d="M523.18,505.22c-2.32,2.4-4.55,5.81-3.19,8.85.57,1.26,1.69,2.26,1.94,3.62s-.43,2.75,0,4a4,4,0,0,0,1.94,2.06c5.37,3.08,12.08.38,17.65-2.32l43.3-21.06c3.74-1.82,8-4.31,8.37-8.45.34-3.45-2.41-6.61-5.64-7.88s-6.83-1-10.28-.69c-10.37,1-20.81,3.08-30.35,7.41C538.19,494.74,530,498.16,523.18,505.22Z"/><path class="cls-14" d="M498.14,527.35a76.14,76.14,0,0,0,7.82-4.17,2.3,2.3,0,0,0,.89-1.48,2.42,2.42,0,0,0-.43-1.73,2.36,2.36,0,0,0-3.21-.46c-.77.47-1.55.92-2.33,1.36l.53-.3c-1.61.9-3.27,1.74-5,2.51a2.29,2.29,0,0,0,1.68,4.27Z"/><path class="cls-14" d="M501,516.38c2.75-1.07,1.08-5.34-1.68-4.26s-1.07,5.34,1.68,4.26Z"/><path class="cls-14" d="M501,516.31l5-1.51a2.32,2.32,0,0,0,1.27-1.21,2.38,2.38,0,0,0,0-1.76,2.32,2.32,0,0,0-1.22-1.26,2.51,2.51,0,0,0-1.75,0l-5,1.5a2.32,2.32,0,0,0-1.26,1.22,2.26,2.26,0,0,0,0,1.75,2.32,2.32,0,0,0,1.21,1.27,2.6,2.6,0,0,0,1.76,0Z"/><path class="cls-14" d="M510.93,500.69a6.9,6.9,0,0,0,1.07,1,6.81,6.81,0,0,0,1.29.73,6.18,6.18,0,0,0,2.91.43,1.77,1.77,0,0,0,.87-.29,1.66,1.66,0,0,0,.69-.57,1.59,1.59,0,0,0,.38-.78,1.74,1.74,0,0,0,.1-.88c0-.2-.1-.39-.14-.59a2.4,2.4,0,0,0-.72-1,2.46,2.46,0,0,0-1.66-.48,3.24,3.24,0,0,1-.44,0h.59a4.27,4.27,0,0,1-.94-.14l.56.16a3.88,3.88,0,0,1-.91-.4l.51.31a3.66,3.66,0,0,1-.75-.6c.13.15.27.29.41.43l-.15-.16a1.71,1.71,0,0,0-.67-.58,1.68,1.68,0,0,0-.81-.31,2.47,2.47,0,0,0-1.73.43,2.32,2.32,0,0,0-.89,1.48,2.27,2.27,0,0,0,.43,1.73Z"/><path class="cls-14" d="M524.5,492.59l1.3,2.28a1.75,1.75,0,0,0,.67.57,2,2,0,0,0,1.71.26,1.77,1.77,0,0,0,.84-.37,2.35,2.35,0,0,0,.89-1.48c0-.2,0-.4,0-.6a2.28,2.28,0,0,0-.44-1.13l-1.31-2.28a1.63,1.63,0,0,0-.67-.58,1.8,1.8,0,0,0-.81-.32,2.55,2.55,0,0,0-1.73.44,2.3,2.3,0,0,0-.89,1.48c0,.19,0,.39,0,.59a2.36,2.36,0,0,0,.45,1.14Z"/><path class="cls-14" d="M554.33,484l1.26-2.89a1.7,1.7,0,0,0,.17-.86,1.61,1.61,0,0,0-.14-.89,1.69,1.69,0,0,0-.5-.75,1.75,1.75,0,0,0-.71-.52l-.57-.16a2.32,2.32,0,0,0-1.19.13l-.53.3a2.19,2.19,0,0,0-.73.92l-1.26,2.89a2.62,2.62,0,0,0,0,1.75,1.79,1.79,0,0,0,.51.75,1.85,1.85,0,0,0,.71.52l.57.16a2.32,2.32,0,0,0,1.19-.13l.53-.3a2.19,2.19,0,0,0,.73-.92Z"/><path class="cls-14" d="M575,479.33l3.66-2.78a2.39,2.39,0,0,0,.89-1.48,2.42,2.42,0,0,0-.43-1.73,2.29,2.29,0,0,0-3.21-.46l-3.66,2.78a2.39,2.39,0,0,0-.89,1.48,2.32,2.32,0,0,0,.43,1.73,2.28,2.28,0,0,0,1.48.89,2.37,2.37,0,0,0,1.73-.43Z"/><path class="cls-14" d="M592,479.5a29.16,29.16,0,0,0,6.62-3.1,2.36,2.36,0,0,0,.89-1.48,2.42,2.42,0,0,0-.43-1.73,2.34,2.34,0,0,0-1.49-.89,2.56,2.56,0,0,0-1.72.43c-.41.25-.81.49-1.23.72l.54-.3a26.74,26.74,0,0,1-4.86,2.08,2.3,2.3,0,0,0-1.3,3,2.37,2.37,0,0,0,3,1.3Z"/><path class="cls-14" d="M604.3,486.18l6.76-1.11a2.45,2.45,0,0,0,1.56-.86,2.37,2.37,0,0,0,.48-1.66,2.33,2.33,0,0,0-2.52-2l-6.76,1.11a2.4,2.4,0,0,0-1.56.86,2.29,2.29,0,0,0,2,3.7Z"/><path class="cls-14" d="M597.63,497.27l4.53,1.47a1.7,1.7,0,0,0,.86.17,1.63,1.63,0,0,0,.89-.14,2.28,2.28,0,0,0,1.26-1.22,2.26,2.26,0,0,0,0-1.75,2.22,2.22,0,0,0-1.22-1.26l-4.53-1.47a1.71,1.71,0,0,0-.86-.18,1.83,1.83,0,0,0-.89.14,2.35,2.35,0,0,0-1.26,1.22,2.29,2.29,0,0,0,0,1.76,2.25,2.25,0,0,0,1.22,1.26Z"/><path class="cls-14" d="M584.58,509.94a5.35,5.35,0,0,1,.72.62l-.41-.43a5.59,5.59,0,0,1,.8,1.08l-.3-.53a3,3,0,0,1,.21.4,1.69,1.69,0,0,0,.5.75,1.73,1.73,0,0,0,.71.51,1.76,1.76,0,0,0,.87.17,1.72,1.72,0,0,0,.89-.13,2.35,2.35,0,0,0,1.26-1.22,2.29,2.29,0,0,0,0-1.76,8.2,8.2,0,0,0-1-1.7,7.57,7.57,0,0,0-1.41-1.36,2.49,2.49,0,0,0-1.66-.48,1.68,1.68,0,0,0-.87.3,1.73,1.73,0,0,0-.7.56,2.31,2.31,0,0,0-.47,1.66c0,.2.09.4.14.6a2.32,2.32,0,0,0,.71,1Z"/><path class="cls-14" d="M562.7,521.92a8.4,8.4,0,0,1,.87,1.27l-.3-.54a8,8,0,0,1,.7,1.71,1.63,1.63,0,0,0,.51.75,1.66,1.66,0,0,0,.71.51,2.31,2.31,0,0,0,1.75,0,2.35,2.35,0,0,0,1.26-1.22c.06-.19.11-.38.17-.56a2.34,2.34,0,0,0-.13-1.2,8.13,8.13,0,0,0-.64-1.59,11,11,0,0,0-1.23-1.92,2.51,2.51,0,0,0-1.48-.89,1.71,1.71,0,0,0-.9.06,1.74,1.74,0,0,0-.83.37,2.3,2.3,0,0,0-.89,1.49,2.25,2.25,0,0,0,.43,1.72Z"/><path class="cls-14" d="M545.8,527.9a4.41,4.41,0,0,1,.26.72l-.15-.6a4.36,4.36,0,0,1,.12,1.08v-.6a3.88,3.88,0,0,1-.16,1c.06-.19.11-.38.17-.57a3.59,3.59,0,0,1-.37.85,2.57,2.57,0,0,0,0,1.76,2.31,2.31,0,0,0,3,1.3l.54-.3a2.43,2.43,0,0,0,.73-.92,6,6,0,0,0,.52-1.41,3.79,3.79,0,0,0,.16-1,6.29,6.29,0,0,0-.5-3,2.42,2.42,0,0,0-1.22-1.26,2.31,2.31,0,0,0-1.75,0,2.34,2.34,0,0,0-1.27,1.22,2.29,2.29,0,0,0,0,1.76Z"/><path class="cls-14" d="M525.39,527.83a16.72,16.72,0,0,1-1.1,2.2l.3-.51a16.85,16.85,0,0,1-2.2,2.91,2.31,2.31,0,0,0-.48,1.66,2.34,2.34,0,0,0,.86,1.56,2.31,2.31,0,0,0,1.66.48l.6-.15a2.32,2.32,0,0,0,1-.71,19,19,0,0,0,3.61-5.61,2.4,2.4,0,0,0,0-1.75,2.37,2.37,0,0,0-1.22-1.27,2.31,2.31,0,0,0-1.75,0,2.37,2.37,0,0,0-1.27,1.22Z"/><path class="cls-14" d="M506.78,535.76l.84-1.92a2.65,2.65,0,0,0,0-1.76,1.79,1.79,0,0,0-.51-.75,1.73,1.73,0,0,0-.71-.51l-.56-.17a2.24,2.24,0,0,0-1.2.14l-.53.29a2.25,2.25,0,0,0-.73.92l-.84,1.93a1.7,1.7,0,0,0-.17.86,1.61,1.61,0,0,0,.14.89,1.69,1.69,0,0,0,.5.75,1.75,1.75,0,0,0,.71.52l.57.16a2.32,2.32,0,0,0,1.19-.13l.54-.3a2.25,2.25,0,0,0,.72-.92Z"/><path class="cls-15" d="M522.44,569.3c5.5,1.15,11.3,2.23,16.65.53,1.93-.62,4.08-2.24,3.56-4.2-.42-1.6-2.3-2.23-3.92-2.57-3.53-.74-7.18-1.35-10.26-3.23-5.24-3.2-15.77-12.12-22.49-5.5C499,561.18,518.05,568.38,522.44,569.3Z"/><path class="cls-11" d="M523.81,312.39s-31.06,60,49.51,95.32,103.31-33.34,103.31-33.34l-152.82-62Z"/><path class="cls-12" d="M676,376c-6.92,16.55-46.58,15.71-88.6-1.85s-70.46-45.22-63.54-61.76,46.58-15.71,88.59,1.85S682.86,359.46,676,376Z"/><path class="cls-13" d="M669.62,373.36c-6.08,14.55-42.24,13.3-80.76-2.81s-64.81-41-58.72-55.52,42.24-13.3,80.76,2.81S675.71,358.8,669.62,373.36Z"/><path class="cls-12" d="M577.3,323.15c-3.33.12-7.31,1-8.45,4.14-.47,1.29-.36,2.8-1.12,3.95s-2.22,1.67-2.82,2.89a4,4,0,0,0,0,2.82c1.71,5.95,8.41,8.69,14.29,10.62l45.75,15c3.94,1.29,8.72,2.45,11.89-.24,2.64-2.25,2.87-6.43,1.43-9.58s-4.18-5.51-6.9-7.66c-8.17-6.47-17.08-12.28-26.94-15.81C595.37,326.08,587.1,322.81,577.3,323.15Z"/><path class="cls-14" d="M543.92,321.61a78.7,78.7,0,0,0,8.51,2.45,2.31,2.31,0,0,0,1.67-.44,2.29,2.29,0,0,0-1.09-4.11c-.87-.2-1.75-.41-2.61-.64l.59.15c-1.79-.48-3.56-1-5.3-1.64a2.29,2.29,0,0,0-1.77,4.23Z"/><path class="cls-14" d="M553.63,315.75c2.72,1.14,4.5-3.09,1.77-4.23s-4.5,3.09-1.77,4.23Z"/><path class="cls-14" d="M553.66,315.68l4.64,2.4a2.31,2.31,0,0,0,1.75,0,2.27,2.27,0,0,0,1.25-3,2.52,2.52,0,0,0-1.23-1.24l-4.64-2.4a2.26,2.26,0,0,0-1.75,0,2.27,2.27,0,0,0-1.25,3,2.56,2.56,0,0,0,1.23,1.24Z"/><path class="cls-14" d="M571.66,311.37a6.65,6.65,0,0,0,.06,1.48,6.43,6.43,0,0,0,.42,1.42,6.24,6.24,0,0,0,1.79,2.34,1.65,1.65,0,0,0,.82.39,1.69,1.69,0,0,0,.89.08,1.74,1.74,0,0,0,.83-.3,1.67,1.67,0,0,0,.68-.56l.31-.53a2.3,2.3,0,0,0,.15-1.19,2.41,2.41,0,0,0-.85-1.5,3.11,3.11,0,0,1-.33-.29l.41.42a3.87,3.87,0,0,1-.57-.76l.29.51a3.88,3.88,0,0,1-.38-.92l.15.57a3.81,3.81,0,0,1-.12-.95V312a1.71,1.71,0,0,0-.07-.87,1.84,1.84,0,0,0-.37-.8,1.81,1.81,0,0,0-.68-.58,1.76,1.76,0,0,0-.86-.31,2.3,2.3,0,0,0-2.57,2Z"/><path class="cls-14" d="M587.05,315l-.66,2.55a2.58,2.58,0,0,0,.45,1.67,2.52,2.52,0,0,0,1.54.89,2.31,2.31,0,0,0,1.67-.44l.42-.42a2.2,2.2,0,0,0,.47-1.12l.66-2.55a2.58,2.58,0,0,0-.45-1.67,2.52,2.52,0,0,0-1.54-.89,2.31,2.31,0,0,0-1.67.44l-.42.42a2.2,2.2,0,0,0-.47,1.12Z"/><path class="cls-14" d="M614.46,329.58l2.92-1.19a1.91,1.91,0,0,0,.72-.5,1.75,1.75,0,0,0,.52-.74,1.72,1.72,0,0,0,.16-.89,1.86,1.86,0,0,0-.15-.87c-.1-.17-.2-.34-.29-.51a2.28,2.28,0,0,0-1-.73l-.59-.16a2.29,2.29,0,0,0-1.16.15l-2.92,1.2a2.62,2.62,0,0,0-1.25,1.24,1.81,1.81,0,0,0-.16.89,1.72,1.72,0,0,0,.16.86l.29.51a2.27,2.27,0,0,0,.94.74l.6.16a2.31,2.31,0,0,0,1.16-.16Z"/><path class="cls-14" d="M632.52,340.63l4.56.55a2.29,2.29,0,0,0,.58-4.55l-4.56-.55a2.29,2.29,0,1,0-.58,4.55Z"/><path class="cls-14" d="M644.59,352.56a28.93,28.93,0,0,0,6.9,2.39,2.3,2.3,0,0,0,2.13-3.66,2.55,2.55,0,0,0-1.55-.89c-.46-.1-.92-.21-1.38-.34l.6.16a26.36,26.36,0,0,1-4.94-1.89,2.31,2.31,0,0,0-3,1.23,2.34,2.34,0,0,0,1.24,3Z"/><path class="cls-14" d="M648.8,366l5.62,3.91a2.47,2.47,0,0,0,1.72.47,2.3,2.3,0,0,0,1.11-4.08l-5.62-3.91a2.47,2.47,0,0,0-1.72-.47,2.29,2.29,0,0,0-1.5.86,2.32,2.32,0,0,0,.39,3.22Z"/><path class="cls-14" d="M636.29,369.27l2.23,4.21a1.78,1.78,0,0,0,.49.72,1.75,1.75,0,0,0,.74.52,2.28,2.28,0,0,0,3-1.23,2.22,2.22,0,0,0,0-1.75c-.74-1.41-1.49-2.81-2.23-4.21a1.59,1.59,0,0,0-.5-.72,1.64,1.64,0,0,0-.74-.52,2.29,2.29,0,0,0-3,1.23,2.26,2.26,0,0,0,0,1.75Z"/><path class="cls-14" d="M618.1,369.29a4.91,4.91,0,0,1,.09.94c0-.2,0-.4,0-.6A5,5,0,0,1,618,371c0-.2.11-.39.16-.59,0,.14-.08.29-.13.43a1.63,1.63,0,0,0-.16.89,1.59,1.59,0,0,0,.15.86,2.51,2.51,0,0,0,1.24,1.25,2.31,2.31,0,0,0,3-1.23,7.52,7.52,0,0,0,.38-3.9,2.47,2.47,0,0,0-.86-1.5,1.64,1.64,0,0,0-.83-.39,1.67,1.67,0,0,0-.89-.08,2.31,2.31,0,0,0-1.5.86l-.31.53a2.31,2.31,0,0,0-.16,1.19Z"/><path class="cls-14" d="M594.05,362.65a7.79,7.79,0,0,1-.26,1.52c.06-.2.11-.39.16-.59a8.13,8.13,0,0,1-.68,1.71,2.55,2.55,0,0,0,0,1.75,2.33,2.33,0,0,0,1.24,1.25,2.31,2.31,0,0,0,1.75,0l.51-.29a2.35,2.35,0,0,0,.74-.94,8.26,8.26,0,0,0,.65-1.6,11.21,11.21,0,0,0,.45-2.22,2.41,2.41,0,0,0-.45-1.67,2.6,2.6,0,0,0-1.54-.9,2.28,2.28,0,0,0-2.56,2Z"/><path class="cls-14" d="M577.76,355.18a4.43,4.43,0,0,1-.32.7l.31-.53a4.6,4.6,0,0,1-.66.85l.42-.42a4.11,4.11,0,0,1-.82.62l.51-.29a4.52,4.52,0,0,1-.85.36,1.68,1.68,0,0,0-.73.5,1.72,1.72,0,0,0-.52.74,2.31,2.31,0,0,0,1.23,3l.6.15a2.31,2.31,0,0,0,1.16-.15,5.86,5.86,0,0,0,1.36-.65,3.56,3.56,0,0,0,.8-.6,6,6,0,0,0,1-1.13A6.08,6.08,0,0,0,582,357a2.43,2.43,0,0,0,0-1.76,2.3,2.3,0,0,0-1.23-1.24,2.33,2.33,0,0,0-1.76,0,2.28,2.28,0,0,0-1.24,1.24Z"/><path class="cls-14" d="M563.15,340.92a15.94,15.94,0,0,1-2.32.81l.57-.15a17.63,17.63,0,0,1-3.6.56,2.29,2.29,0,0,0-1.5.86,2.3,2.3,0,0,0,.38,3.22l.54.31a2.27,2.27,0,0,0,1.18.16,19,19,0,0,0,6.5-1.52,2.42,2.42,0,0,0,1.24-1.24,2.31,2.31,0,0,0,0-1.75,2.33,2.33,0,0,0-1.24-1.25,2.38,2.38,0,0,0-1.76,0Z"/><path class="cls-14" d="M544.27,333.67l1.94-.8a2.51,2.51,0,0,0,1.25-1.24,2.55,2.55,0,0,0,0-1.75c-.1-.17-.2-.34-.29-.51a2.3,2.3,0,0,0-.95-.74l-.6-.16a2.21,2.21,0,0,0-1.16.16l-1.94.79a2.62,2.62,0,0,0-1.25,1.24,1.85,1.85,0,0,0-.16.89,1.75,1.75,0,0,0,.16.87c.09.17.19.34.29.51a2.25,2.25,0,0,0,.94.73l.6.16a2.31,2.31,0,0,0,1.16-.15Z"/><path class="cls-15" d="M532.17,368.65c3.15,4.65,6.56,9.46,11.58,12,1.82.91,4.48,1.24,5.48-.53.81-1.44-.1-3.21-1-4.57-2-3-4.21-6-5.11-9.46-1.54-5.95-2.89-19.69-12.32-19.62C521,346.51,529.65,364.93,532.17,368.65Z"/><path class="cls-11" d="M101.84,421.44s-63.23,23.85-26.92,104S174,569.71,174,569.71L101.84,421.44Z"/><path class="cls-12" d="M172.42,570.47c-16.2,7.68-45.14-19.46-64.63-60.62s-22.15-80.74-6-88.41,45.14,19.47,64.63,60.62S188.63,562.8,172.42,570.47Z"/><path class="cls-13" d="M169.49,564.28c-14.26,6.75-40.31-18.36-58.18-56.1s-20.79-73.79-6.53-80.55S145.08,446,163,483.73,183.75,557.53,169.49,564.28Z"/><path class="cls-12" d="M134.42,465.21c-2.56-2.14-6.11-4.14-9-2.57-1.22.65-2.14,1.84-3.48,2.18s-2.77-.24-4,.27a4,4,0,0,0-1.91,2.07c-2.71,5.57.44,12.08,3.52,17.45l24,41.77c2.06,3.6,4.84,7.65,9,7.77,3.46.1,6.43-2.86,7.47-6.17s.57-6.88,0-10.3c-1.74-10.28-4.49-20.55-9.46-29.78C145.89,479.47,141.92,471.51,134.42,465.21Z"/><path class="cls-14" d="M110.62,441.75a77.93,77.93,0,0,0,4.7,7.51,2.28,2.28,0,0,0,3.23.24,2.35,2.35,0,0,0,.24-3.23c-.52-.74-1-1.48-1.51-2.24l.33.52q-1.52-2.32-2.84-4.77a2.3,2.3,0,1,0-4.15,2Z"/><path class="cls-14" d="M121.76,443.88c1.27,2.67,5.41.71,4.15-2s-5.41-.71-4.15,2Z"/><path class="cls-14" d="M121.84,443.85q.91,2.44,1.84,4.88a2.28,2.28,0,0,0,3,1.09,2.26,2.26,0,0,0,1.18-1.3,2.52,2.52,0,0,0-.09-1.75c-.61-1.63-1.23-3.25-1.84-4.88a2.29,2.29,0,0,0-4.23.21,2.51,2.51,0,0,0,.09,1.75Z"/><path class="cls-14" d="M138.1,452.68a6.41,6.41,0,0,0-.94,1.14,6.11,6.11,0,0,0-.64,1.34,6.21,6.21,0,0,0-.24,2.93,1.73,1.73,0,0,0,.35.85,1.81,1.81,0,0,0,.61.65,1.79,1.79,0,0,0,.81.33,1.75,1.75,0,0,0,.88,0l.59-.19a2.29,2.29,0,0,0,.91-.78,2.39,2.39,0,0,0,.37-1.69,3.12,3.12,0,0,1-.05-.44l0,.6a3.47,3.47,0,0,1,.08-1c0,.19-.09.39-.13.58a3.91,3.91,0,0,1,.34-.94l-.27.52a4.17,4.17,0,0,1,.54-.78l-.4.44a1.21,1.21,0,0,1,.16-.16,1.75,1.75,0,0,0,.52-.71,1.62,1.62,0,0,0,.26-.83,1.68,1.68,0,0,0-.12-.89,1.78,1.78,0,0,0-.43-.81,2.3,2.3,0,0,0-3.23-.24Z"/><path class="cls-14" d="M147.11,465.67l-2.19,1.46a1.74,1.74,0,0,0-.53.7,1.72,1.72,0,0,0-.25.84,2.64,2.64,0,0,0,.54,1.69,2.32,2.32,0,0,0,1.54.79l.6,0a2.29,2.29,0,0,0,1.1-.52l2.18-1.46a2.19,2.19,0,0,0,.67-2.42,1.75,1.75,0,0,0-.42-.81,2.32,2.32,0,0,0-1.54-.79l-.6,0a2.29,2.29,0,0,0-1.1.52Z"/><path class="cls-14" d="M157.74,494.84l3,1.06a1.75,1.75,0,0,0,.87.11,1.64,1.64,0,0,0,.89-.2,1.75,1.75,0,0,0,.71-.55,1.72,1.72,0,0,0,.46-.75c0-.19.09-.38.13-.57a2.39,2.39,0,0,0-.21-1.18l-.34-.51a2.3,2.3,0,0,0-1-.67l-3-1.06a2.59,2.59,0,0,0-1.76.09,2.57,2.57,0,0,0-1.17,1.3c-.05.19-.09.38-.13.57a2.39,2.39,0,0,0,.21,1.18l.34.52a2.3,2.3,0,0,0,1,.66Z"/><path class="cls-14" d="M163.78,515.13l3,3.46a2.36,2.36,0,0,0,1.54.79,2.29,2.29,0,0,0,1.93-3.78l-3-3.46a2.36,2.36,0,0,0-1.54-.79,2.33,2.33,0,0,0-1.7.55,2.31,2.31,0,0,0-.78,1.54,2.36,2.36,0,0,0,.54,1.69Z"/><path class="cls-14" d="M164.78,532.07a28.91,28.91,0,0,0,3.54,6.39,2.25,2.25,0,0,0,1.54.79,2.3,2.3,0,0,0,2.48-2.08,2.55,2.55,0,0,0-.55-1.7c-.27-.38-.54-.77-.8-1.17l.34.51a26.72,26.72,0,0,1-2.41-4.7,2.3,2.3,0,0,0-3-1.09,2.34,2.34,0,0,0-1.09,3.05Z"/><path class="cls-14" d="M159,544.84c.52,2.22,1,4.45,1.57,6.67a2.44,2.44,0,0,0,1,1.5,2.3,2.3,0,0,0,3.55-2.29c-.52-2.22-1-4.45-1.57-6.67a2.44,2.44,0,0,0-1-1.5,2.3,2.3,0,0,0-3.55,2.29Z"/><path class="cls-14" d="M147.44,539c-.39,1.54-.78,3.08-1.16,4.61a1.75,1.75,0,0,0-.11.87,1.64,1.64,0,0,0,.2.89,2.34,2.34,0,0,0,1.3,1.17,2.31,2.31,0,0,0,1.75-.08,2.25,2.25,0,0,0,1.18-1.3c.38-1.54.77-3.08,1.15-4.62a1.73,1.73,0,0,0,.12-.87,1.8,1.8,0,0,0-.2-.88,2.35,2.35,0,0,0-1.3-1.18,2.29,2.29,0,0,0-1.76.09,2.24,2.24,0,0,0-1.17,1.3Z"/><path class="cls-14" d="M133.9,526.8a6,6,0,0,1-.56.76l.39-.45a5.33,5.33,0,0,1-1,.88l.51-.33-.38.23a1.78,1.78,0,0,0-.72.55,1.82,1.82,0,0,0-.46.75,1.72,1.72,0,0,0-.11.87,1.61,1.61,0,0,0,.2.88A2.28,2.28,0,0,0,134.8,532a7.35,7.35,0,0,0,1.63-1.14,7.9,7.9,0,0,0,1.26-1.5,2.41,2.41,0,0,0,.36-1.69,2.51,2.51,0,0,0-1-1.5,2.32,2.32,0,0,0-1.69-.37l-.59.19a2.36,2.36,0,0,0-.91.78Z"/><path class="cls-14" d="M120.45,505.78a7.89,7.89,0,0,1-1.2,1l.51-.34a7.93,7.93,0,0,1-1.65.82,1.78,1.78,0,0,0-.72.55,1.82,1.82,0,0,0-.46.75,2.3,2.3,0,0,0,1.39,2.93l.57.12a2.18,2.18,0,0,0,1.18-.21,8.16,8.16,0,0,0,1.55-.74,11.06,11.06,0,0,0,1.82-1.36,2.43,2.43,0,0,0,.79-1.54,1.68,1.68,0,0,0-.12-.89,1.78,1.78,0,0,0-.43-.81,2.28,2.28,0,0,0-3.23-.24Z"/><path class="cls-14" d="M113.34,489.33a3.73,3.73,0,0,1-.71.31l.59-.19a4.3,4.3,0,0,1-1.06.19l.59,0a4.35,4.35,0,0,1-1-.09l.57.12a4.48,4.48,0,0,1-.87-.3,1.76,1.76,0,0,0-.87-.12,1.84,1.84,0,0,0-.89.2,2.37,2.37,0,0,0-1.17,1.3,2.33,2.33,0,0,0,.08,1.76l.34.51a2.13,2.13,0,0,0,1,.66,5.75,5.75,0,0,0,1.45.43,4.19,4.19,0,0,0,1,.09,5.92,5.92,0,0,0,1.51-.16,5.85,5.85,0,0,0,1.46-.55,2.39,2.39,0,0,0,1.18-1.3,2.31,2.31,0,0,0-.09-1.75,2.35,2.35,0,0,0-1.3-1.18,2.31,2.31,0,0,0-1.75.09Z"/><path class="cls-14" d="M112,469a18.76,18.76,0,0,1-2.27-1l.53.26a17.08,17.08,0,0,1-3.06-2,2.3,2.3,0,0,0-3.55,2.29l.19.58a2.23,2.23,0,0,0,.78.91,18.85,18.85,0,0,0,5.84,3.22,2.36,2.36,0,0,0,1.75-.09,2.32,2.32,0,0,0,1.18-1.3,2.26,2.26,0,0,0-.09-1.75A2.32,2.32,0,0,0,112,469Z"/><path class="cls-14" d="M102.82,450.94l2,.71a1.75,1.75,0,0,0,.87.11,1.66,1.66,0,0,0,.89-.2,1.75,1.75,0,0,0,.71-.55,1.72,1.72,0,0,0,.46-.75c0-.19.09-.38.13-.57a2.39,2.39,0,0,0-.21-1.18c-.12-.17-.23-.34-.34-.52a2.37,2.37,0,0,0-1-.66c-.67-.23-1.32-.47-2-.71a1.75,1.75,0,0,0-.87-.11,1.84,1.84,0,0,0-.89.2,1.71,1.71,0,0,0-.71.56,1.74,1.74,0,0,0-.47.74l-.12.58a2.35,2.35,0,0,0,.21,1.17c.11.18.23.35.34.52a2.13,2.13,0,0,0,1,.66Z"/><path class="cls-15" d="M70.44,468.86c-.77,5.56-1.46,11.42.61,16.64.74,1.89,2.5,3.92,4.43,3.27,1.56-.53,2.06-2.45,2.29-4.09.5-3.57.86-7.25,2.52-10.45,2.83-5.46,11-16.57,4-22.82C76.93,444.93,71.05,464.41,70.44,468.86Z"/><path class="cls-6" d="M146.53,492.77c9.13-5.87,22.6-3.52,29.21,5.09,7.93-10.76,24.55-12.82,36.11-6.12s18,20.41,18.13,33.78c18.78-6.07,38.59,7.64,49.57,24,1.82,2.72,3.59,5.62,6.31,7.43,3.3,2.21,7.47,2.48,11.41,3,33.24,4.23,62.17,31.75,68.05,64.75,1.8,10.09,1.41,21.21-4.41,29.65-4.67,6.77-12.17,10.92-19.39,14.85-8.28,4.48-16.88,9.07-26.27,9.71-26.94,1.83-44.67-27.51-69.23-38.73-20-9.14-43.23-5.6-63.25-14.34-15.6-6.81-31.18-20.68-45-30.91-11.68-8.65-19.13-17.78-23.55-31.85-5.51-17.5-3.08-50.64,24.33-42.06C134.58,511.14,137.19,498.76,146.53,492.77Z"/><path class="cls-16" d="M789.54,475.75H772.86c-2.74,61.62-131.92,95.45-368.07,95.45C176.24,571.2,41,526.72,36.72,475.75H20s-5.92,79,38.22,174.27c66.2,142.94,157.7,168.7,157.7,168.7l187,3.61,187-3.61S681.36,793,747.56,650C791.7,554.71,789.54,475.75,789.54,475.75Z"/><path class="cls-17" d="M645.61,864.55c0,24.57-105.8,44.48-236.31,44.48S173,889.12,173,864.55s105.79-44.47,236.3-44.47S645.61,840,645.61,864.55Z"/><path class="cls-16" d="M593.63,849.75v-33L404.78,793,215.93,818.72v31s-1.59,14.94,55.69,34.68c78.32,27,205.6,18.11,266.32,0C596,867.12,593.63,849.75,593.63,849.75Z"/><path class="cls-18" d="M537.8,884.43c58.06-17.31,55.69-34.68,55.69-34.68v-33l-86.58-10.89-.41.24c-9.93,6-19.47,11.39-20.22,23.74-.79,13,6.28,28.72.65,41.12-3.46,7.64-12.58,10.65-20.76,12.48-62.53,13.92-128,5.36-190.23-9.69C256.5,869,236.76,863.5,220.4,852a22.64,22.64,0,0,0-4.6-2.52v.28s-1.6,14.94,55.68,34.68C349.81,911.43,477.08,902.54,537.8,884.43Z"/><path class="cls-19" d="M112.46,596.86c-4,10.59-.61,22.41,3.37,33,10.88,29,26.12,56.28,43.37,82,12.4,18.53,27.92,37.7,49.83,41.84,7.69,1.45,16,.8,22.82-3s12-11,12.18-18.83c.19-8-4.44-15.13-8.63-21.91-10.24-16.57-18.88-34.36-23.18-53.36-2.87-12.62-3.92-26-10.4-37.22C190.71,600.23,124.94,563.64,112.46,596.86Z"/><path class="cls-19" d="M245,831.3a10.28,10.28,0,0,0-5.23,1.19c-3.2,2-3.59,6.81-1.76,10.11s5.23,5.39,8.58,7.13c13.89,7.23,29.33,10.92,44.74,13.71,5.91,1.08,12.22,2,17.76-.34s9.6-9.18,6.83-14.51c-2.63-5.06-9.34-6-15-6.5C282.35,840.38,263.13,830.74,245,831.3Z"/><path class="cls-18" d="M788.65,475.75H772.11c-1.53,34.53-42.77,60.33-120.3,76.35A297.53,297.53,0,0,1,620.5,649C566.63,752,515.58,780.7,453.14,801.94,375.67,828.3,285,821.68,285,821.68s91,20.78,163.88,20.78c72.53,0,140.13-23.74,140.13-23.74S680.48,793,746.68,650C790.82,554.71,788.65,475.75,788.65,475.75Z"/><path class="cls-20" d="M789.23,469.87h-16.5a45.76,45.76,0,0,1,.16,5.25c-1.87,62-131.14,96.08-368.1,96.08-229.5,0-364.9-44.85-368.13-96.08.17-1.78.39-3.53.67-5.25H20.57c-.29,1.93-.53,3.89-.7,5.88,3.38,57.43,144.9,107.7,384.78,107.7,247.69,0,382.8-38.19,384.75-107.7A50,50,0,0,0,789.23,469.87Z"/><path class="cls-7" d="M63.88,361.36,60.32,388s10.61,40.25,67.41,54.61c63.92,16.18,113.48,1.43,117-37.85.57-6.37-6.56-24.45-6.56-24.45L62.89,359.8Z"/><ellipse class="cls-8" cx="151.51" cy="375.15" rx="45.89" ry="88.86" transform="translate(-245.68 452.17) rotate(-78.98)"/><path class="cls-9" d="M233.29,388.23c-1.11,19.34-38.23,32.57-82.8,25.55s-82.29-33.15-81.18-52.5,41.46-33.89,86-26.87S234.41,368.89,233.29,388.23Z"/><path class="cls-10" d="M101.52,361.35c-1.51-1.35-3.08-3.08-3-5,.08-3.13,4-4.06,7-3.89a47.46,47.46,0,0,1,18.72,5.17,31.65,31.65,0,0,1-4.16-8.22,2.91,2.91,0,0,1-.16-1.87c.52-1.33,2.51-.84,3.84-.13a87.87,87.87,0,0,1,18.91,13.56,19.78,19.78,0,0,1-2.71-9.31c.06-3.19,1.59-6.34,4.37-7.52,3.64-1.54,8.3.76,10.91,4.22s3.62,7.8,4.4,12A26.07,26.07,0,0,1,180,356.57c1.68.38,3.58,1.11,4.28,2.76,1.08,2.53-1.47,4.69-3.69,5.88,8.4-1.3,17.81,2.32,23.9,9.19a4,4,0,0,1,1.36,3,3,3,0,0,1-.91,1.61c-3.13,3.4-7.78,5-12.49,5.38s-9.54-.36-14.32-1.1A61.68,61.68,0,0,1,191,391.71a2.74,2.74,0,0,1,1.11,1.57,2,2,0,0,1-.5,1.39c-3.34,4.66-10.33,5.19-16,2.89s-10.3-6.83-14.76-11.23c2.13,3.23,3.61,7.17,2.8,10.72s-4.62,6.2-8.09,4.73a10.53,10.53,0,0,1-3.85-3.29,39.06,39.06,0,0,1-7.21-13.66,11.91,11.91,0,0,1-12.58,10.33,6.07,6.07,0,0,1-4.37-2,5,5,0,0,1-.25-5.48,12.34,12.34,0,0,1,3.9-3.81c-4.52,2.23-10.38,4.05-14.63.55-1.27-1.05-2.28-2.82-1.71-4.26a4,4,0,0,1,2.1-1.86c2.19-1.14,8-2.24,9-4.41C117,370.87,109,368,101.52,361.35Z"/><path class="cls-21" d="M445.81,405.15c11.29-4.6,24.63-5,35.43.63,2.33,1.23,5.64,2.54,7.2.42a4.81,4.81,0,0,0,.45-3.66c-2.16-13.05-14.15-23.79-27.35-24.51-10-.55-19.54,4-28.19,9.05a211.11,211.11,0,0,0-18.24,12c-7.47,5.46-15.17,11.93-18.84,20.67-2.73,6.49-4.06,20.17,5.05,22.4s13.4-11.11,17.91-16.5C426.43,417,435.32,409.43,445.81,405.15Z"/><path class="cls-22" d="M471.42,377.06c-14.32-2.34-29.09,1.79-41.82,8.76S405.86,402.46,395,412.05c-11.41,10-10.94,30.49-3.91,43a41.64,41.64,0,0,0,32.37,20.52c13.08,1.07,25.84-4,37.61-9.79,12.38-6.11,24.58-13.4,33.28-24.13s13.44-25.48,9.32-38.66C499.31,389.13,485.74,379.41,471.42,377.06Zm5.05,38.55c-3.69,7.2-10.53,12.24-17.51,16.33a127.29,127.29,0,0,1-20.66,9.74c-6,2.19-12.27,3.94-18.61,3.5s-12.8-3.42-16.06-8.88c-12.82-21.44,20.58-38.24,35.28-44.24,8.16-3.33,17.26-5,25.87-3a20.1,20.1,0,0,1,8.94,4.21C479.79,398.59,480.16,408.41,476.47,415.61Z"/><path class="cls-21" d="M169.2,218.22c11.29-4.61,24.63-5,35.43.63,2.34,1.22,5.64,2.54,7.2.42a4.83,4.83,0,0,0,.46-3.67c-2.17-13-14.15-23.78-27.36-24.51-10-.54-19.54,4-28.18,9.06A209.64,209.64,0,0,0,138.5,212.1c-7.47,5.47-15.17,11.94-18.84,20.68-2.73,6.49-4.06,20.17,5,22.4s13.4-11.11,17.91-16.51C149.82,230.05,158.71,222.49,169.2,218.22Z"/><path class="cls-22" d="M194.81,190.13c-14.32-2.35-29.09,1.79-41.82,8.75s-23.74,16.64-34.63,26.23c-11.41,10-10.94,30.5-3.91,43a41.62,41.62,0,0,0,32.37,20.53c13.08,1.07,25.85-4,37.61-9.79,12.38-6.11,24.58-13.41,33.28-24.13S231.15,229.23,227,216C222.7,202.19,209.13,192.47,194.81,190.13Zm5.05,38.55c-3.69,7.2-10.53,12.24-17.51,16.33a126.9,126.9,0,0,1-20.66,9.74c-6,2.18-12.27,3.94-18.61,3.49s-12.8-3.41-16.06-8.87c-12.82-21.44,20.58-38.25,35.28-44.24,8.16-3.33,17.26-5,25.87-3a19.89,19.89,0,0,1,8.94,4.21C203.18,211.66,203.55,221.47,199.86,228.68Z"/><path class="cls-21" d="M665.73,223.31c9.1,8.12,15.35,19.91,15,32.1-.08,2.64.19,6.18,2.79,6.66a4.89,4.89,0,0,0,3.49-1.21c10.77-7.68,15.14-23.17,10-35.35-3.91-9.22-12.19-15.78-20.52-21.33a210.8,210.8,0,0,0-18.76-11.13c-8.19-4.31-17.39-8.38-26.86-7.84-7,.4-19.9,5.22-17.89,14.38s15.86,7.16,22.69,8.84C646.58,211.11,657.28,215.77,665.73,223.31Z"/><path class="cls-22" d="M702.22,234c-4.19-13.89-14.4-25.35-26.25-33.72s-25.38-14-38.78-19.57c-14-5.84-32.2,3.58-40.33,15.38a41.61,41.61,0,0,0-4.21,38.1c4.79,12.21,14.94,21.46,25.32,29.48,10.94,8.43,22.85,16.18,36.31,19.29s28.8.87,38.82-8.63C703.64,264.32,706.41,247.86,702.22,234Zm-32.41,21.48c-8.09-.15-15.62-4.08-22.36-8.55a127,127,0,0,1-17.83-14.28c-4.59-4.4-8.93-9.28-11.32-15.18s-2.56-13,.91-18.33c13.62-20.93,43.4,1.69,55.24,12.25,6.58,5.87,12.06,13.32,14.1,21.9a19.81,19.81,0,0,1,.15,9.88C686.56,251,677.9,255.59,669.81,255.45Z"/><path class="cls-21" d="M451.16,101.31c11.36-4.17,24.13-4.55,33.7.59,2.07,1.11,5.05,2.31,6.82.38a4.52,4.52,0,0,0,.89-3.32c-.39-11.83-10.44-21.57-22.94-22.23-9.47-.5-19.14,3.62-28,8.19q-9.69,5-18.92,10.83c-7.82,5-16,10.81-20.61,18.74-3.43,5.88-6.44,18.29,2,20.31s14.19-10.06,19.18-15C431.18,112,440.62,105.18,451.16,101.31Z"/><path class="cls-22" d="M479.17,75.86c-13.35-2.14-28,1.6-41,7.91s-24.75,15.08-36.36,23.77c-12.17,9.1-14.33,27.64-9.22,39,4.74,10.51,15.74,17.64,28.23,18.63,12.33,1,25.15-3.6,37.11-8.86,12.59-5.53,25.14-12.14,34.81-21.86s16.07-23.1,13.83-35C504.22,86.81,492.53,78,479.17,75.86Zm-.11,35c-4.44,6.53-11.6,11.09-18.78,14.8a145.15,145.15,0,0,1-20.94,8.82c-6,2-12.2,3.56-18.19,3.16s-11.76-3.11-14.18-8.06c-9.48-19.44,24.51-34.66,39.29-40.09,8.21-3,17.09-4.5,25.05-2.74a16.62,16.62,0,0,1,8,3.82C484.4,95.38,483.5,104.28,479.06,110.81Z"/><path class="cls-4" d="M356.86,126.18a131,131,0,0,0-21.5,1.11l.51-5.56a33.63,33.63,0,0,0-17.28,17.42,52.3,52.3,0,0,0-16-24.77l-5.89,8.12-16.14-7.88a47.91,47.91,0,0,0-.84,21.53l-10.17.85a75.52,75.52,0,0,0,23.76,22.63q-8.7,1.47-17.31,3.47a17,17,0,0,0,6.47,7.23,34.88,34.88,0,0,0-14.31,3.54A20.14,20.14,0,0,0,283,181l-5.82,4.77c1.91,2.23,5.41,1.84,8.29,1.26,5.58-1.13,11.52-1.14,16.75-3.4a67.14,67.14,0,0,1,23.07-5.33c3.34,3,8.36,5.09,12.47,6.54,1.23.43,15.79,3.73,15.79,2.69a47.79,47.79,0,0,0-.61-7.37,40.75,40.75,0,0,1-20.56-4.49c.82-3.38,1.61-13.8,8.37-19.49,1.73-1.46,14.23-15.85,14.62-15.81l-5.84-.62A42.8,42.8,0,0,1,356.86,126.18Z"/><path class="cls-4" d="M552.65,252a129.94,129.94,0,0,0,.9-21.51l5.5,1a33.59,33.59,0,0,0-15.74-18.83,52.34,52.34,0,0,0,26.16-13.59l-7.53-6.62,9.35-15.34a47.83,47.83,0,0,0-21.36-2.84c0-3.4.07-6.81.11-10.21a75.36,75.36,0,0,0-24.75,21.54q-.66-8.81-1.85-17.55a17.07,17.07,0,0,0-7.8,5.76,34.46,34.46,0,0,0-2.19-14.57A20.15,20.15,0,0,0,505,173.35l-4.2-6.24c-2.4,1.7-2.34,5.22-2,8.14.6,5.67,0,11.58,1.81,17a67.06,67.06,0,0,1,3.16,23.47c-3.3,3-5.85,7.84-7.68,11.79-.55,1.19-5.19,15.38-4.15,15.47a46.87,46.87,0,0,0,7.4.09,40.43,40.43,0,0,1,3.29-14.23,41.56,41.56,0,0,1,3.09-5.82c3.29,1.13,13.59,2.89,18.63,10.15,1.29,1.86,14.45,15.65,14.38,16q.57-2.88,1.16-5.76A42.62,42.62,0,0,1,552.65,252Z"/><path class="cls-4" d="M712.56,316a131.09,131.09,0,0,0,21.34-2.87c0,1.86,0,3.72,0,5.59A33.64,33.64,0,0,0,749.64,300a52.38,52.38,0,0,0,18,23.37q2.6-4.29,5.2-8.57l16.73,6.52a47.77,47.77,0,0,0-.94-21.53l10.07-1.68a75.34,75.34,0,0,0-25.54-20.6q8.55-2.19,17-4.89a17.08,17.08,0,0,0-7-6.67,34.63,34.63,0,0,0,14-4.7,20.12,20.12,0,0,0-15.37-5.84l5.41-5.23c-2.09-2.06-5.55-1.39-8.37-.57-5.47,1.59-11.39,2.08-16.42,4.76a67.21,67.21,0,0,1-22.55,7.22c-3.57-2.72-8.75-4.39-13-5.49-1.26-.34-16-2.42-16-1.39A47.32,47.32,0,0,0,712,262a40.66,40.66,0,0,1,20.86,2.78c-.54,3.44-.47,13.89-6.73,20.12-1.61,1.59-12.88,17-13.27,17l5.86.13A42.44,42.44,0,0,1,712.56,316Z"/><path class="cls-4" d="M95.45,112.42a131.67,131.67,0,0,0,8,20L98,133.73a33.65,33.65,0,0,0,22.06,10.76,52.37,52.37,0,0,0-18.32,23.09l9.58,3q-1.12,8.89-2.27,17.81a47.84,47.84,0,0,0,20.66-6.13l4.08,9.35a75.41,75.41,0,0,0,13.78-29.77q4.2,7.75,8.86,15.27a17,17,0,0,0,4.76-8.45,34.77,34.77,0,0,0,8,12.4,20.16,20.16,0,0,0,1.92-16.33l6.39,4c1.5-2.53,0-5.72-1.47-8.26-2.87-4.92-4.79-10.54-8.61-14.77a67.16,67.16,0,0,1-12.48-20.13c1.78-4.12,2.14-9.55,2.19-13.9,0-1.31-1.55-16.16-2.53-15.82a47.55,47.55,0,0,0-6.79,3,40.6,40.6,0,0,1,2.81,14.33,41.42,41.42,0,0,1-.44,6.58c-3.47.31-13.59,2.91-21.15-1.65-1.94-1.17-19.59-8.38-19.68-8.76l1.29,5.72A42.5,42.5,0,0,1,95.45,112.42Z"/><path class="cls-4" d="M343.29,11.94A95,95,0,0,0,349,26.3l-3.9.94A24.18,24.18,0,0,0,361,35,37.55,37.55,0,0,0,347.8,51.54l6.88,2.13q-.82,6.39-1.63,12.79a34.16,34.16,0,0,0,14.83-4.41l2.93,6.72a54.07,54.07,0,0,0,9.89-21.38q3,5.58,6.36,11a12.22,12.22,0,0,0,3.42-6.07,25.07,25.07,0,0,0,5.71,8.91,14.5,14.5,0,0,0,1.39-11.73l4.58,2.86c1.08-1.82,0-4.11-1.06-5.93-2.06-3.54-3.43-7.57-6.17-10.61a48,48,0,0,1-9-14.45c1.27-3,1.53-6.85,1.57-10,0-.94-1.12-11.6-1.82-11.36a34,34,0,0,0-4.87,2.12,29.21,29.21,0,0,1,2,10.29,28.67,28.67,0,0,1-.33,4.72c-2.48.22-9.75,2.09-15.18-1.18-1.39-.84-14.06-6-14.13-6.29l.93,4.11A30.74,30.74,0,0,1,343.29,11.94Z"/><path class="cls-4" d="M552,100a94.64,94.64,0,0,0,14.13,6.24L564,109.63a24.15,24.15,0,0,0,16.72-5.57,37.57,37.57,0,0,0,2.21,21q3.21-1.63,6.4-3.29,3.9,5.14,7.79,10.28a34.24,34.24,0,0,0,7.52-13.53l6.79,2.75a54.14,54.14,0,0,0-7.9-22.2q6.06,1.88,12.22,3.38a12.32,12.32,0,0,0-1.8-6.72,25,25,0,0,0,10.31,2.36,14.44,14.44,0,0,0-7.22-9.34l5.27-1.17c-.5-2.05-2.87-2.94-4.9-3.5-3.95-1.08-7.75-3-11.84-3.25a48.1,48.1,0,0,1-16.51-4.05c-1.16-3-3.71-6-5.87-8.23-.65-.67-8.91-7.5-9.24-6.83a33.41,33.41,0,0,0-2,4.92,29,29,0,0,1,8.65,5.93,28.48,28.48,0,0,1,3.07,3.6c-1.61,1.9-5.5,8.32-11.67,9.78-1.58.38-14.25,5.55-14.49,5.4l3.54,2.28A30.55,30.55,0,0,1,552,100Z"/></g></g></svg>