<svg xmlns="http://www.w3.org/2000/svg" viewBox="0 0 853.63 842.36"><defs><style>.cls-1{fill:#f7d3b0;}.cls-2{fill:#e2bfa3;}.cls-3{fill:#cead97;}.cls-4{fill:#629b4b;}.cls-5{fill:#79ba5b;}.cls-6{fill:#6fb56b;}.cls-7{fill:#81cc7a;}.cls-8{fill:#89e269;}.cls-9{fill:#5d9b5a;}.cls-10{fill:#8fc687;}.cls-11{fill:#b0eda9;}.cls-12{fill:#c1ffb8;}.cls-13{fill:#d88d7d;}.cls-14{fill:#ffa992;}.cls-15{fill:#ea988b;}.cls-16,.cls-19,.cls-25{fill:#fff;}.cls-16{opacity:0.35;}.cls-17{fill:#ffecd7;}.cls-18{fill:#ffdc31;}.cls-19{opacity:0.52;}.cls-20{fill:#0a0b0c;}.cls-21{fill:#36383f;}.cls-22{fill:#9cd6e8;}.cls-23{fill:#e7f2f0;}.cls-24{fill:#96c8e2;}.cls-25{opacity:0.38;}.cls-26{fill:#b8f0ff;}</style></defs><g id="Layer_2" data-name="Layer 2"><g id="Layer_2-2" data-name="Layer 2"><path class="cls-1" d="M20,406c3.37,57.43,144.89,107.69,384.77,107.69,247.69,0,382.8-38.18,384.76-107.69S657.37,285.5,410.65,286.55C202.86,287.44,28.82,302.22,20,406Z"/><path class="cls-2" d="M36.66,405.36c3.23,51.24,138.63,96.09,368.13,96.09,237,0,366.22-34.07,368.1-96.09S646.44,297.86,410.4,298.8c-198.8.79-365.31,14-373.74,106.56Z"/><path class="cls-3" d="M36.66,405.54c2.59,41.08,90.12,78,243,91.09q-12.31-8.36-23.92-17.68A374.54,374.54,0,0,1,146.6,335.31c-2-4.7-4.2-9.62-6.28-14.67C79.54,336,40.63,362,36.66,405.54Z"/><path class="cls-4" d="M684.2,282.5c.71-6.92,3.47-13.47,6.71-19.63,3.1-5.89,6.74-11.62,11.77-16s11.62-7.23,18.24-6.65a30.92,30.92,0,0,1,34.85-6.06c1.43.7,2.94,1.54,4.52,1.32a7.78,7.78,0,0,0,3.63-2.07,41.08,41.08,0,0,1,40-6.19c1.78.7,3.64,1.54,5.53,1.24s3.18-1.5,4.77-2.29c4.4-2.18,9.64-.94,14.39.35l25,6.79a38,38,0,0,1-10.84,21.55c-1.42,1.39-3,2.78-3.55,4.7a12.14,12.14,0,0,0,.09,4.8c1.62,13.53-8.86,27.38-22.32,29.5,2.07,7.77-3,15.78-9.18,20.91a46.36,46.36,0,0,1-38.8,9.44c-.23,7-8.28,11.57-15.25,10.88s-13-5-18.78-8.9a281.44,281.44,0,0,0-34.67-20c-4.63-2.24-10-3.42-13.09-7.53S683.7,287.44,684.2,282.5Z"/><path class="cls-4" d="M662,230.71a90.31,90.31,0,0,0-39.29-45.94,23.65,23.65,0,0,1-4-2.6,24.11,24.11,0,0,1-3.76-4.7,73.27,73.27,0,0,0-40.63-28.63c1.92,5.29,3.87,10.81,3.23,16.4-.79,6.91-5.38,12.7-8.17,19.07a38.54,38.54,0,0,0,.7,32,9.17,9.17,0,0,1,1.18,8.48c-3.43,15.49,3.8,32.77,17.24,41.19L661,287.14l2.08,4A90.29,90.29,0,0,0,662,230.71Z"/><path class="cls-5" d="M809.7,257.1c8.61-5.09,17.24-10.18,26.35-14.3a87.37,87.37,0,0,0-13.63,10.75c-1.44,1.38-2.93,3.36-2.11,5.17s3.27,1.95,5.21,2.41,4,2.69,2.65,4.16c-10.41.36-21.48.92-30,6.91a91.11,91.11,0,0,0,18.09,4.08c-4.93,4.07-12,3.71-18.37,4.14a61.2,61.2,0,0,0-26.4,8A5.07,5.07,0,0,0,768.9,291c-.68,2.31,1.9,4.21,4.16,5,9.25,3.41,20.14,2.94,28,8.95-1.39,3.28-5.5,4.33-9.06,4.6-15.33,1.15-30.88-4.28-46-1.26-1.33.27-2.92.89-3,2.24a36.89,36.89,0,0,1,14.36,6.19c-6.22,3.78-14.2,2.46-21.19.43-4-1.15-11.87-1.47-15.17-3.5-3.1-1.92-1.22-3.06,1.9-5.3,9.12-6.56,19.76-11.68,29.44-17.4Z"/><path class="cls-5" d="M625.08,272.85q13.56,4,27.34,7.35a4.56,4.56,0,0,0,2.73.09c1.79-.7,1.92-3.41.69-4.89s-3.22-2-5.09-2.5l-12.85-3.24c-1.51-.38-3.27-1-3.65-2.52a3.6,3.6,0,0,1,.78-2.79c4.65-6.67,16.31-5.53,20.27-12.63,1-1.73,1-4.41-.77-5.25a4,4,0,0,0-1.79-.28c-4,.07-7.76,1.58-11.37,3.23s-8.49,3-10.62-.22,1.08-7.25,4.52-8.74,7.54-1.94,10.11-4.67c1.15-1.21,1.84-3.22.78-4.5a3.59,3.59,0,0,0-2.1-1.08c-3.46-.71-7,.76-10.18,2.23-2.17,1-4.68,2-6.84,1-2.35-1.1-3.13-4.24-2.39-6.73s2.59-4.46,4.39-6.33l7.57-7.91c2.31-2.4,4.66-6.27,2.37-8.68-2-2-5.35-.84-7.84.47l-9.23,4.86c-1.63.85-4.1,1.46-4.9-.19a3.46,3.46,0,0,1,.29-2.76q1.58-3.94,3.17-7.89c-2.29-1.68-5.5,2.82-7.91,1.34-1.08-.66-1.23-2.18-1-3.41.49-2.3,2-4.25,2.76-6.45s.71-5.11-1.26-6.39a4.61,4.61,0,0,0-5.17.59,13.56,13.56,0,0,0-3.27,4.44c-1.51-4-5.61-19.13-22.89-33,2.14,7.91,18,29.24,21.58,36.87a243.76,243.76,0,0,1,17.71,53.35C621.6,248.34,624,272.54,625.08,272.85Z"/><path class="cls-6" d="M208.52,464.62c-2.82-3-6.08-5.76-8-9.41-2.09-3.9-2.48-8.46-3.6-12.74a38.39,38.39,0,0,0-23.21-25.78c-2.89-1.09-6.1-1.95-8-4.39s-1.91-5.87-2.28-9a32.93,32.93,0,0,0-21.94-26.79c-3.56-1.17-7.44-1.77-10.41-4-6.6-5-5.57-15.25-9.49-22.56-2.21-4.11-5.93-7.16-9.56-10.1L93.29,324.66c-6.41-5.19-13.25-10.58-21.42-11.72-4.22-.59-8.89-.09-12.39-2.53-3.18-2.22-4.45-6.23-6.26-9.66-7.91-15-30.54-19.23-43.51-8.37S-3.2,326,9.68,337C.48,344.45-.19,358.91,5,369.58S19.74,388,29.1,395.24c2.36,1.84,4.81,3.75,6.2,6.41,2,3.82,1.44,8.4,1.48,12.72.16,19.41,14.84,37.78,33.74,42.22l148.11,57.33A49.45,49.45,0,0,0,208.52,464.62Z"/><path class="cls-6" d="M174,356.72c-8-10.28-16-20.73-21-32.75s-6.49-26.05-1.24-37.94c1.35-3,3.13-6,3.6-9.26.56-3.92-.81-7.82-1.58-11.7a38.95,38.95,0,0,1,51.54-44.14,27.72,27.72,0,0,1,45.16,23.42c10.2-2.68,21.06,3.91,26.48,13s6.53,20,7,30.51a46.7,46.7,0,0,1,47.22,61.33c14.36,11.59,28.21,25.9,31.56,44.05s-8.58,39.94-27,40.65c10.26,1,15,14.84,10.55,24.16S332,472.63,322.56,476.65a231.7,231.7,0,0,1-60.21,16.4c-12.22,1.6-25,2.17-36.53-2.13-25.31-9.41-37-37.36-46-60.65C171.84,409.67,146.59,374,174,356.72Z"/><path class="cls-6" d="M534.63,300.47a30.13,30.13,0,0,1,32.64-11.91c1.33-14.94,13.74-28.16,28.56-30.44s30.62,6.62,36.37,20.47c9.48-7.74,25.1,1.16,27.67,13.13s-3.78,24-11.25,33.71c9.84,3,14.62,14.94,13.1,25.11s-7.7,19-13.7,27.33c12.84,9.63,15.42,29.44,7.6,43.46s-24,22.1-40,22.81c-16.74.74-30.67-6.11-45.26-13.08-51.65,63.67-120.33-85.23-34.6-96.16C529.08,324.57,527.56,311.11,534.63,300.47Z"/><path class="cls-7" d="M606.4,361.83c6.94-11.5,15.17-22.44,25.8-30.65,7.76-6,16.61-10.38,25.39-14.73,24.2-12,53.62-23.89,76.83-10.08,4.24,2.52,8,5.81,12.47,7.95,9.83,4.73,21.34,3.2,32.25,3.14,11.1-.06,22.58,1.66,32,7.61s16.2,16.82,14.91,27.85c-.68,5.82-3.49,11.3-3.57,17.16-.07,5.05,1.9,9.88,2.62,14.88,1.83,12.75-6.55,27-19.25,29.14-4.47.77-9.08.1-13.56.76-19.78,2.88-28.17,28.32-46.62,36-5.19,2.16-10.89,2.77-16.24,4.48-5.7,1.82-10.92,4.86-16.35,7.36-34.85,16-79.44,7.56-106-20.15C583.76,418.21,590.33,388.45,606.4,361.83Z"/><path class="cls-6" d="M540.66,455.55c1.78.41,3.68,1.07,5.37.37,2.15-.88,2.89-3.48,3.67-5.68,4.44-12.49,19.59-20,32.22-16,2.73.87,5.45,2.22,8.3,1.91,4-.44,6.87-3.94,10.07-6.4,8.16-6.31,20.82-5.81,28.46,1.11,2.08,1.87,3.86,4.19,6.41,5.35,2.75,1.26,6,.95,8.88,1.8,10.13,3,12.72,18.08,22.9,20.88,6.65-11.25,23.74-13.05,34.47-5.59s15.35,21.53,14.52,34.57C714.11,516.79,685.85,541.29,657,539c-13-1-25.38-6.67-38.4-6.62-12.55,0-24.39,5.37-36.05,10-28.29,11.25-56.44,7.27-65-25C512.76,499.14,505,447.24,540.66,455.55Z"/><path class="cls-8" d="M322.4,405c-7.15-14.47-7.66-32.51,1.93-45.69,8.1-11.14,21.83-17.28,34.91-22.91-17.16-15.95-21.32-42.79-9.69-62.65s38-31,61.65-26.09c-5.27-17.45,9.27-36.85,28.18-40.85s39.28,5.57,50.05,20.65c13.23-8,32.68-5.11,42.64,6.31s9,29.82-2,40.34c18.75,15.65,20.59,45.84,3.87,63.39,10.13,8.07,15.58,21,14.07,33.35s-9.93,23.81-21.74,29.53c2.44,8.1,4.82,17.09.82,24.62-4.66,8.81-16.35,12.21-26.86,12.44s-21.15-1.75-31.45.22c4,9.85-4.08,21.06-14.44,25.2s-22.11,3.1-33.31,2l-37.78-3.73c-7.07-.7-14.5-1.53-20.23-5.45-6.62-4.53-9.15-15.62-15.25-21.8C338.36,424.3,328.47,417.26,322.4,405Z"/><path class="cls-9" d="M400.91,355.09,395,365.65s12.79,11.82,26,15,44.87-4.26,44.87-4.26L623.25,264.3l-4.8-6.87L510.87,296.27l-110,58.82Z"/><path class="cls-10" d="M427,316.3l-26.11,38.79s10.88,11.86,21.26,13.1S460,364.88,460,364.88L427,316.3Z"/><path class="cls-11" d="M427,316.3C431,313.83,587.66,226,587.66,226l30.79,31.45L460,364.88Z"/><path class="cls-12" d="M449.18,310.86a46,46,0,0,0-6.53,5.67c-2.12,2.23-4.06,5.53-2.32,8.07,1.13,1.67,3.52,2.25,5.56,1.87a15.13,15.13,0,0,0,5.52-2.63c5.22-3.49,10.39-7.39,13.38-12.74.61-1.08,1-2.61,0-3.4a3.09,3.09,0,0,0-2.21-.37,35.19,35.19,0,0,0-14.16,4.5Z"/><path class="cls-12" d="M467.29,319.2a45.33,45.33,0,0,0-6.53,5.67c-2.12,2.23-4.06,5.53-2.33,8.07,1.14,1.67,3.53,2.24,5.57,1.87a15,15,0,0,0,5.52-2.64c5.22-3.48,10.39-7.38,13.38-12.73.61-1.09,1-2.61,0-3.4a3,3,0,0,0-2.21-.37,35.08,35.08,0,0,0-14.17,4.5Z"/><path class="cls-12" d="M482,292.84a46,46,0,0,0-6.53,5.67c-2.12,2.23-4.06,5.53-2.33,8.08,1.14,1.67,3.52,2.24,5.57,1.87a15.31,15.31,0,0,0,5.52-2.64c5.21-3.48,10.39-7.39,13.38-12.74.61-1.08,1-2.61,0-3.4a3.15,3.15,0,0,0-2.21-.37,35,35,0,0,0-14.17,4.51Z"/><path class="cls-12" d="M499.19,300.09a46,46,0,0,0-6.53,5.67c-2.12,2.23-4.06,5.53-2.33,8.07,1.14,1.67,3.52,2.25,5.57,1.87a15.13,15.13,0,0,0,5.52-2.63c5.21-3.49,10.39-7.39,13.38-12.74.61-1.08,1-2.61,0-3.4a3.1,3.1,0,0,0-2.21-.37,35.19,35.19,0,0,0-14.17,4.5Z"/><path class="cls-12" d="M509.08,274.69a45.33,45.33,0,0,0-6.53,5.67c-2.12,2.23-4.06,5.53-2.32,8.07,1.13,1.67,3.52,2.24,5.56,1.87a15,15,0,0,0,5.52-2.64c5.22-3.48,10.39-7.38,13.38-12.73.61-1.09,1-2.61,0-3.4a3,3,0,0,0-2.21-.37,35,35,0,0,0-14.16,4.5Z"/><path class="cls-12" d="M532,278a46,46,0,0,0-6.53,5.67c-2.12,2.23-4.06,5.53-2.33,8.07,1.14,1.67,3.53,2.25,5.57,1.87a15,15,0,0,0,5.52-2.64c5.22-3.48,10.39-7.38,13.38-12.73.61-1.09,1-2.61,0-3.4a3,3,0,0,0-2.21-.37,35.24,35.24,0,0,0-14.17,4.5Z"/><path class="cls-12" d="M546.4,255.61a44.72,44.72,0,0,0-6.53,5.67c-2.12,2.22-4.06,5.52-2.32,8.07,1.13,1.67,3.52,2.24,5.56,1.87a15.15,15.15,0,0,0,5.52-2.64c5.22-3.48,10.39-7.39,13.38-12.74.61-1.08,1-2.6,0-3.39a3.09,3.09,0,0,0-2.21-.38,35.05,35.05,0,0,0-14.16,4.51Z"/><path class="cls-12" d="M572.93,258.09a44.72,44.72,0,0,0-6.53,5.67c-2.12,2.22-4.06,5.53-2.33,8.07,1.14,1.67,3.52,2.24,5.57,1.87a15.15,15.15,0,0,0,5.52-2.64c5.21-3.48,10.39-7.39,13.38-12.74.6-1.08,1-2.6,0-3.39a3.12,3.12,0,0,0-2.22-.38,35.05,35.05,0,0,0-14.16,4.51Z"/><path class="cls-12" d="M578,237.74a44.72,44.72,0,0,0-6.53,5.67c-2.12,2.22-4.06,5.53-2.33,8.07,1.14,1.67,3.52,2.24,5.57,1.87a15.15,15.15,0,0,0,5.52-2.64c5.21-3.48,10.39-7.39,13.38-12.74.61-1.08,1-2.6,0-3.39a3.1,3.1,0,0,0-2.21-.38,35,35,0,0,0-14.17,4.51Z"/><path class="cls-9" d="M31.9,264.26l-12.1.42s-3.48,17.06.6,30,26.88,36.17,26.88,36.17L224.7,407.46l3.4-7.66-88.94-71.92L31.9,264.26Z"/><path class="cls-10" d="M78.61,266.52,31.9,264.26s-4.52,15.46-.19,25S54.14,319.9,54.14,319.9l24.47-53.38Z"/><path class="cls-11" d="M78.61,266.52c4.17,2.12,160.44,90.65,160.44,90.65l-11,42.63-174-79.9Z"/><path class="cls-12" d="M94.73,282.66A45.4,45.4,0,0,0,86.5,280c-3-.65-6.83-.6-8.11,2.2-.84,1.83-.09,4.17,1.28,5.73a15.11,15.11,0,0,0,5.12,3.35c5.68,2.66,11.7,5.07,17.82,4.86,1.24-.05,2.77-.47,2.93-1.74a3.07,3.07,0,0,0-.83-2.08,35.07,35.07,0,0,0-11.19-9.79Z"/><path class="cls-12" d="M97,302.46a46.69,46.69,0,0,0-8.23-2.65c-3-.66-6.84-.61-8.12,2.19-.84,1.84-.09,4.18,1.29,5.73A15,15,0,0,0,87,311.09c5.68,2.66,11.7,5.06,17.83,4.85,1.24,0,2.76-.46,2.92-1.73a3.12,3.12,0,0,0-.83-2.09,35.06,35.06,0,0,0-11.19-9.78Z"/><path class="cls-12" d="M127.15,301.43a44.6,44.6,0,0,0-8.23-2.65c-3-.66-6.83-.61-8.11,2.19-.84,1.83-.09,4.17,1.28,5.73a15.11,15.11,0,0,0,5.12,3.35c5.68,2.66,11.7,5.07,17.83,4.86,1.24-.05,2.76-.47,2.92-1.74a3.07,3.07,0,0,0-.83-2.08,35,35,0,0,0-11.19-9.79Z"/><path class="cls-12" d="M129.84,319.86a45.09,45.09,0,0,0-8.23-2.65c-3-.66-6.83-.61-8.11,2.19-.84,1.84-.1,4.17,1.28,5.73a15.34,15.34,0,0,0,5.11,3.36c5.69,2.65,11.7,5.06,17.83,4.85,1.24,0,2.77-.47,2.92-1.74a3,3,0,0,0-.83-2.08,35,35,0,0,0-11.18-9.78Z"/><path class="cls-12" d="M156.7,315.17a45,45,0,0,0-8.24-2.65c-3-.66-6.83-.61-8.11,2.19-.84,1.84-.09,4.17,1.28,5.73a15.28,15.28,0,0,0,5.12,3.36c5.68,2.65,11.7,5.06,17.83,4.85,1.24,0,2.76-.47,2.92-1.74a3.07,3.07,0,0,0-.83-2.08,34.94,34.94,0,0,0-11.19-9.78Z"/><path class="cls-12" d="M165.71,336.54a44.6,44.6,0,0,0-8.23-2.65c-3-.66-6.83-.61-8.11,2.19-.84,1.83-.1,4.17,1.28,5.73a15.16,15.16,0,0,0,5.11,3.35c5.69,2.66,11.7,5.07,17.83,4.86,1.24,0,2.77-.47,2.92-1.74a3.06,3.06,0,0,0-.82-2.08,35.18,35.18,0,0,0-11.19-9.79Z"/><path class="cls-12" d="M192.34,337.21a46.17,46.17,0,0,0-8.23-2.65c-3-.66-6.83-.6-8.11,2.2-.84,1.83-.09,4.17,1.28,5.72a15,15,0,0,0,5.12,3.36c5.68,2.66,11.7,5.06,17.83,4.86,1.24-.05,2.76-.47,2.92-1.74a3.12,3.12,0,0,0-.83-2.09,35.06,35.06,0,0,0-11.19-9.78Z"/><path class="cls-12" d="M204,361.19a45.88,45.88,0,0,0-8.23-2.65c-3-.66-6.84-.61-8.12,2.19-.84,1.84-.09,4.18,1.29,5.73a15.14,15.14,0,0,0,5.11,3.36c5.68,2.66,11.7,5.06,17.83,4.85,1.24,0,2.76-.47,2.92-1.73a3.1,3.1,0,0,0-.83-2.09,35.06,35.06,0,0,0-11.19-9.78Z"/><path class="cls-12" d="M224,355a46.17,46.17,0,0,0-8.23-2.65c-3-.66-6.83-.61-8.11,2.19-.84,1.84-.1,4.18,1.28,5.73A15,15,0,0,0,214,363.6c5.68,2.66,11.7,5.06,17.82,4.85,1.24,0,2.77-.46,2.92-1.73a3.11,3.11,0,0,0-.82-2.09,35.16,35.16,0,0,0-11.19-9.78Z"/><path class="cls-13" d="M372,180.65c-13.93,3.38-15.15,23.69-25.14,34s-18.31,22-27.56,33c-19.22,22.72-43.14,42.85-53.55,70.72-3.39,9.07-17.5,16.44-14.74,25.72,3.21,10.76,24.53,21.73,34.64,26.65s21.32,6.94,32.38,8.91a24.73,24.73,0,0,0,7.94.55c3.56-.53,6.72-2.58,9.48-4.89,14.33-12,20.33-31.55,33.66-44.68,11.14-11,26.56-16.68,38-27.38,7.35-6.9,12.81-15.67,20.42-22.27,11.51-10,28.55-16,32.57-30.7,2.89-10.58-2.62-21.86-10.32-29.68C433.49,204,396.18,174.78,372,180.65Z"/><path class="cls-14" d="M367,181.53C353,184.91,341,193.78,331,204.05s-18.3,22-27.56,33c-19.21,22.72-43.13,42.85-53.55,70.73-3.38,9.06-5.19,19.14-2.42,28.41,3.2,10.77,12.22,19,22.32,23.95s21.32,6.94,32.38,8.91a24.73,24.73,0,0,0,7.94.55c3.56-.52,6.72-2.57,9.48-4.89,14.33-12,20.33-31.54,33.66-44.68,11.14-11,26.56-16.68,38-27.37,7.35-6.9,12.8-15.67,20.42-22.28,11.5-10,28.54-16,32.56-30.7,2.89-10.58-2.62-21.85-10.32-29.67C417.59,193.44,391.09,175.67,367,181.53Z"/><path class="cls-15" d="M358.42,209.44c-.6,1.81.74,3.19,2.1,3.87,3.48,1.77,7.71,1.91,11.78,2.24a105,105,0,0,1,34,8.54c5.88,2.6,11.63,5.8,18.4,6,1.85.06,4.41-.65,5-2.75.43-1.56-.6-2.76-1.63-3.55-3.86-3-8.61-4.54-13.31-6.07C409.58,216.08,362.58,196.9,358.42,209.44Z"/><path class="cls-15" d="M370.31,251.35c-14.48-.73-27.66-5.71-41.85-7.5a10,10,0,0,0-5.87.55c-2,.95-3.75,3.4-3.36,5.4a3.79,3.79,0,0,0,1.54,2.22c4.45,3.5,11.09,2.7,17.09,2.83,17.7.38,32.69,9.79,50.46,9.84a11.36,11.36,0,0,0,6.57-1.54C409.34,253.57,373.31,251.5,370.31,251.35Z"/><path class="cls-15" d="M318.91,284.2c-8.5-2-17.42-3.91-26.74-1a6.48,6.48,0,0,0-3.33,1.95,4.42,4.42,0,0,0-.28,5.06,6.48,6.48,0,0,0,4,2.25c6.13,1.53,13,.69,19.34,1.61,7.67,1.11,14.33,4.75,21.33,7.51,4.15,1.64,34.3,6.48,25.64-6.17-3.35-4.89-12.6-4.85-18-6.11Z"/><path class="cls-15" d="M269.16,320.32a7.34,7.34,0,0,0-1.24,3.38,4,4,0,0,0,2.68,4,13.71,13.71,0,0,0,5.11.48,71.86,71.86,0,0,1,28.39,5c5,2,9.83,4.66,15.39,5.38,2.78.36,6.48-.26,8.14-3.3a5.37,5.37,0,0,0-1.07-6.55c-1.63-1.39-3.9-1.73-6.08-2.06a190.38,190.38,0,0,1-31.58-7.49C282.92,317.17,275.57,310,269.16,320.32Z"/><path class="cls-16" d="M349.05,195.52c-5,3.32-8.88,8-12.7,12.58Q310.16,239.57,284,271a5.38,5.38,0,0,0-1.37,2.43c-.48,3.07,4.06,4.23,7,3.26,11.67-3.85,15.44-18.1,22.82-27.93,5.94-7.91,14.67-13.23,21.4-20.47,8.93-9.6,15.63-23.34,28.49-25.86,6.24-1.21,17.71-3.85,6.21-9.89C362.59,189.45,354.3,192,349.05,195.52Z"/><path class="cls-16" d="M381.33,201.36c2.43.57,5,.27,7.45.49,8.83.78,16.43,8.1,25.28,7.49,1.76-.12,3.7-.73,4.5-2.3a4.6,4.6,0,0,0-.22-4c-1.23-2.65-3.73-4.47-6.23-6-7.9-4.76-17.83-8.36-27.15-8.43C377.68,188.62,372.16,199.2,381.33,201.36Z"/><path class="cls-13" d="M473.64,394.58c-14.14-2.3-23.17,15.93-36.37,21.5s-25.44,13.17-38.22,19.65c-26.55,13.45-56.42,22.68-76.86,44.3-6.65,7-22.52,8.34-23.59,18-1.23,11.17,14.14,29.57,21.53,38s16.94,14.69,26.36,20.82a24.61,24.61,0,0,0,7.1,3.59c3.49.91,7.19.25,10.63-.81,17.89-5.52,31-21.14,48.4-28.05,14.53-5.77,31-5,45.62-10.45,9.46-3.49,17.89-9.45,27.48-12.56,14.48-4.71,32.53-3.64,41.95-15.6,6.78-8.63,6.09-21.16,2.05-31.36C521.16,440,498.16,398.58,473.64,394.58Z"/><path class="cls-14" d="M468.61,393.42c-14.14-2.31-28.68,1.18-41.88,6.75s-25.44,13.17-38.22,19.65c-26.54,13.45-56.41,22.67-76.86,44.3-6.64,7-12.23,15.61-13.29,25.23-1.24,11.16,3.84,22.29,11.24,30.75s16.94,14.69,26.35,20.81a24.7,24.7,0,0,0,7.11,3.6c3.48.9,7.19.24,10.63-.82,17.89-5.51,31-21.14,48.4-28.05,14.53-5.76,31-5,45.62-10.44,9.45-3.49,17.89-9.45,27.48-12.57,14.48-4.71,32.52-3.63,41.94-15.6,6.79-8.62,6.1-21.15,2-31.35C510.62,424.1,493.13,397.42,468.61,393.42Z"/><path class="cls-15" d="M449.89,415.81c-1.25,1.43-.55,3.22.43,4.38,2.52,3,6.36,4.76,10,6.65a104.88,104.88,0,0,1,28,21.09c4.41,4.69,8.46,9.87,14.61,12.73,1.68.77,4.31,1.11,5.67-.6,1-1.26.52-2.76-.12-3.9-2.39-4.24-6.17-7.53-9.9-10.76C494.43,441.84,458.6,405.87,449.89,415.81Z"/><path class="cls-15" d="M444.53,459c-13-6.32-23.25-16-35.63-23.2a10.06,10.06,0,0,0-5.62-1.78c-2.17.11-4.77,1.67-5.2,3.67a3.82,3.82,0,0,0,.56,2.64c2.73,5,9.16,6.81,14.63,9.26,16.16,7.24,26.31,21.74,42.66,28.71a11.33,11.33,0,0,0,6.65,1.13C479.62,476.28,447.23,460.35,444.53,459Z"/><path class="cls-15" d="M384.4,469.29c-7.07-5.12-14.53-10.39-24.23-11.37a6.49,6.49,0,0,0-3.83.5,4.4,4.4,0,0,0-2.22,4.55,6.47,6.47,0,0,0,2.78,3.62c5.05,3.79,11.71,5.69,17.19,9,6.63,4,11.34,10,16.72,15.23,3.19,3.12,29.08,19.31,26,4.29-1.19-5.81-9.72-9.38-14.23-12.65Z"/><path class="cls-15" d="M324.51,483.19a7.41,7.41,0,0,0-2.46,2.63,4,4,0,0,0,.91,4.74,13.6,13.6,0,0,0,4.53,2.43,72.11,72.11,0,0,1,24.19,15.67c3.84,3.83,7.24,8.12,12.07,10.95,2.43,1.42,6.07,2.29,8.79.14a5.39,5.39,0,0,0,1.57-6.46c-1-1.91-2.92-3.1-4.8-4.26a189.56,189.56,0,0,1-26.17-19.19C338.42,485.65,334.42,476.19,324.51,483.19Z"/><path class="cls-16" d="M446.68,399.34c-5.87,1.12-11.28,3.9-16.6,6.64q-36.36,18.79-72.73,37.58a5.42,5.42,0,0,0-2.21,1.7c-1.64,2.64,2.09,5.48,5.19,5.73,12.25,1,21.27-10.65,31.89-16.83,8.55-5,18.66-6.49,27.69-10.53,11.95-5.36,23.48-15.42,36.3-12.73,6.22,1.31,17.81,3.35,9.57-6.7C461.52,399,452.87,398.17,446.68,399.34Z"/><path class="cls-16" d="M474.14,417.28c2,1.48,4.48,2.18,6.68,3.35,7.83,4.16,12,13.86,20.36,16.74,1.67.57,3.7.78,5-.37a4.59,4.59,0,0,0,1.35-3.73c-.11-2.92-1.7-5.57-3.42-7.93C498.73,417.88,491,410.7,482.42,407,475.74,404.12,466.54,411.72,474.14,417.28Z"/><path class="cls-17" d="M111.9,142.79s-41.47,63.3,22,118.82S257.51,315,269.11,316.07C293.5,318.25,316,301.66,316,301.66Z"/><path class="cls-18" d="M142.47,166.63c-.51-.39-27.47,44.39.9,71.73C199.53,292.49,244.22,246,244.22,246Z"/><path class="cls-19" d="M264,290.11c-15.83,5.26-32.66-2.38-49-5.63-3.16-.63-7.13-.76-8.82,2-1.23,2-.52,4.73,1,6.46a14.48,14.48,0,0,0,6,3.48c10.87,4,22.42,5.65,33.9,7.08,12.51,1.56,25.95,2.67,37-3.33a7.74,7.74,0,0,0,2.95-2.41c3.16-4.92-3.56-9.37-7.58-10.36C274.09,286.05,269,288.44,264,290.11Z"/><path class="cls-17" d="M671.15,166.78s63.72,40.82,28.46,117.44-91,99.25-101.15,104.94c-21.37,11.95-48.66,6-48.66,6Z"/><path class="cls-18" d="M653,201c.3-.56,43.2,29.3,28.48,65.84-29.15,72.34-88.91,48.2-88.91,48.2Z"/><path class="cls-19" d="M592.56,363.36c16.6-1.67,28.84-15.52,42.45-25.18,2.62-1.85,6.19-3.6,8.85-1.79,1.94,1.31,2.41,4.1,1.68,6.32a14.49,14.49,0,0,1-4.07,5.64c-8.3,8-18.15,14.32-28.05,20.31-10.78,6.53-22.59,13-35.16,12.09a7.68,7.68,0,0,1-3.68-1c-4.88-3.2-.58-10,2.69-12.55C581.65,363.8,587.29,363.89,592.56,363.36Z"/><path class="cls-20" d="M219.16,393c11.3-4.61,24.64-5,35.44.62,2.33,1.23,5.64,2.55,7.2.42a4.8,4.8,0,0,0,.45-3.66c-2.16-13.05-14.15-23.79-27.36-24.51-10-.54-19.53,4-28.18,9.05a211.11,211.11,0,0,0-18.24,12c-7.47,5.46-15.17,11.93-18.85,20.68-2.73,6.49-4.05,20.17,5,22.4s13.41-11.11,17.92-16.51C199.79,404.86,208.68,397.3,219.16,393Z"/><path class="cls-21" d="M244.78,364.94c-14.32-2.35-29.1,1.78-41.83,8.75s-23.73,16.64-34.62,26.23c-11.41,10.05-10.94,30.5-3.91,43a41.57,41.57,0,0,0,32.37,20.52c13.07,1.07,25.84-4,37.6-9.78,12.39-6.12,24.58-13.41,33.29-24.13S281.12,404,277,390.85C272.67,377,259.1,367.28,244.78,364.94Zm5.05,38.54c-3.69,7.21-10.53,12.24-17.51,16.34a128.13,128.13,0,0,1-20.66,9.74c-6,2.18-12.27,3.94-18.62,3.49s-12.79-3.42-16-8.88c-12.82-21.43,20.58-38.24,35.27-44.23,8.17-3.33,17.27-5,25.88-3a19.89,19.89,0,0,1,8.94,4.21C253.14,386.47,253.52,396.28,249.83,403.48Z"/><path class="cls-20" d="M493.75,178.22c9.42,7.75,16.15,19.28,16.3,31.47,0,2.64.44,6.17,3.06,6.54a4.78,4.78,0,0,0,3.43-1.35c10.45-8.11,14.2-23.76,8.55-35.72-4.27-9-12.81-15.28-21.36-20.48a210.14,210.14,0,0,0-19.2-10.37c-8.36-4-17.71-7.67-27.15-6.74-7,.69-19.67,6-17.3,15.1s16.14,6.5,23,7.9C474.13,166.81,485,171,493.75,178.22Z"/><path class="cls-21" d="M530.64,187.4c-4.75-13.71-15.41-24.74-27.59-32.63s-25.93-13-39.54-18c-14.27-5.26-32,4.88-39.68,17A41.6,41.6,0,0,0,421.17,192c5.28,12,15.79,20.84,26.5,28.42,11.26,8,23.48,15.25,37.05,17.81s28.81-.3,38.45-10.19C533.29,217.67,535.39,201.11,530.64,187.4Zm-31.51,22.77c-8.09.18-15.77-3.44-22.69-7.63A126.92,126.92,0,0,1,458,189c-4.76-4.21-9.29-8.91-11.92-14.71s-3.08-12.88.17-18.35c12.76-21.47,43.43-.07,55.69,10,6.82,5.6,12.59,12.82,15,21.31a20.09,20.09,0,0,1,.55,9.88C515.68,205,507.22,210,499.13,210.17Z"/><path class="cls-20" d="M613,412.48c7.87,9.31,12.41,21.86,10.36,33.88-.44,2.61-.67,6.15,1.84,7a4.87,4.87,0,0,0,3.62-.71c11.74-6.09,18.24-20.81,14.84-33.6-2.58-9.67-9.85-17.33-17.33-24a210.92,210.92,0,0,0-17-13.65c-7.5-5.4-16-10.73-25.49-11.52-7-.58-20.43,2.39-19.73,11.74s14.71,9.31,21.23,11.92C595.79,397.71,605.73,403.83,613,412.48Z"/><path class="cls-21" d="M647.68,428.15C645.47,413.8,637,401,626.41,391.08s-23.17-17.42-35.66-24.81c-13.08-7.74-32.39-1-42.09,9.59a41.59,41.59,0,0,0-9.5,37.13c3,12.76,11.78,23.34,20.94,32.73,9.65,9.89,20.36,19.22,33.25,24.18s28.39,4.9,39.65-3.1C644.83,458.39,649.88,442.49,647.68,428.15Zm-35.1,16.72c-8-1.28-14.89-6.22-21-11.59A127,127,0,0,1,576,416.64c-3.93-5-7.54-10.44-9.09-16.61s-.7-13.23,3.48-18c16.41-18.83,42.73,7.74,53,19.86,5.69,6.73,10.07,14.88,10.9,23.66a20.2,20.2,0,0,1-1.24,9.81C629.79,442.76,620.57,446.15,612.58,444.87Z"/><path class="cls-20" d="M292,135.46c7.82-9.06,17.75-15.83,26.61-16.6,1.92-.16,4.57-.72,5.45-3.14a4.26,4.26,0,0,0-.16-3.09c-3.41-9.19-13.85-11.82-23.84-6C292.52,111,286,119.17,280.22,127.3q-6.3,8.85-12,18.17c-4.84,7.88-9.73,16.67-11.28,25.29-1.16,6.41-.27,17.77,6.85,15.12s8.51-15.17,11.15-21.57C279.13,154.08,284.75,143.86,292,135.46Z"/><path class="cls-21" d="M307.35,101.09c-11,5.06-21.54,15.43-30.12,27s-15.49,24.49-22.33,37.26c-7.17,13.38-4,29.18,3,35.58,6.47,5.94,17,6,27.05.48s18.8-15.59,26.82-25.81c8.43-10.76,16.56-22.36,21.61-35s6.57-26.46,1.68-34.81C329.88,97.09,318.39,96,307.35,101.09Zm9.06,27.78c-1.78,7.42-6.21,14.67-10.87,21.24a187.66,187.66,0,0,1-14.14,17.6c-4.17,4.6-8.64,9-13.46,11.72s-10,3.49-13.24.78c-12.53-10.62,10.18-39.9,20.36-51.68,5.66-6.55,12.25-12.23,18.95-14.86,2.54-1,5.11-1.54,7.28-1C316.56,113.93,318.18,121.44,316.41,128.87Z"/><path class="cls-20" d="M431.3,14.5c9.34-2.06,18.79-1.89,24.55,1.38,1.24.71,3.14,1.5,4.9.44a3.46,3.46,0,0,0,1.46-1.9c2.6-6.86-2.4-12.8-11.39-13.58-6.81-.58-14.9,1.5-22.53,3.87q-8.31,2.6-16.5,5.68c-6.93,2.63-14.34,5.77-19.66,10.21C388.18,23.9,383,31,388.62,32.41s12.85-5.38,17.69-8.06A95.43,95.43,0,0,1,431.3,14.5Z"/><path class="cls-21" d="M458,.64C448.76-1,437.14.7,426.07,4s-21.81,8-32.43,12.62c-11.13,4.89-17.23,15.55-16.25,22.26.91,6.23,7.24,10.7,16.15,11.66s19.3-1.3,29.34-4c10.57-2.82,21.37-6.25,30.83-11.57s17.4-12.87,18.66-19.86C473.7,7.75,467.29,2.29,458,.64Zm-8.6,20.22c-4.84,3.64-11.2,6.06-17.36,8a168.73,168.73,0,0,1-17.5,4.45c-4.85,1-9.8,1.69-14.09,1.27s-7.86-2.17-8.42-5.11c-2.21-11.54,26.4-19.29,38.54-22,6.75-1.49,13.63-2.08,19-.81a9.18,9.18,0,0,1,4.93,2.46C457.09,12.1,454.27,17.22,449.43,20.86Z"/><path class="cls-8" d="M146.52,426.1c9.14-5.87,22.61-3.52,29.22,5.09,7.93-10.76,24.55-12.83,36.11-6.12s18,20.41,18.13,33.78c18.78-6.07,38.59,7.64,49.57,24,1.82,2.72,3.59,5.62,6.31,7.43,3.3,2.2,7.47,2.48,11.41,3,33.24,4.22,62.17,31.75,68.05,64.74,1.8,10.1,1.41,21.21-4.41,29.66-4.67,6.76-12.17,10.92-19.4,14.84-8.27,4.49-16.87,9.08-26.26,9.72-26.94,1.83-44.67-27.51-69.23-38.74-20-9.13-43.23-5.59-63.25-14.33-15.6-6.81-31.18-20.68-45-30.91-11.68-8.65-19.13-17.78-23.55-31.85-5.51-17.5-3.09-50.64,24.33-42.06C134.58,444.47,137.19,432.09,146.52,426.1Z"/><path class="cls-22" d="M789.54,409.08H772.86c-2.74,61.61-131.92,95.45-368.07,95.45-228.55,0-363.77-44.48-368.07-95.45H20s-5.92,79,38.22,174.27c66.2,142.94,157.7,168.7,157.7,168.7l187,3.61,187-3.61s91.51-25.76,157.71-168.7C791.7,488,789.54,409.08,789.54,409.08Z"/><ellipse class="cls-23" cx="409.3" cy="797.88" rx="236.31" ry="44.47"/><path class="cls-22" d="M593.63,783.08v-33L404.78,726.29,215.93,752.05v31s-1.59,14.94,55.69,34.68c78.32,27,205.6,18.11,266.32,0C596,800.44,593.63,783.08,593.63,783.08Z"/><path class="cls-24" d="M537.8,817.76c58.06-17.32,55.69-34.68,55.69-34.68v-33l-86.58-10.9-.41.25c-9.93,6-19.47,11.39-20.22,23.74-.79,13,6.28,28.72.65,41.12-3.46,7.64-12.58,10.65-20.76,12.47-62.53,13.93-128,5.37-190.23-9.68-19.44-4.7-39.18-10.22-55.54-21.73a22.64,22.64,0,0,0-4.6-2.52v.28s-1.6,14.94,55.68,34.68C349.81,844.76,477.08,835.87,537.8,817.76Z"/><path class="cls-25" d="M112.46,530.19c-4,10.59-.61,22.41,3.37,33,10.88,29,26.12,56.28,43.37,82,12.4,18.53,27.92,37.7,49.83,41.84,7.69,1.45,16,.8,22.82-3s12-11,12.18-18.84-4.44-15.12-8.63-21.9C225.16,626.79,216.52,609,212.22,590c-2.87-12.62-3.92-26-10.4-37.22C190.71,533.56,124.94,497,112.46,530.19Z"/><path class="cls-25" d="M245,764.63a10.28,10.28,0,0,0-5.23,1.19c-3.2,2-3.59,6.81-1.76,10.11s5.23,5.39,8.58,7.13c13.89,7.23,29.33,10.92,44.74,13.71,5.91,1.08,12.22,2,17.75-.34s9.61-9.18,6.84-14.51c-2.63-5.06-9.34-6-15-6.5C282.35,773.71,263.13,764.06,245,764.63Z"/><path class="cls-24" d="M788.65,409.08H772.11c-1.53,34.53-42.77,60.33-120.3,76.35a297.53,297.53,0,0,1-31.31,96.94c-53.88,103-104.92,131.66-167.36,152.9C375.67,761.63,285,755,285,755s91,20.78,163.88,20.78c72.53,0,140.13-23.74,140.13-23.74s91.5-25.76,157.71-168.7C790.82,488,788.65,409.08,788.65,409.08Z"/><path class="cls-26" d="M789.24,403.2H772.73a45.76,45.76,0,0,1,.16,5.25c-1.88,62-131.14,96.08-368.1,96.08-229.5,0-364.9-44.85-368.13-96.08.17-1.78.39-3.53.67-5.25H20.57c-.29,1.93-.53,3.89-.7,5.88,3.38,57.43,144.9,107.7,384.78,107.7,247.69,0,382.8-38.19,384.75-107.7A52.23,52.23,0,0,0,789.24,403.2Z"/></g></g></svg>