<svg xmlns="http://www.w3.org/2000/svg" viewBox="0 0 818.46 910.41"><defs><style>.cls-1{fill:#f7d3b0;}.cls-2{fill:#e2bfa3;}.cls-3{fill:#cead97;}.cls-4{fill:#6fb56b;}.cls-5{fill:#81cc7a;}.cls-6{fill:#89e269;}.cls-7{fill:#59b24f;}.cls-8{fill:#84d17d;}.cls-9{fill:#b0eda9;}.cls-10{fill:#c1ffb8;}.cls-11{fill:#ffecd7;}.cls-12{fill:#ffdc31;}.cls-13,.cls-17{fill:#fff;}.cls-13{opacity:0.52;}.cls-14{fill:#9cd6e8;}.cls-15{fill:#e7f2f0;}.cls-16{fill:#96c8e2;}.cls-17{opacity:0.38;}.cls-18{fill:#b8f0ff;}.cls-19{fill:#a84a67;}.cls-20{fill:#823b55;}.cls-21{fill:#9cf492;}</style></defs><g id="Layer_2" data-name="Layer 2"><g id="Layer_2-2" data-name="Layer 2"><path class="cls-1" d="M20,474.05c3.38,57.43,144.9,107.69,384.78,107.69,247.69,0,382.8-38.18,384.76-107.69S657.37,353.55,410.65,354.6C202.86,355.49,28.82,370.27,20,474.05Z"/><path class="cls-2" d="M36.66,473.41c3.23,51.24,138.63,96.09,368.13,96.09,237,0,366.22-34.07,368.1-96.09S646.44,365.91,410.4,366.85c-198.8.79-365.31,14-373.74,106.56Z"/><path class="cls-3" d="M36.66,473.59c2.59,41.08,90.12,78,243,91.09q-12.31-8.35-23.92-17.68A374.46,374.46,0,0,1,146.6,403.36c-2-4.69-4.2-9.62-6.28-14.67C79.54,404.08,40.63,430.06,36.66,473.59Z"/><path class="cls-4" d="M208.52,532.67c-2.82-3-6.08-5.76-8-9.4-2.09-3.91-2.48-8.47-3.6-12.75a38.39,38.39,0,0,0-23.21-25.78c-2.89-1.09-6.1-1.95-8-4.39s-1.91-5.87-2.28-9a32.93,32.93,0,0,0-21.94-26.79c-3.56-1.17-7.44-1.77-10.41-4-6.6-5-5.57-15.25-9.49-22.56-2.21-4.11-5.93-7.16-9.56-10.1L93.29,392.71C86.88,387.52,80,382.13,71.88,381c-4.23-.59-8.9-.09-12.4-2.53-3.18-2.22-4.45-6.22-6.26-9.66-7.91-15-30.54-19.23-43.51-8.36s-12.91,33.62,0,44.6C.48,412.5-.19,427,5,437.63S19.74,456,29.1,463.29c2.36,1.84,4.81,3.75,6.2,6.41,2,3.83,1.44,8.4,1.48,12.72.16,19.42,14.84,37.78,33.74,42.22L218.63,582A49.45,49.45,0,0,0,208.52,532.67Z"/><path class="cls-4" d="M174,424.77c-8-10.28-16-20.72-21-32.75s-6.49-26-1.24-37.94c1.35-3,3.13-6,3.6-9.26.56-3.92-.81-7.82-1.58-11.7A38.95,38.95,0,0,1,205.38,289a27.72,27.72,0,0,1,45.16,23.42c10.2-2.68,21.06,3.91,26.48,13s6.53,20,7,30.51a46.7,46.7,0,0,1,47.22,61.33c14.36,11.59,28.21,25.9,31.56,44.05s-8.58,39.95-27,40.65c10.26,1,15,14.85,10.55,24.16S332,540.68,322.56,544.7a231.3,231.3,0,0,1-60.21,16.4c-12.22,1.61-25,2.17-36.53-2.12-25.31-9.42-37-37.37-46-60.66C171.84,477.72,146.59,442.05,174,424.77Z"/><path class="cls-4" d="M534.63,368.52a30.14,30.14,0,0,1,32.64-11.91c1.33-14.93,13.74-28.16,28.56-30.44s30.63,6.63,36.37,20.47c9.48-7.74,25.1,1.16,27.67,13.13s-3.78,24-11.25,33.72c9.84,3,14.62,14.93,13.09,25.11s-7.69,19-13.69,27.32c12.84,9.63,15.42,29.44,7.6,43.46s-24,22.11-40,22.81c-16.74.74-30.67-6.11-45.26-13.08C518.66,562.78,450,413.88,535.71,403,529.08,392.62,527.56,379.16,534.63,368.52Z"/><path class="cls-5" d="M598.69,413.86c6.94-11.5,15.17-22.44,25.8-30.64,7.76-6,16.61-10.38,25.39-14.73,24.2-12,53.62-23.9,76.83-10.09,4.24,2.52,8,5.82,12.47,8,9.83,4.72,21.33,3.19,32.24,3.13,11.11-.06,22.59,1.66,32,7.61s16.2,16.82,14.91,27.85c-.68,5.82-3.49,11.31-3.57,17.16-.07,5.05,1.9,9.88,2.62,14.88,1.83,12.75-6.55,26.95-19.25,29.14-4.47.77-9.08.11-13.56.76-19.78,2.89-28.17,28.32-46.62,36-5.19,2.16-10.89,2.77-16.24,4.49-5.7,1.82-10.92,4.85-16.35,7.36-34.85,16-79.44,7.55-106-20.16C576.05,470.24,582.62,440.48,598.69,413.86Z"/><path class="cls-4" d="M540.66,523.6c1.78.41,3.68,1.07,5.37.38,2.15-.89,2.89-3.49,3.67-5.69,4.44-12.49,19.59-20,32.22-16,2.73.87,5.45,2.22,8.3,1.91,4-.44,6.87-3.93,10.07-6.4,8.16-6.3,20.82-5.81,28.46,1.11,2.08,1.88,3.86,4.19,6.41,5.35,2.75,1.26,6,.95,8.88,1.8,10.13,3,12.72,18.08,22.9,20.88,6.65-11.25,23.74-13.05,34.47-5.59s15.35,21.53,14.52,34.58C714.11,584.84,685.85,609.34,657,607c-13-1-25.38-6.67-38.4-6.62-12.55.05-24.39,5.37-36.05,10-28.29,11.25-56.44,7.27-65-25C512.76,567.19,505,515.29,540.66,523.6Z"/><path class="cls-6" d="M322.4,473c-7.15-14.47-7.66-32.51,1.93-45.69,8.1-11.14,21.83-17.27,34.91-22.91-17.16-15.95-21.32-42.79-9.7-62.64s38-31,61.66-26.1c-5.27-17.45,9.27-36.84,28.18-40.85s39.28,5.58,50.05,20.65c13.23-8,32.68-5.11,42.64,6.31s9,29.83-2,40.34C548.83,357.8,550.67,388,534,405.54c10.13,8.07,15.58,21,14.07,33.35s-9.93,23.81-21.74,29.53c2.44,8.1,4.82,17.09.82,24.63-4.66,8.8-16.35,12.2-26.86,12.43s-21.15-1.75-31.45.22c4,9.86-4.08,21.06-14.44,25.2s-22.11,3.1-33.31,2l-37.78-3.73c-7.07-.7-14.5-1.52-20.23-5.45-6.62-4.53-9.15-15.61-15.25-21.8C338.36,492.36,328.47,485.31,322.4,473Z"/><path class="cls-7" d="M418.1,585l17.15,17.83s34.67,15,75.91-19.47c46.42-38.77,62.83-84.37,36.55-109.38-4.26-4.06-21.12-9-21.12-9L416.44,584.8Z"/><path class="cls-8" d="M533.35,469.12c17.48,15.62,5.86,54.21-26,86.2S435.58,600.57,418.1,585s-5.85-54.21,26-86.2S515.87,453.5,533.35,469.12Z"/><path class="cls-9" d="M529.65,473.1c13.28,11.86,2.56,47.25-26.76,76.71s-68.61,42.88-81.88,31-1.75-50.44,27.56-79.89S516.38,461.24,529.65,473.1Z"/><path class="cls-10" d="M438.59,556.69c-1.79.37-3.88.56-5.26-.59-2.2-1.84-.75-5.29,1.05-7.49a42.83,42.83,0,0,1,13.89-11.11,27,27,0,0,1-8.16-1.57,2.48,2.48,0,0,1-1.42-.93c-.67-1.15.75-2.37,2-3a77.05,77.05,0,0,1,20-6.46,17.29,17.29,0,0,1-8.16-3.28c-2.25-1.85-3.68-4.8-3-7.56.88-3.61,5.06-5.8,9-5.78s7.57,1.72,11,3.52a24.92,24.92,0,0,1,8.41-17.41c1.18-1.05,2.74-2.05,4.3-1.64,2.41.64,2.57,3.78,2.22,6.12A24.6,24.6,0,0,1,504,486.83a3.57,3.57,0,0,1,2.87.67,3,3,0,0,1,.67,1.61c.73,4.28-.66,8.69-2.95,12.45s-5.45,6.95-8.58,10.11a53.68,53.68,0,0,1,13.08-4.85,2.36,2.36,0,0,1,1.72.06,1.91,1.91,0,0,1,.73,1.17c1.53,5.16-1.9,10.71-6.63,13.65s-10.52,3.84-16.1,4.68c3.47.24,7.11,1.38,9.21,4s1.94,7-1,8.77a9.22,9.22,0,0,1-4.45,1,33.88,33.88,0,0,1-13.74-2.38,11.62,11.62,0,0,1,.57,15.34,5.45,5.45,0,0,1-3.79,2.16,4.6,4.6,0,0,1-4.08-2.94,12.2,12.2,0,0,1-.61-5.1c-.86,4.66-2.74,10.1-7.57,11.29-1.45.36-3.27.11-4-1.13a4,4,0,0,1-.19-2.65c.38-2.29,2.77-7.3,1.72-9.23C453.85,550.5,447.44,554.88,438.59,556.69Z"/><path class="cls-7" d="M282.1,269.45l-20.53,15.7s-19.66,34.24,11,81.24c34.56,52.9,79.79,75.41,108.84,51.08,4.71-4,11.86-20.88,11.86-20.88L282.45,267.74Z"/><path class="cls-8" d="M388.15,403.12c-18.27,16.3-56.82-.4-86.11-37.31s-38.21-80.05-19.94-96.36,56.82.4,86.1,37.31S406.42,386.81,388.15,403.12Z"/><path class="cls-9" d="M384.48,398.8c-13.88,12.38-49.23-3-76.19-37S272.14,285.35,286,273s52.42,4.22,79.39,38.21S398.35,386.42,384.48,398.8Z"/><path class="cls-10" d="M308.89,294.14c-.17-1.91-.12-4.11,1.24-5.41,2.17-2.07,5.56-.15,7.63,2a44.88,44.88,0,0,1,9.83,15.77,28.59,28.59,0,0,1,2.6-8.29,2.61,2.61,0,0,1,1.14-1.37c1.27-.56,2.36,1.06,2.83,2.42a80.72,80.72,0,0,1,4.29,21.6,18.17,18.17,0,0,1,4.36-8.09c2.2-2.12,5.42-3.26,8.19-2.23,3.63,1.35,5.4,6,4.91,10s-2.69,7.66-5,11a26,26,0,0,1,17,10.83c.94,1.35,1.8,3.1,1.18,4.67-.95,2.43-4.22,2.22-6.6,1.57,6.86,4.63,11.1,13.25,10.8,21.91a3.73,3.73,0,0,1-1,2.9,3.08,3.08,0,0,1-1.75.5c-4.51.25-8.92-1.72-12.52-4.55s-6.55-6.5-9.44-10.13A56.13,56.13,0,0,1,352,373.42a2.43,2.43,0,0,1-.27,1.79,2,2,0,0,1-1.29.62c-5.53,1-10.86-3.26-13.33-8.53s-2.71-11.39-2.91-17.3c-.67,3.59-2.28,7.23-5.27,9.11s-7.47,1.17-8.95-2.11a9.75,9.75,0,0,1-.51-4.75,35.61,35.61,0,0,1,4.11-14A12.05,12.05,0,0,1,307.67,337a5.72,5.72,0,0,1-1.78-4.2,4.79,4.79,0,0,1,3.53-3.88,12.69,12.69,0,0,1,5.35,0c-4.72-1.45-10.13-4.06-10.78-9.22-.2-1.55.28-3.41,1.66-4a4.14,4.14,0,0,1,2.75.11c2.33.68,7.24,3.76,9.36,2.9C313.46,310.74,309.7,303.55,308.89,294.14Z"/><path class="cls-7" d="M508,342.4l15.52,20.66s34.07,20,81.34-10.32c53.2-34.08,76.11-79.12,52-108.38-3.91-4.75-20.77-12.05-20.77-12.05L506.29,342Z"/><path class="cls-8" d="M642.61,237.54c16.14,18.41-.91,56.81-38.08,85.76S524.15,360.81,508,342.4s.91-56.82,38.08-85.77S626.46,219.12,642.61,237.54Z"/><path class="cls-9" d="M638.25,241.17c12.26,14-3.43,49.19-37.66,75.86s-76.78,35.47-89,21.48,4.68-52.38,38.91-79S626,227.19,638.25,241.17Z"/><path class="cls-10" d="M532.92,315.83c-1.91.14-4.11.08-5.39-1.29-2-2.19-.1-5.57,2.05-7.61a44.85,44.85,0,0,1,15.87-9.69,28.89,28.89,0,0,1-8.28-2.68,2.68,2.68,0,0,1-1.36-1.15c-.54-1.28,1.09-2.35,2.45-2.81a80.83,80.83,0,0,1,21.64-4.09,18.21,18.21,0,0,1-8-4.44c-2.1-2.21-3.21-5.45-2.16-8.21,1.38-3.62,6-5.34,10.06-4.82s7.64,2.76,11,5.06a26,26,0,0,1,11-16.91c1.37-.94,3.12-1.78,4.69-1.15,2.42,1,2.18,4.24,1.52,6.62a25.72,25.72,0,0,1,22-10.6,3.72,3.72,0,0,1,2.89,1.06,3,3,0,0,1,.48,1.75c.21,4.52-1.79,8.9-4.66,12.49s-6.56,6.48-10.22,9.35a56.89,56.89,0,0,1,14.21-3.33,2.48,2.48,0,0,1,1.79.29A2,2,0,0,1,615,275c.91,5.54-3.36,10.83-8.65,13.25S594.92,290.84,589,291c3.58.7,7.22,2.35,9.06,5.35s1.11,7.48-2.18,8.93a9.67,9.67,0,0,1-4.76.47,35.61,35.61,0,0,1-14-4.23,12,12,0,0,1-1.39,15.92,5.71,5.71,0,0,1-4.22,1.75,4.8,4.8,0,0,1-3.85-3.57,12.7,12.7,0,0,1,0-5.35c-1.49,4.71-4.15,10.09-9.32,10.7-1.55.18-3.4-.31-4-1.69a4.11,4.11,0,0,1,.14-2.76c.69-2.32,3.82-7.2,3-9.33C549.57,311.41,542.35,315.1,532.92,315.83Z"/><path class="cls-7" d="M122.29,121.32,107,135.84s-11.88,29.7,21.21,65.89c37.24,40.73,79.22,55.64,100.57,33.35,3.46-3.61,7.14-18.09,7.14-18.09l-113.57-97.1Z"/><path class="cls-8" d="M232.43,222.76c-13.28,14.85-48.71,4.17-79.12-23.84s-44.3-62.75-31-77.6,48.71-4.17,79.12,23.84S245.71,207.92,232.43,222.76Z"/><path class="cls-9" d="M228.66,219.5c-10.09,11.27-42.58,1.43-70.58-24.36s-42-60-31.93-71.24,45.49-.69,73.5,25.11S238.75,208.23,228.66,219.5Z"/><path class="cls-10" d="M148.8,139.48c-.42-1.55-.69-3.36.28-4.53,1.56-1.88,4.74-.57,6.82,1a41.79,41.79,0,0,1,10.7,12.19,21.81,21.81,0,0,1,1-7,2,2,0,0,1,.77-1.21c1-.56,2.18.69,2.78,1.76A69.09,69.09,0,0,1,178,159.09a13.53,13.53,0,0,1,2.57-7,6.77,6.77,0,0,1,6.69-2.48c3.3.82,5.48,4.47,5.65,7.84s-1.2,6.51-2.66,9.43a24.88,24.88,0,0,1,16.13,7.55c1,1,2,2.41,1.69,3.75-.46,2.07-3.29,2.16-5.42,1.82A23.33,23.33,0,0,1,215,197.15a2.83,2.83,0,0,1-.47,2.47,2.58,2.58,0,0,1-1.42.55c-3.83.56-7.88-.71-11.38-2.75a57.21,57.21,0,0,1-9.55-7.58,48.82,48.82,0,0,1,5,11.38,1.93,1.93,0,0,1,0,1.49,1.61,1.61,0,0,1-1,.61c-4.59,1.23-9.77-1.82-12.65-5.95s-4-9.15-5-14c-.06,3-.91,6.13-3.19,7.9s-6.23,1.56-8-1a8.09,8.09,0,0,1-1.13-3.86,27.21,27.21,0,0,1,1.5-11.82c-3.5,3.4-9.74,3.5-13.83.23a5.07,5.07,0,0,1-2.13-3.31,3.62,3.62,0,0,1,2.46-3.47,11.29,11.29,0,0,1,4.58-.44c-4.25-.82-9.26-2.54-10.57-6.73-.39-1.26-.25-2.82.84-3.42a3.7,3.7,0,0,1,2.38-.13c2.09.37,6.73,2.52,8.43,1.64C155.11,152.76,150.86,147.16,148.8,139.48Z"/><path class="cls-11" d="M449,574.67s-46.38,59.79-119.52,17.79-90.69-99.52-95.44-110.15c-10-22.36-1.61-49-1.61-49Z"/><path class="cls-12" d="M416.55,553.51c.54.35-33.05,40.4-68.12,22.46-69.44-35.52-40-92.88-40-92.88Z"/><path class="cls-13" d="M260.29,478.75c.17,16.68,12.87,30.11,21.27,44.53,1.61,2.78,3,6.49,1,9-1.48,1.81-4.3,2-6.45,1.11a14.62,14.62,0,0,1-5.25-4.56c-7.27-9-12.63-19.37-17.71-29.77-5.54-11.32-11-23.67-8.88-36.1a7.66,7.66,0,0,1,1.32-3.57c3.62-4.58,10,.32,12.26,3.81C260.84,467.84,260.24,473.45,260.29,478.75Z"/><path class="cls-11" d="M228.14,498.69s-66.68,35.77-116.42-32.34S69.34,338.54,69.32,326.9c0-24.49,18.46-45.42,18.46-45.42Z"/><path class="cls-12" d="M207.08,466.15c.34.54-46.63,23.48-71.38-7.18-49-60.69,1.21-101.13,1.21-101.13Z"/><path class="cls-13" d="M94.72,334.31c-6.62,15.31-.48,32.74,1.32,49.33.35,3.2.13,7.16-2.74,8.61-2.09,1.05-4.75.11-6.34-1.61a14.53,14.53,0,0,1-2.94-6.3c-3-11.18-3.67-22.83-4.08-34.4-.46-12.59-.39-26.08,6.57-36.59a7.73,7.73,0,0,1,2.66-2.73c5.17-2.71,9,4.37,9.65,8.47C99.66,324.57,96.83,329.44,94.72,334.31Z"/><path class="cls-5" d="M761.86,512.33a59.54,59.54,0,0,0,12.8-14.27c5.34-8.83,7.73-20.1,16.24-25.94a16.1,16.1,0,0,0,3.94-3.08c2-2.66,1.19-6.72-1.1-9.16s-5.64-3.56-8.92-4.22c-15.5-3.12-31.52,2.24-45.46,9.71s-26.72,17.09-41.15,23.57c-7.83,3.51-16.07,6.07-23.77,9.86s-15,9.07-19.23,16.54c-5.87,10.37,4,15,11.21,20.32,4.82,3.57,8.14,9.57,14.18,11.2,8.61,2.33,18.78-2.93,26.71-5.77a255,255,0,0,0,26.78-11A134.53,134.53,0,0,0,761.86,512.33Z"/><path class="cls-11" d="M533.23,550.55s44.33,61.33,118.85,21.81,94-96.41,99.09-106.88c10.74-22,3.26-48.92,3.26-48.92Z"/><path class="cls-12" d="M566.4,530.5c-.55.33,31.67,41.5,67.33,24.74,70.59-33.16,43.13-91.48,43.13-91.48Z"/><path class="cls-13" d="M725.08,461c-.73,16.67-13.87,29.67-22.75,43.79-1.71,2.73-3.24,6.39-1.29,8.94,1.42,1.86,4.22,2.18,6.4,1.33a14.47,14.47,0,0,0,5.4-4.38c7.58-8.75,13.28-18.93,18.71-29.15,5.91-11.13,11.75-23.29,10.09-35.79a7.71,7.71,0,0,0-1.2-3.61c-3.47-4.7-10,0-12.38,3.39C724.9,450.12,725.32,455.75,725.08,461Z"/><path class="cls-6" d="M139.61,482c9.14-5.86,22.61-3.52,29.22,5.1,7.93-10.76,24.54-12.83,36.11-6.13s18,20.42,18.13,33.78c18.77-6.06,38.58,7.65,49.57,24,1.82,2.72,3.58,5.61,6.31,7.43,3.3,2.2,7.47,2.47,11.4,3,33.25,4.23,62.18,31.76,68.06,64.75,1.8,10.1,1.41,21.21-4.41,29.65-4.67,6.77-12.17,10.93-19.4,14.85-8.27,4.49-16.87,9.08-26.26,9.71-26.95,1.83-44.67-27.5-69.23-38.73-20-9.14-43.23-5.59-63.26-14.34-15.6-6.81-31.17-20.67-45-30.9-11.69-8.66-19.13-17.78-23.55-31.85-5.51-17.51-3.09-50.65,24.33-42.06C127.66,500.37,130.28,488,139.61,482Z"/><path class="cls-14" d="M789.54,477.13H772.86c-2.74,61.62-131.92,95.45-368.07,95.45C176.24,572.58,41,528.1,36.72,477.13H20s-5.91,79,38.23,174.27c66.2,142.94,157.7,168.7,157.7,168.7l187,3.61,187-3.61s91.51-25.76,157.71-168.7C791.7,556.09,789.54,477.13,789.54,477.13Z"/><path class="cls-15" d="M645.61,865.94c0,24.56-105.8,44.47-236.31,44.47S173,890.5,173,865.94s105.79-44.48,236.3-44.48S645.61,841.37,645.61,865.94Z"/><path class="cls-14" d="M593.63,851.13v-33L404.78,794.34,215.93,820.1v31s-1.59,14.94,55.69,34.68c78.32,27,205.6,18.11,266.32,0C596,868.5,593.63,851.13,593.63,851.13Z"/><path class="cls-16" d="M537.8,885.81c58.06-17.31,55.69-34.68,55.69-34.68v-33l-86.58-10.89-.41.24c-9.93,6-19.47,11.39-20.22,23.74-.79,13,6.28,28.72.65,41.12-3.47,7.64-12.58,10.65-20.76,12.48-62.53,13.92-128,5.36-190.23-9.69-19.44-4.69-39.18-10.22-55.54-21.72a22.19,22.19,0,0,0-4.6-2.53v.28s-1.6,14.94,55.68,34.68C349.81,912.81,477.08,903.92,537.8,885.81Z"/><path class="cls-17" d="M112.46,598.24c-4,10.59-.61,22.42,3.37,33,10.88,29,26.12,56.28,43.37,82,12.4,18.53,27.92,37.7,49.83,41.84,7.69,1.45,16,.8,22.82-3s12-11,12.18-18.83c.19-8-4.44-15.13-8.63-21.91-10.24-16.57-18.87-34.36-23.19-53.36-2.86-12.62-3.91-26-10.39-37.22C190.71,601.61,124.94,565,112.46,598.24Z"/><path class="cls-17" d="M245,832.68a10.28,10.28,0,0,0-5.23,1.19c-3.2,2-3.59,6.81-1.76,10.11s5.23,5.39,8.58,7.14c13.89,7.22,29.33,10.91,44.74,13.7,5.91,1.08,12.22,2,17.76-.34s9.6-9.18,6.83-14.51c-2.63-5.06-9.34-6-15-6.5C282.35,841.76,263.13,832.12,245,832.68Z"/><path class="cls-16" d="M788.65,477.13H772.11c-1.54,34.53-42.77,60.33-120.3,76.35a297.53,297.53,0,0,1-31.31,96.94c-53.87,103-104.92,131.66-167.36,152.9C375.67,829.68,285,823.06,285,823.06s91,20.78,163.88,20.78C521.37,843.84,589,820.1,589,820.1s91.5-25.76,157.71-168.7C790.82,556.09,788.65,477.13,788.65,477.13Z"/><path class="cls-18" d="M789.24,471.25H772.73a45.83,45.83,0,0,1,.16,5.25c-1.88,62-131.14,96.08-368.1,96.08-229.5,0-364.9-44.85-368.13-96.08.17-1.78.39-3.53.67-5.25H20.57c-.29,1.93-.53,3.89-.7,5.88,3.38,57.43,144.9,107.7,384.78,107.7,247.69,0,382.8-38.19,384.75-107.7A52.36,52.36,0,0,0,789.24,471.25Z"/><path class="cls-19" d="M518.16,161c-11.62,0-22.76,5.93-30.58,14.52-6.13,6.73-10.56,15.16-18,20.38-9.81,6.89-23.68,7.33-31.83,16.12a25.57,25.57,0,0,0-6.26,14.34c-2,16.84,10.64,33.24,26.67,38.77s34.19,1.67,48.85-6.87c19.57-11.4,33.68-31.31,39-53.22,2-8.44,4.65-20.32.31-28.31C541,166.92,529,161,518.16,161Z"/><path class="cls-13" d="M521,168.11c-4.89-.23-9.69,2-13.35,5.23-1.62,1.45-3.05,3.1-4.67,4.55-3.83,3.44-8.74,5.85-11.51,10.19-1.16,1.82-1.87,4.15-1,6.13,1.14,2.67,4.71,3.56,7.45,2.64s4.84-3.14,6.72-5.33,3.8-4.52,6.41-5.77c3.54-1.7,7.79-1.11,11.41.4,2.24.92,4.57,2.21,6.94,1.72C541.55,185.3,528.86,168.48,521,168.11Z"/><path class="cls-20" d="M457,210.77c.63,2.42,2.75,4.16,5,5.32,4.18,2.17,9.67,2.68,13.33-.28a17.51,17.51,0,0,0,4-5.44c3.32-6.09,6.69-12.3,7.95-19.12.52-2.86,0-6.7-2.79-7.37-1.67-.39-3.33.61-4.73,1.6C473.64,189.74,454.65,201.57,457,210.77Z"/><path class="cls-19" d="M289.45,359.76c-6.22-9.8-17.17-16.07-28.6-18.1-9-1.59-18.46-.84-26.86-4.35-11.06-4.63-18.84-16.12-30.62-18.31a25.52,25.52,0,0,0-15.47,2.36c-15.32,7.28-22.43,26.74-18.54,43.25s16.84,29.8,31.88,37.63c20.09,10.46,44.46,11.77,65.83,4.57,8.23-2.77,19.66-6.92,24.1-14.85C296.61,382.24,295.25,368.9,289.45,359.76Z"/><path class="cls-13" d="M284.92,365.94c-2.42-4.26-6.85-7.14-11.56-8.49-2.09-.6-4.25-.93-6.34-1.52-4.95-1.4-9.61-4.28-14.76-4.3-2.15,0-4.5.63-5.73,2.41-1.65,2.38-.5,5.87,1.74,7.71s5.24,2.41,8.1,2.83,5.85.8,8.3,2.34c3.32,2.09,5.09,6,5.76,9.86.41,2.39.56,5.05,2.25,6.79C281.37,392.53,288.82,372.82,284.92,365.94Z"/><path class="cls-20" d="M214.71,334.67c-1.7,1.82-2.05,4.55-1.84,7,.39,4.69,2.89,9.61,7.34,11.12a17.29,17.29,0,0,0,6.73.45c6.92-.44,14-.9,20.41-3.48,2.7-1.08,5.69-3.54,4.74-6.29-.56-1.63-2.29-2.49-3.87-3.15C241.36,337.47,221.23,327.73,214.71,334.67Z"/><path class="cls-19" d="M656.84,354.45c-11.85-.8-23.68,4-32.32,11.55-6.77,5.93-11.95,13.59-19.95,18-10.55,5.81-24.73,5.24-33.72,13a23.71,23.71,0,0,0-7.5,13.11c-3.35,15.79,8.31,32.19,24.24,38.56s34.76,4,50.38-3a82.92,82.92,0,0,0,43.89-47.55c2.74-7.83,6.3-18.88,2.49-26.75C679.68,361.7,667.88,355.2,656.84,354.45Z"/><path class="cls-13" d="M659.15,361.39a20.72,20.72,0,0,0-14,4c-1.77,1.25-3.36,2.71-5.12,4-4.17,3-9.37,4.91-12.53,8.82-1.32,1.64-2.23,3.79-1.52,5.72,1,2.61,4.53,3.7,7.4,3s5.18-2.62,7.27-4.57,4.22-4,7-5c3.73-1.34,8-.48,11.6,1.19,2.22,1,4.5,2.43,7,2.12C678.85,379.12,667.18,362.31,659.15,361.39Z"/><path class="cls-20" d="M590.65,397.19c.45,2.33,2.48,4.13,4.65,5.38,4.09,2.35,9.66,3.22,13.62.69a17,17,0,0,0,4.47-4.87c3.86-5.51,7.77-11.15,9.58-17.51.76-2.67.56-6.34-2.28-7.17-1.67-.49-3.44.34-5,1.17C609.2,378.48,588.92,388.31,590.65,397.19Z"/><path class="cls-19" d="M690.89,228c-3.42,11.1-1.09,23.49,4.8,33.5,4.61,7.85,11.34,14.59,14.12,23.26,3.67,11.41,0,24.79,6,35.18a25.52,25.52,0,0,0,11.84,10.23c15.48,6.92,34.89-.3,44.93-14s11.73-32.15,7.92-48.68c-5.08-22.07-19.91-41.46-39.26-53-7.45-4.46-18-10.46-27-8.68C703.34,208,694.07,217.65,690.89,228Z"/><path class="cls-13" d="M698.53,227.42c-1.67,4.61-1,9.84,1,14.3.9,2,2,3.84,3,5.82,2.15,4.67,3,10.08,6.32,14,1.39,1.64,3.4,3,5.55,2.8,2.88-.3,4.79-3.44,4.73-6.33s-1.57-5.55-3.1-8-3.2-5-3.61-7.83c-.57-3.88,1.25-7.76,3.76-10.77,1.55-1.87,3.47-3.71,3.7-6.12C721.05,212.85,701.23,220,698.53,227.42Z"/><path class="cls-20" d="M720.32,301.12c2.5.12,4.79-1.39,6.55-3.16,3.31-3.34,5.43-8.44,3.69-12.81a17.36,17.36,0,0,0-4-5.4c-4.82-5-9.76-10-15.89-13.26-2.58-1.36-6.4-2-7.87.47-.87,1.48-.4,3.36.12,5C705.15,279,710.82,300.67,720.32,301.12Z"/><path class="cls-19" d="M471.06,430c-9.74-.25-19.23,4.54-26,11.72-5.3,5.62-9.22,12.74-15.59,17-8.39,5.67-20,5.71-27.06,13.06A22,22,0,0,0,396.84,484c-2.09,14.38,8.14,28.74,21.46,33.86s28.63,2.25,41.12-4.72c16.67-9.31,29-26,33.95-44.69,1.91-7.18,4.37-17.3.91-24.25C490.06,435.67,480.13,430.26,471.06,430Z"/><path class="cls-13" d="M473.24,436.2a15.89,15.89,0,0,0-11.31,4.17c-1.4,1.2-2.64,2.58-4,3.79-3.29,2.85-7.47,4.8-9.89,8.45a6,6,0,0,0-1,5.24c.89,2.31,3.86,3.16,6.18,2.44s4.13-2.58,5.76-4.42,3.29-3.78,5.51-4.79c3-1.37,6.56-.76,9.56.62,1.85.84,3.78,2,5.78,1.63C490.11,451.43,479.85,436.71,473.24,436.2Z"/><path class="cls-20" d="M418.65,471.24a7.73,7.73,0,0,0,4,4.68c3.45,2,8,2.53,11.18.08a15.05,15.05,0,0,0,3.46-4.57c2.93-5.14,5.9-10.38,7.11-16.2.51-2.44.2-5.74-2.16-6.38-1.4-.38-2.81.44-4,1.25C433.05,453.61,416.86,463.29,418.65,471.24Z"/><path class="cls-19" d="M382.62,199.39c2.91-9.29.9-19.73-4.14-28.19-4-6.64-9.73-12.36-12.12-19.66-3.15-9.63,0-20.83-5.13-29.61a22.08,22.08,0,0,0-10.15-8.71c-13.26-5.94-29.87,0-38.45,11.36s-10,26.91-6.73,40.83c4.37,18.59,17.08,35,33.66,44.9,6.38,3.82,15.44,8.95,23.07,7.54C372,216.12,379.9,208.05,382.62,199.39Z"/><path class="cls-13" d="M376.08,199.8a15.93,15.93,0,0,0-.91-12c-.77-1.68-1.76-3.25-2.54-4.91-1.84-4-2.57-8.5-5.42-11.83a5.92,5.92,0,0,0-4.76-2.4c-2.46.22-4.09,2.84-4,5.28s1.35,4.67,2.67,6.75,2.73,4.2,3.09,6.61c.49,3.26-1.06,6.51-3.21,9-1.32,1.55-3,3.08-3.16,5.11C356.81,211.84,373.77,206,376.08,199.8Z"/><path class="cls-20" d="M357.35,137.69a7.71,7.71,0,0,0-5.6,2.6c-2.84,2.78-4.64,7-3.15,10.72a14.87,14.87,0,0,0,3.45,4.58c4.14,4.23,8.37,8.52,13.62,11.28,2.21,1.16,5.48,1.77,6.74-.33.74-1.23.34-2.81-.11-4.19C370.36,156.38,365.48,138.15,357.35,137.69Z"/><path class="cls-21" d="M5.83,209.32c-3.5,7-2.78,15.44-.32,22.87.84,2.52,1.88,5,1.9,7.69,0,3.92-2.15,7.48-3.15,11.28-4.49,17,23.31,58.17,23.31,58.17S52.68,280,57,267.55c2.61-7.59,7.75-14.1,10.56-21.63A38.38,38.38,0,0,0,68.08,221c-3.24-10-13.43-19.34-23.47-16.11-.5.16-1,.35-1.48.55,3.36-10,6.34-20,10.76-29.63l-8-2.23-11.19,32c-3.15-1.42-6.1-4-9.4-5.24C17.94,197.57,9.32,202.32,5.83,209.32Z"/><path class="cls-21" d="M615.3,111.56c-5.42,1.24-9.75,5.59-12.75,10.47a18.86,18.86,0,0,1-3.4,4.68c-2.15,1.85-5.08,2.24-7.62,3.43-11.38,5.34-21.71,40.59-21.71,40.59s27.3.88,36.1-2.45c5.35-2,11.22-2.09,16.61-4a27.35,27.35,0,0,0,14-11.3c4.09-6.56,4.7-16.78-1.55-21.08q-.47-.31-1-.6c7-2.7,13.82-5.62,21.12-7.58l-2.34-5.69-22.61,8.43c-.62-2.47-.51-5.39-1.29-7.88C627.16,113.09,620.71,110.32,615.3,111.56Z"/><path class="cls-21" d="M401.5,69.09c4.92,2.56,8,7.86,9.7,13.34a18.86,18.86,0,0,0,2.11,5.39c1.62,2.32,4.35,3.44,6.51,5.23,9.67,8,10.79,44.75,10.79,44.75s-26.64-6-34.32-11.46c-4.66-3.31-10.33-4.85-15.08-8a27.37,27.37,0,0,1-10.7-14.46c-2.31-7.37-.32-17.41,6.81-20,.35-.13.71-.24,1.08-.35-6.08-4.36-12-8.92-18.53-12.65l3.69-4.92,19.77,13.86c1.22-2.24,1.84-5.09,3.23-7.3C389.63,67.59,396.57,66.52,401.5,69.09Z"/><path class="cls-21" d="M505.88,12.33c4.38-3.42,10.49-4.05,16.17-3.3a18.51,18.51,0,0,0,5.78.31c2.78-.5,4.94-2.53,7.46-3.75,11.32-5.47,45.2,8.72,45.2,8.72S564,36.07,555.83,40.79c-5,2.88-8.69,7.4-13.55,10.4a27.36,27.36,0,0,1-17.6,3.75C517,54,508.7,48,509.29,40.45c0-.37.09-.75.14-1.12-6.5,3.72-13.07,7.18-19.19,11.62q-1.47-2.7-2.95-5.4l20.8-12.24c-1.53-2.05-3.87-3.79-5.3-6C499.6,22.51,501.51,15.75,505.88,12.33Z"/><path class="cls-21" d="M277.69,41.26c-2.07,5.15-7.05,8.75-12.34,11a18.72,18.72,0,0,0-5.16,2.62c-2.15,1.83-3,4.67-4.58,7-7.05,10.41-43.49,15.09-43.49,15.09s3.41-27.11,8.09-35.27c2.84-5,3.81-10.75,6.52-15.79a27.3,27.3,0,0,1,13.35-12c7.12-3,17.31-2,20.58,4.84.16.33.3.68.44,1C264.86,13.19,268.82,6.9,271.89,0l5.26,3.2-11.87,21c2.35,1,5.24,1.34,7.57,2.51C278,29.3,279.76,36.1,277.69,41.26Z"/></g></g></svg>