<svg width="475" height="245" viewBox="0 0 475 245" fill="none" xmlns="http://www.w3.org/2000/svg">
<rect width="475" height="245" rx="16" fill="white"/>
<rect x="0.5" y="0.5" width="474" height="244" rx="15.5" stroke="#636E75" stroke-opacity="0.25"/>
<path d="M22.8493 220.16C22.2385 220.157 21.7129 220.007 21.2725 219.709C20.8346 219.411 20.4972 218.978 20.2605 218.413C20.0261 217.847 19.9101 217.166 19.9125 216.371C19.9125 215.578 20.0297 214.902 20.264 214.343C20.5008 213.784 20.8381 213.359 21.2761 213.068C21.7164 212.775 22.2408 212.628 22.8493 212.628C23.4577 212.628 23.9809 212.775 24.4189 213.068C24.8592 213.362 25.1977 213.788 25.4345 214.347C25.6712 214.903 25.7884 215.578 25.786 216.371C25.786 217.169 25.6677 217.85 25.4309 218.416C25.1966 218.982 24.8604 219.414 24.4224 219.712C23.9844 220.011 23.46 220.16 22.8493 220.16ZM22.8493 218.885C23.2659 218.885 23.5985 218.675 23.8471 218.256C24.0957 217.837 24.2188 217.209 24.2164 216.371C24.2164 215.819 24.1596 215.36 24.046 214.993C23.9347 214.626 23.7761 214.35 23.5701 214.165C23.3665 213.981 23.1262 213.888 22.8493 213.888C22.435 213.888 22.1035 214.096 21.8549 214.51C21.6064 214.924 21.4809 215.545 21.4785 216.371C21.4785 216.929 21.5342 217.396 21.6454 217.77C21.7591 218.142 21.9189 218.421 22.1248 218.608C22.3308 218.793 22.5723 218.885 22.8493 218.885ZM26.8825 220V218.892L29.4712 216.495C29.6914 216.282 29.8761 216.09 30.0252 215.92C30.1767 215.749 30.2915 215.582 30.3697 215.419C30.4478 215.253 30.4869 215.075 30.4869 214.883C30.4869 214.67 30.4383 214.486 30.3413 214.332C30.2442 214.176 30.1116 214.057 29.9435 213.974C29.7754 213.888 29.5849 213.846 29.3718 213.846C29.1493 213.846 28.9551 213.891 28.7894 213.981C28.6237 214.071 28.4959 214.2 28.4059 214.368C28.3159 214.536 28.271 214.736 28.271 214.968H26.8114C26.8114 214.492 26.9192 214.079 27.1346 213.729C27.35 213.378 27.6519 213.107 28.0401 212.915C28.4284 212.724 28.8758 212.628 29.3825 212.628C29.9033 212.628 30.3567 212.72 30.7425 212.905C31.1308 213.087 31.4326 213.34 31.6481 213.665C31.8635 213.989 31.9712 214.361 31.9712 214.78C31.9712 215.054 31.9168 215.326 31.8079 215.593C31.7013 215.861 31.5108 216.158 31.2362 216.484C30.9615 216.809 30.5745 217.198 30.0749 217.653L29.0131 218.693V218.743H32.0671V220H26.8825Z" fill="#5F5C5C"/>
<path d="M75.7028 220.16C75.092 220.157 74.5664 220.007 74.1261 219.709C73.6881 219.411 73.3507 218.978 73.114 218.413C72.8796 217.847 72.7636 217.166 72.766 216.371C72.766 215.578 72.8832 214.902 73.1175 214.343C73.3543 213.784 73.6916 213.359 74.1296 213.068C74.57 212.775 75.0943 212.628 75.7028 212.628C76.3112 212.628 76.8344 212.775 77.2724 213.068C77.7127 213.362 78.0513 213.788 78.288 214.347C78.5247 214.903 78.6419 215.578 78.6396 216.371C78.6396 217.169 78.5212 217.85 78.2844 218.416C78.0501 218.982 77.7139 219.414 77.2759 219.712C76.8379 220.011 76.3136 220.16 75.7028 220.16ZM75.7028 218.885C76.1194 218.885 76.4521 218.675 76.7006 218.256C76.9492 217.837 77.0723 217.209 77.07 216.371C77.07 215.819 77.0131 215.36 76.8995 214.993C76.7882 214.626 76.6296 214.35 76.4237 214.165C76.2201 213.981 75.9798 213.888 75.7028 213.888C75.2885 213.888 74.957 214.096 74.7085 214.51C74.4599 214.924 74.3344 215.545 74.332 216.371C74.332 216.929 74.3877 217.396 74.4989 217.77C74.6126 218.142 74.7724 218.421 74.9783 218.608C75.1843 218.793 75.4258 218.885 75.7028 218.885ZM82.4242 220.099C81.8939 220.099 81.4216 220.008 81.0073 219.826C80.5953 219.641 80.2698 219.388 80.0307 219.066C79.794 218.742 79.6721 218.368 79.665 217.944H81.2132C81.2227 218.121 81.2807 218.278 81.3873 218.413C81.4962 218.545 81.6406 218.648 81.8205 218.722C82.0004 218.795 82.2028 218.832 82.4277 218.832C82.6621 218.832 82.8693 218.79 83.0492 218.707C83.2291 218.625 83.37 218.51 83.4718 218.363C83.5736 218.216 83.6245 218.047 83.6245 217.855C83.6245 217.661 83.57 217.489 83.4611 217.34C83.3546 217.189 83.2007 217.07 82.9995 216.985C82.8006 216.9 82.5639 216.857 82.2892 216.857H81.611V215.728H82.2892C82.5212 215.728 82.726 215.688 82.9036 215.607C83.0835 215.527 83.2232 215.415 83.3226 215.273C83.4221 215.129 83.4718 214.961 83.4718 214.769C83.4718 214.587 83.428 214.427 83.3404 214.29C83.2551 214.15 83.1344 214.041 82.9782 213.963C82.8243 213.885 82.6444 213.846 82.4384 213.846C82.2301 213.846 82.0395 213.884 81.8667 213.96C81.6938 214.033 81.5553 214.138 81.4512 214.276C81.347 214.413 81.2914 214.574 81.2843 214.759H79.8105C79.8176 214.339 79.9372 213.97 80.1692 213.651C80.4012 213.331 80.7137 213.081 81.1067 212.901C81.5021 212.719 81.9483 212.628 82.4455 212.628C82.9474 212.628 83.3865 212.719 83.763 212.901C84.1394 213.084 84.4318 213.33 84.6401 213.64C84.8508 213.948 84.955 214.293 84.9526 214.677C84.955 215.084 84.8283 215.424 84.5726 215.696C84.3193 215.968 83.9891 216.141 83.5819 216.214V216.271C84.1169 216.34 84.5241 216.526 84.8034 216.829C85.0852 217.129 85.2248 217.506 85.2225 217.958C85.2248 218.372 85.1053 218.741 84.8638 219.062C84.6247 219.384 84.2944 219.638 83.873 219.822C83.4516 220.007 82.9687 220.099 82.4242 220.099Z" fill="#5F5C5C"/>
<path d="M128.61 220.16C127.999 220.157 127.474 220.007 127.033 219.709C126.595 219.411 126.258 218.978 126.021 218.413C125.787 217.847 125.671 217.166 125.673 216.371C125.673 215.578 125.79 214.902 126.025 214.343C126.262 213.784 126.599 213.359 127.037 213.068C127.477 212.775 128.002 212.628 128.61 212.628C129.218 212.628 129.742 212.775 130.18 213.068C130.62 213.362 130.958 213.788 131.195 214.347C131.432 214.903 131.549 215.578 131.547 216.371C131.547 217.169 131.428 217.85 131.192 218.416C130.957 218.982 130.621 219.414 130.183 219.712C129.745 220.011 129.221 220.16 128.61 220.16ZM128.61 218.885C129.027 218.885 129.359 218.675 129.608 218.256C129.856 217.837 129.98 217.209 129.977 216.371C129.977 215.819 129.92 215.36 129.807 214.993C129.695 214.626 129.537 214.35 129.331 214.165C129.127 213.981 128.887 213.888 128.61 213.888C128.196 213.888 127.864 214.096 127.616 214.51C127.367 214.924 127.242 215.545 127.239 216.371C127.239 216.929 127.295 217.396 127.406 217.77C127.52 218.142 127.68 218.421 127.886 218.608C128.092 218.793 128.333 218.885 128.61 218.885ZM132.533 218.722V217.511L135.569 212.727H136.613V214.403H135.995L134.081 217.433V217.489H138.396V218.722H132.533ZM136.024 220V218.352L136.052 217.816V212.727H137.494V220H136.024Z" fill="#5F5C5C"/>
<path d="M181.776 220.16C181.165 220.157 180.64 220.007 180.199 219.709C179.761 219.411 179.424 218.978 179.187 218.413C178.953 217.847 178.837 217.166 178.839 216.371C178.839 215.578 178.956 214.902 179.191 214.343C179.428 213.784 179.765 213.359 180.203 213.068C180.643 212.775 181.168 212.628 181.776 212.628C182.384 212.628 182.908 212.775 183.346 213.068C183.786 213.362 184.124 213.788 184.361 214.347C184.598 214.903 184.715 215.578 184.713 216.371C184.713 217.169 184.594 217.85 184.358 218.416C184.123 218.982 183.787 219.414 183.349 219.712C182.911 220.011 182.387 220.16 181.776 220.16ZM181.776 218.885C182.193 218.885 182.525 218.675 182.774 218.256C183.022 217.837 183.146 217.209 183.143 216.371C183.143 215.819 183.086 215.36 182.973 214.993C182.861 214.626 182.703 214.35 182.497 214.165C182.293 213.981 182.053 213.888 181.776 213.888C181.362 213.888 181.03 214.096 180.782 214.51C180.533 214.924 180.408 215.545 180.405 216.371C180.405 216.929 180.461 217.396 180.572 217.77C180.686 218.142 180.846 218.421 181.052 218.608C181.258 218.793 181.499 218.885 181.776 218.885ZM188.465 220.099C187.964 220.099 187.516 220.007 187.123 219.822C186.733 219.638 186.422 219.383 186.193 219.059C185.963 218.735 185.844 218.363 185.834 217.944H187.326C187.342 218.226 187.46 218.454 187.681 218.629C187.901 218.804 188.162 218.892 188.465 218.892C188.707 218.892 188.92 218.839 189.105 218.732C189.292 218.623 189.437 218.473 189.541 218.281C189.648 218.087 189.701 217.865 189.701 217.614C189.701 217.358 189.647 217.133 189.538 216.939C189.431 216.745 189.283 216.593 189.094 216.484C188.905 216.375 188.688 216.32 188.444 216.317C188.231 216.317 188.024 216.361 187.823 216.449C187.624 216.536 187.469 216.656 187.358 216.808L185.99 216.562L186.335 212.727H190.781V213.984H187.603L187.414 215.806H187.457C187.585 215.626 187.778 215.477 188.036 215.359C188.294 215.24 188.583 215.181 188.902 215.181C189.34 215.181 189.731 215.284 190.074 215.49C190.417 215.696 190.688 215.979 190.887 216.339C191.086 216.696 191.184 217.108 191.182 217.575C191.184 218.065 191.071 218.5 190.841 218.881C190.614 219.26 190.295 219.558 189.886 219.776C189.479 219.992 189.005 220.099 188.465 220.099Z" fill="#5F5C5C"/>
<path d="M234.698 220.16C234.087 220.157 233.562 220.007 233.121 219.709C232.683 219.411 232.346 218.978 232.109 218.413C231.875 217.847 231.759 217.166 231.761 216.371C231.761 215.578 231.878 214.902 232.113 214.343C232.349 213.784 232.687 213.359 233.125 213.068C233.565 212.775 234.089 212.628 234.698 212.628C235.306 212.628 235.83 212.775 236.267 213.068C236.708 213.362 237.046 213.788 237.283 214.347C237.52 214.903 237.637 215.578 237.635 216.371C237.635 217.169 237.516 217.85 237.28 218.416C237.045 218.982 236.709 219.414 236.271 219.712C235.833 220.011 235.309 220.16 234.698 220.16ZM234.698 218.885C235.115 218.885 235.447 218.675 235.696 218.256C235.944 217.837 236.067 217.209 236.065 216.371C236.065 215.819 236.008 215.36 235.895 214.993C235.783 214.626 235.625 214.35 235.419 214.165C235.215 213.981 234.975 213.888 234.698 213.888C234.284 213.888 233.952 214.096 233.704 214.51C233.455 214.924 233.33 215.545 233.327 216.371C233.327 216.929 233.383 217.396 233.494 217.77C233.608 218.142 233.767 218.421 233.973 218.608C234.179 218.793 234.421 218.885 234.698 218.885ZM241.522 220.099C241.148 220.097 240.787 220.034 240.439 219.911C240.094 219.788 239.783 219.588 239.509 219.311C239.234 219.034 239.016 218.667 238.855 218.21C238.697 217.753 238.617 217.192 238.617 216.527C238.62 215.916 238.69 215.371 238.827 214.89C238.967 214.407 239.166 213.997 239.424 213.661C239.684 213.325 239.995 213.069 240.358 212.894C240.72 212.717 241.126 212.628 241.576 212.628C242.061 212.628 242.489 212.723 242.861 212.912C243.233 213.099 243.531 213.353 243.756 213.675C243.983 213.997 244.121 214.358 244.168 214.759H242.652C242.592 214.505 242.468 214.306 242.279 214.162C242.089 214.018 241.855 213.945 241.576 213.945C241.102 213.945 240.742 214.151 240.496 214.563C240.252 214.975 240.128 215.535 240.123 216.243H240.173C240.282 216.027 240.429 215.844 240.613 215.692C240.8 215.539 241.012 215.421 241.249 215.341C241.488 215.258 241.74 215.217 242.005 215.217C242.436 215.217 242.82 215.318 243.156 215.522C243.492 215.723 243.757 216 243.951 216.353C244.145 216.706 244.242 217.109 244.242 217.564C244.242 218.056 244.128 218.494 243.898 218.878C243.671 219.261 243.352 219.562 242.943 219.78C242.536 219.995 242.062 220.102 241.522 220.099ZM241.515 218.892C241.752 218.892 241.964 218.835 242.151 218.722C242.338 218.608 242.485 218.454 242.591 218.26C242.698 218.066 242.751 217.848 242.751 217.607C242.751 217.365 242.698 217.148 242.591 216.957C242.487 216.765 242.343 216.612 242.158 216.499C241.973 216.385 241.763 216.328 241.526 216.328C241.348 216.328 241.184 216.361 241.032 216.428C240.883 216.494 240.752 216.586 240.638 216.705C240.527 216.823 240.439 216.96 240.375 217.116C240.311 217.27 240.279 217.435 240.279 217.61C240.279 217.844 240.333 218.059 240.439 218.253C240.548 218.447 240.695 218.602 240.88 218.718C241.067 218.834 241.278 218.892 241.515 218.892Z" fill="#5F5C5C"/>
<path d="M288.623 220.16C288.012 220.157 287.486 220.007 287.046 219.709C286.608 219.411 286.271 218.978 286.034 218.413C285.8 217.847 285.684 217.166 285.686 216.371C285.686 215.578 285.803 214.902 286.037 214.343C286.274 213.784 286.612 213.359 287.05 213.068C287.49 212.775 288.014 212.628 288.623 212.628C289.231 212.628 289.754 212.775 290.192 213.068C290.633 213.362 290.971 213.788 291.208 214.347C291.445 214.903 291.562 215.578 291.559 216.371C291.559 217.169 291.441 217.85 291.204 218.416C290.97 218.982 290.634 219.414 290.196 219.712C289.758 220.011 289.233 220.16 288.623 220.16ZM288.623 218.885C289.039 218.885 289.372 218.675 289.621 218.256C289.869 217.837 289.992 217.209 289.99 216.371C289.99 215.819 289.933 215.36 289.819 214.993C289.708 214.626 289.55 214.35 289.344 214.165C289.14 213.981 288.9 213.888 288.623 213.888C288.208 213.888 287.877 214.096 287.628 214.51C287.38 214.924 287.254 215.545 287.252 216.371C287.252 216.929 287.308 217.396 287.419 217.77C287.532 218.142 287.692 218.421 287.898 218.608C288.104 218.793 288.346 218.885 288.623 218.885ZM292.748 220L295.763 214.034V213.984H292.251V212.727H297.354V214.002L294.336 220H292.748Z" fill="#5F5C5C"/>
<path d="M340.693 220.16C340.082 220.157 339.557 220.007 339.116 219.709C338.678 219.411 338.341 218.978 338.104 218.413C337.87 217.847 337.754 217.166 337.756 216.371C337.756 215.578 337.873 214.902 338.108 214.343C338.345 213.784 338.682 213.359 339.12 213.068C339.56 212.775 340.085 212.628 340.693 212.628C341.301 212.628 341.825 212.775 342.263 213.068C342.703 213.362 343.041 213.788 343.278 214.347C343.515 214.903 343.632 215.578 343.63 216.371C343.63 217.169 343.511 217.85 343.275 218.416C343.04 218.982 342.704 219.414 342.266 219.712C341.828 220.011 341.304 220.16 340.693 220.16ZM340.693 218.885C341.11 218.885 341.442 218.675 341.691 218.256C341.939 217.837 342.063 217.209 342.06 216.371C342.06 215.819 342.003 215.36 341.89 214.993C341.778 214.626 341.62 214.35 341.414 214.165C341.21 213.981 340.97 213.888 340.693 213.888C340.279 213.888 339.947 214.096 339.699 214.51C339.45 214.924 339.325 215.545 339.322 216.371C339.322 216.929 339.378 217.396 339.489 217.77C339.603 218.142 339.763 218.421 339.969 218.608C340.175 218.793 340.416 218.885 340.693 218.885ZM347.439 220.099C346.892 220.099 346.406 220.011 345.98 219.833C345.556 219.653 345.223 219.408 344.982 219.098C344.74 218.788 344.62 218.436 344.62 218.043C344.62 217.74 344.688 217.462 344.826 217.209C344.965 216.953 345.155 216.741 345.394 216.573C345.633 216.403 345.9 216.294 346.196 216.246V216.197C345.808 216.119 345.493 215.93 345.252 215.632C345.01 215.331 344.89 214.982 344.89 214.585C344.89 214.208 345 213.873 345.22 213.58C345.44 213.284 345.742 213.052 346.125 212.884C346.511 212.713 346.949 212.628 347.439 212.628C347.929 212.628 348.366 212.713 348.75 212.884C349.136 213.054 349.439 213.287 349.659 213.583C349.879 213.877 349.99 214.21 349.993 214.585C349.99 214.985 349.867 215.334 349.623 215.632C349.379 215.93 349.067 216.119 348.686 216.197V216.246C348.977 216.294 349.241 216.403 349.478 216.573C349.717 216.741 349.906 216.953 350.046 217.209C350.188 217.462 350.26 217.74 350.262 218.043C350.26 218.436 350.138 218.788 349.897 219.098C349.655 219.408 349.321 219.653 348.895 219.833C348.471 220.011 347.986 220.099 347.439 220.099ZM347.439 218.97C347.683 218.97 347.896 218.926 348.078 218.839C348.261 218.749 348.403 218.626 348.505 218.469C348.609 218.311 348.661 218.129 348.661 217.923C348.661 217.712 348.608 217.526 348.501 217.365C348.395 217.202 348.25 217.074 348.068 216.982C347.886 216.887 347.676 216.839 347.439 216.839C347.205 216.839 346.995 216.887 346.811 216.982C346.626 217.074 346.48 217.202 346.374 217.365C346.27 217.526 346.218 217.712 346.218 217.923C346.218 218.129 346.269 218.311 346.37 218.469C346.472 218.626 346.615 218.749 346.8 218.839C346.985 218.926 347.198 218.97 347.439 218.97ZM347.439 215.721C347.643 215.721 347.824 215.679 347.983 215.597C348.141 215.514 348.266 215.399 348.355 215.252C348.445 215.105 348.49 214.936 348.49 214.744C348.49 214.555 348.445 214.389 348.355 214.247C348.266 214.103 348.142 213.99 347.986 213.91C347.83 213.827 347.648 213.786 347.439 213.786C347.233 213.786 347.051 213.827 346.892 213.91C346.734 213.99 346.609 214.103 346.52 214.247C346.432 214.389 346.388 214.555 346.388 214.744C346.388 214.936 346.433 215.105 346.523 215.252C346.613 215.399 346.737 215.514 346.896 215.597C347.055 215.679 347.236 215.721 347.439 215.721Z" fill="#5F5C5C"/>
<path d="M447.865 212.727V220H446.327V214.187H446.285L444.619 215.231V213.867L446.42 212.727H447.865ZM452.445 220.16C451.834 220.157 451.309 220.007 450.868 219.709C450.43 219.411 450.093 218.978 449.856 218.413C449.622 217.847 449.506 217.166 449.508 216.371C449.508 215.578 449.625 214.902 449.86 214.343C450.096 213.784 450.434 213.359 450.872 213.068C451.312 212.775 451.837 212.628 452.445 212.628C453.053 212.628 453.577 212.775 454.015 213.068C454.455 213.362 454.793 213.788 455.03 214.347C455.267 214.903 455.384 215.578 455.382 216.371C455.382 217.169 455.263 217.85 455.027 218.416C454.792 218.982 454.456 219.414 454.018 219.712C453.58 220.011 453.056 220.16 452.445 220.16ZM452.445 218.885C452.862 218.885 453.194 218.675 453.443 218.256C453.691 217.837 453.815 217.209 453.812 216.371C453.812 215.819 453.755 215.36 453.642 214.993C453.53 214.626 453.372 214.35 453.166 214.165C452.962 213.981 452.722 213.888 452.445 213.888C452.031 213.888 451.699 214.096 451.451 214.51C451.202 214.924 451.077 215.545 451.074 216.371C451.074 216.929 451.13 217.396 451.241 217.77C451.355 218.142 451.515 218.421 451.721 218.608C451.926 218.793 452.168 218.885 452.445 218.885Z" fill="#5F5C5C"/>
<path d="M393.698 220.16C393.087 220.157 392.562 220.007 392.121 219.709C391.683 219.411 391.346 218.978 391.109 218.413C390.875 217.847 390.759 217.166 390.761 216.371C390.761 215.578 390.878 214.902 391.113 214.343C391.349 213.784 391.687 213.359 392.125 213.068C392.565 212.775 393.089 212.628 393.698 212.628C394.306 212.628 394.83 212.775 395.267 213.068C395.708 213.362 396.046 213.788 396.283 214.347C396.52 214.903 396.637 215.578 396.635 216.371C396.635 217.169 396.516 217.85 396.28 218.416C396.045 218.982 395.709 219.414 395.271 219.712C394.833 220.011 394.309 220.16 393.698 220.16ZM393.698 218.885C394.115 218.885 394.447 218.675 394.696 218.256C394.944 217.837 395.067 217.209 395.065 216.371C395.065 215.819 395.008 215.36 394.895 214.993C394.783 214.626 394.625 214.35 394.419 214.165C394.215 213.981 393.975 213.888 393.698 213.888C393.284 213.888 392.952 214.096 392.704 214.51C392.455 214.924 392.33 215.545 392.327 216.371C392.327 216.929 392.383 217.396 392.494 217.77C392.608 218.142 392.767 218.421 392.973 218.608C393.179 218.793 393.421 218.885 393.698 218.885ZM400.362 212.628C400.737 212.628 401.096 212.691 401.442 212.816C401.79 212.942 402.1 213.142 402.372 213.416C402.647 213.691 402.864 214.055 403.022 214.51C403.183 214.962 403.265 215.517 403.267 216.175C403.267 216.793 403.197 217.345 403.058 217.83C402.92 218.313 402.723 218.724 402.465 219.062C402.207 219.401 401.895 219.659 401.531 219.837C401.166 220.012 400.759 220.099 400.309 220.099C399.824 220.099 399.395 220.006 399.024 219.819C398.652 219.629 398.353 219.373 398.125 219.048C397.9 218.722 397.764 218.355 397.717 217.947H399.233C399.292 218.213 399.417 218.419 399.606 218.565C399.795 218.71 400.03 218.782 400.309 218.782C400.783 218.782 401.143 218.576 401.389 218.164C401.635 217.75 401.759 217.183 401.762 216.463H401.712C401.603 216.676 401.456 216.86 401.272 217.013C401.087 217.165 400.875 217.282 400.636 217.365C400.399 217.448 400.147 217.489 399.88 217.489C399.451 217.489 399.069 217.389 398.733 217.188C398.396 216.986 398.131 216.709 397.937 216.357C397.743 216.004 397.646 215.601 397.646 215.149C397.643 214.661 397.756 214.227 397.983 213.846C398.21 213.465 398.528 213.166 398.935 212.951C399.344 212.733 399.82 212.625 400.362 212.628ZM400.373 213.835C400.134 213.835 399.921 213.892 399.734 214.006C399.549 214.119 399.402 214.272 399.294 214.464C399.187 214.656 399.135 214.87 399.137 215.107C399.137 215.346 399.189 215.561 399.294 215.753C399.4 215.942 399.545 216.094 399.727 216.207C399.911 216.319 400.122 216.374 400.359 216.374C400.536 216.374 400.701 216.341 400.853 216.275C401.004 216.209 401.135 216.117 401.247 216.001C401.36 215.883 401.449 215.747 401.513 215.593C401.577 215.439 401.609 215.276 401.609 215.103C401.607 214.873 401.552 214.663 401.446 214.471C401.339 214.279 401.192 214.125 401.005 214.009C400.818 213.893 400.608 213.835 400.373 213.835Z" fill="#5F5C5C"/>
<path d="M20 133.868H38.2984C42.0883 133.868 45.6897 135.521 48.1605 138.395L48.5547 138.854C50.7753 141.436 54.012 142.922 57.4181 142.922V142.922C60.7087 142.922 63.8468 141.535 66.0619 139.102L68.1826 136.772C69.9263 134.857 72.0466 133.322 74.4109 132.264L83.1895 128.335L91.0346 126.037C94.8252 124.927 98.8938 125.272 102.443 127.005V127.005C104.244 127.884 105.861 129.096 107.21 130.578L108.641 132.15C109.681 133.293 110.609 134.533 111.411 135.855L115.7 142.922L117.851 146.466C120.024 150.047 123.276 152.847 127.14 154.464V154.464C129.563 155.478 132.163 156 134.789 156H136.061C138.331 156 140.571 155.482 142.61 154.487V154.487C145.921 152.87 148.517 150.087 149.899 146.671L149.999 146.423C150.93 144.122 152.396 142.076 154.275 140.455L156.474 138.557C157.374 137.779 158.216 136.936 158.991 136.034L162.222 132.276C164.453 129.682 167.236 127.621 170.369 126.245L172.208 125.436C173.897 124.694 175.721 124.311 177.565 124.311V124.311C180.781 124.311 183.888 123.148 186.313 121.035L189.89 117.919C193.721 114.581 198.631 112.743 203.712 112.743V112.743C207.254 112.743 210.738 113.636 213.842 115.341L216.886 117.013C219.595 118.501 222.637 119.281 225.728 119.281V119.281C228.65 119.281 231.529 118.585 234.127 117.249L241.524 113.445C247.708 110.265 255.186 111.028 260.601 115.39V115.39C263.727 117.908 267.62 119.281 271.635 119.281H283.212C286.285 119.281 289.328 118.668 292.162 117.478L297.142 115.386C301.08 113.732 305.581 114.134 309.163 116.46V116.46C311.953 118.271 315.334 118.934 318.602 118.312L342.68 113.727C346.088 113.079 349.315 111.699 352.138 109.683L366.168 99.6647L382.609 90.2583C386.238 88.182 390.347 87.0898 394.528 87.0898H397.212C400.298 87.0898 403.355 86.4947 406.215 85.337L419.284 80.0479L437.267 73.4633C439.91 72.4953 442.704 72 445.519 72H455" stroke="#A47B75" stroke-width="4" stroke-linecap="round"/>
</svg>
